<?xml version="1.0" encoding="utf-8"?>
<!-- Generator: Adobe Illustrator 21.1.0, SVG Export Plug-In . SVG Version: 6.00 Build 0)  -->
<svg version="1.1" xmlns="http://www.w3.org/2000/svg" xmlns:xlink="http://www.w3.org/1999/xlink" x="0px" y="0px"
	 viewBox="0 0 841.9 595.3" style="enable-background:new 0 0 841.9 595.3;" xml:space="preserve">
<style type="text/css">
	.st0{display:none;}
	.st1{display:inline;}
	.st2{fill:none;}
	.st3{font-family:'LucidaGrande';}
	.st4{font-size:20px;}
	.st5{font-family:'Monaco';}
</style>
<g id="Laag_1">
	<g class="st0">
		<path class="st1" d="M272.7,725.6l-8.9-22.8h-34.8l-9.1,22.8H209l32.6-82.2h11.6l32.1,82.2H272.7z M260.3,694.2l-14-35.5
			l-14.1,35.5H260.3z"/>
		<path class="st1" d="M316.7,725.6v-73.5h-29.2v-8.7h70v8.7h-29.2v73.5H316.7z"/>
		<path class="st1" d="M369.1,725.6v-82.2h27.3c8.1,0,14.7,0.9,19.8,2.7c5,1.8,9.4,4.9,13,9.2c5.8,6.9,8.7,16,8.7,27.2
			c0,13.7-3.6,24.3-10.8,31.8c-7.2,7.5-17.4,11.3-30.5,11.3H369.1z M380.8,716.9h14.9c10.7,0,18.2-2.9,22.7-8.6
			c4.8-6.1,7.2-14.3,7.2-24.6c0-9.7-2.4-17.3-7.1-22.8c-2.9-3.4-6.3-5.7-10.2-6.9c-4-1.2-9.9-1.9-17.9-1.9h-9.6V716.9z"/>
		<path class="st1" d="M454.3,725.6v-82.2H466v82.2H454.3z"/>
		<path class="st1" d="M487.1,725.6v-82.2h21.3c8.2,0,14.5,1.6,18.9,4.7c4.4,3.1,6.6,7.6,6.6,13.4c0,10-5.6,17.1-16.9,21.3
			c13.4,4.1,20.2,11.5,20.2,22.3c0,6.7-2.2,11.8-6.7,15.3c-4.4,3.5-10.9,5.3-19.2,5.3H487.1z M498.7,679.5h3.7c6.2,0,11-1.3,14.5-4
			c3.4-2.7,5.1-6.4,5.1-11.3c0-8.1-6.3-12.1-18.8-12.1h-4.6V679.5z M498.7,716.9h2.4c8.6,0,14.1-0.5,16.6-1.6
			c4.8-2,7.2-5.8,7.2-11.3c0-4.9-2.2-9-6.6-12.2c-4.4-3.2-9.8-4.9-16.4-4.9h-3.3V716.9z"/>
		<path class="st1" d="M585.7,727.7c-11.4,0-20.6-4-27.5-11.9c-6.9-7.9-10.4-18.4-10.4-31.4c0-13.1,3.5-23.5,10.5-31.4
			c7-7.8,16.3-11.8,28-11.8c11.6,0,20.9,3.9,27.9,11.7c7,7.8,10.5,18.2,10.5,31.3c0,13.3-3.5,23.8-10.5,31.6
			S597.7,727.7,585.7,727.7z M585.9,719c8.4,0,14.9-3,19.5-9.1c4.6-6.1,6.9-14.6,6.9-25.6c0-10.7-2.3-19.1-6.9-25.1
			c-4.6-6-11-9.1-19.1-9.1c-8.2,0-14.6,3-19.2,9.1c-4.6,6.1-6.9,14.5-6.9,25.3c0,10.7,2.3,19.2,6.8,25.3
			C571.6,715.9,577.9,719,585.9,719z"/>
		<g class="st1">
			<path d="M649.2,824.8V616h49.5c22.8,0,39.7,4,50.8,11.9c11.1,7.9,19.4,19.9,25,36c5.6,16.1,8.3,35.1,8.3,57
				c0,20.8-2.9,39.1-8.8,54.8c-5.9,15.7-14.2,27.8-25,36.3c-10.8,8.5-27.5,12.7-50.3,12.7H649.2z M676.3,801.8h18.1
				c18.4,0,31.4-3.3,39.3-9.8c7.8-6.6,13.4-15.6,16.8-27.3c3.4-11.6,5-27.7,5-48.1c0-20-2-35.4-5.9-46.2c-3.9-10.8-9.6-19-16.9-24.8
				c-7.3-5.8-19.4-8.7-36.1-8.7h-20.3V801.8z"/>
		</g>
	</g>
	<g>
		<path d="M414.1,63.8l25.5,64.9h99.2l25.8-64.9h30.8L502.5,298h-32.9L378.2,63.8H414.1z M449.2,153.4l39.9,100.9l40-100.9H449.2z"
			/>
		<path d="M650.7,242.4l-16.6-42.3h-64.7l-16.8,42.3h-20.1L593,89.6h21.5l59.7,152.8H650.7z M627.8,184l-26-65.9L575.7,184H627.8z"
			/>
		<path d="M268.3,209.8H142.8v-32.6c0-12.5,2.4-22.2,7.1-28.9c4.7-6.7,11.6-10,20.5-10c15.2,0,26,8.6,32.5,25.8
			c6.3-20.5,17.6-30.8,34-30.8c10.2,0,17.9,3.4,23.3,10.2c5.4,6.8,8.1,16.6,8.1,29.3V209.8z M197.9,192.1v-5.7
			c0-9.5-2-16.9-6.1-22.1c-4.1-5.2-9.8-7.8-17.2-7.8c-12.3,0-18.5,9.6-18.5,28.7v7H197.9z M255,192.1v-3.6c0-13.1-0.8-21.5-2.5-25.3
			c-3.1-7.3-8.9-11-17.3-11c-7.5,0-13.7,3.3-18.6,10c-4.9,6.7-7.4,15-7.4,25v5H255z"/>
		<g>
			<polygon class="st2" points="341,184 393.1,184 367.1,118.1 			"/>
			<path d="M379.8,89.6h-21.5l-60.6,152.8h20.1l16.8-42.3h64.7l16.6,42.3h23.4L379.8,89.6z M341,184l26.1-65.9l26,65.9H341z"/>
			<polygon points="320,171.5 274.4,171.5 274.4,196.7 310,196.7 			"/>
		</g>
		<g>
			<rect x="99.3" y="197.4" width="39.1" height="11.7"/>
		</g>
		<path d="M329.5,241.9c0-9.9,3.4-17.9,10.3-23.9c6.9-6,16-9.1,27.3-9.1c11.4,0,20.4,3,27.3,9.1c6.8,6.1,10.2,14.2,10.2,24.3
			c0,10.1-3.4,18.2-10.2,24.3c-6.8,6.1-15.9,9.1-27.2,9.1c-11.6,0-20.7-3-27.5-9.1C332.9,260.6,329.5,252.3,329.5,241.9z
			 M337.1,242.1c0,7.3,2.6,13,7.9,16.9c5.3,4,12.7,6,22.3,6c9.3,0,16.6-2,21.8-6c5.2-4,7.9-9.6,7.9-16.6c0-7.1-2.6-12.7-7.9-16.7
			c-5.3-4-12.6-6-21.9-6c-9.3,0-16.7,2-22,5.9C339.8,229.6,337.1,235.1,337.1,242.1z"/>
		<path d="M564.7,241.9c0-9.9,3.4-17.9,10.3-23.9c6.9-6,16-9.1,27.3-9.1c11.4,0,20.4,3,27.3,9.1c6.8,6.1,10.2,14.2,10.2,24.3
			c0,10.1-3.4,18.2-10.2,24.3c-6.8,6.1-15.9,9.1-27.2,9.1c-11.6,0-20.7-3-27.5-9.1C568.1,260.6,564.7,252.3,564.7,241.9z
			 M572.3,242.1c0,7.3,2.6,13,7.9,16.9c5.3,4,12.7,6,22.3,6c9.3,0,16.6-2,21.8-6c5.2-4,7.9-9.6,7.9-16.6c0-7.1-2.6-12.7-7.9-16.7
			c-5.3-4-12.6-6-21.9-6c-9.3,0-16.7,2-22,5.9C574.9,229.6,572.3,235.1,572.3,242.1z"/>
		<g>
			<path d="M438.5,63.8h105.9v23c0,10.6-2,18.4-6,23.6c-4,5.1-10.1,9-18.3,11.6c-8.1,2.6-17.8,3.9-28.9,3.9
				c-10.6,0-19.8-1.4-27.8-4.1c-8-2.7-14.1-6.6-18.4-11.6c-4.3-5-6.4-12.8-6.4-23.3V63.8z M450.2,76.4v8.4c0,8.5,1.7,14.6,5,18.2
				c3.3,3.6,7.9,6.2,13.8,7.8c5.9,1.6,14,2.3,24.4,2.3c10.2,0,18-0.9,23.4-2.7s9.7-4.4,12.6-7.8c2.9-3.4,4.4-9,4.4-16.8v-9.4H450.2z
				"/>
		</g>
		<g>
			<rect x="603" y="282" transform="matrix(0.9881 -0.1536 0.1536 0.9881 -43.8786 98.9893)" width="31.1" height="102.8"/>
		</g>
		<path d="M647.7,401.4c0.9,4.9,0,9.1-2.8,12.7c-2.8,3.6-7,6-12.5,7c-5.6,1.1-10.3,0.5-14.2-1.9c-3.9-2.3-6.4-6-7.3-11
			c-1-5-0.1-9.3,2.7-12.9c2.8-3.6,6.9-6,12.5-7.1c5.7-1.1,10.5-0.5,14.4,1.9C644.3,392.6,646.7,396.3,647.7,401.4z M644,402.1
			c-0.7-3.6-2.5-6.1-5.5-7.6c-3-1.5-6.8-1.7-11.5-0.8c-4.6,0.9-7.9,2.6-10.1,5c-2.2,2.5-3,5.4-2.3,8.9c0.7,3.5,2.5,6,5.5,7.4
			c3,1.5,6.7,1.7,11.3,0.9c4.6-0.9,8-2.6,10.2-5C643.9,408.4,644.7,405.5,644,402.1z"/>
		<g>
			<polygon points="649.5,420.6 619.4,429.2 635.8,491.4 665.9,482.9 			"/>
		</g>
		<g>
			<path class="st2" d="M672.6,502.7c-3.5-1-8.4-1.5-14.6-1.5c-6.1,0-10.7,0.6-14,1.8c-3.3,1.2-5.8,2.9-7.5,5.1
				c-1.8,2.2-2.6,5.9-2.6,11v6.1h50v-5.5c0-5.6-1-9.5-3-11.9C678.8,505.4,676.1,503.7,672.6,502.7z"/>
			<path d="M625.9,506.4c-0.6-2.2-1.5-4.1-2.7-5.6c-2.6-3.3-6.2-5.8-11-7.6c-4.8-1.8-10.3-2.7-16.6-2.7c-6.7,0-12.4,0.8-17.3,2.5
				c-4.9,1.7-8.5,4.2-10.9,7.6c-2.4,3.4-3.6,8.5-3.6,15.4v15l60.7,0v-13.7C624.5,513.1,625,509.4,625.9,506.4z M621.1,523.9l-50,0
				v-6.1c0-5.1,0.9-8.7,2.6-11c1.8-2.2,4.3-3.9,7.5-5.1c3.3-1.2,7.9-1.8,14-1.8c6.2,0,11.1,0.5,14.6,1.5s6.3,2.7,8.3,5.1
				c2,2.4,3,6.3,3,11.9V523.9z"/>
			<path d="M686.9,503.2c-2.6-3.3-6.2-5.8-11-7.6c-4.8-1.8-10.3-2.7-16.6-2.7c-6.7,0-12.4,0.8-17.3,2.5c-4.9,1.7-8.5,4.2-10.9,7.6
				c-0.9,1.2-1.6,2.7-2.2,4.4c-1,3-1.5,6.6-1.5,11v13.7v1.3h63.3v-15C690.8,511.5,689.5,506.4,686.9,503.2z M683.8,525.2h-50v-6.1
				c0-5.1,0.9-8.7,2.6-11c1.8-2.2,4.3-3.9,7.5-5.1c3.3-1.2,7.9-1.8,14-1.8c6.2,0,11.1,0.5,14.6,1.5c3.5,1,6.3,2.7,8.3,5.1
				c2,2.4,3,6.3,3,11.9V525.2z"/>
		</g>
		<path d="M604.6,401.8c0.2,5-1.3,9-4.6,12.2c-3.3,3.2-7.8,4.9-13.4,5.2c-5.7,0.3-10.3-1-13.8-3.9c-3.5-2.9-5.4-6.8-5.7-11.9
			c-0.2-5,1.3-9.2,4.5-12.4c3.2-3.2,7.7-4.9,13.4-5.2c5.8-0.3,10.4,1,14,3.9C602.5,392.6,604.4,396.6,604.6,401.8z M600.8,401.9
			c-0.2-3.6-1.6-6.4-4.3-8.3c-2.7-1.9-6.5-2.7-11.3-2.5c-4.6,0.2-8.2,1.4-10.8,3.5c-2.5,2.1-3.7,5-3.5,8.5c0.2,3.6,1.6,6.3,4.3,8.1
			c2.7,1.9,6.4,2.7,11.1,2.5c4.7-0.2,8.3-1.4,10.9-3.5C599.8,408.2,601,405.4,600.8,401.9z"/>
		<g>
			<polygon points="603.6,421 572.7,424.8 580.9,489 611.9,485.2 			"/>
		</g>
		<g>
			<polygon points="569.4,279.1 570.5,381.9 601.6,381.5 601.3,349.4 590.3,278.9 			"/>
		</g>
		<polygon points="372.8,344.5 365.2,381.7 372.6,381.7 		"/>
		<polygon points="336,276.8 335.7,339.3 348.4,276.9 		"/>
		<polygon points="370.1,280.6 357,277.9 351.6,276.8 351.4,277.9 338.7,340.3 331.1,377.5 338.5,379 346.3,380.6 361.6,383.7 
			362.2,380.7 369.8,343.5 382.1,283 		"/>
		<path class="st2" d="M356.5,403.5c0.6-3.6-0.2-6.6-2.5-9c-1.5-1.6-3.5-2.8-6.1-3.7c-2.3,0.6-4.1,1.4-5.7,2.7
			c-2.6,2.1-3.8,4.9-3.7,8.4c0.1,3.6,1.5,6.3,4.2,8.2c1.3,0.9,2.9,1.6,4.7,2.1c1.4-0.2,2.6-0.7,3.8-1.2
			C354.2,409.4,356,406.9,356.5,403.5z"/>
		<path class="st2" d="M339.5,389.7c0.1-0.1,0.3-0.3,0.4-0.4c-3-0.1-5.6,0.4-7.7,1.5c-2.9,1.5-4.7,4.1-5.2,7.6
			c-0.6,3.5,0.3,6.5,2.5,8.9c2,2.1,4.8,3.5,8.5,4.4c-2-2.6-3.1-5.8-3.2-9.6C334.6,397,336.2,392.9,339.5,389.7z"/>
		<path d="M370.8,388.8c-3.5-2.9-8.1-4.3-13.9-4.1c-1.7,0.1-3.2,0.3-4.7,0.6c3.4,1,6.1,2.7,8.2,4.9c3.2,0.3,5.8,1.1,7.9,2.6
			c2.7,1.9,4.1,4.7,4.2,8.3c0.1,3.5-1.1,6.3-3.7,8.3c-2.1,1.7-4.9,2.7-8.4,3.1c-0.9,1-1.9,1.8-3.1,2.6c-1.8,1.1-3.9,1.9-6.1,2.3
			c2.1,0.5,4.4,0.8,6.9,0.7c5.6-0.2,10.1-1.8,13.5-5c3.3-3.1,4.9-7.2,4.8-12.1C376.1,395.8,374.3,391.8,370.8,388.8z"/>
		<path d="M338.4,401.8c-0.1-3.3,1-6,3.4-7.9c1.4-1.2,3.2-2,5.3-2.5c-1.2-0.4-2.6-0.8-4.1-1c-1.2-0.2-2.3-0.3-3.4-0.3
			c-0.1,0.1-0.3,0.2-0.4,0.4c-3.1,3-4.6,6.8-4.4,11.6c0.1,3.6,1.1,6.6,3,9.1c0.6,0.1,1.2,0.3,1.8,0.4c2.7,0.4,5,0.5,7.1,0.1
			c-1.7-0.4-3.1-1.1-4.4-1.9C339.8,407.7,338.5,405.2,338.4,401.8z"/>
		<path d="M357.3,391.1c-0.3-0.3-0.6-0.6-0.9-1c-2.1-2.2-4.8-3.9-8.2-4.9c-1.2-0.4-2.5-0.7-3.8-0.9c-5.6-0.9-10.3-0.2-14.2,2.3
			c-3.8,2.4-6.2,6.2-7,11.1c-0.8,5,0.2,9.3,3.1,12.8c2.9,3.5,7.1,5.8,12.7,6.7c2.9,0.5,5.6,0.5,8.1,0.1c2.2-0.4,4.3-1.2,6.1-2.3
			c1.2-0.7,2.2-1.6,3.1-2.6c2-2.2,3.4-5,3.9-8.4C361.1,399,360.1,394.7,357.3,391.1z M356.5,403.5c-0.6,3.4-2.3,5.9-5.3,7.4
			c-1.1,0.6-2.4,1-3.8,1.2c-2.2,0.4-4.7,0.4-7.6-0.1c-0.6-0.1-1.3-0.2-1.9-0.4c-3.7-0.9-6.5-2.3-8.5-4.4c-2.3-2.4-3.1-5.4-2.5-8.9
			c0.6-3.5,2.3-6,5.2-7.6c2.1-1.1,4.7-1.6,7.7-1.5c1.1,0,2.3,0.1,3.6,0.4c1.6,0.3,3.1,0.6,4.4,1.1c2.6,0.9,4.6,2.1,6.1,3.7
			C356.3,396.9,357.1,399.9,356.5,403.5z"/>
		<polygon points="386.8,483.1 381,418.1 349.9,420.9 350,422.1 358.2,422.8 354.2,469.1 355.7,485.9 		"/>
		<polygon points="347,424.1 324.2,422.1 318.5,487.1 349.6,489.8 351.2,471.1 355.2,424.8 		"/>
		<g>
			<path class="st2" d="M343.5,499.4c-3.5-1-8.4-1.5-14.6-1.5c-6.1,0-10.7,0.6-14,1.8c-3.3,1.2-5.8,2.9-7.5,5.1
				c-1.8,2.2-2.6,5.9-2.6,11v6.1h50v-5.5c0-5.6-1-9.5-3-11.9C349.8,502.1,347,500.4,343.5,499.4z"/>
			<path d="M361.4,520.9h0.3v-5.8c0-1.3-0.1-2.6-0.2-3.8c-0.1,1.1-0.2,2.2-0.2,3.4V520.9z"/>
			<path d="M421.4,514.2c0-6.9-1.3-12-3.9-15.3c-2.6-3.3-6.2-5.8-11-7.6c-4.8-1.8-10.3-2.7-16.6-2.7c-6.7,0-12.4,0.8-17.3,2.5
				c-4.9,1.7-8.5,4.2-10.9,7.6c-0.3,0.4-0.5,0.8-0.8,1.2c2,2.6,3.2,6.4,3.6,11.4c0.3-3.3,1.1-5.8,2.5-7.5c1.8-2.2,4.3-3.9,7.5-5.1
				c3.3-1.2,7.9-1.8,14-1.8c6.2,0,11.1,0.5,14.6,1.5s6.3,2.7,8.3,5.1c2,2.4,3,6.3,3,11.9v5.5h-49.7v8.2h56.7V514.2z"/>
			<path d="M361.4,520.9v-6.1c0-1.2,0.1-2.4,0.2-3.4c-0.4-4.9-1.6-8.7-3.6-11.4c0,0,0-0.1-0.1-0.1c-2.6-3.3-6.2-5.8-11-7.6
				c-4.8-1.8-10.3-2.7-16.6-2.7c-6.7,0-12.4,0.8-17.3,2.5c-4.9,1.7-8.5,4.2-10.9,7.6c-2.4,3.4-3.6,8.5-3.6,15.4v15h63.3v-1v-8.2
				H361.4z M354.8,521.9h-50v-6.1c0-5.1,0.9-8.7,2.6-11c1.8-2.2,4.3-3.9,7.5-5.1c3.3-1.2,7.9-1.8,14-1.8c6.2,0,11.1,0.5,14.6,1.5
				c3.5,1,6.3,2.7,8.3,5.1c2,2.4,3,6.3,3,11.9V521.9z"/>
		</g>
	</g>
</g>
<g id="Laag_2">
	<rect x="649.6" y="28.5" class="st2" width="177.6" height="87.5"/>
	<text transform="matrix(1 0 0 1 649.5828 43.9084)"><tspan x="0" y="0" class="st3 st4">Lucida Grande</tspan><tspan x="0" y="24" class="st5 st4">Monaco</tspan></text>
</g>
</svg>
