<svg xmlns="http://www.w3.org/2000/svg" viewBox="0 0 841.89 595.28"><defs><style>.cls-1{fill:#f9b233;}.cls-2{fill:#4e3628;}.cls-3,.cls-4,.cls-7{fill:none;}.cls-3{stroke:#1d1d1b;stroke-width:9px;}.cls-3,.cls-5,.cls-7{stroke-linecap:round;stroke-miterlimit:10;}.cls-5,.cls-6{fill:#fff;}.cls-5,.cls-7{stroke:#000;stroke-width:2px;}</style></defs><title>Tekengebied 4</title><g id="Felidae"><rect class="cls-1" x="86.16" y="61.42" width="672.35" height="461.09"/><g id="Grote_versie" data-name="Grote versie"><g id="_Groep_" data-name="&lt;Groep&gt;"><path class="cls-2" d="M510.05,293c3.87,5.09,14.49,4.49,16.76,2.27,1.13-1.11,4.73-8.88,6.8-16.47,1.87-6.85,2.49-13.55-1.11-15.05-6.69-2.8-16.57-1.33-26.75-.13-1.47.17-1.19,7.56,0,15C506.74,284.66,508.31,290.74,510.05,293Zm37.79,17h0s-6.7-.37-16.76-4.84c-12.15-12.05-27.79-1.75-32.09-.31s-23.71-2.31-24.33-2.43A39.87,39.87,0,0,0,482,317.24a56.54,56.54,0,0,0,7.37,7.68c17.24,14.85,28.26,12,40.72,5.27C534.86,327.62,542.08,320.08,547.84,310Zm103.27,14.86v36.78H383s7.18-31.42,11-40.53,5.27-43.59,13.42-63.23c2.79-6.74,3.14-18.53,2.27-31.58,0,0,12-59.51,63.13-62.54a27,27,0,0,0,9.8.71c9.58-1,52.22-3.35,52.22-3.35s48.3,13.81,49.81,55.57c1,11,11,78.55,19.16,84.31S643.44,315.25,651.11,324.83ZM554,236.48c6.9-3.05,16.88-8.79,16.15-16.36-.56-5.95-10.09-5.2-14.61-4.52a11.71,11.71,0,0,0-4.35,1.59c-12.52,7.79-8.42,17.76-8.42,17.76A10.92,10.92,0,0,0,554,236.48Zm-58.19-6.81c4.28-23.15-26-19-30.28-18.25a4.16,4.16,0,0,1-.95.07h-.1a5.42,5.42,0,0,0-3.23,9.73c6.32,4.85,17.37,12.52,25.41,13.65a5.75,5.75,0,0,1,1.19.3C489.46,235.79,494.43,237,495.79,229.67Z"/><path class="cls-3" d="M417.12,112.92a5.46,5.46,0,0,1,5.17-1.84,14.79,14.79,0,0,1,4.87,1.86c7.91,4.61,16.62,17.73,40.68,48.62a16.81,16.81,0,0,0,5,2.16,27,27,0,0,0,9.8.71c9.58-1,52.22-3.35,52.22-3.35s34.89-15.08,56.47-31.33a33.91,33.91,0,0,1,9.86-5.3c3.47-1.14,5.83-1.26,7.05,0s1.3,3.62.38,7.58c-2.4,10.37-24.92,73.6-24,84.62s11,78.55,19.16,84.31,39.57,14.29,47.23,23.86"/><path class="cls-3" d="M383,361.61s7.18-31.42,11-40.53,5.27-43.59,13.42-63.23c2.79-6.74,3.14-18.53,2.27-31.58-1.65-24.94-7.69-54.46-9.36-62.06-2.21-10-2.33-28.74,16.71-51.27"/><path class="cls-3" d="M417.1,112.95a0,0,0,0,1,0,0c.35-.84,11.46-28,13.35-28s-2.32,25.38-3.32,28"/><path class="cls-3" d="M601.23,124.46s2.64-27.55,4.55-27.55,3.46,15.13,2.5,27.55"/><path class="cls-3" d="M409.75,226.27s12-59.51,63.13-62.54"/><path class="cls-3" d="M534.9,161.09s48.3,13.81,49.81,55.57"/><path class="cls-3" d="M405.56,330.19S414.69,351.26,431,358"/><path class="cls-3" d="M599.08,320.12c-2.87,1.92-12,25.39-31.61,32.57"/><path class="cls-3" d="M492.74,246.83c-.34,1.71-4.76,12.05-11.91,22A40.34,40.34,0,0,0,482,317.24a56.54,56.54,0,0,0,7.37,7.68c17.24,14.85,28.26,12,40.72,5.27,4.76-2.57,12-10.1,17.73-20.22,9.3-16.36,14.79-39.47,0-59.31"/><path class="cls-3" d="M474.63,302.37h0c.62.12,20.09,3.83,24.33,2.43s19.94-11.74,32.09.31c10.06,4.47,16.76,4.84,16.76,4.84"/><path class="cls-3" d="M533.61,278.81c1.87-6.85,2.49-13.55-1.11-15.05-6.69-2.8-16.57-1.33-26.75-.13-1.47.17-1.19,7.56,0,15,1,6,2.54,12.11,4.28,14.38,3.87,5.09,14.49,4.49,16.76,2.27C527.94,294.18,531.55,286.41,533.61,278.81Z"/><path class="cls-3" d="M506.48,278.51s14.33-7.49,26,0"/><path class="cls-3" d="M495.79,229.67c4.28-23.15-26-19-30.28-18.25a4.16,4.16,0,0,1-.95.07h-.1a5.42,5.42,0,0,0-3.23,9.73c6.32,4.85,17.37,12.52,25.41,13.65a5.75,5.75,0,0,1,1.19.3C489.46,235.79,494.43,237,495.79,229.67Z"/><path class="cls-3" d="M542.75,234.95A10.92,10.92,0,0,0,554,236.48c6.9-3.05,16.88-8.79,16.15-16.36-.56-5.95-10.09-5.2-14.61-4.52a11.71,11.71,0,0,0-4.35,1.59C538.65,225,542.75,234.95,542.75,234.95Z"/></g><path class="cls-4" d="M389.35,284.63q-.24-1.47-.45-2.53c-.14-.71-.23-1.17-.29-1.39q-1.31.49-2.94,1.14t-3.27,1.43q-1.64.78-3.1,1.55t-2.45,1.43a12.07,12.07,0,0,0-2.86,2.45,4.56,4.56,0,0,0-1,2.94,6.62,6.62,0,0,0,1.39,4.17,5.13,5.13,0,0,0,4.33,1.8A10,10,0,0,0,382,297a23,23,0,0,0,3.1-1.31,22.62,22.62,0,0,0,2.49-1.47,11.75,11.75,0,0,0,1.47-1.14q.65-.65,1-1.1a1.68,1.68,0,0,0,.29-1.27q-.24-1.39-.49-3T389.35,284.63Z"/><path class="cls-4" d="M346.63,273.35a5.11,5.11,0,0,0-1.14-2.61,8.91,8.91,0,0,0-2.53-2.12,14.29,14.29,0,0,0-3.63-1.43,17.62,17.62,0,0,0-4.37-.53,11.76,11.76,0,0,0-4.17.74,8.33,8.33,0,0,0-3.39,2.37,11.63,11.63,0,0,0-2.25,4.21,21.13,21.13,0,0,0-.82,6.33,21.71,21.71,0,0,0,1.06,7,17,17,0,0,0,2.94,5.43,13.21,13.21,0,0,0,4.49,3.55,12.93,12.93,0,0,0,5.72,1.27,7,7,0,0,0,2.29-.37,9.59,9.59,0,0,0,1.92-.9,11.53,11.53,0,0,0,1.51-1.1,4.57,4.57,0,0,0,.9-1,6.4,6.4,0,0,0,1-2.08,18.25,18.25,0,0,0,.49-3.23q.16-1.72.16-4.21V280.3q0-1.88,0-4T346.63,273.35Z"/><path class="cls-4" d="M253.33,268.33a5.7,5.7,0,0,0-1.8-1.39,5.22,5.22,0,0,0-2.37-.53,4.84,4.84,0,0,0-2.45.78,7.79,7.79,0,0,0-2.45,2.53,16.3,16.3,0,0,0-1.92,4.66,27.72,27.72,0,0,0-.78,7.07q1.39-.49,3.15-1.18t3.43-1.51q1.67-.82,3.06-1.55a14.91,14.91,0,0,0,2.12-1.31,4.13,4.13,0,0,0,1.47-3.59,6.24,6.24,0,0,0-.37-2A5.9,5.9,0,0,0,253.33,268.33Z"/><path d="M230.74,238.18a3.14,3.14,0,0,0-1.1-.29q-1,.08-1.88,1.76a23.78,23.78,0,0,0-1.63,4,16.49,16.49,0,0,1-2.74.2l-4.74.08-5.88.08q-3.15,0-6.17.12-4.09.16-8,.65a53.52,53.52,0,0,1-6.49.49q-1,0-2.25-.08t-2.53-.12q-1.27,0-2.49-.12t-2-.08q-2,0-2.21.37a2.39,2.39,0,0,0-.25,1.27.75.75,0,0,0,.37.65,2.69,2.69,0,0,0,.94.37,5.22,5.22,0,0,0,1.1.12H187a14.28,14.28,0,0,1,2.57.2,2.29,2.29,0,0,1,1.51.78,8.52,8.52,0,0,1,.82,2.78,46.12,46.12,0,0,1,.49,4.62q.16,2.66.24,5.72t.08,6q-.08,10.7-.2,18.38t-.33,12.79q-.2,5.11-.49,7.76a9,9,0,0,1-.69,3.23q-1.47.41-3.51,1.19t-3.92,1.63q-1.88.86-3.23,1.63T179,315.51a1.38,1.38,0,0,0,.65,1.19,2.49,2.49,0,0,0,.82.45h.41c.11,0,.27-.14.49-.41a8.54,8.54,0,0,1,2.21-1.59,32.93,32.93,0,0,1,3.84-1.76q2.29-.9,5.15-1.76t6.13-1.51a24.8,24.8,0,0,1,3.19-.33q1.8-.08,3.47,0l3.1.16q1.43.08,2.08.08,1.63,0,1.76-.49a4.74,4.74,0,0,0,.12-1.14,1.24,1.24,0,0,0-.49-1,2.12,2.12,0,0,0-1.39-.41q-.9,0-1.59,0t-1.35,0a12.29,12.29,0,0,1-2.78-.29q-1.23-.29-1.39-.94a16.78,16.78,0,0,1-.49-3.43q-.17-2.37-.29-5.19t-.16-5.64q0-2.82,0-4.94c0-.11.14-.19.41-.25a5.12,5.12,0,0,1,1-.08h2.53q1.31,0,2.82,0t3.06.12q1.55.08,2.94.24t2.53.41l1.23.33a4.74,4.74,0,0,1,1.67,1,4.18,4.18,0,0,1,.9,1.27,4.78,4.78,0,0,1,.37,1.35,10.76,10.76,0,0,1,.08,1.18q0,.25.33.33a2.82,2.82,0,0,0,.69.08,2.29,2.29,0,0,0,.73-.12q.37-.12.37-.37a6,6,0,0,0,0-.74,5.08,5.08,0,0,1,0-.65q0-1.8.2-3.84t.49-4a34.48,34.48,0,0,1,.69-3.51,11.12,11.12,0,0,1,.9-2.49c.11-.22,0-.46-.25-.73a1.18,1.18,0,0,0-.82-.41.79.79,0,0,0-.61.37,7.6,7.6,0,0,0-.57.86,4.69,4.69,0,0,1-.74.94,3,3,0,0,1-1.18.69,25.09,25.09,0,0,1-4.94.69q-3.72.29-8.62.2h-3q-1.51,0-3.15-.08,0-1.22,0-3.76t.08-5.64q0-3.1.12-6.41t.2-6.21q.12-2.9.29-5a21.09,21.09,0,0,1,.33-2.78,3.46,3.46,0,0,1,2.25-.69q1.51,0,2.41,0a39.12,39.12,0,0,1,6.33.49,22.75,22.75,0,0,1,5.19,1.43,10,10,0,0,1,3.51,2.37,4.86,4.86,0,0,1,1.31,3.39q0,.65-.08,1.67a10.63,10.63,0,0,1-.25,1.68,1.05,1.05,0,0,0,.12.94q.29.45,1.59.45.73,0,1-1.23a20.49,20.49,0,0,1,0-4.49q.25-2.7.78-5.56t1.31-5.56a20.27,20.27,0,0,1,1.76-4.41,1.56,1.56,0,0,1,.33-.73,3.16,3.16,0,0,1,.41-.49Q231.43,238.46,230.74,238.18Z"/><path d="M271.83,267.26a.39.39,0,0,0-.37.12,9.53,9.53,0,0,1-1.35.73l-2.33,1.1-2.57,1.19a17.67,17.67,0,0,1-2.08.82,5.13,5.13,0,0,0,1-3,4.54,4.54,0,0,0-2.49-4.09,13.63,13.63,0,0,0-6.9-1.47,19.67,19.67,0,0,0-4.86.61,23.51,23.51,0,0,0-4.57,1.68,31,31,0,0,0-4,2.37,17.89,17.89,0,0,0-3.19,2.78,25.83,25.83,0,0,0-2.08,2.57,16.84,16.84,0,0,0-1.84,3.43,23.93,23.93,0,0,0-1.31,4.66,35.47,35.47,0,0,0-.49,6.33,18,18,0,0,0,1.51,7.72,15,15,0,0,0,4,5.31,17.14,17.14,0,0,0,5.72,3.1,21.29,21.29,0,0,0,6.54,1,19.6,19.6,0,0,0,6.94-1.23,30.81,30.81,0,0,0,5.92-2.94,34.54,34.54,0,0,0,4.53-3.43q1.88-1.72,2.78-2.7a.82.82,0,0,0-.33-.61,1,1,0,0,0-.65-.29,6.7,6.7,0,0,0-1,.61,22.26,22.26,0,0,1-6.58,2.78,21.25,21.25,0,0,1-5.31.61,17,17,0,0,1-6-1,14.19,14.19,0,0,1-4.7-2.82,13,13,0,0,1-3.06-4.21,12.3,12.3,0,0,1-1.1-5.19q.74-.41,2.82-1.35t4.9-2.16q2.82-1.23,6-2.57t6.17-2.7q3-1.35,5.43-2.57t3.76-2a3.54,3.54,0,0,0,1-1.1,3.42,3.42,0,0,0,.41-1.76A.25.25,0,0,0,271.83,267.26Zm-18.5,8.62a14.91,14.91,0,0,1-2.12,1.31q-1.39.74-3.06,1.55t-3.43,1.51q-1.76.7-3.15,1.18a27.72,27.72,0,0,1,.78-7.07,16.3,16.3,0,0,1,1.92-4.66,7.79,7.79,0,0,1,2.45-2.53,4.84,4.84,0,0,1,2.45-.78,5.22,5.22,0,0,1,2.37.53,5.7,5.7,0,0,1,1.8,1.39,5.9,5.9,0,0,1,1.1,1.92,6.24,6.24,0,0,1,.37,2A4.13,4.13,0,0,1,253.33,275.88Z"/><path d="M296.42,296.06q-1,.57-2.33,1.14a19.43,19.43,0,0,1-2.86,1,11.82,11.82,0,0,1-3,.41,6.37,6.37,0,0,1-3.59-1.14,4.88,4.88,0,0,1-2.12-2.45,14.84,14.84,0,0,1-.45-3.8q0-2.41,0-4.78,0-2.12,0-5.15t.16-6.54q.12-3.51.25-7.23t.37-7.31q.24-4.49.49-7.48t.49-4.82a13.06,13.06,0,0,1,.57-2.7c.22-.57.46-.91.73-1a4.47,4.47,0,0,1,1.27-.33,5.24,5.24,0,0,0,.86-.08.84.84,0,0,0,.53-.49,1.66,1.66,0,0,0,.16-.9,1.84,1.84,0,0,0-.25-.82.46.46,0,0,0-.53-.25,7.34,7.34,0,0,1-1.31.33q-.9.16-2,.29l-2.16.25a18.83,18.83,0,0,1-2.08.12q-1.55,0-3.88,0t-4,0q-2.29,0-2.29,2.7c0,.11.1.16.29.16s.44,0,.73,0a7.65,7.65,0,0,1,1,.16,2.68,2.68,0,0,1,1.1.61,3.71,3.71,0,0,1,.9,1.27,12.5,12.5,0,0,1,.65,3.55q.16,2,.2,5.23t0,8.58q0,4.33-.12,9.35t-.29,9.72q-.17,4.7-.45,8.58t-.53,5.92a4.28,4.28,0,0,1-.08.82,5.94,5.94,0,0,1-.16.65,3.39,3.39,0,0,1-.37.69,1,1,0,0,0-.2.61c0,.27.19.53.57.78l1.55,1a13.73,13.73,0,0,0,2.9,1.27,9.68,9.68,0,0,0,2.82.53,7.07,7.07,0,0,0,2.21-.41q1.22-.41,2.78-1a67.12,67.12,0,0,0,6.41-2.7q3.2-1.54,5.15-2.68l.17-1.8Z"/><path d="M316.52,296.47q-.78.33-1.8.65a16.59,16.59,0,0,1-2.16.53,11.67,11.67,0,0,1-2,.2,4.76,4.76,0,0,1-2.78-.69,4.26,4.26,0,0,1-1.47-1.84,8,8,0,0,1-.57-2.74q-.08-1.59-.08-3.31v-3.92q0-4,.25-7.44t.53-6q.29-2.61.53-4.41a21.59,21.59,0,0,0,.25-2.61v-.33a2.23,2.23,0,0,0-.33-1.19,1.32,1.32,0,0,0-1.23-.53,9.62,9.62,0,0,0-3,.86q-2.13.86-4.41,2l-3.92,2a21.2,21.2,0,0,0-2.37,1.31q-.41.24,0,.73c.25.33.42.49.53.49a2.15,2.15,0,0,0,.73-.2,2.56,2.56,0,0,1,1-.2,2.89,2.89,0,0,1,1.51.37,3.41,3.41,0,0,1,1,.94,6.6,6.6,0,0,1,.82,2.53,25.63,25.63,0,0,1,.25,3.76v2.86q0,2-.16,4.7t-.37,5.43q-.2,2.7-.41,4.86l-.07.71c.54-.3,1-.56,1.25-.75a1,1,0,0,1,.49.82q0,.65-1.88,1.72l0,0,0,.47c-.05.44-.1.79-.12,1.06a9.78,9.78,0,0,0,0,1,4,4,0,0,0,1.06,2.86,3.82,3.82,0,0,0,2.94,1.14,14.48,14.48,0,0,0,4.13-.78,49.39,49.39,0,0,0,5.11-1.92q2.78-1.14,4.82-2.21l2.86-1.47a1.2,1.2,0,0,0,.41-.53,2.48,2.48,0,0,0,.15-.55c-.14-.23-.27-.48-.41-.73A5.14,5.14,0,0,1,316.52,296.47Z"/><path d="M297.6,255.46q1,1,1.92,1.76a3.29,3.29,0,0,0,1.18.78,4.3,4.3,0,0,0,1.68-.65q1.18-.65,2.45-1.51t2.25-1.68q1-.81,1-1.22a3.22,3.22,0,0,0-.74-1.31,26.23,26.23,0,0,0-1.72-2,25,25,0,0,0-1.92-1.88,3.93,3.93,0,0,0-1.35-.9,13.27,13.27,0,0,0-1.43.78,27.51,27.51,0,0,0-2.45,1.63q-1.27.94-2.33,1.8t-1.06,1.27a2.94,2.94,0,0,0,.78,1.27Q296.62,254.48,297.6,255.46Z"/><path d="M298.42,296a1,1,0,0,0-.49-.82c-.28.19-.72.44-1.25.75l-.17,1.8,0,0Q298.42,296.64,298.42,296Z"/><path d="M362.61,297.36c-.27.09-.55.18-.83.26a8.15,8.15,0,0,1-2.17.33,4.24,4.24,0,0,1-4-2.82q-1.31-2.82-1.31-8.78,0-3.1.12-7.27t.29-8.58q.16-4.41.41-8.78t.57-8q.33-3.59.65-6a8.5,8.5,0,0,1,.74-3,2.26,2.26,0,0,1,.86-.78,6.21,6.21,0,0,1,1.35-.37.58.58,0,0,0,.49-.49,1.88,1.88,0,0,0,0-.86,1.65,1.65,0,0,0-.41-.74.73.73,0,0,0-.69-.2,9.06,9.06,0,0,1-1.39.45,14.7,14.7,0,0,1-2.16.33q-1.35.12-3.43.16t-5.19,0a10.94,10.94,0,0,0-2.45.2,5.1,5.1,0,0,0-1.47.61,1.23,1.23,0,0,0-.53,1.14q0,.74.37.74,2.37,0,3.15,1.31a12,12,0,0,1,1.1,4.57q0,.41,0,2.12t.08,3.76q0,2,0,4v2.66q-.9-.08-2-.08h-2.21a38.47,38.47,0,0,0-11.72,1.63,24.91,24.91,0,0,0-8.66,4.66,19.55,19.55,0,0,0-5.39,7.35,24.45,24.45,0,0,0-1.84,9.64,18.35,18.35,0,0,0,2.36,9.55l.09-.07q.24-.24.33,0a1.46,1.46,0,0,1,0,.61c0,.06,0,.12-.05.19a16.65,16.65,0,0,0,2,2.67,15.18,15.18,0,0,0,4.86,3.55,12.93,12.93,0,0,0,5.39,1.23,16.32,16.32,0,0,0,5.19-.86,31.08,31.08,0,0,0,8.62-4.45,23.76,23.76,0,0,0,2.37-2v1.19c0,.52,0,1.06,0,1.63s0,1.12,0,1.63v1.1a2,2,0,0,0,.53,1.55,3,3,0,0,0,2,.49,15.24,15.24,0,0,0,5.15-1.22q3.19-1.23,6.29-2.78c1.08-.52,2.07-1,3-1.51-.07-.16-.14-.33-.2-.5A9.27,9.27,0,0,1,362.61,297.36Zm-15.83-12.69q0,2.49-.16,4.21a18.25,18.25,0,0,1-.49,3.23,6.4,6.4,0,0,1-1,2.08,4.57,4.57,0,0,1-.9,1,11.53,11.53,0,0,1-1.51,1.1,9.59,9.59,0,0,1-1.92.9,7,7,0,0,1-2.29.37,12.93,12.93,0,0,1-5.72-1.27,13.21,13.21,0,0,1-4.49-3.55,17,17,0,0,1-2.94-5.43,21.71,21.71,0,0,1-1.06-7,21.13,21.13,0,0,1,.82-6.33,11.63,11.63,0,0,1,2.25-4.21,8.33,8.33,0,0,1,3.39-2.37,11.76,11.76,0,0,1,4.17-.74,17.62,17.62,0,0,1,4.37.53,14.29,14.29,0,0,1,3.63,1.43,8.91,8.91,0,0,1,2.53,2.12,5.11,5.11,0,0,1,1.14,2.61q.08.82.12,2.94t0,4Z"/><path d="M317.78,296q-.08-.24-.33,0l-.09.07c.13.24.26.49.41.73,0-.06,0-.12.05-.19A1.46,1.46,0,0,0,317.78,296Z"/><path d="M393.73,263.71a11.42,11.42,0,0,0-5.27-1,22.06,22.06,0,0,0-5.15.69,53.29,53.29,0,0,0-5.76,1.76q-2.9,1.06-5.6,2.29t-4.58,2.29a2.28,2.28,0,0,0-.16,1,2.47,2.47,0,0,0,1,2,3.25,3.25,0,0,0,2.12.82.67.67,0,0,0,.74-.65,4,4,0,0,1,.69-1.39,8.75,8.75,0,0,1,1.72-1.8,11.11,11.11,0,0,1,2.61-1.55,8.26,8.26,0,0,1,3.31-.65,7.64,7.64,0,0,1,3.43.69,6.52,6.52,0,0,1,2.37,2,12,12,0,0,1,1.63,3.35,38.14,38.14,0,0,1,1.14,4.53q-1.15.74-3.64,2t-5.39,2.66l-5.68,2.74q-2.78,1.35-4.33,2.16a19.88,19.88,0,0,0-4.94,3.47,6,6,0,0,0-1.59,4.29,9.53,9.53,0,0,0,.22,1.95c.48-.16.94-.33,1.37-.52q1-.45,1.88-.9a8.27,8.27,0,0,0,1.27-.78c.27-.22.52-.08.73.41s.19.82-.08,1q-1,.57-3.06,1.68l-1.59.82a7.18,7.18,0,0,0,1.43,2.16A8.17,8.17,0,0,0,367.3,303a9.77,9.77,0,0,0,3.84.69,15.91,15.91,0,0,0,5.43-1,39.8,39.8,0,0,0,5.51-2.49,44.61,44.61,0,0,0,5-3.15c1.41-1,2.58-1.94,3.53-2.72,1.41-9.33,3.11-19.5,5.64-28.26A6.29,6.29,0,0,0,393.73,263.71ZM390,292q-.37.45-1,1.1a11.75,11.75,0,0,1-1.47,1.14,22.62,22.62,0,0,1-2.49,1.47A23,23,0,0,1,382,297a10,10,0,0,1-3.23.57,5.13,5.13,0,0,1-4.33-1.8,6.62,6.62,0,0,1-1.39-4.17,4.56,4.56,0,0,1,1-2.94,12.07,12.07,0,0,1,2.86-2.45q1-.65,2.45-1.43t3.1-1.55q1.63-.78,3.27-1.43t2.94-1.14c.05.22.15.68.29,1.39s.29,1.55.45,2.53.33,2,.49,3.1.33,2.1.49,3A1.68,1.68,0,0,1,390,292Z"/><path d="M367.79,296.55q.41-.24.08-1c-.22-.49-.46-.63-.73-.41a8.27,8.27,0,0,1-1.27.78q-.86.45-1.88.9c-.43.19-.9.36-1.37.52a9.27,9.27,0,0,0,.31,1.2c.06.17.13.33.2.5l1.59-.82Q366.81,297.13,367.79,296.55Z"/><path class="cls-4" d="M429.55,268.41a5.7,5.7,0,0,0-1.8-1.39,5.22,5.22,0,0,0-2.37-.53,4.84,4.84,0,0,0-2.45.78,7.79,7.79,0,0,0-2.45,2.53,16.3,16.3,0,0,0-1.92,4.66,27.72,27.72,0,0,0-.78,7.07q1.39-.49,3.15-1.18t3.43-1.51q1.67-.82,3.06-1.55a14.91,14.91,0,0,0,2.12-1.31,4.13,4.13,0,0,0,1.47-3.59,6.24,6.24,0,0,0-.37-2A5.9,5.9,0,0,0,429.55,268.41Z"/><path class="cls-1" d="M448.05,267.35a.39.39,0,0,0-.37.12,9.53,9.53,0,0,1-1.35.73l-2.33,1.1-2.57,1.19a17.67,17.67,0,0,1-2.08.82,5.13,5.13,0,0,0,1-3,4.54,4.54,0,0,0-2.49-4.09,13.63,13.63,0,0,0-6.9-1.47,19.67,19.67,0,0,0-4.86.61A23.51,23.51,0,0,0,421.5,265a31,31,0,0,0-4,2.37,17.89,17.89,0,0,0-3.19,2.78c-.53.57-1,1.21-1.56,1.88-1.5,6.37-2.68,13.17-3.68,19.67a15.05,15.05,0,0,0,1,3.16c.15.32.39.68.49.92a11.4,11.4,0,0,0,.91,1.48,14.28,14.28,0,0,0,2.65,2.91,17.14,17.14,0,0,0,5.72,3.1,21.29,21.29,0,0,0,6.54,1,19.6,19.6,0,0,0,6.94-1.23,30.81,30.81,0,0,0,5.92-2.94,34.54,34.54,0,0,0,4.53-3.43q1.88-1.72,2.78-2.7a.82.82,0,0,0-.33-.61,1,1,0,0,0-.65-.29,6.7,6.7,0,0,0-1,.61,22.26,22.26,0,0,1-6.58,2.78,21.25,21.25,0,0,1-5.31.61,17,17,0,0,1-6-1,14.19,14.19,0,0,1-4.7-2.82,13,13,0,0,1-3.06-4.21,12.3,12.3,0,0,1-1.1-5.19q.74-.41,2.82-1.35t4.9-2.16q2.82-1.23,6-2.57t6.17-2.7q3-1.35,5.43-2.57t3.76-2a3.54,3.54,0,0,0,1-1.1,3.42,3.42,0,0,0,.41-1.76A.25.25,0,0,0,448.05,267.35ZM429.55,276a14.91,14.91,0,0,1-2.12,1.31q-1.39.74-3.06,1.55t-3.43,1.51q-1.76.7-3.15,1.18a27.72,27.72,0,0,1,.78-7.07,16.3,16.3,0,0,1,1.92-4.66,7.79,7.79,0,0,1,2.45-2.53,4.84,4.84,0,0,1,2.45-.78,5.22,5.22,0,0,1,2.37.53,5.7,5.7,0,0,1,1.8,1.39,5.9,5.9,0,0,1,1.1,1.92,6.24,6.24,0,0,1,.37,2A4.13,4.13,0,0,1,429.55,276Z"/></g><rect class="cls-5" x="363.44" y="449.55" width="130.39" height="58.3"/><path class="cls-6" d="M440.49,491.47a2.76,2.76,0,0,0,3.14.42,11.49,11.49,0,0,0,1.27-3.08c.35-1.28.47-2.54-.21-2.82-1.25-.52-3.1-.25-5,0-.27,0-.22,1.41,0,2.81A7.56,7.56,0,0,0,440.49,491.47Zm7.07,3.17h0a9.94,9.94,0,0,1-3.14-.91c-2.27-2.26-5.2-.33-6-.06s-4.44-.43-4.55-.45a7.46,7.46,0,0,0,1.38,2.78,10.58,10.58,0,0,0,1.38,1.44c3.23,2.78,5.29,2.24,7.62,1A10.5,10.5,0,0,0,447.56,494.64Zm19.32,2.78v6.88H416.72s1.34-5.88,2.06-7.58,1-8.16,2.51-11.83a15.1,15.1,0,0,0,.42-5.91s2.25-11.14,11.81-11.7a5.06,5.06,0,0,0,1.83.13c1.79-.18,9.77-.63,9.77-.63s9,2.58,9.32,10.4c.18,2.06,2.06,14.7,3.59,15.78S465.45,495.63,466.88,497.42Zm-18.18-16.53c1.29-.57,3.16-1.65,3-3.06-.11-1.11-1.89-1-2.73-.85a2.19,2.19,0,0,0-.81.3c-2.34,1.46-1.58,3.32-1.58,3.32A2,2,0,0,0,448.71,480.89Zm-10.89-1.27c.8-4.33-4.86-3.55-5.67-3.42H432a1,1,0,0,0-.6,1.82c1.18.91,3.25,2.34,4.76,2.55l.22.06C436.63,480.76,437.57,481,437.82,479.61Z"/><path class="cls-6" d="M423.58,457.45s-3.86,3.63-3.67,7.84a102.66,102.66,0,0,0,1.58,11.17c.06.53,1.52-1.22,1.7-1.57s3.29-7.28,9.19-7.49C432.37,467.4,427.41,458.2,423.58,457.45Z"/><path class="cls-6" d="M454.19,475.23s4.78-11.67,4.75-13.89-1.28-1.77-3.24-.43-9.22,5.25-9.22,5.25S453,470.56,454.19,475.23Z"/><path class="cls-6" d="M434.21,494.23l7.31-1.56,5.57,2.75s-3.27,4.38-5.64,4S435.65,497.81,434.21,494.23Z"/><path class="cls-7" d="M423.1,457.77a1,1,0,0,1,1-.34,2.77,2.77,0,0,1,.91.35c1.48.86,3.11,3.32,7.61,9.1a3.15,3.15,0,0,0,.94.4,5.06,5.06,0,0,0,1.83.13c1.79-.18,9.77-.63,9.77-.63a62.93,62.93,0,0,0,10.57-5.86,6.35,6.35,0,0,1,1.85-1c.65-.21,1.09-.24,1.32,0s.24.68.07,1.42c-.45,1.94-4.66,13.77-4.48,15.83s2.06,14.7,3.59,15.78,7.4,2.67,8.84,4.47"/><path class="cls-7" d="M416.72,504.3s1.34-5.88,2.06-7.58,1-8.16,2.51-11.83a15.1,15.1,0,0,0,.42-5.91A90.23,90.23,0,0,0,420,467.37c-.41-1.88-.44-5.38,3.13-9.59"/><path class="cls-7" d="M423.1,457.77h0c.07-.16,2.14-5.24,2.5-5.24s-.43,4.75-.62,5.24"/><path class="cls-7" d="M457.55,459.93s.49-5.16.85-5.16.65,2.83.47,5.16"/><path class="cls-7" d="M421.72,479s2.25-11.14,11.81-11.7"/><path class="cls-7" d="M445.14,466.78s9,2.58,9.32,10.4"/><path class="cls-7" d="M420.93,498.42s1.71,3.94,4.75,5.2"/><path class="cls-7" d="M457.15,496.54c-.54.36-2.24,4.75-5.92,6.1"/><path class="cls-7" d="M437.25,482.82a17.17,17.17,0,0,1-2.23,4.12,7.55,7.55,0,0,0,.22,9.05,10.58,10.58,0,0,0,1.38,1.44c3.23,2.78,5.29,2.24,7.62,1a10.5,10.5,0,0,0,3.32-3.78c1.74-3.06,2.77-7.39,0-11.1"/><path class="cls-7" d="M433.86,493.22h0c.12,0,3.76.72,4.55.45s3.73-2.2,6,.06a9.94,9.94,0,0,0,3.14.91"/><path class="cls-6" d="M444.9,488.81c.35-1.28.47-2.54-.21-2.82-1.25-.52-3.1-.25-5,0-.27,0-.22,1.41,0,2.81a7.56,7.56,0,0,0,.8,2.69,2.76,2.76,0,0,0,3.14.42A11.49,11.49,0,0,0,444.9,488.81Z"/><path class="cls-7" d="M444.9,488.81c.35-1.28.47-2.54-.21-2.82-1.25-.52-3.1-.25-5,0-.27,0-.22,1.41,0,2.81a7.56,7.56,0,0,0,.8,2.69,2.76,2.76,0,0,0,3.14.42A11.49,11.49,0,0,0,444.9,488.81Z"/><path class="cls-7" d="M439.82,488.75s2.68-1.4,4.87,0"/><path class="cls-6" d="M437.82,479.61c.8-4.33-4.86-3.55-5.67-3.42H432a1,1,0,0,0-.6,1.82c1.18.91,3.25,2.34,4.76,2.55l.22.06C436.63,480.76,437.57,481,437.82,479.61Z"/><path class="cls-7" d="M437.82,479.61c.8-4.33-4.86-3.55-5.67-3.42H432a1,1,0,0,0-.6,1.82c1.18.91,3.25,2.34,4.76,2.55l.22.06C436.63,480.76,437.57,481,437.82,479.61Z"/><path class="cls-6" d="M446.61,480.6a2,2,0,0,0,2.1.29c1.29-.57,3.16-1.65,3-3.06-.11-1.11-1.89-1-2.73-.85a2.19,2.19,0,0,0-.81.3C445.84,478.74,446.61,480.6,446.61,480.6Z"/><path class="cls-7" d="M446.61,480.6a2,2,0,0,0,2.1.29c1.29-.57,3.16-1.65,3-3.06-.11-1.11-1.89-1-2.73-.85a2.19,2.19,0,0,0-.81.3C445.84,478.74,446.61,480.6,446.61,480.6Z"/><path class="cls-4" d="M417.9,489.9q0-.28-.08-.47l-.05-.26-.55.21-.61.27-.58.29q-.28.15-.46.27a2.26,2.26,0,0,0-.54.46.85.85,0,0,0-.18.55,1.24,1.24,0,0,0,.26.78,1,1,0,0,0,.81.34,1.87,1.87,0,0,0,.6-.11,4.31,4.31,0,0,0,.58-.24,4.23,4.23,0,0,0,.47-.28,2.2,2.2,0,0,0,.28-.21l.19-.21a.31.31,0,0,0,.05-.24q0-.26-.09-.57T417.9,489.9Z"/><path d="M388.22,481.21a.59.59,0,0,0-.21-.05q-.18,0-.35.33a4.45,4.45,0,0,0-.31.74,3.09,3.09,0,0,1-.51,0l-.89,0-1.1,0-1.15,0q-.76,0-1.49.12a10,10,0,0,1-1.22.09l-.42,0-.47,0-.47,0-.38,0q-.37,0-.41.07a.45.45,0,0,0,0,.24.14.14,0,0,0,.07.12.5.5,0,0,0,.18.07l.21,0H380a2.67,2.67,0,0,1,.48,0,.43.43,0,0,1,.28.15,1.59,1.59,0,0,1,.15.52,8.63,8.63,0,0,1,.09.86q0,.5,0,1.07t0,1.12q0,2,0,3.44t-.06,2.39q0,1-.09,1.45a1.68,1.68,0,0,1-.13.6q-.28.08-.66.22l-.73.31q-.35.16-.6.31t-.25.22a.26.26,0,0,0,.12.22.47.47,0,0,0,.15.08h.08s.05,0,.09-.08a1.6,1.6,0,0,1,.41-.3,6.16,6.16,0,0,1,.72-.33q.43-.17,1-.33t1.15-.28a4.64,4.64,0,0,1,.6-.06q.34,0,.65,0l.58,0,.39,0q.31,0,.33-.09a.89.89,0,0,0,0-.21.23.23,0,0,0-.09-.18.4.4,0,0,0-.26-.08h-.55a2.3,2.3,0,0,1-.52-.05q-.23-.05-.26-.18a3.14,3.14,0,0,1-.09-.64q0-.44-.05-1t0-1.05q0-.53,0-.92s0,0,.08,0l.18,0h1l.57,0,.55,0,.47.08.23.06a.89.89,0,0,1,.31.19.78.78,0,0,1,.17.24.89.89,0,0,1,.07.25,2,2,0,0,1,0,.22s0,.05.06.06l.13,0,.14,0s.07,0,.07-.07a1.13,1.13,0,0,0,0-.14,1,1,0,0,1,0-.12q0-.34,0-.72t.09-.74a6.45,6.45,0,0,1,.13-.66,2.08,2.08,0,0,1,.17-.47s0-.09,0-.14a.22.22,0,0,0-.15-.08.15.15,0,0,0-.11.07l-.11.16a.88.88,0,0,1-.14.18.56.56,0,0,1-.22.13,4.69,4.69,0,0,1-.92.13q-.7.05-1.61,0h-.56l-.59,0q0-.23,0-.7t0-1.05q0-.58,0-1.2t0-1.16q0-.54.05-.94a4,4,0,0,1,.06-.52.65.65,0,0,1,.42-.13H384a7.32,7.32,0,0,1,1.18.09,4.26,4.26,0,0,1,1,.27,1.87,1.87,0,0,1,.66.44.91.91,0,0,1,.24.63q0,.12,0,.31a2,2,0,0,1,0,.31.2.2,0,0,0,0,.18q.05.08.3.08t.18-.23a3.83,3.83,0,0,1,0-.84q0-.5.15-1t.24-1a3.79,3.79,0,0,1,.33-.83.29.29,0,0,1,.06-.14l.08-.09Q388.35,481.26,388.22,481.21Z"/><path d="M395.91,486.65a.07.07,0,0,0-.07,0l-.25.14-.44.21-.48.22-.39.15a1,1,0,0,0,.18-.57.85.85,0,0,0-.47-.76,2.55,2.55,0,0,0-1.29-.28,3.68,3.68,0,0,0-.91.11,4.4,4.4,0,0,0-.86.31,5.8,5.8,0,0,0-.76.44,3.35,3.35,0,0,0-.6.52,4.83,4.83,0,0,0-.39.48,3.15,3.15,0,0,0-.34.64,4.48,4.48,0,0,0-.24.87,6.64,6.64,0,0,0-.09,1.18,3.38,3.38,0,0,0,.28,1.44,2.8,2.8,0,0,0,.76,1,3.21,3.21,0,0,0,1.07.58,4,4,0,0,0,1.22.19,3.67,3.67,0,0,0,1.3-.23,5.76,5.76,0,0,0,1.11-.55,6.46,6.46,0,0,0,.85-.64q.35-.32.52-.5a.15.15,0,0,0-.06-.11.19.19,0,0,0-.12-.05l-.19.11a4.17,4.17,0,0,1-1.23.52,4,4,0,0,1-1,.11,3.19,3.19,0,0,1-1.12-.19,2.66,2.66,0,0,1-.88-.53,2.42,2.42,0,0,1-.57-.79,2.3,2.3,0,0,1-.21-1l.53-.25.92-.41,1.12-.48,1.15-.5,1-.48q.46-.23.7-.38a.66.66,0,0,0,.18-.21.64.64,0,0,0,.08-.33A0,0,0,0,0,395.91,486.65Zm-3.46,1.61a2.79,2.79,0,0,1-.4.24l-.57.29-.64.28-.59.22a5.19,5.19,0,0,1,.15-1.32,3.05,3.05,0,0,1,.36-.87,1.46,1.46,0,0,1,.46-.47.91.91,0,0,1,.46-.15,1,1,0,0,1,.44.1,1.07,1.07,0,0,1,.34.26,1.1,1.1,0,0,1,.21.36,1.17,1.17,0,0,1,.07.38A.77.77,0,0,1,392.45,488.26Z"/><path d="M400.51,492l-.44.21a3.64,3.64,0,0,1-.54.18,2.21,2.21,0,0,1-.57.08,1.19,1.19,0,0,1-.67-.21.91.91,0,0,1-.4-.46,2.78,2.78,0,0,1-.08-.71q0-.45,0-.89t0-1q0-.57,0-1.22t0-1.35q0-.7.07-1.37,0-.84.09-1.4t.09-.9a2.44,2.44,0,0,1,.11-.5c0-.11.09-.17.14-.19a.84.84,0,0,1,.24-.06l.16,0a.16.16,0,0,0,.1-.09.31.31,0,0,0,0-.17.34.34,0,0,0,0-.15.09.09,0,0,0-.1,0l-.24.06-.37.05-.41,0-.39,0h-1.48q-.43,0-.43.5s0,0,.05,0h.14l.18,0a.5.5,0,0,1,.21.11.69.69,0,0,1,.17.24,2.34,2.34,0,0,1,.12.67q0,.37,0,1t0,1.61q0,.81,0,1.75t-.05,1.82q0,.88-.08,1.61t-.1,1.11a.8.8,0,0,1,0,.15l0,.12a.63.63,0,0,1-.07.13.19.19,0,0,0,0,.11c0,.05,0,.1.11.15l.29.19a2.57,2.57,0,0,0,.54.24,1.81,1.81,0,0,0,.53.1,1.32,1.32,0,0,0,.41-.08l.52-.18a12.56,12.56,0,0,0,1.2-.5q.6-.29,1-.5l0-.34Z"/><path d="M404.27,492.11l-.34.12-.41.1a2.18,2.18,0,0,1-.38,0,.89.89,0,0,1-.52-.13.8.8,0,0,1-.28-.34,1.49,1.49,0,0,1-.11-.51q0-.3,0-.62V490q0-.75,0-1.39t.1-1.13q.05-.49.1-.83a4,4,0,0,0,0-.49v-.06a.42.42,0,0,0-.06-.22.25.25,0,0,0-.23-.1,1.8,1.8,0,0,0-.57.16q-.4.16-.83.37l-.73.37a4,4,0,0,0-.44.24q-.08,0,0,.14c0,.06.08.09.1.09l.14,0a.48.48,0,0,1,.18,0,.54.54,0,0,1,.28.07.64.64,0,0,1,.19.18,1.24,1.24,0,0,1,.15.47,4.8,4.8,0,0,1,0,.7v.54q0,.37,0,.88t-.07,1q0,.5-.08.91V492l.23-.14a.18.18,0,0,1,.09.15q0,.12-.35.32h0v.09l0,.2a1.83,1.83,0,0,0,0,.18.76.76,0,0,0,.2.54.71.71,0,0,0,.55.21,2.71,2.71,0,0,0,.77-.15,9.24,9.24,0,0,0,1-.36q.52-.21.9-.41l.54-.28a.22.22,0,0,0,.08-.1.46.46,0,0,0,0-.1l-.08-.14Z"/><path d="M400.73,484.44q.18.18.36.33a.62.62,0,0,0,.22.15.8.8,0,0,0,.31-.12l.46-.28q.24-.16.42-.31t.18-.23a.6.6,0,0,0-.14-.24,4.91,4.91,0,0,0-.32-.38,4.69,4.69,0,0,0-.36-.35.74.74,0,0,0-.25-.17l-.27.15a5.15,5.15,0,0,0-.46.31l-.44.34q-.2.16-.2.24a.55.55,0,0,0,.15.24Q400.55,484.26,400.73,484.44Z"/><path d="M400.89,492a.18.18,0,0,0-.09-.15l-.23.14,0,.34h0Q400.89,492.14,400.89,492Z"/><path d="M412.9,492.28l-.16,0a1.53,1.53,0,0,1-.41.06.79.79,0,0,1-.75-.53,4.13,4.13,0,0,1-.24-1.64q0-.58,0-1.36t.05-1.61q0-.83.08-1.64t.11-1.49q.06-.67.12-1.13a1.59,1.59,0,0,1,.14-.57.42.42,0,0,1,.16-.15l.25-.07a.11.11,0,0,0,.09-.09.35.35,0,0,0,0-.16.31.31,0,0,0-.08-.14.14.14,0,0,0-.13,0l-.26.08a2.75,2.75,0,0,1-.41.06l-.64,0h-1a2,2,0,0,0-.46,0,1,1,0,0,0-.28.11.23.23,0,0,0-.1.21q0,.14.07.14a.63.63,0,0,1,.59.24,2.25,2.25,0,0,1,.21.86q0,.08,0,.4t0,.7q0,.38,0,.74v.5l-.37,0h-.41a7.2,7.2,0,0,0-2.19.31,4.66,4.66,0,0,0-1.62.87,3.66,3.66,0,0,0-1,1.38,4.58,4.58,0,0,0-.34,1.8,3.43,3.43,0,0,0,.44,1.79h0s.05,0,.06,0a.27.27,0,0,1,0,.11v0a3.12,3.12,0,0,0,.38.5,2.84,2.84,0,0,0,.91.67,2.42,2.42,0,0,0,1,.23,3.05,3.05,0,0,0,1-.16,5.82,5.82,0,0,0,1.61-.83,4.45,4.45,0,0,0,.44-.37v.22c0,.1,0,.2,0,.31s0,.21,0,.31v.21a.38.38,0,0,0,.1.29.56.56,0,0,0,.37.09,2.85,2.85,0,0,0,1-.23q.6-.23,1.18-.52l.57-.28,0-.09A1.73,1.73,0,0,1,412.9,492.28Zm-3-2.37q0,.47,0,.79a3.42,3.42,0,0,1-.09.6,1.2,1.2,0,0,1-.18.39.86.86,0,0,1-.17.18,2.16,2.16,0,0,1-.28.21,1.79,1.79,0,0,1-.36.17,1.31,1.31,0,0,1-.43.07,2.42,2.42,0,0,1-1.07-.24,2.47,2.47,0,0,1-.84-.67,3.18,3.18,0,0,1-.55-1,4.06,4.06,0,0,1-.2-1.31,4,4,0,0,1,.15-1.18,2.18,2.18,0,0,1,.42-.79,1.56,1.56,0,0,1,.63-.44,2.2,2.2,0,0,1,.78-.14,3.3,3.3,0,0,1,.82.1,2.67,2.67,0,0,1,.68.27,1.67,1.67,0,0,1,.47.4,1,1,0,0,1,.21.49q0,.15,0,.55t0,.75Z"/><path d="M404.51,492s0,0-.06,0h0l.08.14v0A.27.27,0,0,0,404.51,492Z"/><path d="M418.72,486a2.14,2.14,0,0,0-1-.18,4.13,4.13,0,0,0-1,.13,10,10,0,0,0-1.08.33q-.54.2-1,.43t-.86.43a.43.43,0,0,0,0,.18.46.46,0,0,0,.18.37.61.61,0,0,0,.4.15.12.12,0,0,0,.14-.12.74.74,0,0,1,.13-.26,1.64,1.64,0,0,1,.32-.34,2.08,2.08,0,0,1,.49-.29,1.55,1.55,0,0,1,.62-.12,1.43,1.43,0,0,1,.64.13,1.22,1.22,0,0,1,.44.38,2.25,2.25,0,0,1,.31.63,7.14,7.14,0,0,1,.21.85q-.21.14-.68.37l-1,.5-1.06.51-.81.41a3.72,3.72,0,0,0-.92.65,1.12,1.12,0,0,0-.3.8,1.78,1.78,0,0,0,0,.36l.26-.1.35-.17.24-.15c.05,0,.1,0,.14.08s0,.15,0,.18l-.57.31-.3.15a1.34,1.34,0,0,0,.27.4,1.53,1.53,0,0,0,.51.34,1.83,1.83,0,0,0,.72.13,3,3,0,0,0,1-.19,7.45,7.45,0,0,0,1-.47,8.35,8.35,0,0,0,.93-.59l.66-.51a43,43,0,0,1,1.05-5.29A1.18,1.18,0,0,0,418.72,486Zm-.69,5.3-.19.21a2.2,2.2,0,0,1-.28.21,4.23,4.23,0,0,1-.47.28,4.31,4.31,0,0,1-.58.24,1.87,1.87,0,0,1-.6.11,1,1,0,0,1-.81-.34,1.24,1.24,0,0,1-.26-.78.85.85,0,0,1,.18-.55,2.26,2.26,0,0,1,.54-.46q.18-.12.46-.27l.58-.29.61-.27.55-.21.05.26q0,.2.08.47t.09.58q0,.31.09.57A.31.31,0,0,1,418,491.28Z"/><path d="M413.87,492.13q.08,0,0-.18c0-.09-.09-.12-.14-.08l-.24.15-.35.17-.26.1a1.73,1.73,0,0,0,.06.22l0,.09.3-.15Z"/><path class="cls-4" d="M425.42,486.86a1.07,1.07,0,0,0-.34-.26,1,1,0,0,0-.44-.1.91.91,0,0,0-.46.15,1.46,1.46,0,0,0-.46.47,3.05,3.05,0,0,0-.36.87,5.19,5.19,0,0,0-.15,1.32l.59-.22.64-.28.57-.29a2.79,2.79,0,0,0,.4-.24.77.77,0,0,0,.28-.67,1.17,1.17,0,0,0-.07-.38A1.1,1.1,0,0,0,425.42,486.86Z"/><path d="M428.89,486.66a.07.07,0,0,0-.07,0l-.25.14-.44.21-.48.22-.39.15a1,1,0,0,0,.18-.57.85.85,0,0,0-.47-.76,2.55,2.55,0,0,0-1.29-.28,3.68,3.68,0,0,0-.91.11,4.4,4.4,0,0,0-.86.31,5.8,5.8,0,0,0-.76.44,3.35,3.35,0,0,0-.6.52c-.1.11-.2.23-.29.35-.28,1.19-.5,2.46-.69,3.68a2.82,2.82,0,0,0,.19.59l.09.17a1.94,1.94,0,0,0,.17.28,2.63,2.63,0,0,0,.49.55,3.21,3.21,0,0,0,1.07.58,4,4,0,0,0,1.22.19,3.67,3.67,0,0,0,1.3-.23,5.76,5.76,0,0,0,1.11-.55,6.46,6.46,0,0,0,.85-.64q.35-.32.52-.5a.15.15,0,0,0-.06-.11.19.19,0,0,0-.12-.05l-.19.11a4.17,4.17,0,0,1-1.23.52,4,4,0,0,1-1,.11,3.19,3.19,0,0,1-1.12-.19,2.66,2.66,0,0,1-.88-.53,2.42,2.42,0,0,1-.57-.79,2.3,2.3,0,0,1-.21-1l.53-.25.92-.41,1.12-.48,1.15-.5,1-.48q.46-.23.7-.38a.66.66,0,0,0,.18-.21.64.64,0,0,0,.08-.33A0,0,0,0,0,428.89,486.66Zm-3.46,1.61a2.79,2.79,0,0,1-.4.24l-.57.29-.64.28-.59.22a5.19,5.19,0,0,1,.15-1.32,3.05,3.05,0,0,1,.36-.87,1.46,1.46,0,0,1,.46-.47.91.91,0,0,1,.46-.15,1,1,0,0,1,.44.1,1.07,1.07,0,0,1,.34.26,1.1,1.1,0,0,1,.21.36,1.17,1.17,0,0,1,.07.38A.77.77,0,0,1,425.42,488.28Z"/></g></svg>