<svg xmlns="http://www.w3.org/2000/svg" viewBox="0 0 841.89 595.28"><defs><style>.cls-1{fill:#f9b233;}.cls-2{fill:#4e3628;}.cls-3,.cls-4,.cls-8,.cls-9{fill:none;}.cls-3,.cls-4{stroke:#1d1d1b;stroke-width:9px;}.cls-10,.cls-3,.cls-4,.cls-5,.cls-6,.cls-8,.cls-9{stroke-miterlimit:10;}.cls-4,.cls-9{stroke-linecap:round;}.cls-5{font-size:45.35px;}.cls-10,.cls-5,.cls-6,.cls-8,.cls-9{stroke:#000;}.cls-5,.cls-6,.cls-8,.cls-9{stroke-width:2px;}.cls-10,.cls-5{font-family:Skia-Regular, Skia;}.cls-6,.cls-7{fill:#fff;}.cls-10{font-size:11.58px;stroke-width:0.5px;}</style></defs><title>Tekengebied 3</title><g id="Grizzly"><rect class="cls-1" x="87.25" y="61.52" width="672.35" height="461.09"/><g id="Grote_versie" data-name="Grote versie"><g id="_Groep_" data-name="&lt;Groep&gt;"><path class="cls-2" d="M511.82,260.91a84.61,84.61,0,0,1-7.27,7.29,90.77,90.77,0,0,1-45.73,21.54L451.39,291c-1,.14,40.11-32,49.81-47,20.23-31.24,15.07-62,3.33-85.08a.09.09,0,0,0,0,0c-.12-.74-2.43-14.42,4.08-34,12.18,13.22,23.85,35,24.71,70.94A93.36,93.36,0,0,1,531,218.64C528.54,229.52,525.61,245.25,511.82,260.91Z"/><path class="cls-2" d="M511.82,260.91c13.79-15.67,16.72-31.39,19.17-42.28a93.36,93.36,0,0,0,2.34-22.79c-.86-35.89-12.54-57.72-24.71-70.94,1-2.95,2.15-6,3.57-9.21,2.88-6.47,3.12-12.29,1.47-16.63,0,0,28.64-8.89,49.34-8.62V347.83H534.45c-16.29-30.31-71-52.71-76.93-54.76a27.65,27.65,0,0,0-6.2-1l.08-1.16,7.43-1.22a90.77,90.77,0,0,0,45.73-21.54A84.61,84.61,0,0,0,511.82,260.91Z"/><path class="cls-2" d="M434,223c4.72,13-4.48,18-5.91,19.28a24.44,24.44,0,0,1-6.58,2.92,13.61,13.61,0,0,1-17.61-12.57c0-.15,0-.29,0-.44,0-.49,0-1.05-.06-1.66v-.08a79.36,79.36,0,0,1,.46-8.08h0c2.17-6.13,6.77-7.44,9.39-7.62C425.26,214,430.74,214,434,223Z"/><path class="cls-2" d="M403.89,232.2c0,.15,0,.29,0,.44a13.61,13.61,0,0,0,17.61,12.57,24.44,24.44,0,0,0,6.58-2.92C429.51,241,438.71,236,434,223c-3.25-9-8.73-9-20.3-8.25-2.62.18-7.22,1.49-9.39,7.62h0c-.73,2-.57,5.45-.46,8.08v.08C403.86,231.14,403.88,231.71,403.89,232.2ZM501.21,244c-9.7,15-50.8,47.11-49.81,47l-.08,1.16c-5.6-.42-13.56-.5-21.21-.88a90.4,90.4,0,0,1-29.07-6.3h0l-.26-.1c-55.4-22.31-68.4-63.84-70.11-93.45a88.82,88.82,0,0,1,4.78-34.29,91.2,91.2,0,0,1,12.38-23.74,76,76,0,0,1,26.1-22.28c.45-.24.92-.46,1.38-.68,37-18,81.82-8.48,86.6-7.81a67.63,67.63,0,0,1,15.83,4.67,84.42,84.42,0,0,0-5.52,8.47l-3,3.67a.8.8,0,0,0,.42,1.28c7.07,1.84,23.9,16.6,35,38.22a.09.09,0,0,1,0,0C516.28,182,521.43,212.75,501.21,244Zm-48.93-67.77c0,5.26,18.82,16.33,18.82,0C471.1,166.23,452.28,169,452.28,176.23Zm-43.1.73c0-7.19-18.83-10-18.83,0C390.34,193.28,409.18,182.21,409.18,177Z"/><path class="cls-2" d="M404.3,222.38a79.36,79.36,0,0,0-.46,8.08C403.73,227.83,403.57,224.42,404.3,222.38Z"/><path class="cls-3" d="M504.54,158.92a.09.09,0,0,0,0,0c-11.05-21.62-27.88-36.38-35-38.22a.8.8,0,0,1-.42-1.28l3-3.67a84.42,84.42,0,0,1,5.52-8.47c.69-.92,1.37-1.79,2.06-2.63,14.87-18.06,29.9-16.11,33.86-5.53,1.64,4.34,1.41,10.16-1.47,16.63-1.42,3.19-2.6,6.26-3.57,9.21-6.51,19.54-4.21,33.23-4.08,34"/><path class="cls-3" d="M504.54,158.92c11.73,23,16.89,53.84-3.33,85.08-9.7,15-50.8,47.11-49.81,47l7.43-1.22a90.77,90.77,0,0,0,45.73-21.54,84.61,84.61,0,0,0,7.27-7.29c13.79-15.67,16.72-31.39,19.17-42.28a93.36,93.36,0,0,0,2.34-22.79c-.86-35.89-12.54-57.72-24.71-70.94"/><path class="cls-4" d="M401,284.94a90.4,90.4,0,0,0,29.07,6.3c7.65.39,15.61.46,21.21.88a27.65,27.65,0,0,1,6.2,1c5.93,2.05,60.64,24.44,76.93,54.76"/><path class="cls-4" d="M477.73,107.24a67.63,67.63,0,0,0-15.83-4.67c-4.78-.67-49.61-10.21-86.6,7.81-.46.22-.93.44-1.38.68a76,76,0,0,0-26.1,22.28,91.2,91.2,0,0,0-12.38,23.74,88.82,88.82,0,0,0-4.78,34.29c1.71,29.61,14.7,71.14,70.11,93.45l.26.1"/><path class="cls-3" d="M335.43,157.08s-6.09-35.43-7.68-42.15,18-40.1,47.55-4.55l.34.4"/><path class="cls-4" d="M354.47,157.08c.36.61-24.54,65.8,46.55,127.85h0"/><path class="cls-4" d="M403.84,230.54c-.12,10.65,1.45,25.85,9.67,29.83,12.45,6,24.08,2.53,29.19-4.68,6.54-9.24,12-43.56,8.53-59.92"/><path class="cls-4" d="M404.3,222.38a79.36,79.36,0,0,0-.46,8.08"/><path class="cls-4" d="M407.72,195.77s-2.15,21.53-3,24.11a15.47,15.47,0,0,0-.41,2.48"/><line class="cls-4" x1="404.3" y1="222.38" x2="404.3" y2="222.37"/><path class="cls-3" d="M404.3,222.37c2.17-6.13,6.77-7.44,9.39-7.62C425.26,214,430.74,214,434,223c4.72,13-4.48,18-5.91,19.28a24.44,24.44,0,0,1-6.58,2.92,13.61,13.61,0,0,1-17.61-12.57c0-.15,0-.29,0-.44,0-.49,0-1.05-.06-1.66v-.08c-.1-2.63-.26-6,.46-8.08"/><path class="cls-3" d="M452.28,176.23c0-7.19,18.82-10,18.82,0C471.1,192.55,452.28,181.49,452.28,176.23Z"/><path class="cls-3" d="M409.18,177c0-7.19-18.83-10-18.83,0C390.34,193.28,409.18,182.21,409.18,177Z"/><path class="cls-4" d="M499.85,293a73.89,73.89,0,0,1,12-32l0-.07"/><path class="cls-4" d="M513.66,99.08s28.64-8.89,49.34-8.62"/></g><text class="cls-5" transform="translate(292 256.42) rotate(45.55)">G</text><text class="cls-5" transform="matrix(0.77, 0.64, -0.64, 0.77, 315.32, 279.98)">R</text><text class="cls-5" transform="translate(338.75 299.13) rotate(35.37)">I</text><text class="cls-5" transform="translate(351.48 308.46) rotate(30.31)">Z</text><text class="cls-5" transform="translate(377.38 323.46) rotate(22)">Z</text><text class="cls-5" transform="translate(405.88 334.61) rotate(11.68)">L</text><text class="cls-5" transform="translate(434.25 340.16) rotate(-1.12)">Y</text></g><rect class="cls-6" x="390.29" y="416.56" width="90.07" height="90.07"/><g id="Kleine_versie" data-name="Kleine versie"><g id="_Groep_2" data-name="&lt;Groep&gt;"><path class="cls-7" d="M457.9,475.05a21.61,21.61,0,0,1-1.86,1.86,23.18,23.18,0,0,1-11.68,5.5l-1.9.31c-.25,0,10.24-8.17,12.72-12,5.16-8,3.85-15.84.85-21.73h0a19.07,19.07,0,0,1,1-8.67c3.11,3.38,6.09,8.95,6.31,18.11a23.84,23.84,0,0,1-.6,5.82C462.17,467,461.42,471.05,457.9,475.05Z"/><path class="cls-7" d="M457.9,475.05c3.52-4,4.27-8,4.9-10.79a23.84,23.84,0,0,0,.6-5.82c-.22-9.17-3.2-14.74-6.31-18.11.25-.75.55-1.54.91-2.35a5.64,5.64,0,0,0,.38-4.25s7.31-2.27,12.6-2.2v65.72h-7.29c-4.16-7.74-18.13-13.46-19.64-14a7.06,7.06,0,0,0-1.58-.24l0-.3,1.9-.31a23.18,23.18,0,0,0,11.68-5.5A21.61,21.61,0,0,0,457.9,475.05Z"/><path class="cls-7" d="M438,465.37a3.82,3.82,0,0,1-1.51,4.92,6.24,6.24,0,0,1-1.68.75,3.47,3.47,0,0,1-4.5-3.21s0-.08,0-.11,0-.27,0-.42v0a20.26,20.26,0,0,1,.12-2.06h0a2.68,2.68,0,0,1,2.4-1.95C435.8,463.07,437.19,463.08,438,465.37Z"/><path class="cls-7" d="M430.34,467.72s0,.08,0,.11a3.47,3.47,0,0,0,4.5,3.21,6.24,6.24,0,0,0,1.68-.75,3.82,3.82,0,0,0,1.51-4.92c-.83-2.29-2.23-2.3-5.18-2.11a2.68,2.68,0,0,0-2.4,1.95h0a6.51,6.51,0,0,0-.12,2.06v0C430.33,467.45,430.34,467.59,430.34,467.72Zm24.85,3c-2.48,3.83-13,12-12.72,12l0,.3c-1.43-.11-3.46-.13-5.42-.23a23.08,23.08,0,0,1-7.42-1.61h0l-.07,0c-14.15-5.7-17.46-16.3-17.9-23.86a22.68,22.68,0,0,1,1.22-8.76,23.29,23.29,0,0,1,3.16-6.06,19.4,19.4,0,0,1,6.66-5.69l.35-.17c9.45-4.6,20.89-2.17,22.11-2a17.27,17.27,0,0,1,4,1.19,21.56,21.56,0,0,0-1.41,2.16l-.78.94a.2.2,0,0,0,.11.33c1.81.47,6.1,4.24,8.92,9.76h0C459,454.89,460.35,462.75,455.19,470.73Zm-12.49-17.31c0,1.34,4.81,4.17,4.81,0C447.5,450.87,442.69,451.59,442.69,453.43Zm-11,.19c0-1.84-4.81-2.55-4.81,0C426.88,457.78,431.69,455,431.69,453.61Z"/><path class="cls-7" d="M430.44,465.21a20.26,20.26,0,0,0-.12,2.06A6.51,6.51,0,0,1,430.44,465.21Z"/><path class="cls-8" d="M456,449h0c-2.82-5.52-7.12-9.29-8.92-9.76a.2.2,0,0,1-.11-.33l.78-.94a21.56,21.56,0,0,1,1.41-2.16c.18-.23.35-.46.53-.67,3.8-4.61,7.63-4.11,8.65-1.41A5.64,5.64,0,0,1,458,438c-.36.81-.66,1.6-.91,2.35a19.07,19.07,0,0,0-1,8.67"/><path class="cls-8" d="M456,449c3,5.88,4.31,13.75-.85,21.73-2.48,3.83-13,12-12.72,12l1.9-.31a23.18,23.18,0,0,0,11.68-5.5,21.61,21.61,0,0,0,1.86-1.86c3.52-4,4.27-8,4.9-10.79a23.84,23.84,0,0,0,.6-5.82c-.22-9.17-3.2-14.74-6.31-18.11"/><path class="cls-9" d="M429.61,481.19A23.08,23.08,0,0,0,437,482.8c2,.1,4,.12,5.42.23a7.06,7.06,0,0,1,1.58.24c1.51.52,15.48,6.24,19.64,14"/><path class="cls-9" d="M449.19,435.81a17.27,17.27,0,0,0-4-1.19c-1.22-.17-12.67-2.61-22.11,2l-.35.17a19.4,19.4,0,0,0-6.66,5.69,23.29,23.29,0,0,0-3.16,6.06,22.68,22.68,0,0,0-1.22,8.76c.44,7.56,3.75,18.17,17.9,23.86l.07,0"/><path class="cls-8" d="M412.86,448.54s-1.55-9-2-10.76,4.61-10.24,12.14-1.16l.09.1"/><path class="cls-9" d="M417.72,448.54c.09.16-6.27,16.8,11.89,32.65h0"/><path class="cls-9" d="M430.32,467.3c0,2.72.37,6.6,2.47,7.62,3.18,1.54,6.15.65,7.45-1.2,1.67-2.36,3.06-11.12,2.18-15.3"/><path class="cls-9" d="M430.44,465.21a20.26,20.26,0,0,0-.12,2.06"/><path class="cls-9" d="M431.32,458.42s-.55,5.5-.77,6.16a4,4,0,0,0-.1.63"/><line class="cls-9" x1="430.44" y1="465.21" x2="430.44" y2="465.21"/><path class="cls-8" d="M430.44,465.21a2.68,2.68,0,0,1,2.4-1.95c3-.2,4.35-.18,5.18,2.11a3.82,3.82,0,0,1-1.51,4.92,6.24,6.24,0,0,1-1.68.75,3.47,3.47,0,0,1-4.5-3.21s0-.08,0-.11,0-.27,0-.42v0a6.51,6.51,0,0,1,.12-2.06"/><path class="cls-8" d="M442.69,453.43c0-1.84,4.81-2.55,4.81,0C447.5,457.6,442.69,454.77,442.69,453.43Z"/><path class="cls-8" d="M431.69,453.61c0-1.84-4.81-2.55-4.81,0C426.88,457.78,431.69,455,431.69,453.61Z"/><path class="cls-9" d="M454.84,483.24a18.87,18.87,0,0,1,3.06-8.18v0"/><path class="cls-9" d="M458.37,433.73s7.31-2.27,12.6-2.2"/><path d="M413.07,447.5s-3.9-9.5-1-12.66,8.58-2.18,11,1.78C421.43,438.42,414.45,443,413.07,447.5Z"/><path d="M456,445.55s5-14.52.32-13.87-10.16,7.12-9.19,7.56S456,445.55,456,445.55Z"/></g><text class="cls-10" transform="matrix(0.7, 0.71, -0.71, 0.7, 401.78, 473.92)">G</text><text class="cls-10" transform="translate(407.76 479.96) rotate(39.85)">R</text><text class="cls-10" transform="matrix(0.82, 0.58, -0.58, 0.82, 413.74, 484.84)">I</text><text class="cls-10" transform="translate(417 487.23) rotate(30.26)">Z</text><text class="cls-10" transform="matrix(0.93, 0.37, -0.37, 0.93, 423.65, 491.07)">Z</text><text class="cls-10" transform="translate(430.98 493.91) rotate(11.47)">L</text><text class="cls-10" transform="translate(438.27 495.31) rotate(-1.43)">Y</text></g></g></svg>