<svg id="Hertz" xmlns="http://www.w3.org/2000/svg" viewBox="0 0 841.89 595.28"><defs><style>.cls-1{fill:#f9b233;}.cls-2{fill:#4e3628;}.cls-11,.cls-12,.cls-13,.cls-14,.cls-15,.cls-3,.cls-4,.cls-5,.cls-6{fill:none;}.cls-10,.cls-11,.cls-12,.cls-13,.cls-15,.cls-3,.cls-4,.cls-5,.cls-7{stroke:#000;}.cls-11,.cls-3{stroke-linecap:round;}.cls-10,.cls-11,.cls-12,.cls-15,.cls-3,.cls-4,.cls-7{stroke-miterlimit:10;}.cls-3,.cls-4,.cls-5,.cls-6,.cls-7{stroke-width:9px;}.cls-13,.cls-14,.cls-5,.cls-6{stroke-linejoin:round;}.cls-14,.cls-6{stroke:#1d1d1b;}.cls-16,.cls-8{opacity:0.8;}.cls-10,.cls-9{fill:#fff;}.cls-10,.cls-11,.cls-12,.cls-13,.cls-14{stroke-width:2px;}.cls-15{stroke-width:3px;}.cls-16{font-size:13.5px;font-family:Bungee-Regular, Bungee;}.cls-17{letter-spacing:-0.03em;}.cls-18{letter-spacing:-0.01em;}</style></defs><title>Tekengebied 1</title><rect class="cls-1" x="88.36" y="74.1" width="672.35" height="461.09"/><g id="Grote_versie" data-name="Grote versie"><g id="_Groep_" data-name="&lt;Groep&gt;"><path class="cls-2" d="M544.91,215.05c28.09-8.54,14.64,23.2-23.77,41,0,0-.26.23-.66.6a19.87,19.87,0,0,0-2-3.05A100.79,100.79,0,0,0,508,238.87l.2-.18S531.68,218.88,544.91,215.05Z"/><path class="cls-2" d="M523.6,295.27a6.66,6.66,0,0,1,3.54,1.74c27.43,31.92-3.53,41.05-17.4,46.95-11.6,7-19.14,17.49-19.14,25.13v.24H286.45V343.42s64.15-3.71,77.65-10.82c12.24-6.44,32.62-26.39,39-34.58a57.19,57.19,0,0,1,5.24-5.82c1.54-1.5,3.21-3.09,4.8-4.59a57.53,57.53,0,0,0,14.1-20.69c.86-2.21,1.41-4,1.19-4.59-.65-1.84-25.21-25.25-31.15-38.08a12.93,12.93,0,0,1-1.26-4.13c-1.55-3.35,28.93-17.35,47.69,10.5h0a83.9,83.9,0,0,1,13.38-2.25,113.71,113.71,0,0,1,15.72-.25c7,.32,13.3,1.14,18.2,1.81,2,.26,3.69.5,5.15.68,3.84.48,8.07,4.06,11.78,8.26a100.79,100.79,0,0,1,10.46,14.77,19.87,19.87,0,0,1,2,3.05c-1.31,1.21-4.08,3.89-4.06,4.89,0,1.29-10.17,2.94-9.75,5,.19,1,2.13,10.48,5.86,12,3.92,1.55,7.53,1.51,8.36,2.47,1.6,1.85,2.34,1.86,2.37,1.86C523.24,287.73,523.49,293.12,523.6,295.27Zm-81-14.57c11.67,6.44,23.66-5.36,22.43-7.73-2.43-4.73-9.6-6.79-14.4-7.65a10.29,10.29,0,0,0-8.74,2.49C438.32,271.08,434.78,276.38,442.64,280.7Z"/><path class="cls-2" d="M524.31,210.11c.36-.08.72-.16,1.09-.22,0,0-1.31.36-2.74.73l1.63-.52S524.3,210.09,524.31,210.11Z"/><path class="cls-2" d="M524.3,210.11l-1.63.52-.12,0-.95.25A17.44,17.44,0,0,1,524.3,210.11Z"/><path class="cls-2" d="M521.6,210.9l.95-.25c-.43.14-.84.26-1.23.37A.92.92,0,0,1,521.6,210.9Z"/><path class="cls-2" d="M521.6,210.9a.92.92,0,0,0-.28.12c-.89.24-1.66.43-2.22.54Z"/><path class="cls-3" d="M286.45,343.42s64.15-3.71,77.65-10.82c12.24-6.44,32.62-26.39,39-34.58a57.19,57.19,0,0,1,5.24-5.82c1.54-1.5,3.21-3.09,4.8-4.59a57.53,57.53,0,0,0,14.1-20.69c.86-2.21,1.41-4,1.19-4.59-.65-1.84-25.21-25.25-31.15-38.08a12.93,12.93,0,0,1-1.26-4.13c-1.55-3.35,28.93-17.35,47.69,10.5a64.12,64.12,0,0,1,6.94,13.91"/><path class="cls-4" d="M442.64,280.7c11.67,6.44,23.66-5.36,22.43-7.73-2.43-4.73-9.6-6.79-14.4-7.65a10.29,10.29,0,0,0-8.74,2.49C438.32,271.08,434.78,276.38,442.64,280.7Z"/><path class="cls-3" d="M423.29,299.83c1.54,9.13,15.11,45.47,41.06,57.29"/><path class="cls-3" d="M490.6,369.08c0-7.64,7.54-18.1,19.14-25.13,13.87-5.9,44.83-15,17.4-46.95a6.66,6.66,0,0,0-3.54-1.74c-10.73-2.2-36.61,8.43-30.27,37.12"/><path class="cls-4" d="M523.65,296.23s0-.35,0-1c-.11-2.15-.36-7.54-.35-12.42a54.63,54.63,0,0,1,.4-7.49,31.29,31.29,0,0,0-3.17-18.66,19.87,19.87,0,0,0-2-3.05A100.79,100.79,0,0,0,508,238.87c-3.71-4.2-7.94-7.78-11.78-8.26-1.47-.18-3.19-.42-5.15-.68-4.9-.67-11.19-1.49-18.2-1.81a113.71,113.71,0,0,0-15.72.25,83.9,83.9,0,0,0-13.38,2.25"/><path class="cls-4" d="M508.18,238.69s23.5-19.8,36.73-23.64c28.09-8.54,14.64,23.2-23.77,41,0,0-.26.23-.66.6-1.31,1.21-4.08,3.89-4.06,4.89,0,1.29-10.17,2.94-9.75,5,.19,1,2.13,10.48,5.86,12,3.92,1.55,7.53,1.51,8.36,2.47,1.6,1.85,2.34,1.86,2.37,1.86"/><path class="cls-5" d="M524.3,210.11a17.44,17.44,0,0,0-2.7.79.92.92,0,0,0-.28.12,7.73,7.73,0,0,0-.73.29c-5.38,2.41-23.46,10-29.54,18.62q-.25.34-.47.68"/><path class="cls-6" d="M522.67,210.62c1.43-.37,2.74-.72,2.74-.73-.37.06-.73.13-1.09.22"/><path class="cls-6" d="M519.1,211.56l2.5-.66.95-.25"/><path class="cls-5" d="M522.55,210.65c-.43.14-.84.26-1.23.37-.89.24-1.66.43-2.22.54h0"/><path class="cls-6" d="M522.55,210.65l.12,0"/><path class="cls-5" d="M472.67,228.43l.18-.32c1.8-3.07,16.23-27.12,27.26-23.83,2.41-.74,8.64-5.7,11.81-20.38,0,0,4.6,20.79,15.42,7.18C537,181,545.22,165,547.81,141.4a6.65,6.65,0,0,0-.24-2.62c-2.46-8.46-1.49-11-6.88-18.48l-5.79-7.47,13,7.52a.33.33,0,0,0,.3,0c.83-.29,2-14.64,5.48-31.77,7.6,17.45,31,72.67-18.83,116.76-1.61,1.43-6.47,3.37-10.54,4.73,0,0,0,0,0,0l-1.63.52"/><path class="cls-5" d="M457.13,228.35s1.2-9-3.74-16.13a6,6,0,0,1,.36-7.12C464,191.61,448,150,421.61,150c0,0,33.87,34.48,9.44,53.52-9.38.95-18.34-2.62-18.34-2.62S374.45,159.25,382,116.21c-11.18,4.79-36.57,8.49,6.61,84.82-33,.83-62.52-79.71-59.7-99-3.47-.11-6.81,50.49.68,63.35-10.22-12.54-28.36-73.85-28.36-76.8,0,13.67-25.07,100.56,96.07,135.63"/><path class="cls-7" d="M520.35,311.05c2.58,1,1.29,3.54.55,4.59s-.82,5.22,0,6.19-1.74,4.72-4.59,3.19-1.95-3.9-4.9-4.43-5.58-2.19-4.55-3.81"/></g><g id="Hertz-2" data-name="Hertz" class="cls-8"><path class="cls-9" d="M321.76,336v9.43h-9v-8.53c-4.42.46-8.6.72-12.27,1v31.4h12.27V358.17h9v11.15H334v-34.8C330,335.12,325.85,335.49,321.76,336Z"/><path class="cls-9" d="M370,362.9a1.9,1.9,0,0,0-1.49-.52H353.59v-5.25h10.54a1.89,1.89,0,0,0,1.49-.52,2.5,2.5,0,0,0,.46-1.68V348.4a2.51,2.51,0,0,0-.46-1.68,1.9,1.9,0,0,0-1.49-.52H353.59v-4.7h14.92A1.89,1.89,0,0,0,370,341a2.51,2.51,0,0,0,.46-1.68v-7.14a2.51,2.51,0,0,0-.46-1.68,1.9,1.9,0,0,0-1.49-.52h-9.93c-4.28,1.38-10.28,2.36-17.1,3.53v35.84h29v-4.74A2.51,2.51,0,0,0,370,362.9Z"/><path class="cls-9" d="M409.12,352.61a6.87,6.87,0,0,0-4.73-2.69,4.5,4.5,0,0,0,2.35-2.6,12.47,12.47,0,0,0,.68-4.37v-2.81a11.33,11.33,0,0,0-2.3-7.36q-2.3-2.84-8.35-2.84h-18a1.89,1.89,0,0,0-1.49.52,2.5,2.5,0,0,0-.46,1.68v37.17H389v-9.57h7.57a1.83,1.83,0,0,1,1.59.64,3.44,3.44,0,0,1,.46,2v6.94h12.27V358.78A9.76,9.76,0,0,0,409.12,352.61Zm-13.65-6.72a4,4,0,0,1-.49,2,2,2,0,0,1-1.89.82H389v-7.82h4.05a2,2,0,0,1,1.89.82,4,4,0,0,1,.49,2Z"/><path class="cls-9" d="M443.63,341.74a1.89,1.89,0,0,0,1.49-.52,2.51,2.51,0,0,0,.46-1.68v-7.39a2.51,2.51,0,0,0-.46-1.68,1.9,1.9,0,0,0-1.49-.52H415.1a1.89,1.89,0,0,0-1.49.52,2.5,2.5,0,0,0-.46,1.68v7.39a2.5,2.5,0,0,0,.46,1.68,1.89,1.89,0,0,0,1.49.52H423v27.58h12.65V341.74Z"/><path class="cls-9" d="M479.28,362.78a1.9,1.9,0,0,0-1.49-.52H464.87l12.54-17.16a6,6,0,0,0,1-1.74,6.11,6.11,0,0,0,.32-2.11v-9.1a2.51,2.51,0,0,0-.46-1.68,1.9,1.9,0,0,0-1.49-.52H452a1.89,1.89,0,0,0-1.49.52,2.5,2.5,0,0,0-.46,1.68v7.39a2.5,2.5,0,0,0,.46,1.68,1.89,1.89,0,0,0,1.49.52h11.57l-13.13,18a6,6,0,0,0-1,1.74,5.92,5.92,0,0,0-.32,2v5.78h30.7v-4.87A2.51,2.51,0,0,0,479.28,362.78Z"/></g></g><rect class="cls-10" x="390.88" y="429.97" width="90.07" height="90.07"/><g id="Kleine_versie" data-name="Kleine versie"><g id="_Groep_2" data-name="&lt;Groep&gt;"><path d="M461.15,467.75a4.36,4.36,0,0,0-.67.2l-.07,0-.18.07c-1.34.6-5.86,2.49-7.38,4.65l-.12.17a36.83,36.83,0,0,0-4.47-.54l0-.08c.45-.77,4.05-6.77,6.81-6,.6-.19,2.16-1.42,2.95-5.09,0,0,1.15,5.19,3.85,1.79,2.41-2.52,4.47-6.5,5.11-12.41a1.66,1.66,0,0,0-.06-.65c-.61-2.11-.37-2.76-1.72-4.62l-1.45-1.87,3.25,1.88a.08.08,0,0,0,.07,0c.21-.07.51-3.66,1.37-7.93,1.9,4.36,7.75,18.15-4.7,29.17a10.2,10.2,0,0,1-2.63,1.18h0l-.41.13"/><path d="M444.37,472.3a6.38,6.38,0,0,0-.93-4,1.5,1.5,0,0,1,.09-1.78c2.55-3.37-1.45-13.76-8-13.76,0,0,8.46,8.61,2.36,13.37a11,11,0,0,1-4.58-.65s-9.56-10.4-7.67-21.15c-2.79,1.2-9.13,2.12,1.65,21.19-8.24.21-15.62-19.91-14.91-24.72-.87,0-1.7,12.61.17,15.82-2.55-3.13-7.08-18.45-7.08-19.18,0,3.41-6.26,25.12,24,33.88Z"/><path class="cls-9" d="M466.3,469c7-2.13,3.66,5.8-5.94,10.25l-.16.15a5,5,0,0,0-.51-.76,25.18,25.18,0,0,0-2.61-3.69l.05,0S463,469.94,466.3,469Z"/><path class="cls-9" d="M461,489a1.66,1.66,0,0,1,.88.43c6.85,8-.88,10.25-4.35,11.73-2.9,1.75-4.78,4.37-4.78,6.28v.06h-51V501s16-.93,19.39-2.7c3.06-1.61,8.15-6.59,9.75-8.64a14.29,14.29,0,0,1,1.31-1.45l1.2-1.15a14.37,14.37,0,0,0,3.52-5.17,2.7,2.7,0,0,0,.3-1.15c-.16-.46-6.3-6.31-7.78-9.51a3.23,3.23,0,0,1-.31-1c-.39-.84,7.23-4.33,11.91,2.62h0a21,21,0,0,1,3.34-.56,28.4,28.4,0,0,1,3.93-.06c1.75.08,3.32.28,4.54.45l1.29.17a5.61,5.61,0,0,1,2.94,2.06,25.18,25.18,0,0,1,2.61,3.69,5,5,0,0,1,.51.76c-.33.3-1,1-1,1.22s-2.54.73-2.44,1.24c0,.25.53,2.62,1.46,3s1.88.38,2.09.62c.4.46.58.46.59.46C460.88,487.14,460.95,488.48,461,489Zm-20.22-3.64c2.92,1.61,5.91-1.34,5.6-1.93-.61-1.18-2.4-1.69-3.6-1.91a2.57,2.57,0,0,0-2.18.62C439.67,483,438.79,484.3,440.75,485.38Z"/><path class="cls-9" d="M461.15,467.75l.27-.05-.68.18.41-.13Z"/><path class="cls-9" d="M461.15,467.75l-.41.13h0l-.24.06A4.36,4.36,0,0,1,461.15,467.75Z"/><path class="cls-9" d="M460.47,467.95l.24-.06-.31.09Z"/><path class="cls-9" d="M460.47,467.95l-.07,0-.55.13Z"/><path class="cls-11" d="M401.74,501s16-.93,19.39-2.7c3.06-1.61,8.15-6.59,9.75-8.64a14.29,14.29,0,0,1,1.31-1.45l1.2-1.15a14.37,14.37,0,0,0,3.52-5.17,2.7,2.7,0,0,0,.3-1.15c-.16-.46-6.3-6.31-7.78-9.51a3.23,3.23,0,0,1-.31-1c-.39-.84,7.23-4.33,11.91,2.62a16,16,0,0,1,1.73,3.47"/><path class="cls-12" d="M440.75,485.38c2.92,1.61,5.91-1.34,5.6-1.93-.61-1.18-2.4-1.69-3.6-1.91a2.57,2.57,0,0,0-2.18.62C439.67,483,438.79,484.3,440.75,485.38Z"/><path class="cls-11" d="M435.92,490.16c.38,2.28,3.77,11.36,10.26,14.31"/><path class="cls-11" d="M452.73,507.46c0-1.91,1.88-4.52,4.78-6.28,3.46-1.47,11.2-3.75,4.35-11.73A1.66,1.66,0,0,0,461,489c-2.68-.55-9.14,2.11-7.56,9.27"/><path class="cls-12" d="M461,489.26s0-.09,0-.24c0-.54-.09-1.88-.09-3.1A13.64,13.64,0,0,1,461,484a7.82,7.82,0,0,0-.79-4.66,5,5,0,0,0-.51-.76,25.18,25.18,0,0,0-2.61-3.69,5.61,5.61,0,0,0-2.94-2.06l-1.29-.17c-1.22-.17-2.8-.37-4.54-.45a28.4,28.4,0,0,0-3.93.06,21,21,0,0,0-3.34.56"/><path class="cls-12" d="M457.12,474.89s5.87-4.95,9.17-5.9c7-2.13,3.66,5.8-5.94,10.25l-.16.15c-.33.3-1,1-1,1.22s-2.54.73-2.44,1.24c0,.25.53,2.62,1.46,3s1.88.38,2.09.62c.4.46.58.46.59.46"/><path class="cls-13" d="M461.15,467.75a4.36,4.36,0,0,0-.67.2l-.07,0-.18.07c-1.34.6-5.86,2.49-7.38,4.65l-.12.17"/><path class="cls-13" d="M448.25,472.33l0-.08c.45-.77,4.05-6.77,6.81-6,.6-.19,2.16-1.42,2.95-5.09,0,0,1.15,5.19,3.85,1.79,2.41-2.52,4.47-6.5,5.11-12.41a1.66,1.66,0,0,0-.06-.65c-.61-2.11-.37-2.76-1.72-4.62l-1.45-1.87,3.25,1.88a.08.08,0,0,0,.07,0c.21-.07.51-3.66,1.37-7.93,1.9,4.36,7.75,18.15-4.7,29.17a10.2,10.2,0,0,1-2.63,1.18h0l-.41.13"/><path class="cls-14" d="M460.74,467.88l.68-.18-.27.05"/><path class="cls-14" d="M459.85,468.11l.62-.16.24-.06"/><path class="cls-13" d="M460.71,467.88l-.31.09-.55.13h0"/><path class="cls-13" d="M460.71,467.88h0"/><path class="cls-13" d="M444.37,472.3a6.38,6.38,0,0,0-.93-4,1.5,1.5,0,0,1,.09-1.78c2.55-3.37-1.45-13.76-8-13.76,0,0,8.46,8.61,2.36,13.37a11,11,0,0,1-4.58-.65s-9.56-10.4-7.67-21.15c-2.79,1.2-9.13,2.12,1.65,21.19-8.24.21-15.62-19.91-14.91-24.72-.87,0-1.7,12.61.17,15.82-2.55-3.13-7.08-18.45-7.08-19.18,0,3.41-6.26,25.12,24,33.88"/><path class="cls-15" d="M460.16,493c.64.24.32.88.14,1.15a2.08,2.08,0,0,0,0,1.54c.21.24-.43,1.18-1.15.8s-.49-1-1.22-1.11-1.39-.55-1.14-1"/></g><text class="cls-16" transform="translate(404.37 508.53)">HE<tspan class="cls-17" x="19.07" y="0">R</tspan><tspan class="cls-18" x="28.7" y="0">T</tspan><tspan x="37.42" y="0">Z</tspan></text></g></svg>