<svg xmlns="http://www.w3.org/2000/svg" xmlns:xlink="http://www.w3.org/1999/xlink" viewBox="0 0 595.28 425.2"><defs><style>.cls-1{font-size:15px;font-family:Krungthep, Krungthep;}.cls-2{font-size:56px;font-family:BernardMT-Condensed, Bernard MT Condensed;}.cls-3{letter-spacing:-0.01em;}.cls-19,.cls-4{font-size:12px;}.cls-4{font-family:LaoSangamMN, Lao Sangam MN;}.cls-17,.cls-19,.cls-23,.cls-5,.cls-6,.cls-7,.cls-8{font-family:Arial-Black, Arial Black;}.cls-27,.cls-6{letter-spacing:-0.02em;}.cls-7{letter-spacing:-0.02em;}.cls-8{letter-spacing:0.02em;}.cls-9{fill:#ea5b0c;}.cls-10,.cls-11,.cls-12,.cls-13{stroke:#1d1d1b;stroke-miterlimit:10;}.cls-10{fill:url(#Naamloos_verloop_30);}.cls-11{fill:url(#Naamloos_verloop_30-2);}.cls-12{fill:url(#Naamloos_verloop_30-3);}.cls-13,.cls-19{fill:#fff;}.cls-14{fill:url(#Naamloos_verloop_30-4);}.cls-15{fill:#1d1d1b;}.cls-16{fill:none;}.cls-17{font-size:15.8px;}.cls-18{letter-spacing:-0.03em;}.cls-20{letter-spacing:0.04em;}.cls-21{letter-spacing:0.54em;}.cls-22{letter-spacing:3.86em;}.cls-23{font-size:14px;}.cls-24{letter-spacing:-0.03em;}.cls-25{letter-spacing:0.03em;}.cls-26{letter-spacing:0.33em;}.cls-28{letter-spacing:0.38em;}</style><linearGradient id="Naamloos_verloop_30" x1="256.54" y1="207.72" x2="273.33" y2="207.72" gradientUnits="userSpaceOnUse"><stop offset="0" stop-color="#fff"/><stop offset="0.15" stop-color="#fbdfd0"/><stop offset="0.38" stop-color="#f5b18b"/><stop offset="0.59" stop-color="#f08c54"/><stop offset="0.77" stop-color="#ed712d"/><stop offset="0.91" stop-color="#eb6115"/><stop offset="1" stop-color="#ea5b0c"/></linearGradient><linearGradient id="Naamloos_verloop_30-2" x1="221.83" y1="108" x2="299.52" y2="108" xlink:href="#Naamloos_verloop_30"/><linearGradient id="Naamloos_verloop_30-3" x1="188.95" y1="186.1" x2="277.13" y2="186.1" xlink:href="#Naamloos_verloop_30"/><linearGradient id="Naamloos_verloop_30-4" x1="154.99" y1="139.58" x2="534.59" y2="139.58" xlink:href="#Naamloos_verloop_30"/></defs><title>Tekengebied 6</title><g id="_80_x_400" data-name="80 x 400"><text class="cls-1" transform="translate(307.51 362.5)">Krungthep</text><text class="cls-2" transform="translate(204.62 -12.93)">Berna<tspan class="cls-3" x="129.5" y="0">r</tspan><tspan x="148.78" y="0">d MT</tspan></text></g><g id="Huisstijlfiche"><text class="cls-4" transform="translate(306.16 318.54)">Gebruikte lettertypes<tspan x="0" y="14.4">Logo: </tspan><tspan class="cls-5" x="32.05" y="14.4">Arial bla</tspan><tspan class="cls-6" x="86.71" y="14.4">c</tspan><tspan class="cls-5" x="94.51" y="14.4">k </tspan><tspan class="cls-7" x="106.52" y="14.4">R</tspan><tspan class="cls-8" x="115.55" y="14.4">e</tspan><tspan class="cls-5" x="123.86" y="14.4">gular 12pt, 54pt</tspan><tspan x="0" y="28.8">Rest: Lao Sangam MN Regular 12pt</tspan></text><rect class="cls-9" width="306.16" height="62.14"/><rect class="cls-9" x="306.16" y="363.06" width="289.12" height="62.14"/><g id="Kleur"><g id="Hand_of_God-2" data-name="Hand of God"><g id="Hand_of_GOd-3" data-name="Hand of GOd"><path class="cls-10" d="M256.54,212.06s7.37,7.81,10.52,8.1,9.29-3.14,4.51-24.59l-.18-.33"/><path class="cls-11" d="M299.52,87.37s-56,13.31-58,14.15-13.65,13.47-19.7,27.12"/><path class="cls-12" d="M241,194.88c-.79-.56-2-17.78-4.12-23-.43,1.34-13.77,16.47-13.35,18.06s-1.77,9.59-2.48,11.88-3.4,6.14-2.8,11c3.38,17.51-10.82,8-9.74-1.42,1.72-15.08,7.73-33.44,7.18-34.47-.74,2.64-5.72,17.25-9,30.33-3,7.28-2.48,14.75-3.11,16.52a10.56,10.56,0,0,1-5,5.31c-4.87,2.47-6.3-1.81-7.49-2.26-10.72-23.33,21.57-69,21.57-69,.38-.56,0-.67,0-.67l23.76-12.34L276,142.33l1.17,3.72c-.23.5-1.41,1-1.41,1-1,.64-6.78,7.84-12.05,9.88s-3.8,15.64-2.68,17.4"/><path class="cls-13" d="M208,220.75a22.06,22.06,0,0,0-2.33.53s0,0,0,0a4.15,4.15,0,0,1,2,1.2.85.85,0,0,0,.69.11c.58-.17,1.14-.41,1.69-.62a6.84,6.84,0,0,0-.95-.91A1.77,1.77,0,0,0,208,220.75Z"/><path class="cls-13" d="M216.78,180.79a4.24,4.24,0,0,1,4,.27,4.9,4.9,0,0,0,4,.77,4.58,4.58,0,0,1,2,.07,3.19,3.19,0,0,1,1.62.74c.51-.65,1-1.25,1.47-1.78-.32-.24-.22,0-.58-.23a17.5,17.5,0,0,0-8.79-2.38,15.5,15.5,0,0,0-5.1.65l-.63,2.82A7.75,7.75,0,0,1,216.78,180.79Z"/><path class="cls-13" d="M219,190.27a11.91,11.91,0,0,1-1.23.3,4.75,4.75,0,0,1-2.61-.77,4.48,4.48,0,0,1-1.83-1.44l-.55,2.49.08.06a16.72,16.72,0,0,0,4.64,2.15c.42.13.56.29.43.68s-.17.71-.27,1.07c-.14.53-.09,1.18-1.08,1.07-.15,0-.51.32-.51.49a1.05,1.05,0,0,0,.38.73c.22.18.69.18.48.59-.1.19-.4.3-.63.43a10.94,10.94,0,0,0-1.65,1,1,1,0,0,0-.17,1,4.13,4.13,0,0,0,1,1.28.81.81,0,0,1,.3.95q-1.83,7.4-3.63,14.8c-.1.39-.23.59-.77.66a3.89,3.89,0,0,0-1.4.69,12.21,12.21,0,0,0-1,.78l-.15-.08c.19-.42.36-.83.56-1.25s.06-.55-.36-.62c-.91-.15-4.67,5.07-5.29,7.62-.13.54.24.85.82.6a7.37,7.37,0,0,0,1.32-.88,3.83,3.83,0,0,1,1-.58c-.18.41-.35.83-.54,1.23s-.08.68.45.76c.84.13,1.66.3,2.5.43.45.07.55.25.46.65-.32,1.5-.31,2.17,1.31,1.79,1.9-.44,2,.34,2.38-1.41l6-24.33c.12-.49.17-.95.94-1.06.46-.07.59-.3.84-.72.34-.58.45-.85.13-1.35s-.38-.82-.71-1.31c-.11-.16,0-.46.08-.75.57.06,1,.09,1.19-.55s-.25-.74-.78-.86l.65-2.63c.72,0,.7-.11,1.42-.12.12-.55.28-1.36.37-2.09-.55-.07-.34-.14-.83-.51A4.23,4.23,0,0,0,219,190.27Zm-10.65,32.37a.85.85,0,0,1-.69-.11,4.15,4.15,0,0,0-2-1.2s0-.08,0,0a22.06,22.06,0,0,1,2.33-.53,1.77,1.77,0,0,1,1.05.35,6.84,6.84,0,0,1,.95.91C209.44,222.22,208.89,222.47,208.31,222.64Z"/><path d="M256.86,214.17q-8.38-8.31-23.86-8.31-15.1,0-23.57,8.46T201,238q0,10.87,4.27,18.11a26.15,26.15,0,0,0,11.15,10.58l.26.11-.44.51a27.94,27.94,0,0,0-3.31,4.35,6.09,6.09,0,0,0-.68,4.59c.45,1.1,2.35,1.89,3.76,2.22,1.57.38,3.3.09,5.32.09,0,1.57,0,2.73,0,3.88-.18,18.43-.4,36.87-.52,55.3,0,5.36,2.88,9.31,6.82,12.55,1.76,1.45,3.51,1.32,5.17-.56,3-3.41,6.21-6.68,9.34-10,2.48-2.62,2.74-8.93.44-11.67-.94-1.12-1.91-2.23-2.74-3.2,1.94-4.18,7.22-5.38,7.49-10.81.28-5.6-4.79-7.12-6.89-11.29,2.23-2.2,4.44-4.46,6.75-6.62,1.2-1.12,1.37-2.08.1-3.2-.22-.2-.39-.46-.62-.64-4.38-3.18-5.34-7.54-4.13-13,2.28,0,4.81,0,7.33,0,4.2-.07,5.38-2.05,3.39-5.69-1.09-2-2.24-4-3.43-6.07l-.36-.64c.53-.25,1-.51,1.54-.79a26.08,26.08,0,0,0,10.58-10.83q3.66-7,3.66-17.83Q265.23,222.48,256.86,214.17Zm-33.21,10.3a11.64,11.64,0,0,1,9.31-4.1,12.08,12.08,0,0,1,9.58,4q3.53,4,3.53,12.8,0,10.41-3.38,14.43t-9.56,4a11.81,11.81,0,0,1-9.5-4.1q-3.49-4.1-3.49-13.5T223.64,224.47ZM234.75,343c0,1.34-.87,2.67-1.33,4l-.83-.26.92-76.73h.25c.42,0,.82,0,1.23,0a14.23,14.23,0,0,1,.63,3.76Q235.33,308.36,234.75,343Z"/><path class="cls-14" d="M245.26,216.36a9,9,0,0,1-7.07-3.34c-3.75-4.6,1.21-18.39,9.65-26.82,18.28-14.87,32.24-31.36,31.72-37.51-.36-4.37-9.49-4.84-13.4-4.84-5.23,0-10.31.8-12.09,1.91-3.26,2-16.26,4.61-23.19,4.61a16.8,16.8,0,0,1-2.33-.14l-.2,0-.16.12c-6.74,4.86-18.25,7.92-25.12,9.75-4.73,1.26-5.68,1.56-5.9,2.1-.44,1-22.3,35.26-25.79,39.69-1.78,2.26-5.62,3.83-9.33,3.83A9.53,9.53,0,0,1,155,203c1.77-8.51,27.78-52.89,31.58-56.66,1.82-1.82,14.13-7.64,25-12.78,10.47-5,16.94-8,17.89-9,1.24-1.28,7.32-5.7,18.07-13.15l.81-.56c.48-.34,3.27-1.42,6.79-2.79,9.7-3.78,27.77-10.82,40.27-18.49,18.68-11.46,45.44-19.89,64.59-25a58.66,58.66,0,0,1,14.94-1.8c16.28,0,32.3,5.46,40.39,8.72,4.11,1.65,8.59,1.87,14.27,2.14,2.62.13,5.59.27,8.81.58,1.07-.07,2.15-.1,3.3-.1,27,0,87.74,18.92,92.92,20.55V190c-.51,0-1.47,0-3.07,0-3.1,0-9,0-19.39-.25-50.3-10.52-83.9-29.86-99.45-40.46a180.49,180.49,0,0,0-30.52-16.26,38.87,38.87,0,0,0-15-3.3,26,26,0,0,0-8.47,1.33l-.23.08-.08.22c-7.48,20.37-21.71,31.29-43.51,33.37-10.37,2.48-27.52,11.25-50.71,39C255.46,214.18,249.08,216.36,245.26,216.36Z"/><path class="cls-15" d="M374.91,63.31c16.2,0,32.14,5.44,40.21,8.68,4.19,1.68,8.71,1.9,14.43,2.18,2.61.13,5.58.27,8.78.58h.16c1-.07,2-.1,3.18-.1,26.47,0,85.34,18.19,92.42,20.41v94.47h-2.58c-3.09,0-8.94,0-19.28-.25C462,178.79,428.48,159.5,413,148.93a180.93,180.93,0,0,0-30.6-16.3,39.35,39.35,0,0,0-15.24-3.34,26.55,26.55,0,0,0-8.64,1.36l-.45.15-.16.45c-7.41,20.17-21.5,31-43.09,33h-.07l-.07,0c-10.38,2.48-27.63,11.3-50.91,39.17-8.54,10.22-14.76,12.37-18.48,12.37a8.46,8.46,0,0,1-6.68-3.16c-1.62-2-1.51-6.23.3-11.34a40.87,40.87,0,0,1,9.28-14.77c18.72-15.24,32.44-31.55,31.9-37.94-.4-4.78-9.85-5.3-13.9-5.3-4.41,0-10.16.62-12.35,2-3.21,2-16.06,4.54-22.93,4.54a16.35,16.35,0,0,1-2.26-.13l-.4-.06-.33.24c-6.67,4.81-18.12,7.85-25,9.67-5.16,1.37-5.93,1.62-6.22,2.37-.58,1.22-22.31,35.25-25.73,39.59-1.69,2.15-5.37,3.64-8.94,3.64a9.15,9.15,0,0,1-6.51-2.34c.95-3.87,6.45-14.8,14.9-29.58,8.07-14.11,15-25.13,16.48-26.57,1.76-1.76,14.56-7.82,24.84-12.68,10.84-5.13,17-8.09,18-9.13.84-.86,4.64-3.83,18-13.09l.81-.56c.44-.3,3.47-1.49,6.68-2.74C265,104.73,283.1,97.68,295.64,90,314.27,78.57,341,70.15,360.1,65.1a58.16,58.16,0,0,1,14.81-1.79m0-1a59.08,59.08,0,0,0-15.07,1.82c-22.68,6-47.42,14.4-64.73,25s-45.18,20-47.09,21.3-16.87,11.62-19,13.77-39.45,18.4-42.86,21.8-30.39,49-31.76,57.17a9.94,9.94,0,0,0,7.59,3c3.87,0,7.83-1.62,9.72-4,3.3-4.18,25.42-38.69,25.86-39.81s20.82-4.4,30.85-11.63a17.33,17.33,0,0,0,2.4.14c7,0,20.06-2.58,23.45-4.69,1.72-1.07,6.75-1.83,11.83-1.83,6.28,0,12.63,1.17,12.9,4.38.49,5.81-13.09,22.07-31.58,37.11-8.65,8.64-13.6,22.67-9.68,27.48a9.42,9.42,0,0,0,7.46,3.52c4.78,0,11.26-3.16,19.25-12.73,13.57-16.25,32.52-34.57,50.38-38.84,20.55-2,35.88-11.78,43.93-33.7a25.61,25.61,0,0,1,8.31-1.31A38.25,38.25,0,0,1,382,133.55a181.09,181.09,0,0,1,30.43,16.21c9.17,6.25,43.73,28.84,99.72,40.54,10.25.2,16.15.25,19.39.25,2.72,0,3.58,0,3.58,0V94.33S470.2,73.65,441.68,73.65q-1.72,0-3.25.1c-9.92-1-17-.29-22.94-2.69-4.68-1.88-22.27-8.75-40.58-8.75Z"/></g><path class="cls-13" d="M342.81,99.72c-.11-1.55-.26-3.09-.33-4.64-.06-1.33.14-2.59,1.71-3.3.15-.07.23-.36.26-.56a79.36,79.36,0,0,1,1.36-8.14A27.52,27.52,0,0,1,364,63.92,31.94,31.94,0,0,1,377,62.53a25.81,25.81,0,0,1,13.47,5.19,28.08,28.08,0,0,1,8,9.66,26.23,26.23,0,0,1,2.71,7.82,2.29,2.29,0,0,0,1.51,2.1c1.11.42,1.24,1.54,1.33,2.47.3,3.15.49,6.31.7,9.47a5.49,5.49,0,0,1-.12,1.16c-.19,1.28-.56,1.76-1.95,2s-2.78.32-4.17.45-1.56.14-1.4,1.44a20,20,0,0,1-.32,7,21.5,21.5,0,0,1-7,11.82c-5.2,4.46-11.38,6.15-18.26,5.66a21.25,21.25,0,0,1-12.82-5.31,19.4,19.4,0,0,1-6.12-9.48,39.72,39.72,0,0,1-1.05-6.07c-.11-.92-.47-1.14-1.4-1a34.63,34.63,0,0,1-3.65.31c-2.33,0-2.73-.37-3.13-2.33a40.77,40.77,0,0,1-.42-5.21Zm26.6,5.61h0c-3.18.27-6.37.52-9.55.83-.38,0-1.07.48-1,.65A28.81,28.81,0,0,0,360,113a13.81,13.81,0,0,0,5.12,6.45,14.6,14.6,0,0,0,7,2.63,17.16,17.16,0,0,0,7.91-1,14.44,14.44,0,0,0,5.88-4,16.22,16.22,0,0,0,3.79-12.25c-.06-.84-.38-1.1-1.32-1-3.32.32-6.64.57-10,.85Zm2.67-32.82c-1.85.33-2.63.87-2.48,2,.2,1.37.46,2.73.75,4.09s.58,2.6-.65,3.8a2.78,2.78,0,0,0-.55,1.74,2.92,2.92,0,0,0,2.46,3.33,3.86,3.86,0,0,0,4.2-1.67,3.76,3.76,0,0,0-2-5,1.17,1.17,0,0,1-.63-.81,1.49,1.49,0,0,1,1-1.76,1.15,1.15,0,0,0,.6-.82c0-.2-.4-.45-.68-.61s-.57-.08-.79-.22-.75-.46-.8-.75.25-.71.51-1,.55-.11.81-.22.82-.34.86-.56a1,1,0,0,0-.5-.83A17.64,17.64,0,0,0,372.08,72.51Z"/><path class="cls-13" d="M326.41,100.15c.53.77,1.09,1.52,1.59,2.3s1,.76,1.69.3c.54-.34,1.1-.66,1.67-1a2.55,2.55,0,0,1,3.62.78c1.89,2.69,3.76,5.39,5.63,8.09L356,132.84c1.13,1.63,1,2.27-.43,3.75s-2.42,2.87-3.6,4.33c-1.47,1.81-2.92,3.63-4.39,5.44-2.36,2.91-4.74,5.8-7.09,8.71a5.59,5.59,0,0,1-3.72,2.34c-4.34.69-8.63,1.62-13,2.43-3.73.7-7.46,1.37-11.2,2l-.6.13c-3,.63-3.22.53-4.86-1.83l-20-28.79c-.15-.21-.3-.43-.44-.65-.9-1.47-.59-2.62,1-3.6,2.42-1.53,2.49-1.57.85-3.75a20.53,20.53,0,0,1-4.07-9.08,18.13,18.13,0,0,1,1.27-10.2,21.83,21.83,0,0,1,12.58-12A24.21,24.21,0,0,1,312.56,91a19.88,19.88,0,0,1,9.49,4.5c1.58,1.46,3.05,3,4.57,4.52Zm-17.19,14.49,10.48-6.09c.79-.46,1.63-.87,2.36-1.4a1,1,0,0,0,.28-1c-1.57-2.2-2.8-4.61-5.24-6.24a16.45,16.45,0,0,0-16.51-1.59,14.53,14.53,0,0,0-8.76,9.54,10.79,10.79,0,0,0,0,7,58.2,58.2,0,0,0,3.37,6.32c.53,1,1.16.94,2.11.37C301.25,119.24,305.24,116.95,309.22,114.64Zm17.55,29.52h0c.79,1.13,1.57,2.27,2.36,3.4s1.52,1.27,2.81.53l1.14-.66c1.44-.85,1.59-1.41.7-2.71-1.57-2.27-3.17-4.52-4.7-6.81a2,2,0,0,1-.28-1.5,4.55,4.55,0,0,0-.9-4.41,4.9,4.9,0,0,0-4.48-1.8,5.34,5.34,0,0,0-4.48,2.72c-1.55,2.83-.12,6.25,3.8,6.81a2.25,2.25,0,0,1,1.75,1.12C325.19,142,326,143.06,326.76,144.16Z"/><path class="cls-13" d="M337.27,88.11l-1.22.51c-.54.21-.58.31-.24.7.2.22.4.44.59.68a.75.75,0,0,1,.06,1,1.93,1.93,0,0,0-.36.75.61.61,0,0,0,.26.51c.44.28.94.48,1.39.75a.43.43,0,0,1,.15.41c-.16.49-.39,1-.54,1.47a.52.52,0,0,0,.15.47c.56.49,1.16,1,1.73,1.44a.52.52,0,0,1,.15.38,25.87,25.87,0,0,0-.09,2.71c0,.3.45.64.79.81a.67.67,0,0,1,.43.91c-.2.79-.16.78.62,1.18,1.43.73,1.31.33,1,1.84-.12.64-.34,1.26-.48,1.9-.07.33-.25.62-.62.57a2.58,2.58,0,0,1-.9-.41c-.08,0-.08-.19-.14-.27a.77.77,0,0,0-1.07-.36c-.75.3-.94.2-1.28-.44l-5.21-10c-1-1.92-2-3.84-3-5.76-.38-.75-.37-.77-1.28-.6-1.13.21-2.27.45-3.4.66a2.56,2.56,0,0,1-2.1-.14,3.32,3.32,0,0,1-1-1.06c-1.08-2.13-2.17-4.26-3.14-6.43-.69-1.56-.3-2.11,1.32-3.29,1.47-1.07,3-2.06,4.49-3.11a6.58,6.58,0,0,1,2.75-1.08c1.08-.19,2.15-.42,3.23-.61s2.08-.38,3.12-.5a2,2,0,0,1,2.17,1.06c1.15,2.27,2.24,4.56,3.37,6.84a2,2,0,0,1-.76,2.61c-.34.2-.64.46-1,.68-1,.63-1.1.89-.69,1.9C336.79,87.19,337,87.62,337.27,88.11Zm-9.15-7.57,3.08-1.28c.18-.07.36-.15.52-.24.72-.39.8-.58.51-1.26-.2-.46-.45-.89-.66-1.35a.74.74,0,0,0-.91-.42c-1.09.2-2.18.44-3.28.59A5.45,5.45,0,0,0,325,77.7c-.49.34-1,.72-1.47,1-1.19.7-1.33,1.06-.79,2.17l.16.33c.48.94.92,1.09,2,.66S327,81,328.12,80.53Z"/><path class="cls-13" d="M434.61,90.57c1.88.35,3.55.68,5.22,1,1.16.21,1.25,1.18,1.64,1.91.57,1,.93,1.15,2.2.82a3.38,3.38,0,0,1,1.73.11c1.39.42,2.74.95,4.12,1.42,5.82,2,11.65,4,17.45,6.06,1.14.4,2.44.65,2.88,2,.07.22.57.35.89.47,1.21.44,2.43.88,3.66,1.29.87.29,1.16.8.78,1.6-.56,1.21-1.1,2.43-1.68,3.64a1.16,1.16,0,0,1-1.65.61c-1.06-.4-2.14-.77-3.22-1.13-.75-.25-1.47-.76-2.34-.09-.17.13-.69-.06-1-.17q-11.88-4.16-23.74-8.37a2.18,2.18,0,0,1-1-.94,1.35,1.35,0,0,0-1.85-.67c-2,1.26-3.45.45-5-.49L430.8,97.8c-1.31,1.89-2.55,3.69-3.8,5.47-.71,1-1.41,2-2.19,3a2.86,2.86,0,0,1-3.48.93c-2.66-1.11-5.27-2.29-7.89-3.47-4.82-2.16-12.87-26.45-10.55-31.74,1-2.2,2.65-2.65,4.88-2.07,5.46,1.41,10.94,2.75,16.42,4.09,3.11.75,6.24,1.43,9.36,2.15a12.38,12.38,0,0,1,2,.62,2.27,2.27,0,0,1,1.52,2.73c-.42,1.84-.92,3.68-1.38,5.52-.39,1.55-.79,3.1-1.14,4.66A2.9,2.9,0,0,0,434.61,90.57Zm17,11h0c4.88,1.72,9.76,3.45,14.66,5.13.41.14,1-.11,1.51-.18-.27-.37-.44-.94-.82-1.08q-14.63-5.2-29.3-10.29c-.39-.13-1,.14-1.45.23.29.36.49.91.87,1C441.89,98.14,446.74,99.83,451.58,101.53Z"/><path class="cls-13" d="M464.69,119.76c1.17-1.55,2.91-1,4.62-.43s3.25,1.08,5,1.66c1.66-2,3.53-4.28,5.53-6.5,3-3.3,6.36-6.2,11-7.37A12.08,12.08,0,0,1,501,109c3.33,2.3,4.08,5.43,3.8,9.09a13,13,0,0,1-3.26,7.91c-4.13,4.68-10.75,4.4-14.21.1-1-1.24-.65-3.94.68-5.36a4.28,4.28,0,0,1,4.48-1.15c1.06.29,2,.8,3.1,1.14a1.13,1.13,0,0,0,.9-.13c1.41-1.3,2.23-5.34,1.45-6.95-1.25-2.58-5.81-3.15-8.51-1.1a29.6,29.6,0,0,0-8,10c-.48.9-1,1.81-1.52,2.67-2.3,3.5-2.56,7.43-3.29,11.26a23.39,23.39,0,0,0-.17,9.55c.64,2.89,1.57,4.72,4.87,5.26,1.77.29,3.81-.19,4.66-1.66a26.68,26.68,0,0,0,1.9-4.77c.27-.79-.15-1.08-1.11-1-2.48.24-5-1.19-5.56-3a4.16,4.16,0,0,1,2-4.51c4.37-2.54,10.13-1.4,11.92,3.94,1.16,3.46.33,6.79-1.81,9.94a14.72,14.72,0,0,1-4.08,4.34,12.82,12.82,0,0,1-11.82.51,12.23,12.23,0,0,1-6-8,45.16,45.16,0,0,1-1.39-14.2c-2.66.6-4.82-.66-7.16-1.2a.72.72,0,0,1-.45-.26,5.17,5.17,0,0,0-3.79-2.64,6.67,6.67,0,0,0-1.49-.35A1.75,1.75,0,0,1,455,127a1.5,1.5,0,0,0-.93-.9c-3.29-.94-6.6-1.81-9.91-2.71-6.71-1.81-13.43-3.6-20.12-5.46-1.12-.31-1.64-.19-2,.91-.6,1.92-1.31,3.82-2.05,5.71-.56,1.42-.92,1.56-2.47,1.17-1.23-.31-2.43-.68-3.66-1-.8-.2-1-.59-.71-1.29.64-1.7,1.21-3.41,1.86-5.11.28-.75.09-1.15-.74-1.4a1.07,1.07,0,0,0-1.54.75c-.56,1.59-1.2,3.16-1.7,4.76-.32,1-.83,1.35-2,1-1.8-.56-3.66-1-5.49-1.49s-1.71-.47-1.19-2.06c.21-.64.75-1.35-.5-1.65-.78-.19-1.21-.08-1.42.68-.17.6-.42,1.18-.67,1.88l-3.23-.87c.51-1.42.91-2.75,1.5-4a1.75,1.75,0,0,1,1.41-.54,23.45,23.45,0,0,1,3.41.85c.73.23,1.16,0,1.35-.61s.33-1.25-.61-1.5l-4.55-1.23c.59-1.65,1.22-3.2,1.71-4.78.92-3,1.66-3.59,5.34-2.59q25.15,6.85,50.33,13.6a1.35,1.35,0,0,0,1.65-.34,1.73,1.73,0,0,1,2.44-.06,4.27,4.27,0,0,0,1.49.47C462.84,119.37,463.64,119.53,464.69,119.76Z"/><path class="cls-13" d="M282.65,119c.24.47.45,1,.72,1.41,1.18,2,.55,3.83-.84,5.47a54.47,54.47,0,0,1-4.11,4c-.56.53-1,1.06-.52,1.84a1.06,1.06,0,0,1,0,.71c-.35,1.69-.76,3.37-1.08,5.07a22.37,22.37,0,0,1-.25,2.47c-.72,2.33-4,3.58-6.63,1.7a28.54,28.54,0,0,0-5.38-2.71,3.47,3.47,0,0,0-2,.16,5.08,5.08,0,0,1-4.77-1,1.56,1.56,0,0,0-1.84-.23c-1.42.58-2.89,1-4.32,1.61a1.13,1.13,0,0,1-1.64-.59c-1-1.78-1.86-1.89-3.55-.51-.78.64-1.49,1.34-2.28,2s-1.13.47-1.71-.19a4.32,4.32,0,0,0-2.14-1.47,2.57,2.57,0,0,0-3,1.72,2.84,2.84,0,0,1-1.64,1.52c-2.84,1.19-5.65,2.42-8.46,3.66a2.39,2.39,0,0,1-2.18,0,3.41,3.41,0,0,0-3.78,1.58,3.06,3.06,0,0,1-2.52,2c-2.5.34-5,.57-7.55.66-1.47.06-1.92-.49-1.86-1.83a3.71,3.71,0,0,1,1.82-3.22,16.52,16.52,0,0,1,2-1q15.59-6.76,31.19-13.5c.77-.33,1.41-.6.91-1.54-.1-.18.23-.73.5-.87,1.31-.71,2.64-1.38,4-2a1.37,1.37,0,0,0,1-1.47,4.77,4.77,0,0,1,2.85-4.59c1.31-.67,1.3-1.93,1.56-3,.39-1.61.32-3.29.71-4.9.5-2.08,3.88-3.13,5.88-2s4.05,2.18,6.08,3.28c.33.18.8.31.92.58.68,1.43,2,1,3.22.92a47.28,47.28,0,0,1,5.84-.12C280.09,114.91,281.14,116,282.65,119Zm-6.52,8.82,2.26-2.08a4.63,4.63,0,0,0-.45-7.36c-1.3-1-4.8-1-6.6-.24a3.25,3.25,0,0,0,.17.58C273,121.67,274.5,124.61,276.13,127.83Z"/><path class="cls-13" d="M226.3,172.21A8.65,8.65,0,0,0,224,177.3a3.62,3.62,0,0,1-.37.89,4.4,4.4,0,0,1-.9-.48,4.71,4.71,0,0,1-1.47-5.7,1.69,1.69,0,0,0,.17-.43c0-.32,0-.64,0-1-.38.24-1,.41-1.1.74a29.45,29.45,0,0,0-.89,3.12c-.09.35-.16.7-.24,1l-.58-.09a13.48,13.48,0,0,0-.51-1.39,8,8,0,0,0-.69-1c-.31.23-.63.45-.92.7s-.63.64-1,.94a1.32,1.32,0,0,1-1.75.25,9.94,9.94,0,0,0-4.36-1.64c-.48,0-1,0-1.46,0a2.49,2.49,0,0,1-.72,0c-.21-.06-.48-.24-.51-.4s.18-.41.35-.52a8.26,8.26,0,0,0,2.85-2.6,15.26,15.26,0,0,0,1-1.8c.58-1.4.71-1.35,2.47-1.22a4.07,4.07,0,0,1,1.21.24c.86.35.83-.22.75-.67a15.91,15.91,0,0,0-.49-1.56,1.41,1.41,0,0,1,0-.5c.18,0,.4,0,.52.08.85.59,1.73,1.17,2.52,1.83s1.14.81,2.23.3a6.45,6.45,0,0,0-.75-.57,5,5,0,0,1-3-4.55,5.68,5.68,0,0,1,.53-2.07c1.85,1.43,3.51,3,6,3.31,0-.25,0-.58,0-.9,0-.95.34-1.35,1.35-1.32a16.84,16.84,0,0,1,2.61.28,11.41,11.41,0,0,0,6.64-.82c1.65-.68,2.53-2.06,3.89-3a5.26,5.26,0,0,1,1.85-.86c.32-.06.76.45,1.16.7l.9.54c.18-.32.37-.63.53-1,.06-.11,0-.29.1-.37,1.12-1.19,1.19-2.74,1.58-4.17a7,7,0,0,1,.29-.74,3.7,3.7,0,0,1,.85.39c2.22,1.82,2.41,3.71,1.42,6.14a8.63,8.63,0,0,0-.25.88c1.15,0,1.38-.35,1.63-1.69a20,20,0,0,1,.66-2.38,3.38,3.38,0,0,1,.42-.68c.82.76.38,2.16,1.67,2.48.65-.62,1.28-1.22,1.92-1.8a1.32,1.32,0,0,1,1.59-.13,29.83,29.83,0,0,0,3.67,1.51,13.24,13.24,0,0,0,2.52.17,3.36,3.36,0,0,1,.84.31c-.16.26-.24.66-.48.76-2.2.94-3.12,2.82-3.92,4.75a1.26,1.26,0,0,1-1.48.79,14.52,14.52,0,0,1-1.77-.32c-.89-.19-1.24.15-1,1,.17.56.39,1.11.58,1.66l-.25.22c-.81-.54-1.62-1.07-2.42-1.63-.31-.21-.57-.48-.86-.72-.69-.56-.74-.57-1.87-.14a7.73,7.73,0,0,0,.9.75c1.33.81,2.55,1.75,2.76,3.3a11,11,0,0,1-.18,2.89c-.06.41-.37.42-.72.12a25.08,25.08,0,0,0-2.84-2.2,21.93,21.93,0,0,0-3-1.27c0,.41.07.81.08,1.2,0,.93-.45,1.42-1.43,1.37-1.15-.06-2.3-.13-3.43-.29a10.12,10.12,0,0,0-7.07,1.6c-1.25.78-1.94,1.91-3,2.77s-1.73,1-2.68-.16C226.6,172.5,226.45,172.36,226.3,172.21Zm4.65-7.91v.06a10.74,10.74,0,0,0-1.27.33c-.22.08-.55.37-.51.47.18.58.33,1.46.75,1.61a2.72,2.72,0,0,0,1.93-.42c1.19-.71,2.34-1.39,3.81-.81a1.6,1.6,0,0,0,2.19-.93,2,2,0,0,0-1.17-2.46,1.61,1.61,0,0,0-2.14.88,1.39,1.39,0,0,1-1.25.83A22.69,22.69,0,0,0,230.95,164.29Zm11.29-1.61L242,161C241.18,162,241.2,162.16,242.24,162.68Zm12.65-4,.35-.08a2.87,2.87,0,0,0-.21-1c-.13-.2-.51-.27-.78-.39l-.13.2Zm-.52.36.19-.2-.78-1.26-.33.09a2.32,2.32,0,0,0,.15.91C253.74,158.77,254.11,158.86,254.37,159ZM212.82,170.2l-.34,0a3.7,3.7,0,0,0-.14,1.06c0,.2.35.37.54.55l.16-.14Zm12.41-2.35.25,0c0-.31.14-.68,0-.91s-.56-.37-.85-.55l-.14.2Zm17.48-5.28c.23-.13.49-.22.49-.28a5.73,5.73,0,0,0-.24-1.09c0-.07-.22-.08-.34-.12,0,.28,0,.57,0,.85A4.11,4.11,0,0,0,242.71,162.57Zm-17.78,5.55-.94-1.44C223.63,167.7,223.92,168.13,224.93,168.11ZM213.49,170l-.21.12.28,1.44.27,0c.08-.28.28-.57.22-.82S213.68,170.29,213.49,170Z"/><path class="cls-13" d="M195.77,219.53a2.92,2.92,0,0,1,2.45-.09l2.71.6a1.67,1.67,0,0,1,1.38,2.14l-.54,1.79c-.28,0-.44,0-.59-.06-1.05-.2-1.07-.2-.81-1.16.15-.55,0-.87-.63-1-.44-.1-.88-.19-1.32-.3a.81.81,0,0,0-1.13.59c-.15.52-.28,1-1.08,1a.51.51,0,0,0-.19.95.83.83,0,0,1,.35,1.11c-.25.76-.11.93.71,1.13l.53.12c1.41.32,1.42.32,2-.89.25-.55.69-.28,1-.23s.76.11.6.61-.33,1.17-.54,1.74a1.73,1.73,0,0,1-1.68,1c-1.59-.31-3.18-.67-4.75-1.06-.26-.06-.45-.34-.71-.54-.79.74-1.61.11-2.41-.06-.18,0-.28-.55-.3-.85a2.11,2.11,0,0,1,.2-.72q3.83-12.7,7.67-25.4a.89.89,0,0,0-.27-1.15,11.09,11.09,0,0,1-3.79-5c-.43-1,.44-3.91,1.57-6.35,1.32-2.87,2.32-4.32,4.86-5.33a10,10,0,0,1,7.21-.17,7.68,7.68,0,0,1,4.6,4.11c-.46,1.46-.7,1.85-1.06,3.41a25.63,25.63,0,0,1-1.45,4.79c-.92,1.56-1.43,2.51-3.09,3.41a21.55,21.55,0,0,1-2.09,1.16,25.87,25.87,0,0,1-2.84.88,1.08,1.08,0,0,0-.87.78q-2.76,9.22-5.55,18.44C195.86,219,195.84,219.2,195.77,219.53Zm1.12-30.92a4.78,4.78,0,0,0,0,3.2,9.92,9.92,0,0,0,3.57,4.78,2.16,2.16,0,0,0,1.58.24,15,15,0,0,0,4.2-1.72c2.35-1.46,3.63-3.29,3.36-5.86a5.36,5.36,0,0,0-3.15-4.38C202.77,183,198,184.86,196.89,188.61Z"/><path class="cls-13" d="M418.87,144.08a.68.68,0,0,1,1-.29c.55.27.83,0,1.07-.37l.22-.35c-.65-.62-.65-.62-.11-1.35.42-.56.83-1.12,1.27-1.67s.81-.66,1.46-.28c.95.56,1.89,1.14,2.84,1.7.38.23.48.54.25.87-.56.8-1.17,1.58-1.76,2.36-.1.13-.21.24-.33.38l-.81-.39c-.15.19-.28.38-.42.55a.42.42,0,0,0,.07.7c.35.29.74.63.07,1.2a9,9,0,0,0,1.29.35c.59.07.93.34.91.86a1.38,1.38,0,0,1-1.43,1.18,1.24,1.24,0,0,1-.6-.36c-.2-.18-.31-.47-.54-.61-2.05-1.25-4.12-2.48-6.17-3.7a1.3,1.3,0,0,1-1.79-.38c0-.07-.15-.17-.13-.21.28-.55-.23-.67-.56-.87l-8.11-4.84a1,1,0,0,0-.28-.16c-.69-.13-1.36-.27-1.61-1a1.51,1.51,0,0,0-.49.07c-.23.06-.44.16-.67.24l-.13-.73a1.27,1.27,0,0,0-.16-.5,4.81,4.81,0,0,1-2.56.91,34.8,34.8,0,0,1-3.9.55,7.1,7.1,0,0,1-5.47-1.75,5.73,5.73,0,0,1-2-5.89,6.28,6.28,0,0,1,2.41-3.63,7.72,7.72,0,0,1,5.75-1.57,7.09,7.09,0,0,1,4.48,2.24,8.13,8.13,0,0,1,1.77,4c.19.79.39,1.59.5,2.39a7.11,7.11,0,0,1-.07,1.29c0,.11,0,.28.09.32a.52.52,0,0,0,.37-.05c.11-.05.18-.21.29-.23a1,1,0,0,1,.6,0c.1.06.11.34,0,.48-.23.54-.14.62.48.63a1.75,1.75,0,0,1,.86.41c.22.16.33.44.56.58q4.19,2.56,8.4,5.08a.86.86,0,0,0,.64.07c.6-.24,1.57.2,1.64.78S418.22,143.79,418.87,144.08Zm-22-9.64.51.27a2.43,2.43,0,0,0,2.48,0,1.94,1.94,0,0,0,.26-3.41c-.49-.3-.59-.54-.17-.94a.84.84,0,0,0,.12-.18,1.74,1.74,0,0,0-.06-2.12,2.15,2.15,0,0,0-1.94-.81,2.56,2.56,0,0,0-1.79,1c-.37.45-.59.39-1,.15a2.39,2.39,0,0,0-3.39,1.56,2,2,0,0,0,1,2.08.47.47,0,0,1,.18.42,4.15,4.15,0,0,1-.44.94,1.94,1.94,0,0,0,.63,2.15,2.48,2.48,0,0,0,3.2-.49Zm25.84,8.16c.05.27,0,.62.18.81s.64.08,1-.08a.86.86,0,0,1,.4,0c.5,0,1-.4.77-.75a1.7,1.7,0,0,1-.19-.94.55.55,0,0,0-.27-.43,1.43,1.43,0,0,0-.61.06c-.23,0-.47.08-.7.13a1.36,1.36,0,0,0-.6.21C422.32,142,422.54,142.29,422.72,142.6Z"/><path class="cls-13" d="M473.31,82.44a38,38,0,0,0-5.5,3.06,2.27,2.27,0,0,0-.69,3.19,61.17,61.17,0,0,0,3.54,6.1,9.41,9.41,0,0,0,4,3.45c4.33,1.46,8.88,2.41,13.33,3.6a1.62,1.62,0,0,0,2.12-.78c1.5-2.32,3.35-2.95,5.59-2.12,2.08.77,2.15,2.45,2.17,4.06a1.58,1.58,0,0,0,1.6,1.83,17.44,17.44,0,0,1,2,.5c.29-.45.45-.75.66-1,.82-1,1.61-2,3.36-1.67s1.94,1.59,1.85,2.81c-.15,2.15,1.66,1.74,3.06,2.08l.43-.84c1.21-2.37,2.51-3.14,4.51-2.68,2.26.52,2.95,1.55,2.54,4.23-.16,1.07.18,1.49,1.3,1.76,3.26.79,6.49,1.67,9.78,2.53-.55,3.45,1.89,5,5.4,5.59V94.86C524.21,92,508.24,86.93,497.7,84.19,488.71,82.32,478.31,82.63,473.31,82.44Z"/><path class="cls-13" d="M507.63,169.07c-1.63-1-3.22-2-4.82-3-3.28-2-6.58-4.08-9.84-6.16-.83-.53-1.4-.47-2,.32s-1.23,1.57-1.85,2.36C488,164,488,164,489.53,165c.64.42,1.23.81.54,1.65s-1.18.63-1.91.17c-1.63-1-1.43-1.23-2.64.42-.55.75-1,.83-1.81.32-7.68-4.82-15.39-9.61-23.07-14.42a1.77,1.77,0,0,1-.79-.93c-1-4.32-1.9-8.65-2.83-13-.44-2-.24-2.33,2-2.89.28-.07.54-.17,1-.32-.47-1.91-.92-3.79-1.42-5.67-.05-.2-.36-.53-.51-.51-2.24.28-4.46.62-6.72.94l.2,1.51c.15,1.12-.24,1.69-1.47,1.87-5,.71-10,1.34-14.94,2.08-1.44.21-2.12-.22-2.44-1.42-.18-.67-.52-1.36-1.49-1.24-1.75.21-3.5.46-5.23.79a1.19,1.19,0,0,0-.71.93c.24,1.55.61,3.07.95,4.61.16.73.52,1.09,1.49.91,1.47-.28,2.38.23,2.64,1.41,1,4.37,2,8.73,2.88,13.11.31,1.48.07,1.75-1.58,2.1-1,.22-1.51.66-1.25,1.67.15.57.27,1.15.4,1.73l5.17,2.78,2.79-.41-.11-1.35c-.11-1.46.26-1.9,1.85-2.16.61-.1,1.23-.17,1.84-.26,4.06-.58,8.12-1.14,12.18-1.74a3.7,3.7,0,0,1,2.71.49c13.46,8.43,27,16.79,40.4,25.25,3.34,2.11,4.05,1,5.61-1.13.87-1.18.72-2.18-.58-2.91-1.05-.59-.92-1.11-.26-1.9,1.1-1.31,2.12-2.68,3.24-4.11-.7-.44-1.25-.83-1.85-1.14s-.6-.73-.26-1.23.74-1,1.51-.63a6.64,6.64,0,0,1,1,.63c.75.56,1.22.28,1.74-.37S508.44,169.55,507.63,169.07Zm-66.46-13.73c-2.46.2-3.12-.17-3.62-2.4-.54-2.38-1.07-4.77-1.64-7.29,2.3.52,3.74.08,4.24-1.19.42-1.06-.3-2.06-1.94-2.68,1.5-1,3.12-.81,4,.58a9.85,9.85,0,0,1,1.07,2.36c.39,1.32-.51,2.43-2,2.64a2.14,2.14,0,0,0-.93.24c-.29.22-.63.61-.6.88s.54.72.78.68c1.87-.26,2.24,1,2.58,2.11a6.19,6.19,0,0,0,2.45,3.47C444.07,154.95,442.63,155.22,441.17,155.34Zm9.92-2.7a3.26,3.26,0,0,1-4.33-.61,11.71,11.71,0,0,1-1.16-2.91c-.06-.18.19-.44.29-.66.36,1.36.89,2.45,2.42,2.67a2.53,2.53,0,0,0,1.75-.59c.36-.32.36-1,.49-1.51a6.3,6.3,0,0,0,.09-.87,3,3,0,0,1,.95.39C452.85,149.78,452.62,151.48,451.09,152.64Zm-.57-7.41a6.4,6.4,0,0,0-2,.29c-.75.15-1.48.36-2.47.6.3-2.89-.41-5-3.17-6.62,1.28-.2,2.19-.36,3.09-.48,1.32-.16,2.64-.33,4-.41a2.07,2.07,0,0,1,2.45,1.61c.45,1.94.93,3.88,1.41,5.89A25.87,25.87,0,0,0,450.53,145.23Zm41.64,23.39,1.75-2.53c-.67-.42-1.33-.85-2-1.25s-.69-.74-.27-1.31.79-.9,1.52-.54l.33.16c1.66.86,1.66.86,3.5,0-.09.35-.09.6-.22.76-.75.87-.11,1.28.58,1.72,1.67,1.06,1.67,1.34,0,2.64l-2.51-1.57-2.15,2.27Zm9.92,5.52a1.77,1.77,0,0,1-1.45.38,11.4,11.4,0,0,1-2.09-1.24l-1.31,1.16-.35-.16.62-1.64c-.51-.32-1.1-.71-1.72-1.06s-.63-.87-.22-1.45a1,1,0,0,1,1.59-.33l.11.06c1.85,1,1.83,1,3.12-.54a3.66,3.66,0,0,1,.93-.57,6.21,6.21,0,0,1-.23,1,2,2,0,0,1-.5.67c-.77.75-.48,1.27.35,1.72a2.7,2.7,0,0,1,1.07.74C502.21,173.25,502.32,173.91,502.09,174.14Z"/><path class="cls-13" d="M307,161.08a15.29,15.29,0,0,0-7.61-9.6A18.72,18.72,0,0,0,286,149.56a17.81,17.81,0,0,0-8.46,4.12,42.16,42.16,0,0,1-5.29,8.09,14,14,0,0,0,.84,9.83,1.55,1.55,0,0,1-.28,1.4c-.71.81-1.62,1.48-2.41,2.23l-24.78,23.48a12.63,12.63,0,0,0-3.22,4.08,15.54,15.54,0,0,0-1.57,6.83c0,1.1.66,1.6,1.87,1.4,2.35-.39,4.68-.86,7-1.31a1.68,1.68,0,0,0,1.45-1.66,22,22,0,0,1,.39-2.8,1.51,1.51,0,0,1,.81-.85c.56-.24,1.26-.21,1.8-.48a2.79,2.79,0,0,0,1.24-1.1,20.24,20.24,0,0,0,.64-2.19,1.29,1.29,0,0,1,.68-.68c2.11-.77,4.25-1.47,6.35-2.26a1.55,1.55,0,0,0,.87-.92c.29-1.41.49-2.84.66-4.26s.44-1.61,2-1.52c1.7.1,3.41.16,5.3.25.24-1.32.48-2.57.68-3.83.12-.77.36-1.31,1.39-1.23,1.25.1,2.51.14,3.76.24s1.79-.29,1.84-1.45a6.63,6.63,0,0,1,.09-2c.89-2.28,1.9-3.32,4.23-2.46a13.3,13.3,0,0,0,3,.68A89,89,0,0,1,307.15,168,14.38,14.38,0,0,0,307,161.08Zm-7.58,1.4a5.59,5.59,0,0,1-7.13.21,4.19,4.19,0,0,1-.06-6.41,5.3,5.3,0,0,1,7.17-.15C301.37,157.69,301.09,161.07,299.44,162.48Z"/><path class="cls-13" d="M247,183.8a.58.58,0,0,0-.37.25,1.2,1.2,0,0,0-.14.49c-.08.61-.34.72-.92.38a.83.83,0,0,0-1.16,0c-.59.6-.7,1.08-.32,1.5a2.36,2.36,0,0,0,2.48.52,5.14,5.14,0,0,0,.85-.78c.5-.73.18-1.45-.1-2.15A.45.45,0,0,0,247,183.8Z"/><path class="cls-13" d="M248.27,176.42a1.73,1.73,0,0,1,.56.2c.13.54-.66,1,0,1.57a9.44,9.44,0,0,0,1.46-.92,2.16,2.16,0,0,0,.75-1.17c.14-1.35-1.16-2.18-2.67-1.87-.51.1-.77.51-.82,1.31A.72.72,0,0,0,248.27,176.42Z"/><path class="cls-13" d="M247.63,178.62l.12-.23a4.74,4.74,0,0,0-.83-.38c-.7-.17-.8-.32-.38-.87a.63.63,0,0,0,0-.92c-.39-.42-1.22-.7-1.54-.51a1.79,1.79,0,0,0-1,1.58,1.66,1.66,0,0,0,.92,1.56A3.38,3.38,0,0,0,247.63,178.62Z"/><path class="cls-13" d="M244.6,182.94a.56.56,0,0,1,.81-.34,3.15,3.15,0,0,0,.6.27.58.58,0,0,0,.45-.07.4.4,0,0,0,0-.39,7.41,7.41,0,0,0-.66-.94,1.89,1.89,0,0,0-2.37-.44,1.92,1.92,0,0,0-1.16,1.53c-.14.76.27,1.15,1.22,1.28C244.29,183.95,244.38,183.88,244.6,182.94Z"/><path class="cls-13" d="M256.41,177.65a.41.41,0,0,0,0-.36,2.34,2.34,0,0,0-2.69-.68,1.58,1.58,0,0,0-1.1,1.78c.11.32.16.66.3,1a2.34,2.34,0,0,0,.44.5c.15-.18.38-.35.43-.56.22-.82.5-1,1.21-.5a.75.75,0,0,0,.39.13l.8-.72C256.25,178,256.33,177.84,256.41,177.65Z"/><path class="cls-13" d="M252,181a6.31,6.31,0,0,0-.57-.86,2,2,0,0,0-1.92-.63,1.77,1.77,0,0,0-1.42,1.23,2.74,2.74,0,0,0,1.58,3.11,2.58,2.58,0,0,0,.32.08l2.3-2.16A2.77,2.77,0,0,0,252,181Z"/><path class="cls-13" d="M270.9,205.89a.82.82,0,0,0-.84-.51,1.39,1.39,0,0,1-1-.47c-.13-.25.16-.68.24-1a2.1,2.1,0,0,0,.13-.86,3.09,3.09,0,0,0-.48-1,.86.86,0,0,0-.44-.32,1.29,1.29,0,0,0-1.71.86c-.22.66-.89,1.11-1.44.85a1.88,1.88,0,0,0-1-.19l-3.71,4,1.9,3.75c.13.25.24.52.39.76a.68.68,0,0,0,1,.31,18.84,18.84,0,0,0,1.81-.82c.22-.13.31-.51.38-.79s-.11-.3-.19-.49c.19-.1.35-.19.52-.26.67-.28,1.33-.49,1.49-1.31.09-.45.95-.68,1.43-.5a1.84,1.84,0,0,0,1.83-.31c.47-.47.21-.91,0-1.35A3.8,3.8,0,0,1,270.9,205.89Z"/><path class="cls-13" d="M249.62,183.88a2.74,2.74,0,0,1-1.58-3.11,1.77,1.77,0,0,1,1.42-1.23,2,2,0,0,1,1.92.63,6.31,6.31,0,0,1,.57.86,2.77,2.77,0,0,1,.28.78c1.1-1,2.15-2,3.13-2.86a.75.75,0,0,1-.39-.13c-.71-.47-1-.32-1.21.5-.05.2-.28.37-.43.56a2.34,2.34,0,0,1-.44-.5c-.14-.31-.19-.65-.3-1a1.58,1.58,0,0,1,1.1-1.78,2.34,2.34,0,0,1,2.69.68.41.41,0,0,1,0,.36c-.08.19-.16.38-.26.56l1.75-1.56a5.34,5.34,0,0,0-3.3-2,7.87,7.87,0,0,1-3-1.16,6.72,6.72,0,0,0-1.56-.73,5.86,5.86,0,0,0-4.51.51,5.08,5.08,0,0,0-2.47,1.87,7.19,7.19,0,0,0-.78,2.24,7,7,0,0,1-.89,2.73,4.38,4.38,0,0,0-.34,4.59,17.72,17.72,0,0,0,1.52,2.74,3.63,3.63,0,0,0,2.33,1.62c1.44-1.53,3.22-3.3,5.07-5.05A2.58,2.58,0,0,1,249.62,183.88Zm-2.13-8.33c.05-.81.31-1.21.82-1.31,1.52-.31,2.81.52,2.67,1.87a2.16,2.16,0,0,1-.75,1.17,9.44,9.44,0,0,1-1.46.92c-.61-.61.17-1,0-1.57a1.73,1.73,0,0,0-.56-.2A.72.72,0,0,1,247.49,175.55ZM244,177.29a1.79,1.79,0,0,1,1-1.58c.32-.19,1.14.09,1.54.51a.63.63,0,0,1,0,.92c-.42.55-.32.7.38.87a4.74,4.74,0,0,1,.83.38l-.12.23a3.38,3.38,0,0,1-2.73.23A1.66,1.66,0,0,1,244,177.29Zm-1.7,5.28a1.92,1.92,0,0,1,1.16-1.53,1.89,1.89,0,0,1,2.37.44,7.41,7.41,0,0,1,.66.94.4.4,0,0,1,0,.39.58.58,0,0,1-.45.07,3.15,3.15,0,0,1-.6-.27.56.56,0,0,0-.81.34c-.23.93-.32,1-1.11.9C242.54,183.72,242.14,183.33,242.28,182.57Zm5.1,3.64a5.14,5.14,0,0,1-.85.78,2.36,2.36,0,0,1-2.48-.52c-.38-.41-.27-.9.32-1.5a.83.83,0,0,1,1.16,0c.57.35.83.23.92-.38a1.2,1.2,0,0,1,.14-.49.58.58,0,0,1,.37-.25.45.45,0,0,1,.32.25C247.56,184.76,247.88,185.48,247.38,186.21Z"/><path class="cls-13" d="M256.16,178.21l-.8.72a.64.64,0,0,0,.55-.31A2.93,2.93,0,0,0,256.16,178.21Z"/><path class="cls-13" d="M257.74,210.42l2.86-3.12v0Z"/><path class="cls-13" d="M264.25,203.26l-3.66,4v0l3.71-4Z"/><path class="cls-13" d="M278.45,97.91a9.85,9.85,0,0,1-.56-1.84l.35-.16c.34.41.67.85,1,1.24a4.25,4.25,0,0,0,.75.5,2.65,2.65,0,0,0,.41-.85,2.93,2.93,0,0,0-.17-1.26c-.67-1.72-1.35-2.55-3.31-2.14a6,6,0,0,0-.1-.74l-12.45,3q-12.76,8.77-25.51,17.54c-.59.41-.94.44-1.36-.13a27.19,27.19,0,0,0-1.76-2.13c-.39-.43-.59-.82-.2-1.37a1.14,1.14,0,0,0-.17-1.61c-.43-.44-6.27,6.41-6,6.35,1-.19,1-.25,1.51.51a18.19,18.19,0,0,0,1.48,1.91c.4.46.27.74-.23,1.05-.65.41-1.25.89-1.9,1.3a2.22,2.22,0,0,0-.61,3.49,2.6,2.6,0,0,0,1.12.79c2.66-2.14,15.62-12.35,25-15.68L273,95.9l.81-.56c.28,1,.51,1.92.79,2.81a6.67,6.67,0,0,0,.89,1.76l3.22-1.6A4.52,4.52,0,0,1,278.45,97.91Z"/><path class="cls-13" d="M282.45,93.08a1.33,1.33,0,0,0,1,0c.18-.09.21-.48.25-.75a4.17,4.17,0,0,0,0-.71,3.42,3.42,0,0,1,3.08,2.75l3.89-1.93a7.62,7.62,0,0,0-.94-1.87,6.4,6.4,0,0,0-.72-.84l-8,1.95A3.46,3.46,0,0,0,282.45,93.08Z"/><path class="cls-13" d="M512.2,165c-.28.06-.72.13-1.15.24a2,2,0,0,1-2.45-1.55,2.83,2.83,0,0,1-.08-.38q-3.31-16.27-6.62-32.53c-.3-1.48.23-2.6,1.39-2.94.48-.14,1-.2,1.36-.28a29.37,29.37,0,0,1,1.08-4.06A9.28,9.28,0,0,1,513,117.8a9.39,9.39,0,0,1,8.54,2.38,10.49,10.49,0,0,1,1.88,2.56c.36.63.66.92,1.44.73a3.63,3.63,0,0,1,1.82.08c.7.21,1,.86,1.1,1.58q2.26,11.25,4.56,22.49l2.18,10.74a1.81,1.81,0,0,1-1.56,2.4l-.23,0c-1.24.26-1.17.27-1.27,1.56a9,9,0,0,1-1.78,4.68,9.7,9.7,0,0,1-8,4.06,8.73,8.73,0,0,1-6.74-2.62C514,167.46,513.19,166.26,512.2,165Zm7.61-11,.47-.13.75-.23c1-.31,1.22-.59,1-1.62-.31-1.46-.72-2.9-1.13-4.33a.9.9,0,0,0-1-.66,1.16,1.16,0,0,1-.87-.32,2.62,2.62,0,0,1,.5-2.72,3.41,3.41,0,1,0-4.6-5,3.28,3.28,0,0,0,.56,4.84,1.55,1.55,0,0,1,.69,1.45c0,.94,0,1.89,0,2.83s.38,1.3,1.37,1.05a11.87,11.87,0,0,1,1.3-.29c.2,0,.56,0,.61.17a10.83,10.83,0,0,1,.74,2.05.81.81,0,0,1-.78,1c-.61,0-1.22,0-1.83-.07-.3,0-.66-.11-.86,0s-.16.54-.11.8a1.7,1.7,0,0,0,1.87,1.31C518.9,154.17,519.28,154.06,519.81,154Zm-5.62-31.67.92,4.54a2.31,2.31,0,0,0,1.44-2.42C516.39,123.25,515.71,122.61,514.19,122.28Zm9,44.27a2.21,2.21,0,0,0,1.41-2.77,2,2,0,0,0-2.29-1.57Zm-.85.15-.88-4.34a2,2,0,0,0-1.47,2.28A2.16,2.16,0,0,0,522.31,166.7Zm-9-44.15a2.24,2.24,0,0,0-1.35,2.87,2,2,0,0,0,2.24,1.5Z"/><path class="cls-13" d="M455,77.53c.1.15.18.32.28.49-1.12.31-1.29.81-.62,1.91-1.12.08-1.3,1-1.55,1.65a23.51,23.51,0,0,0-2.84-.93,4.49,4.49,0,0,0-3.64.63A7.45,7.45,0,0,0,445.08,83a6.77,6.77,0,0,0-.71,7.22,6,6,0,0,0,2.21,2.46,4.88,4.88,0,0,0,4.1,1,6.49,6.49,0,0,0,1.24-.64c.06.06.13.1.15.16a2.4,2.4,0,0,1,.1.31,2.78,2.78,0,0,0,1.75,1.84,7.26,7.26,0,0,0,3.28.57,6.4,6.4,0,0,0,4.91-2.74,8.39,8.39,0,0,0,1.36-4.36,4.41,4.41,0,0,0-2.22-4.31,6,6,0,0,0-3.62-1.12,2,2,0,0,0-.15-2.53c1-.25,1.25-.89.71-1.86a1.85,1.85,0,0,1,.27-.17,1.66,1.66,0,0,0,.84-2.63l-4.11-.59A2,2,0,0,0,455,77.53Zm.3,8.44a.9.9,0,0,0,1.07.44,1.17,1.17,0,0,0,.5-.26c.55-.5,1-1.06,1.93-.82a2.16,2.16,0,0,1,1.49,1.84,4.63,4.63,0,0,1-.75,4,3,3,0,0,1-3,.92,2.31,2.31,0,0,1-1.63-2,2,2,0,0,0-.16-.57c-.22-.47-.47-.5-.84-.14a1.83,1.83,0,0,1-.45.38.63.63,0,0,1-.89-.6c0-.23-.12-.57-.28-.63a.82.82,0,0,0-.69.19,2.8,2.8,0,0,1-1.86,1,3,3,0,0,1-2.69-2c-.58-2,1.06-4.37,2.79-5A1.65,1.65,0,0,1,452,84.26c.09,1,.94,1.53,1.63,1,.36-.28.45-.9.64-1.38a2,2,0,0,0,0-.55l1.62.53-.48.64A1.34,1.34,0,0,0,455.29,86Z"/><path class="cls-13" d="M533.42,171.81c-.93.42-1.92.71-2.86,1.09s-1.78.8-2.69,1.17a6.43,6.43,0,0,1-.77.12,4,4,0,0,0-1.21.42c-.31.21-.47.63-.73.92a1.84,1.84,0,0,1-2.18.2,6,6,0,0,0-3.58-1.4,2.63,2.63,0,0,1-1.57-.78,4.9,4.9,0,0,0-5.32-1.18,4.63,4.63,0,0,0-2.77,4.32,4.45,4.45,0,0,1-.82,2.62,5.08,5.08,0,0,0-.9,4.37,5.37,5.37,0,0,0,4.78,4,3.41,3.41,0,0,1,1.34.32c.67.39,1.23,1,1.9,1.37a4.4,4.4,0,0,0,3.78.39c2.1-.74,3.11-2.89,3.06-5.16a2.12,2.12,0,0,1,.32-1.12,7,7,0,0,0,1.48-3.8,1.75,1.75,0,0,1,1.85-1.67c.75-.05,1.83.58,2.11-.78,0-.07.16-.1.25-.14,1.24-.58,2.46-1.19,3.71-1.74l2-.85v-3.25C534.19,171.44,533.81,171.63,533.42,171.81Zm-11.23,8.28a1.49,1.49,0,0,1-.29-.05c-1.84-.53-2.37.51-2.57,2.1a4.41,4.41,0,0,1-.31,1.3,1.81,1.81,0,0,0,.85,2.58c.91.5.93.63.24,1.32a2.79,2.79,0,0,1-2.22.77c-.13,0-.34-.29-.37-.46a1.64,1.64,0,0,1,.08-.76,1.89,1.89,0,0,0-1.51-2.5,9.23,9.23,0,0,1-2.27-.84c-.89-.41-1.47-.14-1.92.74-.17.33-.47.81-.72.81s-.62-.45-.87-.76a2,2,0,0,1-.41-.84,12.75,12.75,0,0,1-.14-1.44,7.72,7.72,0,0,1,1.26.06,1.86,1.86,0,0,0,2.22-1.8,3.41,3.41,0,0,1,.38-1.25,2,2,0,0,0-.76-2.91c-.32-.21-.62-.44-1-.7a2.94,2.94,0,0,1,2.81-1.53c.13,0,.35.23.38.37a1.89,1.89,0,0,1-.06.76,1.68,1.68,0,0,0,1.29,2.28,9.47,9.47,0,0,1,2.41,1.13c.92.42,1.37.25,1.91-.61a9.83,9.83,0,0,1,.81-1,9.08,9.08,0,0,1,1,1.18,5.09,5.09,0,0,1,.43,1.25C523.08,180,522.72,180.13,522.19,180.08Z"/><path id="Sleutels" class="cls-13" d="M174,190.26c-.38.35-.79.67-1.14,1a3.29,3.29,0,0,1-2.14,1.32,1.69,1.69,0,0,0-1.31,1.85,2.83,2.83,0,0,1,0,1c-.21,1-.83,1.29-1.81.79-.63-.32-1.22-.71-1.87-1.1-.62.47-.89.91.09,1.29a1.25,1.25,0,0,1,.48.24c.43.48.82,1,1.23,1.48a9.06,9.06,0,0,1-1.71,1.11c-.87.33-1.63,1-1.45,1.77a3.13,3.13,0,0,1-.69,2.55,8.36,8.36,0,0,0-.53,1.09l.25.24a4.61,4.61,0,0,0,1-.75,4.37,4.37,0,0,1,2.4-1.7,1.56,1.56,0,0,0,1.24-1.89c-.12-.78-.13-1.59.94-1.88a2.7,2.7,0,0,1,2.47,1.48,1.14,1.14,0,0,1-.24.73c-.77,1.08-1.61,2.12-2.36,3.21a3.6,3.6,0,0,1-2.72.14c.35.49.9.68.61.78-.72.24-4.84,0-6.51-1.11-.69-.44-1.07-.35-1.48.3s-2.8-.63-2.55-1q7.49-10,15-20a10.5,10.5,0,0,0,.88-1.92,6.46,6.46,0,0,1,.61-1.18q7.35-9.86,14.74-19.69a10.17,10.17,0,0,1,1.81-1.47c1.27-1,1.18-1.39.12-2.49a8.14,8.14,0,0,1-2.23-7.17,9,9,0,0,1,2.73-5.1,10.65,10.65,0,0,1,9.18-3.07c4,.5,6.79,2.52,8.19,5.89a8.1,8.1,0,0,1-.33,7,10.06,10.06,0,0,1-6.7,5.38,9.43,9.43,0,0,1-6.15-.09c-1.39-.58-1.94.08-2.42,1.22a10.73,10.73,0,0,1-1,2.29q-7.09,9.59-14.29,19.11a23.33,23.33,0,0,1-2,1.77,25,25,0,0,0-1.89,2.23c-1.36,1.78-1.34,1.79.64,3q2,1.16,3.93,2.35c.49.3,1,.59.51,1.27a1.29,1.29,0,0,1-1.74.6,2.85,2.85,0,0,0-.78-.1,2.15,2.15,0,0,0,.36.69,1,1,0,0,1,.13,1.51q-1.18,1.55-2.33,3.11a1,1,0,0,1-1.57.33l-.09-.05c-.54-.48-1.47-.93-1.52-1.46-.07-.84,1-1.12,1.81-1.34a1.49,1.49,0,0,0,1.25-1.7,3.24,3.24,0,0,1,.77-2.52,6.6,6.6,0,0,0,.47-1.14Zm19.71-34.9a7.05,7.05,0,0,0,9.3-1.76,5.67,5.67,0,0,0-1.77-8.25,7.47,7.47,0,0,0-9.32,1.78A5.61,5.61,0,0,0,193.69,155.36Z"/></g><g id="Locked-2" data-name="Locked"><path d="M533.52,225.78a27.18,27.18,0,0,0-4.91-9.94,22.13,22.13,0,0,0-8.57-6.56q-5.18-2.28-13.6-2.28H478v7.72l-1.87,2.11c-2,2.23-2.18,7.61-.35,10,.75,1,1.52,1.9,2.18,2.73-1.54,3.57-5.76,4.58-6,9.22s3.82,6.07,5.49,9.63c-1.78,1.88-3.54,3.81-5.38,5.65-1,1-1.09,1.78-.08,2.73.18.17.31.4.5.54,3.49,2.71,4.37,7.1,3.41,11.75h6q.23-26.77.63-53.54a12.69,12.69,0,0,1,1.06-3.41l.66.22L483.58,269h22.86a44.46,44.46,0,0,0,11.42-1.69,20.49,20.49,0,0,0,8.63-4.93,25.51,25.51,0,0,0,6.28-9.18Q535,247.74,535,237.8A46.14,46.14,0,0,0,533.52,225.78Zm-36.18,30.32,5.5-20c-5-3.24-6.71-6.91-5.52-11.4a9.59,9.59,0,0,1,8.65-6.93,9.49,9.49,0,0,1,9.27,6.07c1.64,4.22.29,8.07-4.16,11.76l5.31,20.49Z"/><path d="M315.25,243.55l16.8,5.08a31,31,0,0,1-5.33,11.8,23.13,23.13,0,0,1-9,7.15Q312.29,270,304,270q-10.11,0-16.52-2.94t-11.06-10.34q-4.65-7.4-4.65-18.94,0-15.39,8.19-23.66t23.16-8.27q11.72,0,18.43,4.74t10,14.55l-16.92,3.77a14.58,14.58,0,0,0-1.86-4.15,11,11,0,0,0-3.94-3.38,12.1,12.1,0,0,0-15.19,4.06q-2.63,3.89-2.62,12.21,0,10.31,3.13,14.14a10.73,10.73,0,0,0,8.8,3.83q5.5,0,8.31-3.09T315.25,243.55Z"/><path class="cls-16" d="M233.54,267.51l-.95,79.21.83.26c.46-1.33,1.31-2.66,1.33-4q.55-34.63.86-69.25c0-2.09-.83-4.19-1.27-6.29Z"/><text class="cls-17" transform="translate(263.92 289.99)">Slotenma<tspan class="cls-18" x="81.63" y="0">k</tspan><tspan x="91.63" y="0">er</tspan></text><path d="M166.23,253.66V206.91H147.06v5.62l-3.74,4.2c-2,2.23-2.18,7.61-.35,10,.75,1,1.52,1.9,2.18,2.73-1.54,3.57-5.76,4.58-6,9.22s3.82,6.07,5.49,9.63c-1.78,1.88-3.54,3.81-5.38,5.65-1,1-1.09,1.78-.08,2.73.18.17.31.4.5.54,3.49,2.71,4.37,7.1,3.41,11.75h5.15q.23-26.64.63-53.28a12.69,12.69,0,0,1,1.06-3.41l.66.22L150,268.94h46.16V253.66Z"/><path d="M385.14,230.32l22.63-23.41H382.28l-20.08,23.44V206.91H343v5.82l-3.64,4.09c-2,2.23-2.18,7.61-.35,10,.75,1,1.52,1.9,2.18,2.73-1.54,3.57-5.76,4.58-6,9.22s3.82,6.07,5.49,9.63c-1.78,1.88-3.54,3.81-5.38,5.65-1,1-1.09,1.78-.08,2.73.18.17.31.4.5.54,3.49,2.71,4.37,7.1,3.41,11.75h5.45v-.08h.25q.23-26.78.63-53.57a12.7,12.7,0,0,1,1.06-3.41l.66.22L346.61,269H356v-.08h6.2V253.8l9.9-10.37,13.08,25.51h23.6Z"/><path d="M434.3,254.89V242.66h29.83V230H434.3v-9.86h32.16V206.91H415.09v6.67l-2.81,3.16c-2,2.23-2.18,7.61-.35,10,.75,1,1.52,1.9,2.18,2.73-1.54,3.57-5.76,4.58-6,9.22s3.82,6.07,5.49,9.63c-1.78,1.88-3.54,3.81-5.38,5.65-1,1-1.09,1.78-.08,2.73.18.17.31.4.5.54,3.49,2.71,4.37,7.1,3.41,11.75h5.46q.23-26.77.63-53.54a12.69,12.69,0,0,1,1.06-3.41l.66.22-.63,56.73h48.13v-14Z"/></g></g><text class="cls-19" transform="translate(442.96 383.55)">Kleu<tspan class="cls-20" x="30" y="0">r</tspan><tspan x="35.83" y="0">:</tspan><tspan class="cls-21" x="39.83" y="0">	</tspan><tspan x="50.36" y="0">R: 234</tspan><tspan class="cls-22" x="0" y="14.4">	</tspan><tspan x="50.36" y="14.4">G: 91</tspan><tspan class="cls-22" x="0" y="28.8">	</tspan><tspan x="50.36" y="28.8">B: 12</tspan></text><text class="cls-23" transform="translate(22.25 364.53)"><tspan class="cls-24">T</tspan><tspan x="9.63" y="0">: </tspan><tspan class="cls-25" x="18.96" y="0">	</tspan><tspan x="23.99" y="0">0291867753</tspan><tspan x="0" y="16.8">E:</tspan><tspan class="cls-26" x="14.77" y="16.8">	</tspan><tspan x="23.99" y="16.8">Lo</tspan><tspan class="cls-27" x="42.67" y="16.8">c</tspan><tspan class="cls-24" x="51.77" y="16.8">k</tspan><tspan x="60.63" y="16.8">ed@hotmail.com</tspan><tspan x="0" y="33.6">F:</tspan><tspan class="cls-28" x="14" y="33.6">	</tspan><tspan x="23.99" y="33.6">@lo</tspan><tspan class="cls-27" x="48.36" y="33.6">c</tspan><tspan class="cls-24" x="57.46" y="33.6">k</tspan><tspan x="66.31" y="33.6">ed.belgium</tspan></text></g></svg>