<svg xmlns="http://www.w3.org/2000/svg" xmlns:xlink="http://www.w3.org/1999/xlink" viewBox="0 0 595.28 841.89"><defs><style>.cls-1,.cls-10,.cls-11,.cls-12,.cls-2,.cls-3,.cls-4{stroke:#1d1d1b;stroke-miterlimit:10;}.cls-1{fill:url(#Naamloos_verloop_30);}.cls-2{fill:url(#Naamloos_verloop_30-2);}.cls-3{fill:url(#Naamloos_verloop_30-3);}.cls-4{fill:#fff;}.cls-5{fill:url(#Naamloos_verloop_30-4);}.cls-6{fill:#1d1d1b;}.cls-7{fill:none;}.cls-8{font-size:20.18px;font-family:Arial-Black, Arial Black;}.cls-9{letter-spacing:-0.03em;}.cls-10{fill:url(#Naamloos_verloop_31);}.cls-11{fill:url(#Naamloos_verloop_31-2);}.cls-12{fill:url(#Naamloos_verloop_31-3);}.cls-13{fill:url(#Naamloos_verloop_31-4);}</style><linearGradient id="Naamloos_verloop_30" x1="191.76" y1="207.73" x2="213.2" y2="207.73" gradientUnits="userSpaceOnUse"><stop offset="0" stop-color="#fff"/><stop offset="0.15" stop-color="#fbdfd0"/><stop offset="0.38" stop-color="#f5b18b"/><stop offset="0.59" stop-color="#f08c54"/><stop offset="0.77" stop-color="#ed712d"/><stop offset="0.91" stop-color="#eb6115"/><stop offset="1" stop-color="#ea5b0c"/></linearGradient><linearGradient id="Naamloos_verloop_30-2" x1="147.41" y1="80.33" x2="246.66" y2="80.33" xlink:href="#Naamloos_verloop_30"/><linearGradient id="Naamloos_verloop_30-3" x1="105.39" y1="180.11" x2="218.06" y2="180.11" xlink:href="#Naamloos_verloop_30"/><linearGradient id="Naamloos_verloop_30-4" x1="61.86" y1="120.68" x2="547.15" y2="120.68" xlink:href="#Naamloos_verloop_30"/><linearGradient id="Naamloos_verloop_31" x1="179.4" y1="575.33" x2="200.84" y2="575.33" gradientUnits="userSpaceOnUse"><stop offset="0" stop-color="#fff"/><stop offset="0.1" stop-color="#dfdfdf"/><stop offset="0.35" stop-color="#9b9b9a"/><stop offset="0.57" stop-color="#656563"/><stop offset="0.76" stop-color="#3e3e3c"/><stop offset="0.91" stop-color="#262624"/><stop offset="1" stop-color="#1d1d1b"/></linearGradient><linearGradient id="Naamloos_verloop_31-2" x1="135.05" y1="447.93" x2="234.3" y2="447.93" xlink:href="#Naamloos_verloop_31"/><linearGradient id="Naamloos_verloop_31-3" x1="93.03" y1="547.71" x2="205.7" y2="547.71" xlink:href="#Naamloos_verloop_31"/><linearGradient id="Naamloos_verloop_31-4" x1="49.5" y1="488.28" x2="534.79" y2="488.28" xlink:href="#Naamloos_verloop_31"/></defs><title>Tekengebied 3</title><g id="Hand_of_God" data-name="Hand of God"><g id="Kleur"><g id="Hand_of_God-2" data-name="Hand of God"><g id="Hand_of_GOd-3" data-name="Hand of GOd"><path class="cls-1" d="M191.76,213.29s9.41,10,13.44,10.35,11.86-4,5.76-31.41l-.24-.42"/><path class="cls-2" d="M246.66,54s-71.49,17-74.08,18.09-17.45,17.21-25.17,34.65"/><path class="cls-3" d="M171.93,191.33c-1-.71-2.54-22.72-5.26-29.38-.55,1.71-17.59,21-17.05,23.07s-2.26,12.25-3.17,15.18-4.34,7.84-3.58,14.06c4.31,22.37-13.82,10.25-12.45-1.81,2.19-19.26,9.88-42.72,9.17-44-.95,3.37-7.31,22-11.47,38.76-3.89,9.3-3.17,18.84-4,21.11a13.49,13.49,0,0,1-6.41,6.78c-6.22,3.15-8.06-2.31-9.57-2.88C94.48,202.38,135.73,144,135.73,144c.48-.71-.06-.85-.06-.85L166,127.41l50.53-3.23,1.49,4.76c-.29.64-1.8,1.24-1.8,1.24-1.24.82-8.66,10-15.4,12.62s-4.85,20-3.42,22.23"/><path class="cls-4" d="M129.73,224.39a28.19,28.19,0,0,0-3,.68s0,.05,0,.06a5.3,5.3,0,0,1,2.5,1.53,1.09,1.09,0,0,0,.88.14c.74-.22,1.45-.53,2.16-.8a8.74,8.74,0,0,0-1.21-1.16A2.27,2.27,0,0,0,129.73,224.39Z"/><path class="cls-4" d="M141,173.33c1.73-.55,3.54-.8,5.08.34a6.27,6.27,0,0,0,5.08,1,5.85,5.85,0,0,1,2.61.08,4.07,4.07,0,0,1,2.07,1c.65-.83,1.29-1.6,1.88-2.27-.41-.3-.28,0-.74-.29a22.36,22.36,0,0,0-11.23-3,19.8,19.8,0,0,0-6.52.84l-.8,3.6A9.91,9.91,0,0,1,141,173.33Z"/><path class="cls-4" d="M143.74,185.44a15.22,15.22,0,0,1-1.57.39c-1.3.17-2.26-.5-3.34-1a5.73,5.73,0,0,1-2.33-1.84l-.71,3.18.1.08a21.36,21.36,0,0,0,5.93,2.75c.53.17.72.37.55.87s-.22.91-.34,1.36c-.17.68-.12,1.51-1.37,1.37-.2,0-.66.41-.66.63a1.34,1.34,0,0,0,.48.94c.28.23.89.24.61.75-.13.24-.52.39-.8.55a14,14,0,0,0-2.11,1.23A1.27,1.27,0,0,0,138,198a5.28,5.28,0,0,0,1.34,1.63,1,1,0,0,1,.39,1.21q-2.34,9.45-4.64,18.91c-.12.5-.29.75-1,.84a5,5,0,0,0-1.79.88,15.6,15.6,0,0,0-1.31,1l-.19-.11c.24-.53.47-1.07.71-1.59s.08-.7-.46-.79c-1.16-.19-6,6.47-6.76,9.74-.17.7.31,1.08,1.05.77a9.41,9.41,0,0,0,1.69-1.13,4.89,4.89,0,0,1,1.24-.74c-.23.53-.45,1.06-.69,1.58s-.1.86.58,1c1.07.16,2.13.38,3.19.55.57.09.7.32.59.83-.41,1.92-.39,2.77,1.68,2.29,2.43-.56,2.49.44,3-1.81l7.62-31.09c.15-.63.21-1.21,1.2-1.35.59-.08.75-.38,1.07-.93.44-.74.58-1.09.16-1.73s-.48-1.05-.91-1.67c-.14-.2.05-.59.11-1,.73.08,1.33.11,1.52-.7s-.32-.95-1-1.09l.83-3.37c.92,0,.9-.14,1.82-.15.15-.7.35-1.74.48-2.67-.71-.08-.44-.18-1.06-.65A5.4,5.4,0,0,0,143.74,185.44ZM130.13,226.8a1.09,1.09,0,0,1-.88-.14,5.3,5.3,0,0,0-2.5-1.53s0-.1,0-.06a28.19,28.19,0,0,1,3-.68,2.27,2.27,0,0,1,1.34.44,8.74,8.74,0,0,1,1.21,1.16C131.58,226.27,130.87,226.58,130.13,226.8Z"/><path d="M192.15,216q-10.7-10.62-30.49-10.62-19.3,0-30.11,10.81t-10.81,30.22q0,13.89,5.46,23.14A33.4,33.4,0,0,0,140.45,283l.33.15-.56.65a35.69,35.69,0,0,0-4.22,5.56c-.93,1.67-1.52,4.26-.86,5.87.57,1.4,3,2.41,4.8,2.84,2,.48,4.21.11,6.79.11,0,2,0,3.49,0,5-.23,23.55-.52,47.11-.66,70.66,0,6.84,3.68,11.9,8.72,16,2.25,1.85,4.48,1.68,6.61-.71,3.87-4.35,7.93-8.53,11.94-12.76,3.17-3.35,3.5-11.4.56-14.91-1.2-1.44-2.44-2.85-3.5-4.08,2.47-5.35,9.23-6.87,9.57-13.81.36-7.15-6.12-9.1-8.8-14.42,2.85-2.81,5.67-5.7,8.63-8.46,1.53-1.43,1.75-2.66.13-4.09-.28-.25-.49-.59-.8-.81-5.59-4.06-6.82-9.63-5.28-16.61,2.91,0,6.14,0,9.37,0,5.37-.1,6.88-2.62,4.34-7.27-1.4-2.55-2.87-5.09-4.39-7.76l-.46-.81c.67-.32,1.33-.65,2-1a33.32,33.32,0,0,0,13.51-13.84q4.67-8.89,4.68-22.78Q202.86,226.6,192.15,216Zm-42.43,13.16a14.87,14.87,0,0,1,11.89-5.24q7.73,0,12.24,5.16t4.51,16.35q0,13.3-4.32,18.43T161.83,269q-7.68,0-12.14-5.24t-4.46-17.25Q145.23,234.38,149.72,229.14Zm14.2,151.42c0,1.71-1.11,3.41-1.69,5.11l-1.07-.33,1.17-98h.31c.53,0,1,0,1.57,0a18.18,18.18,0,0,1,.8,4.81Q164.65,336.32,163.92,380.56Z"/><path class="cls-5" d="M177.34,218.91a11.58,11.58,0,0,1-9.14-4.32c-4.82-5.93,1.52-23.63,12.33-34.45,23.34-19,41.14-40,40.49-47.81-.47-5.62-13.11-6.06-17-6.06-6.65,0-13.12,1-15.37,2.42-4.18,2.6-20.84,5.92-29.7,5.92a21.61,21.61,0,0,1-3-.17l-.2,0-.16.12c-8.64,6.22-23.35,10.14-32.14,12.48-5.9,1.57-7.19,2-7.44,2.6-.52,1.23-28.37,44.91-33,50.74-2.3,2.92-7.25,5-12,5a12.28,12.28,0,0,1-9.17-3.52c2.15-10.72,35.54-67.7,40.4-72.54,2.35-2.34,18.08-9.79,32-16.36,13.37-6.33,21.62-10.27,22.81-11.5,1.59-1.64,9.37-7.29,23.11-16.82l1-.72c.63-.44,4-1.76,8.7-3.58,12.4-4.83,35.47-13.82,51.44-23.61,23.88-14.64,58.08-25.43,82.56-31.9A75.09,75.09,0,0,1,343,22.45c20.82,0,41.31,7,51.66,11.15,5.23,2.1,10.95,2.38,18.19,2.72,3.35.16,7.15.34,11.26.74,1.35-.08,2.74-.13,4.2-.13,34.76,0,113,24.43,118.85,26.29v122c-.61,0-1.86,0-4.07,0-4,0-11.48-.06-24.77-.32C454,171.53,411,146.81,391.18,133.27a230.4,230.4,0,0,0-39-20.76A49.51,49.51,0,0,0,333,108.3a33.14,33.14,0,0,0-10.78,1.7l-.23.08-.08.22c-9.58,26.08-27.8,40.06-55.71,42.73-13.21,3.16-35.1,14.35-64.7,49.8C190.45,216.12,182.26,218.91,177.34,218.91Z"/><path class="cls-6" d="M343,23c20.74,0,41.15,7,51.47,11.11,5.31,2.13,11.06,2.41,18.35,2.76,3.34.16,7.13.34,11.23.74h.16c1.26-.09,2.63-.13,4.08-.13,34.11,0,110.25,23.61,118.35,26.15V184.78c-.7,0-1.84,0-3.57,0-4,0-11.44-.06-24.66-.32-64.26-13.44-107.12-38.11-127-51.63a230.88,230.88,0,0,0-39.05-20.8A50,50,0,0,0,333,107.8a33.64,33.64,0,0,0-10.94,1.72l-.45.15-.16.45C312,136,293.9,149.88,266.2,152.53h-.07l-.07,0c-13.22,3.16-35.21,14.4-64.9,50-11,13.15-19,15.91-23.83,15.91a11.08,11.08,0,0,1-8.76-4.13c-2.13-2.62-2-8.13.33-14.76a52.5,52.5,0,0,1,11.93-19c23.47-19.11,41.34-40.29,40.67-48.24-.49-5.88-12.39-6.52-17.48-6.52-6.85,0-13.28,1-15.64,2.49-4.13,2.57-20.64,5.84-29.44,5.84a21.16,21.16,0,0,1-2.92-.17l-.4-.06-.33.24c-8.56,6.17-23.22,10.07-32,12.4-6.39,1.7-7.44,2-7.77,2.88-.69,1.49-28.38,44.91-32.91,50.64-2.21,2.8-7,4.76-11.64,4.76a11.9,11.9,0,0,1-8.62-3.18c1.12-4.85,8.18-18.93,19.1-38,9.35-16.35,19-31.93,21.11-34,2.29-2.28,18.66-10,31.81-16.26,13.42-6.35,21.7-10.31,23-11.6,1.57-1.61,9.32-7.25,23-16.76l1-.72c.58-.41,4.3-1.85,8.6-3.53,12.41-4.84,35.51-13.84,51.51-23.65,23.83-14.61,58-25.38,82.43-31.84A74.58,74.58,0,0,1,343,23m0-1a75.49,75.49,0,0,0-19.25,2.32c-29,7.66-60.59,18.4-82.7,32s-57.73,25.52-60.16,27.21S159.33,98.29,156.66,101s-50.4,23.51-54.76,27.85-38.83,62.57-40.58,73a12.7,12.7,0,0,0,9.7,3.87c4.95,0,10-2.07,12.43-5.14,4.22-5.35,32.48-49.43,33-50.87s26.6-5.63,39.41-14.86a22.14,22.14,0,0,0,3.06.18c8.91,0,25.63-3.3,30-6,2.19-1.36,8.62-2.34,15.11-2.34,8,0,16.14,1.49,16.48,5.6.62,7.43-16.72,28.19-40.35,47.42-11.05,11-17.38,29-12.37,35.12a12,12,0,0,0,9.53,4.5c6.11,0,14.39-4,24.6-16.26,17.34-20.77,41.54-44.16,64.36-49.62,26.26-2.51,45.84-15,56.13-43.05A32.71,32.71,0,0,1,333,108.8,48.87,48.87,0,0,1,352,113a231.38,231.38,0,0,1,38.88,20.71c11.71,8,55.87,36.85,127.4,51.8,13.09.26,20.63.32,24.78.32,3.47,0,4.57,0,4.57,0V62.87S464.74,36.44,428.29,36.44q-2.19,0-4.15.13c-12.67-1.24-21.68-.37-29.31-3.44C388.86,30.73,366.38,22,343,22Z"/></g><path class="cls-4" d="M302,69.75c-.14-2-.33-3.95-.42-5.93-.07-1.7.18-3.31,2.18-4.21.19-.09.29-.46.33-.72a101.4,101.4,0,0,1,1.73-10.41A35.17,35.17,0,0,1,329.1,24a40.81,40.81,0,0,1,16.53-1.77,33,33,0,0,1,17.22,6.64A35.87,35.87,0,0,1,373,41.21a33.52,33.52,0,0,1,3.47,10,2.92,2.92,0,0,0,1.92,2.68c1.42.53,1.59,2,1.7,3.16.38,4,.62,8.06.89,12.1a7,7,0,0,1-.15,1.48c-.25,1.63-.72,2.25-2.49,2.57s-3.55.41-5.33.58-2,.18-1.78,1.85a25.58,25.58,0,0,1-.41,9,27.47,27.47,0,0,1-9,15.1c-6.65,5.7-14.54,7.86-23.34,7.23a27.15,27.15,0,0,1-16.38-6.79,24.78,24.78,0,0,1-7.82-12.11A50.75,50.75,0,0,1,313,80.3c-.14-1.18-.6-1.46-1.79-1.32a44.24,44.24,0,0,1-4.66.39c-3,0-3.48-.47-4-3a52.08,52.08,0,0,1-.54-6.65Zm34,7.16h0c-4.07.34-8.14.66-12.2,1.06-.49,0-1.37.61-1.34.83.39,2.63.56,5.37,1.51,7.84a17.65,17.65,0,0,0,6.54,8.24,18.65,18.65,0,0,0,9,3.36,21.92,21.92,0,0,0,10.1-1.31A18.45,18.45,0,0,0,357,91.79a20.73,20.73,0,0,0,4.85-15.65c-.08-1.07-.49-1.41-1.68-1.3-4.24.41-8.48.73-12.72,1.09ZM339.37,35c-2.37.42-3.36,1.12-3.16,2.51.25,1.75.59,3.49,1,5.22s.74,3.32-.83,4.86a3.55,3.55,0,0,0-.7,2.22A3.73,3.73,0,0,0,338.77,54a4.94,4.94,0,0,0,5.36-2.13c1.22-2.2-.06-5.36-2.51-6.38a1.49,1.49,0,0,1-.81-1,1.9,1.9,0,0,1,1.25-2.25,1.47,1.47,0,0,0,.77-1c0-.25-.52-.58-.87-.77s-.73-.11-1-.28-1-.59-1-1,.31-.91.65-1.26.71-.14,1-.29,1-.43,1.1-.72a1.24,1.24,0,0,0-.64-1.06A22.54,22.54,0,0,0,339.37,35Z"/><path class="cls-4" d="M281,70.3c.68,1,1.4,1.94,2,2.94s1.24,1,2.16.38c.68-.44,1.4-.84,2.13-1.22,1.89-1,3.46-.65,4.63,1,2.42,3.43,4.8,6.89,7.2,10.34l19.7,28.32c1.45,2.08,1.24,2.9-.55,4.8s-3.09,3.67-4.6,5.53c-1.88,2.31-3.74,4.64-5.61,7-3,3.71-6.06,7.41-9.06,11.13a7.14,7.14,0,0,1-4.75,3c-5.54.88-11,2.07-16.55,3.1-4.76.89-9.54,1.74-14.31,2.62l-.76.16c-3.78.8-4.11.68-6.21-2.34l-25.59-36.78c-.19-.27-.38-.55-.56-.83-1.15-1.87-.75-3.35,1.23-4.6,3.1-2,3.18-2,1.08-4.79a26.23,26.23,0,0,1-5.2-11.6,23.16,23.16,0,0,1,1.63-13,27.9,27.9,0,0,1,16.08-15.27,30.94,30.94,0,0,1,18.18-1.53c4.58,1,8.79,2.69,12.12,5.75,2,1.86,3.9,3.85,5.84,5.77Zm-22,18.51L272.44,81c1-.59,2.08-1.11,3-1.79a1.25,1.25,0,0,0,.36-1.24c-2-2.81-3.58-5.89-6.7-8-6.52-4.36-13.5-5.25-21.1-2a18.56,18.56,0,0,0-11.19,12.19,13.78,13.78,0,0,0,0,8.94c1.07,2.81,2.87,5.38,4.3,8.08.67,1.26,1.48,1.2,2.7.48C248.87,94.68,254,91.76,259.05,88.81Zm22.42,37.72h0c1,1.45,2,2.9,3,4.34s1.94,1.62,3.59.67l1.46-.84c1.84-1.08,2-1.8.89-3.46-2-2.9-4.06-5.77-6-8.7a2.51,2.51,0,0,1-.36-1.92,5.81,5.81,0,0,0-1.15-5.64,6.27,6.27,0,0,0-5.72-2.3,6.82,6.82,0,0,0-5.72,3.47c-2,3.62-.16,8,4.85,8.7a2.88,2.88,0,0,1,2.23,1.43C279.46,123.74,280.49,125.12,281.47,126.53Z"/><path class="cls-4" d="M294.89,54.91l-1.56.65c-.69.27-.74.4-.3.89.25.29.51.57.75.86a1,1,0,0,1,.08,1.28,2.47,2.47,0,0,0-.46,1,.78.78,0,0,0,.33.65c.56.36,1.2.62,1.78,1a.55.55,0,0,1,.19.52c-.2.63-.49,1.24-.69,1.87a.67.67,0,0,0,.19.6c.72.63,1.48,1.21,2.2,1.84a.67.67,0,0,1,.2.49,33.05,33.05,0,0,0-.12,3.46c0,.38.57.82,1,1a.86.86,0,0,1,.55,1.17c-.26,1-.21,1,.8,1.51,1.83.94,1.67.42,1.31,2.36-.15.82-.43,1.62-.61,2.43-.09.42-.32.79-.79.73a3.3,3.3,0,0,1-1.15-.53c-.1-.06-.1-.24-.17-.35a1,1,0,0,0-1.37-.46c-1,.38-1.21.26-1.63-.56q-3.32-6.42-6.66-12.84c-1.27-2.45-2.55-4.9-3.82-7.36-.49-1-.48-1-1.63-.76-1.45.27-2.89.57-4.34.84a3.27,3.27,0,0,1-2.68-.18A4.24,4.24,0,0,1,275,55.63c-1.39-2.72-2.78-5.44-4-8.22-.88-2-.39-2.69,1.69-4.2,1.88-1.36,3.84-2.64,5.73-4A8.41,8.41,0,0,1,282,37.85c1.38-.24,2.74-.54,4.12-.78s2.65-.48,4-.64a2.57,2.57,0,0,1,2.78,1.36c1.47,2.9,2.86,5.83,4.3,8.74a2.54,2.54,0,0,1-1,3.33c-.43.26-.81.59-1.24.86-1.26.8-1.4,1.13-.88,2.42C294.28,53.73,294.59,54.29,294.89,54.91ZM283.2,45.23l3.93-1.64c.23-.09.45-.19.67-.3.92-.5,1-.73.65-1.61-.25-.58-.58-1.14-.84-1.72a1,1,0,0,0-1.16-.54c-1.4.25-2.79.56-4.19.76a7,7,0,0,0-3.05,1.44c-.63.44-1.22.93-1.88,1.32-1.52.9-1.7,1.35-1,2.77l.2.42c.61,1.2,1.17,1.39,2.54.84S281.82,45.81,283.2,45.23Z"/><path class="cls-4" d="M419.26,58.06c2.4.45,4.53.86,6.67,1.25,1.48.27,1.6,1.5,2.1,2.44.72,1.34,1.19,1.47,2.81,1a4.31,4.31,0,0,1,2.21.14c1.78.54,3.51,1.21,5.26,1.82,7.43,2.58,14.88,5.13,22.3,7.74,1.45.51,3.12.83,3.68,2.49.1.28.73.44,1.14.59,1.55.57,3.11,1.12,4.68,1.65,1.11.37,1.48,1,1,2-.72,1.55-1.41,3.11-2.15,4.65a1.49,1.49,0,0,1-2.11.78c-1.36-.51-2.73-1-4.11-1.45-1-.32-1.88-1-3-.12-.21.16-.88-.08-1.29-.22q-15.18-5.32-30.34-10.69a2.79,2.79,0,0,1-1.28-1.2,1.72,1.72,0,0,0-2.37-.86c-2.49,1.61-4.4.57-6.37-.63-1.2-.73-2.41-1.45-3.72-2.23-1.68,2.42-3.25,4.71-4.85,7-.91,1.3-1.81,2.61-2.8,3.86a3.65,3.65,0,0,1-4.45,1.18c-3.4-1.41-6.73-2.93-10.08-4.43-6.16-2.76-16.45-33.79-13.47-40.56C380,31.53,382.12,31,385,31.7c7,1.8,14,3.52,21,5.22,4,1,8,1.82,12,2.75a15.81,15.81,0,0,1,2.59.79A2.89,2.89,0,0,1,422.43,44c-.53,2.36-1.17,4.7-1.76,7-.5,2-1,4-1.46,6A3.71,3.71,0,0,0,419.26,58.06Zm21.69,14h0c6.24,2.2,12.47,4.41,18.73,6.55.53.18,1.28-.14,1.92-.23-.34-.47-.56-1.21-1-1.38q-18.69-6.65-37.44-13.15c-.49-.17-1.23.18-1.85.29.37.46.62,1.16,1.12,1.34C428.56,67.73,434.76,69.89,441,72.07Z"/><path class="cls-4" d="M457.7,95.36c1.5-2,3.71-1.25,5.9-.55s4.15,1.38,6.4,2.12c2.13-2.51,4.52-5.46,7.07-8.3,3.79-4.21,8.13-7.92,14-9.41a15.43,15.43,0,0,1,13,2.42c4.26,2.94,5.21,6.93,4.86,11.61a16.63,16.63,0,0,1-4.16,10.11c-5.28,6-13.74,5.63-18.15.12-1.27-1.58-.83-5,.86-6.85a5.47,5.47,0,0,1,5.72-1.47c1.36.37,2.62,1,4,1.46a1.45,1.45,0,0,0,1.15-.17c1.81-1.66,2.85-6.82,1.86-8.87-1.6-3.3-7.43-4-10.87-1.4-4.61,3.52-7.68,8-10.25,12.82-.61,1.15-1.22,2.31-1.94,3.41-2.94,4.47-3.27,9.5-4.21,14.39a29.88,29.88,0,0,0-.22,12.2c.82,3.69,2,6,6.23,6.73,2.27.37,4.87-.24,6-2.12a34.09,34.09,0,0,0,2.43-6.1c.34-1-.19-1.38-1.42-1.26-3.17.31-6.39-1.52-7.11-3.89a5.31,5.31,0,0,1,2.6-5.77c5.59-3.24,12.94-1.79,15.23,5,1.48,4.42.42,8.67-2.32,12.7a18.8,18.8,0,0,1-5.21,5.54c-4.08,2.66-10.9,2.91-15.1.65s-6.52-6-7.73-10.24a57.7,57.7,0,0,1-1.78-18.14c-3.4.76-6.16-.84-9.15-1.53a.93.93,0,0,1-.57-.33,6.61,6.61,0,0,0-4.84-3.38,8.52,8.52,0,0,0-1.91-.44,2.24,2.24,0,0,1-2.63-1.89,1.92,1.92,0,0,0-1.19-1.15c-4.2-1.2-8.44-2.32-12.66-3.46-8.57-2.32-17.16-4.6-25.71-7-1.43-.39-2.1-.24-2.53,1.16-.76,2.46-1.67,4.88-2.62,7.3-.71,1.82-1.17,2-3.15,1.49-1.57-.4-3.11-.86-4.68-1.25-1-.25-1.25-.75-.91-1.64.82-2.17,1.55-4.36,2.38-6.53.36-1,.12-1.47-.95-1.79a1.36,1.36,0,0,0-2,1c-.71,2-1.53,4-2.17,6.08-.41,1.32-1.06,1.72-2.53,1.27-2.31-.71-4.67-1.28-7-1.91s-2.18-.6-1.52-2.63c.27-.82,1-1.72-.64-2.11-1-.24-1.55-.1-1.82.86-.21.77-.53,1.51-.85,2.4l-4.13-1.12c.65-1.82,1.16-3.51,1.92-5.12a2.23,2.23,0,0,1,1.8-.69,30,30,0,0,1,4.36,1.09c.93.29,1.48.05,1.73-.77s.42-1.59-.77-1.91l-5.81-1.57c.76-2.11,1.56-4.09,2.18-6.11,1.18-3.85,2.12-4.59,6.82-3.3Q415,85.9,447.2,94.53a1.73,1.73,0,0,0,2.1-.44,2.21,2.21,0,0,1,3.11-.08,5.46,5.46,0,0,0,1.9.6C455.33,94.86,456.35,95.07,457.7,95.36Z"/><path class="cls-4" d="M225.12,94.4c.3.6.58,1.22.92,1.8,1.5,2.52.7,4.89-1.07,7a69.59,69.59,0,0,1-5.25,5.09c-.72.68-1.3,1.36-.67,2.35a1.35,1.35,0,0,1,0,.9c-.45,2.16-1,4.31-1.38,6.47a28.59,28.59,0,0,1-.32,3.15c-.92,3-5.11,4.57-8.47,2.17a36.46,36.46,0,0,0-6.87-3.46,4.43,4.43,0,0,0-2.55.2,6.49,6.49,0,0,1-6.1-1.22,2,2,0,0,0-2.35-.29c-1.81.74-3.69,1.34-5.51,2.05a1.44,1.44,0,0,1-2.09-.75c-1.27-2.27-2.37-2.42-4.53-.65-1,.81-1.91,1.71-2.91,2.51-.81.65-1.44.6-2.19-.25a5.53,5.53,0,0,0-2.73-1.88,3.29,3.29,0,0,0-3.78,2.2,3.62,3.62,0,0,1-2.1,1.94c-3.62,1.52-7.22,3.09-10.81,4.67a3.05,3.05,0,0,1-2.79,0c-1.39-.66-4.21.47-4.83,2a3.91,3.91,0,0,1-3.21,2.52c-3.19.44-6.43.72-9.64.84-1.88.07-2.45-.62-2.37-2.34a4.74,4.74,0,0,1,2.33-4.12,21.11,21.11,0,0,1,2.49-1.23q19.92-8.64,39.85-17.25c1-.43,1.8-.77,1.16-2-.12-.23.29-.93.64-1.12,1.67-.9,3.37-1.76,5.12-2.52a1.75,1.75,0,0,0,1.27-1.87A6.09,6.09,0,0,1,188,95.58c1.68-.86,1.66-2.47,2-3.8.5-2.05.41-4.21.91-6.26.64-2.66,5-4,7.51-2.55s5.17,2.79,7.76,4.19c.42.22,1,.4,1.18.74.87,1.83,2.56,1.24,4.11,1.18a60.4,60.4,0,0,1,7.46-.15C221.84,89.15,223.18,90.56,225.12,94.4Zm-8.33,11.27,2.89-2.66a5.92,5.92,0,0,0-.57-9.4c-1.66-1.22-6.13-1.26-8.44-.31a4.15,4.15,0,0,0,.22.73C212.78,97.79,214.69,101.55,216.79,105.67Z"/><path class="cls-4" d="M153.12,162.36a11.05,11.05,0,0,0-2.95,6.5,4.62,4.62,0,0,1-.47,1.13,5.63,5.63,0,0,1-1.15-.62c-2.3-2-3-4.46-1.87-7.28a2.16,2.16,0,0,0,.22-.55c0-.41,0-.82,0-1.22-.48.31-1.24.53-1.4.95a37.63,37.63,0,0,0-1.14,4c-.12.44-.21.89-.31,1.33l-.74-.12a17.23,17.23,0,0,0-.65-1.77,10.25,10.25,0,0,0-.88-1.29c-.39.3-.81.57-1.18.89s-.81.82-1.24,1.21a1.68,1.68,0,0,1-2.24.31,12.69,12.69,0,0,0-5.58-2.1c-.62,0-1.24,0-1.87,0a3.18,3.18,0,0,1-.92,0c-.26-.08-.61-.3-.65-.51s.23-.52.45-.66a10.55,10.55,0,0,0,3.65-3.32,19.5,19.5,0,0,0,1.23-2.3c.74-1.79.91-1.72,3.15-1.56a5.2,5.2,0,0,1,1.55.3c1.1.44,1.06-.27,1-.86a20.33,20.33,0,0,0-.63-2,1.81,1.81,0,0,1,.06-.64c.23,0,.51,0,.67.11,1.09.76,2.2,1.5,3.22,2.34s1.46,1,2.85.39a8.24,8.24,0,0,0-1-.73c-2.38-1.31-3.87-3.15-3.86-5.81a7.25,7.25,0,0,1,.68-2.64c2.36,1.83,4.48,3.82,7.67,4.23,0-.32,0-.74,0-1.15,0-1.21.43-1.72,1.73-1.69a21.51,21.51,0,0,1,3.33.36,14.58,14.58,0,0,0,8.48-1c2.11-.86,3.23-2.63,5-3.78a6.72,6.72,0,0,1,2.37-1.1c.41-.08,1,.58,1.48.89s.77.46,1.15.69c.23-.41.47-.81.68-1.22.07-.14,0-.37.12-.48,1.43-1.53,1.51-3.49,2-5.33a8.94,8.94,0,0,1,.38-1,4.72,4.72,0,0,1,1.09.5c2.83,2.33,3.09,4.74,1.82,7.84a11,11,0,0,0-.32,1.12c1.47-.05,1.77-.45,2.08-2.16a25.54,25.54,0,0,1,.84-3,4.32,4.32,0,0,1,.54-.87c1.05,1,.49,2.76,2.13,3.17.83-.79,1.63-1.55,2.45-2.3a1.68,1.68,0,0,1,2-.16,38.11,38.11,0,0,0,4.68,1.92,16.91,16.91,0,0,0,3.21.21,4.29,4.29,0,0,1,1.07.4c-.2.33-.31.84-.61,1-2.81,1.21-4,3.6-5,6.06a1.61,1.61,0,0,1-1.89,1,18.55,18.55,0,0,1-2.26-.4c-1.14-.24-1.58.2-1.26,1.3.21.72.5,1.42.75,2.13l-.32.28c-1-.69-2.07-1.37-3.09-2.08-.39-.27-.73-.61-1.09-.91-.88-.72-.94-.73-2.39-.18a9.88,9.88,0,0,0,1.14,1c1.71,1,3.26,2.23,3.53,4.22a14.08,14.08,0,0,1-.23,3.7c-.07.52-.47.53-.92.16a32,32,0,0,0-3.63-2.81,28,28,0,0,0-3.79-1.62c0,.53.09,1,.11,1.53,0,1.18-.58,1.81-1.83,1.75-1.46-.07-2.93-.17-4.38-.37a12.93,12.93,0,0,0-9,2c-1.6,1-2.48,2.44-3.82,3.54s-2.21,1.25-3.42-.2C153.5,162.74,153.3,162.56,153.12,162.36Zm5.94-10.11,0,.08a13.73,13.73,0,0,0-1.63.43c-.27.11-.7.47-.66.6.24.74.42,1.86,1,2.05a3.48,3.48,0,0,0,2.47-.54c1.52-.9,3-1.78,4.86-1a2,2,0,0,0,2.79-1.19,2.57,2.57,0,0,0-1.49-3.15,2.05,2.05,0,0,0-2.73,1.12,1.78,1.78,0,0,1-1.59,1.06A29,29,0,0,0,159.05,152.25Zm14.43-2.06-.28-2.12C172.12,149.38,172.15,149.52,173.49,150.19ZM189.65,145l.44-.1a3.67,3.67,0,0,0-.27-1.27c-.16-.26-.65-.34-1-.5l-.17.26Zm-.67.46.24-.25-1-1.61-.42.11a3,3,0,0,0,.19,1.16C188.18,145.2,188.64,145.31,189,145.5ZM135.9,159.79l-.43,0a4.73,4.73,0,0,0-.18,1.36c0,.26.45.47.69.71l.21-.18Zm15.86-3,.32,0c0-.4.18-.87,0-1.17s-.71-.48-1.08-.71l-.18.25ZM174.09,150c.3-.16.63-.28.62-.35a7.33,7.33,0,0,0-.3-1.39c0-.09-.29-.11-.44-.16,0,.36-.06.72-.05,1.09A5.24,5.24,0,0,0,174.09,150Zm-22.72,7.09-1.2-1.85C149.7,156.6,150.07,157.16,151.36,157.13Zm-14.62,2.47-.27.15.35,1.84.34,0c.11-.35.35-.73.28-1S137,159.92,136.75,159.6Z"/><path class="cls-4" d="M114.11,222.83c1.15-.71,2.14-.33,3.14-.11,1.16.25,2.31.5,3.46.77a2.13,2.13,0,0,1,1.76,2.73c-.23.76-.46,1.52-.69,2.29-.36,0-.56,0-.75-.08-1.34-.25-1.37-.26-1-1.48.19-.7-.05-1.12-.81-1.29-.56-.13-1.13-.24-1.68-.39A1,1,0,0,0,116,226c-.19.66-.36,1.24-1.38,1.25a.65.65,0,0,0-.24,1.21,1.06,1.06,0,0,1,.45,1.42c-.32,1-.14,1.19.91,1.45l.68.15c1.8.4,1.81.41,2.5-1.13.32-.7.88-.36,1.33-.29s1,.14.77.78-.42,1.49-.68,2.22a2.21,2.21,0,0,1-2.15,1.21c-2-.4-4.06-.86-6.07-1.35-.33-.08-.58-.43-.9-.69-1,1-2.05.14-3.08-.08-.23,0-.35-.7-.39-1.09a2.7,2.7,0,0,1,.25-.92q4.89-16.23,9.8-32.45a1.14,1.14,0,0,0-.35-1.47,14.17,14.17,0,0,1-4.84-6.41c-.55-1.23.56-5,2-8.11,1.68-3.66,3-5.52,6.21-6.8a12.78,12.78,0,0,1,9.22-.22,9.81,9.81,0,0,1,5.88,5.25c-.58,1.87-.89,2.37-1.36,4.35a32.75,32.75,0,0,1-1.85,6.13c-1.18,2-1.83,3.21-4,4.36a27.53,27.53,0,0,1-2.67,1.49,33.05,33.05,0,0,1-3.63,1.12,1.38,1.38,0,0,0-1.11,1q-3.53,11.78-7.09,23.56C114.22,222.17,114.19,222.4,114.11,222.83Zm1.44-39.51a6.11,6.11,0,0,0,.05,4.09,12.67,12.67,0,0,0,4.56,6.11,2.76,2.76,0,0,0,2,.3,19.19,19.19,0,0,0,5.37-2.19c3-1.87,4.63-4.2,4.29-7.49a6.85,6.85,0,0,0-4-5.6C123,176.12,116.91,178.53,115.54,183.32Z"/><path class="cls-4" d="M399.16,126.42a.87.87,0,0,1,1.29-.37c.7.35,1.05,0,1.36-.48l.28-.44c-.83-.79-.84-.79-.13-1.72.54-.71,1.06-1.43,1.62-2.13s1-.84,1.86-.35c1.21.72,2.41,1.46,3.63,2.17.49.29.61.69.32,1.11-.72,1-1.49,2-2.25,3-.12.16-.26.31-.42.49l-1-.5c-.19.25-.35.48-.53.71a.54.54,0,0,0,.08.9c.45.37.94.8.09,1.54a11.52,11.52,0,0,0,1.64.44c.75.09,1.18.44,1.17,1.1a1.76,1.76,0,0,1-1.82,1.51,1.59,1.59,0,0,1-.77-.46c-.26-.23-.4-.6-.69-.78-2.62-1.6-5.27-3.17-7.88-4.73a1.66,1.66,0,0,1-2.28-.48c-.06-.09-.19-.21-.16-.27.36-.7-.29-.85-.71-1.11l-10.37-6.18a1.25,1.25,0,0,0-.36-.21c-.88-.17-1.73-.35-2.05-1.26a1.93,1.93,0,0,0-.62.09c-.29.08-.57.2-.85.31l-.16-.93a1.62,1.62,0,0,0-.2-.63,6.15,6.15,0,0,1-3.27,1.16,44.46,44.46,0,0,1-5,.7,9.07,9.07,0,0,1-7-2.24,7.32,7.32,0,0,1-2.53-7.53,8,8,0,0,1,3.08-4.64,9.87,9.87,0,0,1,7.35-2,9.06,9.06,0,0,1,5.73,2.86,10.39,10.39,0,0,1,2.26,5.12c.24,1,.49,2,.64,3.06a9.08,9.08,0,0,1-.09,1.64c0,.14,0,.36.11.41a.66.66,0,0,0,.48-.07c.14-.07.23-.27.37-.3a1.27,1.27,0,0,1,.77,0c.13.08.14.43.06.61-.29.69-.18.79.61.8a2.23,2.23,0,0,1,1.09.52c.28.2.43.56.72.74q5.35,3.27,10.74,6.49a1.09,1.09,0,0,0,.82.08c.77-.3,2,.26,2.09,1S398.33,126,399.16,126.42Zm-28.1-12.32.65.35a3.1,3.1,0,0,0,3.16,0,2.48,2.48,0,0,0,.33-4.36c-.63-.38-.75-.69-.22-1.2a1.07,1.07,0,0,0,.15-.22,2.23,2.23,0,0,0-.08-2.7,2.75,2.75,0,0,0-2.47-1,3.27,3.27,0,0,0-2.29,1.25c-.48.57-.76.5-1.32.19a3.05,3.05,0,0,0-4.34,2,2.5,2.5,0,0,0,1.29,2.66.6.6,0,0,1,.23.54,5.3,5.3,0,0,1-.57,1.2c-.5.8.14,2.25.8,2.74a3.17,3.17,0,0,0,4.09-.63Zm33,10.43c.07.35,0,.79.23,1s.81.1,1.23-.1a1.1,1.1,0,0,1,.52,0c.64.06,1.28-.51,1-1a2.18,2.18,0,0,1-.24-1.2.7.7,0,0,0-.35-.55,1.83,1.83,0,0,0-.78.08c-.3,0-.6.1-.89.17a1.74,1.74,0,0,0-.77.26C403.56,123.73,403.84,124.14,404.08,124.53Z"/><path class="cls-4" d="M86.27,185.43c-.49.44-1,.86-1.45,1.33a4.2,4.2,0,0,1-2.74,1.68,2.16,2.16,0,0,0-1.68,2.37,3.62,3.62,0,0,1,.06,1.25c-.27,1.3-1.06,1.65-2.31,1-.8-.41-1.55-.91-2.39-1.41-.79.6-1.14,1.16.11,1.64a1.6,1.6,0,0,1,.61.3c.55.62,1.05,1.26,1.57,1.9a11.57,11.57,0,0,1-2.19,1.42c-1.11.42-2.08,1.28-1.86,2.26a4,4,0,0,1-.88,3.26,10.68,10.68,0,0,0-.68,1.39l.31.31a5.88,5.88,0,0,0,1.32-1A5.58,5.58,0,0,1,77.15,201a2,2,0,0,0,1.59-2.42c-.15-1-.17-2,1.21-2.4,1-.26,3,1,3.15,1.9a1.45,1.45,0,0,1-.3.93c-1,1.38-2.06,2.71-3,4.11-1.1.6-2,.47-3.48.18.45.63,1.14.87.78,1-.92.31-6.18-.06-8.32-1.42-.88-.56-1.36-.45-1.89.38-.43.67-3.57-.8-3.25-1.23q9.57-12.8,19.12-25.61A13.41,13.41,0,0,0,83.86,174a8.26,8.26,0,0,1,.77-1.5q9.39-12.59,18.84-25.15a13,13,0,0,1,2.32-1.88c1.62-1.3,1.51-1.77.15-3.18a10.4,10.4,0,0,1-2.84-9.16,11.48,11.48,0,0,1,3.49-6.52,13.61,13.61,0,0,1,11.73-3.92c5.07.65,8.67,3.22,10.47,7.52a10.35,10.35,0,0,1-.42,8.91,12.85,12.85,0,0,1-8.55,6.88,12,12,0,0,1-7.85-.12c-1.78-.75-2.47.11-3.09,1.56a13.71,13.71,0,0,1-1.3,2.93q-9.06,12.25-18.25,24.41A29.81,29.81,0,0,1,86.8,177a32,32,0,0,0-2.41,2.85c-1.73,2.27-1.71,2.28.82,3.78q2.52,1.49,5,3c.63.38,1.28.76.65,1.63a1.65,1.65,0,0,1-2.23.77,3.64,3.64,0,0,0-1-.12,2.75,2.75,0,0,0,.47.88,1.24,1.24,0,0,1,.17,1.93q-1.51,2-3,4a1.3,1.3,0,0,1-2,.42,1,1,0,0,1-.12-.06c-.69-.62-1.88-1.19-1.94-1.87-.09-1.08,1.22-1.43,2.32-1.72a1.9,1.9,0,0,0,1.6-2.18,4.14,4.14,0,0,1,1-3.22,8.43,8.43,0,0,0,.6-1.46Zm25.18-44.6c3.68,2.52,9.26,1.34,11.88-2.25a7.24,7.24,0,0,0-2.26-10.54,9.54,9.54,0,0,0-11.91,2.28C106.88,133.38,107.32,138.75,111.45,140.84Z"/><path class="cls-4" d="M468.71,47.68a48.52,48.52,0,0,0-7,3.91,2.9,2.9,0,0,0-.88,4.07,78.15,78.15,0,0,0,4.53,7.8c1.3,1.75,3.07,3.71,5.15,4.41,5.53,1.86,11.35,3.08,17,4.6a2.07,2.07,0,0,0,2.71-1c1.91-3,4.28-3.77,7.15-2.71,2.65,1,2.75,3.13,2.78,5.19a2,2,0,0,0,2,2.33,22.28,22.28,0,0,1,2.53.64c.37-.57.57-1,.84-1.3,1-1.31,2.05-2.54,4.29-2.14,2.42.44,2.48,2,2.36,3.6-.2,2.75,2.11,2.22,3.91,2.65l.55-1.07c1.55-3,3.21-4,5.76-3.43,2.89.67,3.77,2,3.24,5.41-.21,1.36.23,1.9,1.67,2.25,4.17,1,8.3,2.14,12.5,3.23-.7,4.4,2.42,6.35,6.9,7.14V63.54c-13-3.68-33.39-10.13-46.85-13.63C488.39,47.52,475.1,47.91,468.71,47.68Z"/><path class="cls-4" d="M512.55,158.35c-2.08-1.24-4.11-2.56-6.16-3.84-4.19-2.62-8.41-5.21-12.57-7.87-1.06-.68-1.79-.6-2.52.41s-1.57,2-2.36,3c-1.45,1.84-1.45,1.85.49,3.11.82.53,1.57,1,.69,2.1s-1.51.81-2.44.21c-2.08-1.33-1.83-1.57-3.37.53-.71,1-1.28,1.06-2.32.41-9.81-6.16-19.66-12.27-29.48-18.42a2.26,2.26,0,0,1-1-1.19c-1.25-5.52-2.43-11-3.62-16.57-.56-2.62-.3-3,2.53-3.7.35-.09.7-.21,1.32-.41-.6-2.44-1.18-4.85-1.81-7.24-.07-.26-.46-.67-.65-.65-2.86.36-5.7.79-8.58,1.21.11.88.18,1.4.25,1.93.19,1.44-.31,2.16-1.88,2.39-6.36.9-12.73,1.71-19.08,2.66-1.84.27-2.71-.28-3.12-1.82-.22-.85-.66-1.73-1.9-1.58-2.24.27-4.48.58-6.69,1a1.52,1.52,0,0,0-.91,1.19c.31,2,.78,3.93,1.21,5.89.2.94.66,1.4,1.9,1.16,1.88-.36,3,.3,3.38,1.8,1.25,5.58,2.49,11.16,3.68,16.75.4,1.89.09,2.24-2,2.68-1.32.28-1.94.85-1.59,2.14.19.73.35,1.47.51,2.21l6.6,3.55,3.56-.52c-.06-.77-.1-1.25-.13-1.72-.14-1.86.33-2.43,2.37-2.76.78-.13,1.57-.22,2.35-.33,5.19-.73,10.38-1.45,15.56-2.22a4.72,4.72,0,0,1,3.46.62c17.2,10.77,34.46,21.45,51.62,32.27,4.27,2.69,5.18,1.24,7.17-1.45,1.11-1.5.92-2.79-.75-3.72-1.34-.75-1.17-1.42-.34-2.42,1.4-1.68,2.7-3.42,4.14-5.25-.89-.56-1.6-1.05-2.37-1.46s-.77-.94-.33-1.57.95-1.28,1.93-.8a8.48,8.48,0,0,1,1.32.8c1,.71,1.56.35,2.22-.48S513.6,159,512.55,158.35Zm-84.91-17.54c-3.14.25-4-.22-4.63-3.07-.69-3-1.37-6.09-2.09-9.32,2.93.66,4.78.1,5.42-1.51.54-1.35-.39-2.63-2.48-3.42,1.91-1.29,4-1,5.08.74a12.58,12.58,0,0,1,1.37,3c.5,1.68-.66,3.1-2.58,3.38a2.73,2.73,0,0,0-1.19.31c-.37.28-.81.78-.77,1.13s.69.91,1,.87c2.39-.33,2.87,1.27,3.3,2.7a7.91,7.91,0,0,0,3.13,4.43C431.35,140.31,429.51,140.66,427.64,140.81Zm12.68-3.45a4.16,4.16,0,0,1-5.54-.78,15,15,0,0,1-1.49-3.72c-.08-.22.24-.56.37-.85.46,1.74,1.14,3.13,3.09,3.41a3.23,3.23,0,0,0,2.24-.75c.46-.41.46-1.26.62-1.92a8,8,0,0,0,.12-1.11,3.82,3.82,0,0,1,1.21.5C442.57,133.71,442.28,135.88,440.32,137.36Zm-.72-9.47a8.17,8.17,0,0,0-2.61.37c-1,.2-1.9.46-3.16.77.39-3.69-.52-6.39-4.06-8.45,1.64-.26,2.79-.47,4-.61,1.69-.21,3.38-.43,5.07-.53s2.77.51,3.13,2.05c.58,2.48,1.18,5,1.8,7.52A33,33,0,0,0,439.6,127.89Zm53.21,29.88,2.24-3.24c-.86-.54-1.7-1.09-2.57-1.59s-.88-1-.34-1.68,1-1.15,1.95-.68l.42.2c2.12,1.1,2.12,1.1,4.47,0-.12.44-.11.77-.28,1-1,1.11-.14,1.63.74,2.19,2.14,1.36,2.13,1.71-.06,3.37l-3.21-2-2.74,2.9Zm12.68,7.05a2.27,2.27,0,0,1-1.85.48,14.57,14.57,0,0,1-2.67-1.59l-1.68,1.48-.45-.2.79-2.1c-.65-.41-1.41-.91-2.19-1.36s-.8-1.12-.28-1.85a1.33,1.33,0,0,1,2-.42l.13.08c2.36,1.26,2.34,1.25,4-.69a4.67,4.67,0,0,1,1.19-.73,7.93,7.93,0,0,1-.29,1.33,2.61,2.61,0,0,1-.64.85c-1,1-.62,1.62.45,2.19a3.45,3.45,0,0,1,1.37.94C505.63,163.69,505.77,164.54,505.48,164.83Z"/><path class="cls-4" d="M256.25,148.15a19.54,19.54,0,0,0-9.72-12.26c-5.2-3-11-3.7-17.16-2.46a22.76,22.76,0,0,0-10.81,5.26A53.86,53.86,0,0,1,211.81,149a17.91,17.91,0,0,0,1.08,12.56,2,2,0,0,1-.36,1.79c-.91,1-2.07,1.89-3.09,2.85q-15.83,15-31.65,30a16.13,16.13,0,0,0-4.12,5.21,19.85,19.85,0,0,0-2,8.72c.06,1.4.85,2,2.39,1.78,3-.5,6-1.09,9-1.68a2.15,2.15,0,0,0,1.86-2.13,28.11,28.11,0,0,1,.5-3.58,1.93,1.93,0,0,1,1-1.09c.72-.31,1.61-.27,2.3-.61a3.56,3.56,0,0,0,1.58-1.41,25.86,25.86,0,0,0,.82-2.8,1.65,1.65,0,0,1,.87-.87c2.7-1,5.43-1.88,8.12-2.89a2,2,0,0,0,1.12-1.17c.37-1.8.63-3.62.84-5.45s.56-2.05,2.52-1.94c2.18.13,4.36.2,6.78.31.3-1.68.62-3.28.86-4.89.15-1,.47-1.68,1.78-1.57,1.6.13,3.2.18,4.8.31s2.28-.38,2.35-1.85a8.47,8.47,0,0,1,.11-2.59c1.14-2.91,2.42-4.24,5.41-3.14a17,17,0,0,0,3.79.87A113.65,113.65,0,0,1,256.41,157,18.37,18.37,0,0,0,256.25,148.15Zm-9.69,1.78c-2.46,2.11-6.5,2.54-9.11.27a5.35,5.35,0,0,1-.07-8.19,6.78,6.78,0,0,1,9.17-.2C249,143.82,248.67,148.13,246.56,149.94Z"/><path class="cls-4" d="M179.51,177.18a.74.74,0,0,0-.47.33,1.53,1.53,0,0,0-.18.62c-.11.78-.44.93-1.17.49a1.06,1.06,0,0,0-1.48.06c-.75.76-.89,1.39-.41,1.91a3,3,0,0,0,3.17.66,6.56,6.56,0,0,0,1.08-1c.64-.93.23-1.85-.12-2.74A.57.57,0,0,0,179.51,177.18Z"/><path class="cls-4" d="M181.18,167.75a2.21,2.21,0,0,1,.71.26c.16.69-.84,1.23-.06,2a12.07,12.07,0,0,0,1.86-1.17,2.76,2.76,0,0,0,1-1.5c.18-1.72-1.48-2.79-3.41-2.39-.65.13-1,.65-1,1.67A.92.92,0,0,0,181.18,167.75Z"/><path class="cls-4" d="M180.37,170.56l.15-.29a6.05,6.05,0,0,0-1.06-.48c-.9-.22-1-.41-.48-1.11a.81.81,0,0,0,0-1.18c-.5-.54-1.56-.9-2-.65a2.29,2.29,0,0,0-1.26,2,2.13,2.13,0,0,0,1.17,2A4.32,4.32,0,0,0,180.37,170.56Z"/><path class="cls-4" d="M176.5,176.08a.71.71,0,0,1,1-.43,4,4,0,0,0,.76.34.74.74,0,0,0,.57-.09.51.51,0,0,0,0-.5,9.46,9.46,0,0,0-.84-1.2,2.41,2.41,0,0,0-3-.56,2.45,2.45,0,0,0-1.48,2c-.18,1,.34,1.47,1.55,1.63C176.09,177.36,176.21,177.27,176.5,176.08Z"/><path class="cls-4" d="M191.59,169.32a.53.53,0,0,0-.06-.46,3,3,0,0,0-3.44-.88,2,2,0,0,0-1.4,2.27c.14.41.21.84.39,1.23a3,3,0,0,0,.56.64c.19-.24.49-.45.56-.71.28-1,.64-1.23,1.55-.64a1,1,0,0,0,.5.17l1-.92C191.38,169.8,191.49,169.56,191.59,169.32Z"/><path class="cls-4" d="M185.89,173.62a8.06,8.06,0,0,0-.73-1.09,2.54,2.54,0,0,0-2.46-.81,2.26,2.26,0,0,0-1.82,1.58,3.5,3.5,0,0,0,2,4,3.29,3.29,0,0,0,.41.1c1-.93,2-1.86,2.94-2.76A3.54,3.54,0,0,0,185.89,173.62Z"/><path class="cls-4" d="M210.1,205.4a1,1,0,0,0-1.07-.65,1.78,1.78,0,0,1-1.3-.6c-.16-.32.2-.86.31-1.31a2.69,2.69,0,0,0,.17-1.1,4,4,0,0,0-.62-1.23,1.1,1.1,0,0,0-.57-.41,1.64,1.64,0,0,0-2.18,1.1c-.28.84-1.14,1.42-1.84,1.09a2.4,2.4,0,0,0-1.32-.24l-4.73,5.17,2.42,4.79c.16.33.31.66.5,1a.86.86,0,0,0,1.25.39,24.07,24.07,0,0,0,2.32-1c.29-.17.4-.65.49-1,0-.17-.14-.39-.24-.62.25-.13.45-.24.66-.33.85-.35,1.7-.63,1.91-1.67.11-.57,1.21-.87,1.83-.64a2.35,2.35,0,0,0,2.34-.39c.6-.6.27-1.17-.06-1.73A4.85,4.85,0,0,1,210.1,205.4Z"/><path class="cls-4" d="M182.9,177.27a3.5,3.5,0,0,1-2-4,2.26,2.26,0,0,1,1.82-1.58,2.54,2.54,0,0,1,2.46.81,8.06,8.06,0,0,1,.73,1.09,3.54,3.54,0,0,1,.36,1c1.4-1.3,2.75-2.53,4-3.66a1,1,0,0,1-.5-.17c-.91-.6-1.27-.41-1.55.64-.07.26-.36.48-.56.71a3,3,0,0,1-.56-.64c-.18-.39-.24-.83-.39-1.23a2,2,0,0,1,1.4-2.27,3,3,0,0,1,3.44.88.53.53,0,0,1,.06.46c-.1.24-.21.48-.33.71l2.23-2a6.82,6.82,0,0,0-4.22-2.62,10.05,10.05,0,0,1-3.87-1.48,8.59,8.59,0,0,0-2-.94c-2-.73-3.91-.17-5.76.65a6.49,6.49,0,0,0-3.15,2.38,9.18,9.18,0,0,0-1,2.86,9,9,0,0,1-1.14,3.49,5.6,5.6,0,0,0-.44,5.87,22.64,22.64,0,0,0,1.94,3.5,4.63,4.63,0,0,0,3,2.08c1.83-2,4.12-4.21,6.48-6.46A3.29,3.29,0,0,1,182.9,177.27Zm-2.72-10.65c.07-1,.4-1.54,1-1.67,1.94-.4,3.59.67,3.41,2.39a2.76,2.76,0,0,1-1,1.5,12.07,12.07,0,0,1-1.86,1.17c-.78-.78.22-1.31.06-2a2.21,2.21,0,0,0-.71-.26A.92.92,0,0,1,180.19,166.63Zm-4.49,2.23a2.29,2.29,0,0,1,1.26-2c.4-.25,1.46.11,2,.65a.81.81,0,0,1,0,1.18c-.54.71-.41.89.48,1.11a6.05,6.05,0,0,1,1.06.48l-.15.29a4.32,4.32,0,0,1-3.49.29A2.13,2.13,0,0,1,175.7,168.86Zm-2.18,6.74a2.45,2.45,0,0,1,1.48-2,2.41,2.41,0,0,1,3,.56,9.46,9.46,0,0,1,.84,1.2.51.51,0,0,1,0,.5.74.74,0,0,1-.57.09,4,4,0,0,1-.76-.34.71.71,0,0,0-1,.43c-.29,1.19-.4,1.29-1.42,1.15C173.87,177.07,173.35,176.57,173.53,175.6Zm6.52,4.65a6.56,6.56,0,0,1-1.08,1,3,3,0,0,1-3.17-.66c-.48-.53-.34-1.15.41-1.91a1.06,1.06,0,0,1,1.48-.06c.73.44,1.06.3,1.17-.49a1.53,1.53,0,0,1,.18-.62.74.74,0,0,1,.47-.33.57.57,0,0,1,.41.32C180.27,178.4,180.68,179.32,180,180.25Z"/><path class="cls-4" d="M191.26,170l-1,.92a.82.82,0,0,0,.7-.39A3.74,3.74,0,0,0,191.26,170Z"/><path class="cls-4" d="M193.29,211.18l3.65-4v0Z"/><path class="cls-4" d="M201.61,202l-4.68,5.14v0l4.73-5.17Z"/><path class="cls-4" d="M219.74,67.43a12.58,12.58,0,0,1-.71-2.35l.44-.2c.44.53.85,1.08,1.33,1.58a5.44,5.44,0,0,0,1,.64,3.38,3.38,0,0,0,.52-1.08,3.75,3.75,0,0,0-.22-1.61c-.86-2.2-1.73-3.26-4.22-2.74a7.66,7.66,0,0,0-.13-.95l-15.9,3.88q-16.3,11.2-32.6,22.41c-.76.52-1.2.57-1.73-.17a34.74,34.74,0,0,0-2.25-2.72c-.5-.55-.75-1-.26-1.75a1.46,1.46,0,0,0-.21-2.06c-.54-.56-8,8.19-7.61,8.11,1.28-.24,1.28-.32,1.92.66A23.24,23.24,0,0,0,161,91.54c.52.59.34.94-.29,1.34-.83.52-1.6,1.14-2.43,1.66a2.84,2.84,0,0,0-.78,4.46,3.32,3.32,0,0,0,1.43,1c3.4-2.74,20-15.78,31.93-20l22-15.1,1-.71c.36,1.3.66,2.45,1,3.59A8.52,8.52,0,0,0,216,70l4.11-2A5.77,5.77,0,0,1,219.74,67.43Z"/><path class="cls-4" d="M224.86,61.27a1.7,1.7,0,0,0,1.27,0c.23-.11.26-.62.32-1a5.32,5.32,0,0,0,0-.91,4.37,4.37,0,0,1,3.93,3.51l5-2.46A9.73,9.73,0,0,0,234.14,58a8.18,8.18,0,0,0-.92-1.07L223,59.43A4.42,4.42,0,0,0,224.86,61.27Z"/><path class="cls-4" d="M518.4,153.15c-.36.07-.92.16-1.47.3-1.67.43-2.7-.79-3.13-2a3.62,3.62,0,0,1-.11-.49q-4.23-20.78-8.46-41.56c-.38-1.89.29-3.32,1.78-3.75.61-.18,1.24-.26,1.73-.36a37.53,37.53,0,0,1,1.38-5.19,11.86,11.86,0,0,1,9.26-7.27,12,12,0,0,1,10.91,3,13.4,13.4,0,0,1,2.4,3.28c.47.81.84,1.17,1.84.93a4.64,4.64,0,0,1,2.32.11c.9.27,1.22,1.1,1.41,2q2.89,14.37,5.83,28.73,1.4,6.86,2.79,13.72a2.31,2.31,0,0,1-2,3.07l-.3.06c-1.59.33-1.5.34-1.63,2a11.49,11.49,0,0,1-2.27,6A12.4,12.4,0,0,1,530.55,161a11.15,11.15,0,0,1-8.61-3.35C520.68,156.29,519.66,154.76,518.4,153.15ZM528.12,139l.6-.16,1-.29c1.26-.4,1.56-.76,1.28-2.06-.4-1.86-.92-3.7-1.44-5.53a1.16,1.16,0,0,0-1.31-.85,1.49,1.49,0,0,1-1.11-.4c-.56-.73-.12-2.94.64-3.47a4.35,4.35,0,1,0-5.87-6.32,4.19,4.19,0,0,0,.71,6.18,2,2,0,0,1,.88,1.85c0,1.2,0,2.41,0,3.61s.49,1.66,1.75,1.35a15.16,15.16,0,0,1,1.67-.38c.26,0,.71.06.79.22a13.84,13.84,0,0,1,.94,2.62,1,1,0,0,1-1,1.34c-.77,0-1.56-.06-2.33-.09-.38,0-.85-.14-1.1,0s-.2.69-.14,1a2.17,2.17,0,0,0,2.39,1.67C527,139.31,527.44,139.18,528.12,139Zm-7.18-40.46,1.18,5.81a3,3,0,0,0,1.84-3.09C523.76,99.81,522.88,99,520.94,98.58Zm11.45,56.56a2.82,2.82,0,0,0,1.8-3.54,2.62,2.62,0,0,0-2.93-2Zm-1.09.19-1.13-5.55a2.55,2.55,0,0,0-1.88,2.91A2.76,2.76,0,0,0,531.31,155.33Zm-11.48-56.4a2.86,2.86,0,0,0-1.73,3.67,2.6,2.6,0,0,0,2.86,1.92Z"/><path class="cls-4" d="M445.3,41.4c.13.19.23.4.36.63-1.43.4-1.64,1-.79,2.44-1.44.1-1.66,1.3-2,2.11a30,30,0,0,0-3.63-1.19,5.73,5.73,0,0,0-4.66.81,9.51,9.51,0,0,0-2,2.13,8.65,8.65,0,0,0-.9,9.22,7.71,7.71,0,0,0,2.82,3.15c1.56,1,3.28,1.82,5.24,1.28a8.29,8.29,0,0,0,1.58-.82c.08.08.16.13.19.2a3.06,3.06,0,0,1,.12.39,3.55,3.55,0,0,0,2.24,2.35,9.28,9.28,0,0,0,4.19.72,8.18,8.18,0,0,0,6.28-3.51,10.71,10.71,0,0,0,1.74-5.57,5.64,5.64,0,0,0-2.83-5.5,7.67,7.67,0,0,0-4.62-1.43,2.57,2.57,0,0,0-.2-3.24c1.32-.32,1.59-1.14.9-2.38a2.37,2.37,0,0,1,.35-.21,2.13,2.13,0,0,0,1.08-3.36l-5.26-.76A2.54,2.54,0,0,0,445.3,41.4Zm.39,10.79a1.15,1.15,0,0,0,1.37.56,1.49,1.49,0,0,0,.64-.34c.7-.64,1.33-1.36,2.46-1a2.76,2.76,0,0,1,1.9,2.35,5.91,5.91,0,0,1-1,5.08A3.84,3.84,0,0,1,447.24,60a3,3,0,0,1-2.09-2.56,2.57,2.57,0,0,0-.2-.73c-.28-.6-.6-.64-1.08-.18a2.34,2.34,0,0,1-.57.49.8.8,0,0,1-1.14-.77c0-.29-.16-.73-.36-.81a1,1,0,0,0-.88.24,3.58,3.58,0,0,1-2.38,1.24,3.8,3.8,0,0,1-3.44-2.57c-.74-2.49,1.36-5.59,3.56-6.34a2.11,2.11,0,0,1,2.75,2c.12,1.23,1.2,1.95,2.08,1.25.45-.36.57-1.15.81-1.77a2.55,2.55,0,0,0,0-.71l2.07.68-.61.81A1.72,1.72,0,0,0,445.68,52.19Z"/><path class="cls-4" d="M545.51,161.85c-1.19.53-2.45.9-3.65,1.4s-2.28,1-3.43,1.5a8.21,8.21,0,0,1-1,.15,5.06,5.06,0,0,0-1.54.53c-.39.27-.6.8-.93,1.18a2.35,2.35,0,0,1-2.79.25,7.72,7.72,0,0,0-4.57-1.79,3.36,3.36,0,0,1-2-1c-2-1.78-4.35-2.52-6.79-1.5s-3.36,3-3.54,5.52a5.69,5.69,0,0,1-1.05,3.34,6.49,6.49,0,0,0-1.15,5.59,6.86,6.86,0,0,0,6.11,5.12,4.36,4.36,0,0,1,1.71.4c.85.49,1.57,1.26,2.42,1.75a5.62,5.62,0,0,0,4.83.5c2.69-.95,4-3.69,3.91-6.6a2.7,2.7,0,0,1,.4-1.43,9,9,0,0,0,1.89-4.86,2.24,2.24,0,0,1,2.37-2.14c1-.06,2.33.74,2.69-1,0-.09.2-.13.32-.18,1.58-.74,3.15-1.52,4.74-2.22l2.52-1.09v-4.16C546.5,161.38,546,161.63,545.51,161.85Zm-14.35,10.57a1.91,1.91,0,0,1-.37-.07c-2.35-.68-3,.66-3.28,2.69a5.63,5.63,0,0,1-.39,1.66,2.31,2.31,0,0,0,1.09,3.3c1.16.63,1.19.8.31,1.69a3.57,3.57,0,0,1-2.83,1c-.16,0-.43-.37-.48-.59a2.09,2.09,0,0,1,.1-1,2.42,2.42,0,0,0-1.93-3.2,11.8,11.8,0,0,1-2.9-1.08c-1.14-.52-1.88-.18-2.46,1-.22.42-.6,1-.92,1s-.79-.58-1.11-1a2.62,2.62,0,0,1-.52-1.07,16.29,16.29,0,0,1-.18-1.84,9.86,9.86,0,0,1,1.61.08,2.38,2.38,0,0,0,2.84-2.3,4.35,4.35,0,0,1,.48-1.6,2.53,2.53,0,0,0-1-3.71c-.4-.26-.79-.56-1.26-.89a3.76,3.76,0,0,1,3.59-2c.16,0,.45.29.48.47a2.42,2.42,0,0,1-.08,1c-.36,1.47.23,2.69,1.65,2.92a12.1,12.1,0,0,1,3.07,1.44c1.18.54,1.76.31,2.45-.77a12.56,12.56,0,0,1,1-1.26,11.6,11.6,0,0,1,1.32,1.51,6.5,6.5,0,0,1,.55,1.6C532.31,172.3,531.84,172.48,531.16,172.43Z"/></g><g id="Locked-2" data-name="Locked"><path d="M545.64,230.81a34.72,34.72,0,0,0-6.27-12.7,28.28,28.28,0,0,0-10.95-8.38q-6.62-2.92-17.38-2.92H474.66v9.86l-2.39,2.69c-2.53,2.85-2.79,9.73-.44,12.72,1,1.23,1.94,2.43,2.79,3.48-2,4.56-7.36,5.86-7.63,11.78-.29,6.1,4.88,7.76,7,12.3-2.27,2.4-4.52,4.86-6.88,7.21-1.22,1.22-1.4,2.27-.11,3.48.23.21.39.51.63.69,4.46,3.46,5.58,9.07,4.35,15h7.64q.29-34.2.8-68.4c0-1.46.88-2.91,1.35-4.36l.85.29-.81,72.48H511a56.8,56.8,0,0,0,14.59-2.16,26.18,26.18,0,0,0,11-6.3,32.59,32.59,0,0,0,8-11.73q2.89-7,2.89-19.7A59,59,0,0,0,545.64,230.81Zm-46.22,38.74,7-25.53c-6.33-4.14-8.57-8.83-7.05-14.57a12.25,12.25,0,0,1,11.06-8.86,12.12,12.12,0,0,1,11.84,7.75c2.09,5.39.37,10.31-5.32,15l6.78,26.18Z"/><path d="M266.77,253.52,288.23,260a39.58,39.58,0,0,1-6.81,15.08,29.56,29.56,0,0,1-11.54,9.14q-6.89,3.08-17.54,3.08-12.92,0-21.11-3.75t-14.14-13.21q-5.95-9.45-5.94-24.2,0-19.66,10.46-30.22t29.6-10.56q15,0,23.54,6.05T287.47,230l-21.62,4.81a18.63,18.63,0,0,0-2.38-5.3,14.11,14.11,0,0,0-5-4.32A15.46,15.46,0,0,0,239,230.37q-3.35,5-3.35,15.6,0,13.17,4,18.06t11.24,4.89q7,0,10.62-3.95T266.77,253.52Z"/><path class="cls-7" d="M162.36,284.13l-1.21,101.21,1.07.33c.59-1.7,1.67-3.4,1.69-5.11q.7-44.24,1.09-88.48c0-2.67-1.06-5.36-1.63-8Z"/><text class="cls-8" transform="translate(201.18 312.85)">Slotenma<tspan class="cls-9" x="104.29" y="0">k</tspan><tspan x="117.07" y="0">er</tspan></text><path d="M76.36,266.44V206.7H51.88v7.18c-1.59,1.8-3.19,3.58-4.78,5.37-2.53,2.85-2.79,9.73-.44,12.72,1,1.23,1.94,2.43,2.79,3.48-2,4.56-7.36,5.86-7.63,11.78-.29,6.1,4.88,7.76,7,12.3-2.27,2.4-4.52,4.86-6.88,7.21-1.22,1.22-1.4,2.27-.11,3.48.23.21.39.51.63.69,4.46,3.46,5.58,9.07,4.35,15H53.4q.29-34,.8-68.07c0-1.46.88-2.91,1.35-4.36l.85.29L55.6,286h59V266.44Z"/><path d="M356.06,236.62,385,206.7H352.41l-25.65,29.95V206.7H302.27v7.44l-4.64,5.22c-2.53,2.85-2.79,9.73-.44,12.72,1,1.23,1.94,2.43,2.79,3.48-2,4.56-7.36,5.86-7.63,11.78-.29,6.1,4.88,7.76,7,12.3-2.27,2.4-4.52,4.86-6.88,7.21-1.22,1.22-1.4,2.27-.11,3.48.23.21.39.51.63.69,4.46,3.46,5.58,9.07,4.35,15h7V286h.32q.29-34.22.8-68.44c0-1.46.88-2.91,1.35-4.36l.85.29-.81,72.62h12V286h7.92V266.61l12.65-13.25L356.12,286h30.16Z"/><path d="M418.87,268V252.38H457V236.22H418.87v-12.6H460V206.7H394.33v8.52l-3.59,4c-2.53,2.85-2.79,9.73-.44,12.72,1,1.23,1.94,2.43,2.79,3.48-2,4.56-7.36,5.86-7.63,11.78-.29,6.1,4.88,7.76,7,12.3-2.27,2.4-4.52,4.86-6.88,7.21-1.22,1.22-1.4,2.27-.11,3.48.23.21.39.51.63.69,4.46,3.46,5.58,9.07,4.35,15h7q.29-34.2.8-68.4c0-1.46.88-2.91,1.35-4.36l.85.29L399.65,286h61.5V268Z"/></g></g><g id="Z-W"><g id="Hand_of_God-4" data-name="Hand of God"><g id="Hand_of_GOd-5" data-name="Hand of GOd"><path class="cls-10" d="M179.4,580.88s9.41,10,13.44,10.35,11.86-4,5.76-31.41l-.24-.42"/><path class="cls-11" d="M234.3,421.56s-71.49,17-74.08,18.09S142.77,456.86,135,474.3"/><path class="cls-12" d="M159.57,558.93c-1-.71-2.54-22.72-5.26-29.38-.55,1.71-17.59,21-17.05,23.07s-2.26,12.25-3.17,15.18-4.34,7.84-3.58,14.06c4.31,22.37-13.82,10.25-12.45-1.81,2.19-19.26,9.88-42.72,9.17-44-.95,3.37-7.31,22-11.47,38.76-3.89,9.3-3.17,18.84-4,21.11a13.49,13.49,0,0,1-6.41,6.78c-6.22,3.15-8.06-2.31-9.57-2.88-13.69-29.8,27.56-88.15,27.56-88.15.48-.71-.06-.85-.06-.85L153.67,495l50.53-3.23,1.49,4.76c-.29.64-1.8,1.24-1.8,1.24-1.24.82-8.66,10-15.4,12.62s-4.85,20-3.42,22.23"/><path class="cls-4" d="M117.37,592a28.19,28.19,0,0,0-3,.68s0,.05,0,.06a5.3,5.3,0,0,1,2.5,1.53,1.09,1.09,0,0,0,.88.14c.74-.22,1.45-.53,2.16-.8a8.74,8.74,0,0,0-1.21-1.16A2.27,2.27,0,0,0,117.37,592Z"/><path class="cls-4" d="M128.59,540.93c1.73-.55,3.54-.8,5.08.34a6.27,6.27,0,0,0,5.08,1,5.85,5.85,0,0,1,2.61.08,4.07,4.07,0,0,1,2.07,1c.65-.83,1.29-1.6,1.88-2.27-.41-.3-.28,0-.74-.29a22.36,22.36,0,0,0-11.23-3,19.8,19.8,0,0,0-6.52.84l-.8,3.6A9.91,9.91,0,0,1,128.59,540.93Z"/><path class="cls-4" d="M131.38,553a15.22,15.22,0,0,1-1.57.39c-1.3.17-2.26-.5-3.34-1a5.73,5.73,0,0,1-2.33-1.84l-.71,3.18.1.08a21.36,21.36,0,0,0,5.93,2.75c.53.17.72.37.55.87s-.22.91-.34,1.36c-.17.68-.12,1.51-1.37,1.37-.2,0-.66.41-.66.63a1.34,1.34,0,0,0,.48.94c.28.23.89.24.61.75-.13.24-.52.39-.8.55a14,14,0,0,0-2.11,1.23,1.27,1.27,0,0,0-.21,1.25,5.28,5.28,0,0,0,1.34,1.63,1,1,0,0,1,.39,1.21q-2.34,9.45-4.64,18.91c-.12.5-.29.75-1,.84a5,5,0,0,0-1.79.88,15.6,15.6,0,0,0-1.31,1l-.19-.11c.24-.53.47-1.07.71-1.59s.08-.7-.46-.79c-1.16-.19-6,6.47-6.76,9.74-.17.7.31,1.08,1.05.77a9.41,9.41,0,0,0,1.69-1.13,4.89,4.89,0,0,1,1.24-.74c-.23.53-.45,1.06-.69,1.58s-.1.86.58,1c1.07.16,2.13.38,3.19.55.57.09.7.32.59.83-.41,1.92-.39,2.77,1.68,2.29,2.43-.56,2.49.44,3-1.81l7.62-31.09c.15-.63.21-1.21,1.2-1.35.59-.08.75-.38,1.07-.93.44-.74.58-1.09.16-1.73s-.48-1.05-.91-1.67c-.14-.2.05-.59.11-1,.73.08,1.33.11,1.52-.7s-.32-.95-1-1.09l.83-3.37c.92,0,.9-.14,1.82-.15.15-.7.35-1.74.48-2.67-.71-.08-.44-.18-1.06-.65A5.4,5.4,0,0,0,131.38,553Zm-13.61,41.35a1.09,1.09,0,0,1-.88-.14,5.3,5.3,0,0,0-2.5-1.53s0-.1,0-.06a28.19,28.19,0,0,1,3-.68,2.27,2.27,0,0,1,1.34.44,8.74,8.74,0,0,1,1.21,1.16C119.22,593.86,118.51,594.17,117.77,594.39Z"/><path d="M179.79,583.57Q169.09,573,149.31,573q-19.3,0-30.11,10.81T108.39,614q0,13.89,5.46,23.14a33.4,33.4,0,0,0,14.24,13.51l.33.15-.56.65a35.69,35.69,0,0,0-4.22,5.56c-.93,1.67-1.52,4.26-.86,5.87.57,1.4,3,2.41,4.8,2.84,2,.48,4.21.11,6.79.11,0,2,0,3.49,0,5-.23,23.55-.52,47.11-.66,70.66,0,6.84,3.68,11.9,8.72,16,2.25,1.85,4.48,1.68,6.61-.71C152.89,752.4,157,748.22,161,744c3.17-3.35,3.5-11.4.56-14.91-1.2-1.44-2.44-2.85-3.5-4.08,2.47-5.35,9.23-6.87,9.57-13.81.36-7.15-6.12-9.1-8.8-14.42,2.85-2.81,5.67-5.7,8.63-8.46,1.53-1.43,1.75-2.66.13-4.09-.28-.25-.49-.59-.8-.81-5.59-4.06-6.82-9.63-5.28-16.61,2.91,0,6.14,0,9.37,0,5.37-.1,6.88-2.62,4.34-7.27-1.4-2.55-2.87-5.09-4.39-7.76l-.46-.81c.67-.32,1.33-.65,2-1a33.32,33.32,0,0,0,13.51-13.84q4.67-8.89,4.68-22.78Q190.5,594.19,179.79,583.57Zm-42.43,13.16a14.87,14.87,0,0,1,11.89-5.24q7.73,0,12.24,5.16T166,613q0,13.3-4.32,18.43t-12.22,5.14q-7.68,0-12.14-5.24t-4.46-17.25Q132.87,602,137.36,596.74Zm14.2,151.42c0,1.71-1.11,3.41-1.69,5.11l-1.07-.33,1.17-98h.31c.53,0,1,0,1.57,0a18.18,18.18,0,0,1,.8,4.81Q152.29,703.91,151.56,748.15Z"/><path class="cls-13" d="M165,586.51a11.57,11.57,0,0,1-9.14-4.32c-4.82-5.93,1.52-23.63,12.33-34.45,23.34-19,41.14-40,40.49-47.81-.47-5.62-13.11-6.06-17-6.06-6.65,0-13.12,1-15.37,2.42-4.18,2.6-20.84,5.92-29.7,5.92a21.62,21.62,0,0,1-3-.17l-.2,0-.16.12c-8.64,6.22-23.35,10.14-32.15,12.48-5.9,1.57-7.19,2-7.44,2.6-.52,1.23-28.37,44.92-33,50.74-2.3,2.92-7.25,5-12,5a12.28,12.28,0,0,1-9.17-3.52c2.15-10.72,35.54-67.7,40.4-72.54,2.35-2.34,18.07-9.79,31.95-16.36,13.37-6.33,21.62-10.27,22.81-11.5,1.59-1.64,9.38-7.3,23.13-16.83l1-.71c.63-.44,4-1.76,8.7-3.58C189.91,443,213,434,228.94,424.25c23.88-14.65,58.08-25.43,82.56-31.9A75.1,75.1,0,0,1,330.63,390c20.83,0,41.31,7,51.66,11.15,5.23,2.1,10.95,2.38,18.19,2.73,3.35.16,7.15.34,11.26.74,1.35-.08,2.74-.13,4.2-.13,34.76,0,113,24.43,118.85,26.29v122c-.61,0-1.86,0-4.07,0-4,0-11.48-.06-24.77-.32-64.32-13.45-107.27-38.17-127.13-51.71a230.37,230.37,0,0,0-39-20.75,49.51,49.51,0,0,0-19.16-4.21,33.14,33.14,0,0,0-10.78,1.7l-.23.08-.08.22C300,504,281.79,518,253.89,520.62c-13.21,3.16-35.09,14.35-64.7,49.8C178.09,583.72,169.9,586.51,165,586.51Z"/><path class="cls-6" d="M330.63,390.55c20.74,0,41.15,7,51.47,11.11,5.31,2.13,11.06,2.41,18.35,2.76,3.34.16,7.13.34,11.23.74h.16c1.26-.09,2.63-.13,4.08-.13,34.11,0,110.25,23.61,118.35,26.15V552.38c-.7,0-1.84,0-3.57,0-4,0-11.44-.06-24.66-.32-64.26-13.44-107.12-38.11-127-51.63A230.88,230.88,0,0,0,340,479.65a50,50,0,0,0-19.36-4.25,33.64,33.64,0,0,0-10.94,1.72l-.45.15-.16.45c-9.51,25.89-27.59,39.76-55.29,42.4h-.07l-.07,0c-13.22,3.16-35.21,14.4-64.9,50-11,13.15-19,15.91-23.83,15.91a11.08,11.08,0,0,1-8.76-4.13c-2.13-2.62-2-8.13.33-14.76a52.5,52.5,0,0,1,11.93-19C192,529,209.82,507.84,209.16,499.89c-.49-5.88-12.39-6.52-17.48-6.52-6.85,0-13.28,1-15.64,2.49-4.13,2.57-20.64,5.84-29.44,5.84a21.17,21.17,0,0,1-2.92-.17l-.4-.06-.33.24c-8.56,6.17-23.22,10.07-32,12.4-6.39,1.7-7.43,2-7.77,2.88-.69,1.49-28.38,44.91-32.91,50.64-2.21,2.8-7,4.76-11.64,4.76A11.9,11.9,0,0,1,50,569.23c1.12-4.85,8.18-18.93,19.1-38,9.35-16.35,19-31.93,21.11-34,2.29-2.28,18.66-10,31.81-16.26,13.41-6.35,21.7-10.31,23-11.6,1.57-1.61,9.32-7.25,23-16.76l1-.72c.58-.41,4.3-1.85,8.6-3.53,12.41-4.84,35.51-13.84,51.51-23.65,23.83-14.61,58-25.38,82.43-31.84a74.58,74.58,0,0,1,19-2.29m0-1a75.49,75.49,0,0,0-19.25,2.32c-29,7.66-60.59,18.4-82.7,32S171,449.35,168.52,451,147,465.89,144.3,468.64s-50.4,23.51-54.76,27.85-38.83,62.57-40.58,73a12.7,12.7,0,0,0,9.7,3.87c4.95,0,10-2.07,12.43-5.14,4.22-5.35,32.48-49.43,33-50.87s26.6-5.63,39.41-14.86a22.14,22.14,0,0,0,3.06.18c8.91,0,25.63-3.3,30-6,2.19-1.36,8.62-2.34,15.11-2.34,8,0,16.14,1.49,16.48,5.6.62,7.43-16.72,28.19-40.35,47.41-11.05,11-17.38,29-12.37,35.12A12,12,0,0,0,165,587c6.11,0,14.39-4,24.6-16.26,17.34-20.77,41.54-44.16,64.36-49.62,26.26-2.51,45.84-15,56.13-43.05a32.71,32.71,0,0,1,10.62-1.67,48.87,48.87,0,0,1,19,4.17,231.37,231.37,0,0,1,38.88,20.71c11.71,8,55.87,36.85,127.4,51.8,13.09.26,20.63.32,24.78.32,3.47,0,4.57,0,4.57,0V430.46S452.38,404,415.93,404q-2.19,0-4.15.13c-12.67-1.24-21.68-.37-29.31-3.44-6-2.4-28.46-11.18-51.85-11.19Z"/></g><path class="cls-4" d="M289.61,437.35c-.14-2-.33-3.95-.42-5.93-.07-1.7.18-3.31,2.18-4.21.19-.09.29-.46.33-.72a101.4,101.4,0,0,1,1.73-10.41,35.17,35.17,0,0,1,23.3-24.48,40.81,40.81,0,0,1,16.53-1.77,33,33,0,0,1,17.22,6.64,35.87,35.87,0,0,1,10.2,12.34,33.52,33.52,0,0,1,3.47,10,2.92,2.92,0,0,0,1.92,2.68c1.42.53,1.59,2,1.7,3.16.38,4,.62,8.06.89,12.1a7,7,0,0,1-.15,1.48c-.25,1.63-.72,2.25-2.49,2.57s-3.55.41-5.33.58-2,.18-1.78,1.85a25.58,25.58,0,0,1-.41,9,27.47,27.47,0,0,1-9,15.1c-6.65,5.7-14.54,7.86-23.34,7.23a27.15,27.15,0,0,1-16.38-6.79A24.78,24.78,0,0,1,302,455.66a50.75,50.75,0,0,1-1.35-7.76c-.14-1.18-.6-1.46-1.79-1.32a44.24,44.24,0,0,1-4.66.39c-3,0-3.48-.47-4-3a52.08,52.08,0,0,1-.54-6.65Zm34,7.16h0c-4.07.34-8.14.66-12.2,1.06-.49,0-1.37.61-1.34.83.39,2.63.56,5.37,1.51,7.84a17.65,17.65,0,0,0,6.54,8.24,18.65,18.65,0,0,0,9,3.36,21.92,21.92,0,0,0,10.1-1.31,18.45,18.45,0,0,0,7.52-5.15,20.73,20.73,0,0,0,4.85-15.65c-.08-1.07-.49-1.41-1.68-1.3-4.24.41-8.48.73-12.72,1.09ZM327,402.58c-2.37.42-3.36,1.12-3.16,2.51.25,1.75.59,3.49,1,5.22s.74,3.32-.83,4.86a3.55,3.55,0,0,0-.7,2.22,3.73,3.73,0,0,0,3.14,4.25,4.94,4.94,0,0,0,5.36-2.13c1.22-2.2-.06-5.36-2.51-6.38a1.49,1.49,0,0,1-.81-1,1.9,1.9,0,0,1,1.25-2.25,1.47,1.47,0,0,0,.77-1c0-.25-.52-.58-.87-.77s-.73-.11-1-.28-1-.59-1-1,.31-.91.65-1.26.71-.14,1-.29,1-.43,1.1-.72a1.24,1.24,0,0,0-.64-1.06A22.54,22.54,0,0,0,327,402.58Z"/><path class="cls-4" d="M268.66,437.9c.68,1,1.4,1.94,2,2.94s1.24,1,2.16.38c.68-.44,1.4-.84,2.13-1.22,1.89-1,3.46-.65,4.63,1,2.42,3.43,4.8,6.89,7.2,10.34l19.7,28.32c1.45,2.08,1.24,2.9-.55,4.8s-3.09,3.67-4.6,5.53c-1.88,2.31-3.74,4.64-5.61,7-3,3.71-6.06,7.41-9.06,11.13a7.14,7.14,0,0,1-4.75,3c-5.54.88-11,2.07-16.55,3.1-4.76.89-9.54,1.74-14.31,2.62l-.76.16c-3.78.8-4.11.68-6.21-2.34l-25.59-36.78c-.19-.27-.38-.55-.56-.83-1.15-1.87-.75-3.35,1.23-4.6,3.1-2,3.18-2,1.08-4.79a26.23,26.23,0,0,1-5.2-11.6,23.16,23.16,0,0,1,1.63-13,27.9,27.9,0,0,1,16.08-15.27A30.94,30.94,0,0,1,251,426.15c4.58,1,8.79,2.69,12.12,5.75,2,1.86,3.9,3.85,5.84,5.77Zm-22,18.51,13.39-7.78c1-.59,2.08-1.11,3-1.79a1.25,1.25,0,0,0,.36-1.24c-2-2.81-3.58-5.89-6.7-8-6.52-4.36-13.5-5.25-21.1-2a18.56,18.56,0,0,0-11.19,12.19,13.78,13.78,0,0,0,0,8.94c1.07,2.81,2.87,5.38,4.3,8.08.67,1.26,1.48,1.2,2.7.48C236.51,462.28,241.61,459.35,246.69,456.41Zm22.42,37.72h0c1,1.45,2,2.9,3,4.34s1.94,1.62,3.59.67l1.46-.84c1.84-1.08,2-1.8.89-3.46-2-2.9-4.06-5.77-6-8.7a2.51,2.51,0,0,1-.36-1.92,5.81,5.81,0,0,0-1.15-5.64,6.27,6.27,0,0,0-5.72-2.3,6.82,6.82,0,0,0-5.72,3.47c-2,3.62-.16,8,4.85,8.7a2.88,2.88,0,0,1,2.23,1.43C267.1,491.34,268.13,492.72,269.11,494.13Z"/><path class="cls-4" d="M282.53,422.51l-1.56.65c-.69.27-.74.4-.3.89.25.29.51.57.75.86a1,1,0,0,1,.08,1.28,2.47,2.47,0,0,0-.46,1,.78.78,0,0,0,.33.65c.56.36,1.2.62,1.78,1a.55.55,0,0,1,.19.52c-.2.63-.49,1.24-.69,1.87a.67.67,0,0,0,.19.6c.72.63,1.48,1.21,2.2,1.84a.67.67,0,0,1,.2.49,33.05,33.05,0,0,0-.12,3.46c0,.38.57.82,1,1a.86.86,0,0,1,.55,1.17c-.26,1-.21,1,.8,1.51,1.83.94,1.67.42,1.31,2.36-.15.82-.43,1.62-.61,2.43-.09.42-.32.79-.79.73a3.3,3.3,0,0,1-1.15-.53c-.1-.06-.1-.24-.17-.35a1,1,0,0,0-1.37-.46c-1,.38-1.21.26-1.63-.56q-3.32-6.42-6.66-12.84c-1.27-2.45-2.55-4.9-3.82-7.36-.49-1-.48-1-1.63-.76-1.45.27-2.89.57-4.34.84a3.27,3.27,0,0,1-2.68-.18,4.24,4.24,0,0,1-1.26-1.36c-1.39-2.72-2.78-5.44-4-8.22-.88-2-.39-2.69,1.69-4.2,1.88-1.36,3.84-2.64,5.73-4a8.41,8.41,0,0,1,3.51-1.38c1.38-.24,2.74-.54,4.12-.78s2.65-.48,4-.64a2.57,2.57,0,0,1,2.78,1.36c1.47,2.9,2.86,5.83,4.3,8.74a2.54,2.54,0,0,1-1,3.33c-.43.26-.81.59-1.24.86-1.26.8-1.4,1.13-.88,2.42C281.92,421.33,282.23,421.89,282.53,422.51Zm-11.69-9.68,3.93-1.64c.23-.09.45-.19.67-.3.92-.5,1-.73.65-1.61-.25-.58-.58-1.14-.84-1.72a1,1,0,0,0-1.16-.54c-1.4.25-2.79.56-4.19.76a7,7,0,0,0-3.05,1.44c-.63.44-1.22.93-1.88,1.32-1.52.9-1.7,1.35-1,2.77l.2.42c.61,1.2,1.17,1.39,2.54.84S269.46,413.4,270.84,412.83Z"/><path class="cls-4" d="M406.9,425.66c2.4.45,4.53.86,6.67,1.25,1.48.27,1.6,1.5,2.1,2.44.72,1.34,1.19,1.47,2.81,1a4.31,4.31,0,0,1,2.21.14c1.78.54,3.51,1.21,5.26,1.82,7.43,2.58,14.88,5.13,22.3,7.74,1.45.51,3.12.83,3.68,2.49.1.28.73.44,1.14.59,1.55.57,3.11,1.12,4.68,1.65,1.11.37,1.48,1,1,2-.72,1.55-1.41,3.11-2.15,4.65a1.49,1.49,0,0,1-2.11.78c-1.36-.51-2.73-1-4.11-1.45-1-.32-1.88-1-3-.12-.21.16-.88-.08-1.29-.22q-15.18-5.32-30.34-10.69a2.79,2.79,0,0,1-1.28-1.2,1.72,1.72,0,0,0-2.37-.86c-2.49,1.61-4.4.57-6.37-.63-1.2-.73-2.41-1.45-3.72-2.23-1.68,2.42-3.25,4.71-4.85,7-.91,1.3-1.81,2.61-2.8,3.86a3.65,3.65,0,0,1-4.45,1.18c-3.4-1.41-6.73-2.93-10.08-4.43-6.16-2.76-16.45-33.79-13.47-40.56,1.24-2.81,3.39-3.39,6.23-2.65,7,1.8,14,3.52,21,5.22,4,1,8,1.82,12,2.75a15.81,15.81,0,0,1,2.59.79,2.89,2.89,0,0,1,1.94,3.49c-.53,2.36-1.17,4.7-1.76,7-.5,2-1,4-1.46,6A3.71,3.71,0,0,0,406.9,425.66Zm21.69,14h0c6.24,2.2,12.47,4.41,18.73,6.55.53.18,1.28-.14,1.92-.23-.34-.47-.56-1.21-1-1.38q-18.69-6.65-37.44-13.15c-.49-.17-1.23.18-1.85.29.37.46.62,1.16,1.12,1.34C416.2,435.33,422.4,437.49,428.59,439.66Z"/><path class="cls-4" d="M445.34,463c1.5-2,3.71-1.25,5.9-.55s4.15,1.38,6.4,2.12c2.13-2.51,4.52-5.46,7.07-8.3,3.79-4.21,8.13-7.92,14-9.41a15.43,15.43,0,0,1,13,2.42c4.26,2.94,5.21,6.93,4.86,11.61A16.63,16.63,0,0,1,492.41,471c-5.28,6-13.74,5.63-18.15.12-1.27-1.58-.83-5,.86-6.85a5.47,5.47,0,0,1,5.72-1.47c1.36.37,2.62,1,4,1.46a1.45,1.45,0,0,0,1.15-.17c1.81-1.66,2.85-6.82,1.86-8.87-1.6-3.3-7.43-4-10.87-1.4-4.61,3.52-7.68,8-10.25,12.82-.61,1.15-1.22,2.31-1.94,3.41-2.94,4.47-3.27,9.5-4.21,14.39a29.88,29.88,0,0,0-.22,12.2c.82,3.69,2,6,6.23,6.73,2.27.37,4.87-.24,6-2.12a34.09,34.09,0,0,0,2.43-6.1c.34-1-.19-1.38-1.42-1.26-3.17.31-6.39-1.52-7.11-3.89a5.31,5.31,0,0,1,2.6-5.77c5.59-3.24,12.94-1.79,15.23,5,1.48,4.42.42,8.67-2.32,12.7a18.8,18.8,0,0,1-5.21,5.54c-4.08,2.66-10.9,2.91-15.1.65s-6.52-6-7.73-10.24a57.7,57.7,0,0,1-1.78-18.14c-3.4.76-6.16-.84-9.15-1.53a.93.93,0,0,1-.57-.33,6.61,6.61,0,0,0-4.84-3.38,8.52,8.52,0,0,0-1.91-.44,2.24,2.24,0,0,1-2.63-1.89,1.92,1.92,0,0,0-1.19-1.15c-4.2-1.2-8.44-2.32-12.66-3.46-8.57-2.32-17.16-4.6-25.71-7-1.43-.39-2.1-.24-2.53,1.16-.76,2.46-1.67,4.88-2.62,7.3-.71,1.82-1.17,2-3.15,1.49-1.57-.4-3.11-.86-4.68-1.25-1-.25-1.25-.75-.91-1.64.82-2.17,1.55-4.36,2.38-6.53.36-1,.12-1.47-.95-1.79a1.36,1.36,0,0,0-2,1c-.71,2-1.53,4-2.17,6.08-.41,1.32-1.06,1.72-2.53,1.27-2.31-.71-4.67-1.28-7-1.91s-2.18-.6-1.52-2.63c.27-.82,1-1.72-.64-2.11-1-.24-1.55-.1-1.82.86-.21.77-.53,1.51-.85,2.4l-4.13-1.12c.65-1.82,1.16-3.51,1.92-5.12a2.23,2.23,0,0,1,1.8-.69,30,30,0,0,1,4.36,1.09c.93.29,1.48.05,1.73-.77s.42-1.59-.77-1.91l-5.81-1.57c.76-2.11,1.56-4.09,2.18-6.11,1.18-3.85,2.12-4.59,6.82-3.3q32.13,8.75,64.3,17.38a1.73,1.73,0,0,0,2.1-.44,2.21,2.21,0,0,1,3.11-.08,5.46,5.46,0,0,0,1.9.6C443,462.46,444,462.66,445.34,463Z"/><path class="cls-4" d="M212.76,462c.3.6.58,1.22.92,1.8,1.5,2.52.7,4.89-1.07,7a69.59,69.59,0,0,1-5.25,5.09c-.72.68-1.3,1.36-.67,2.35a1.35,1.35,0,0,1,0,.9c-.45,2.16-1,4.31-1.38,6.47a28.59,28.59,0,0,1-.32,3.15c-.92,3-5.11,4.57-8.47,2.17a36.46,36.46,0,0,0-6.87-3.46,4.43,4.43,0,0,0-2.55.2,6.49,6.49,0,0,1-6.1-1.22,2,2,0,0,0-2.35-.29c-1.81.74-3.69,1.34-5.51,2.05a1.44,1.44,0,0,1-2.09-.75c-1.27-2.27-2.37-2.42-4.53-.65-1,.81-1.91,1.71-2.91,2.51-.81.65-1.44.6-2.19-.25a5.53,5.53,0,0,0-2.73-1.88,3.29,3.29,0,0,0-3.78,2.2,3.62,3.62,0,0,1-2.1,1.94c-3.62,1.52-7.22,3.09-10.81,4.67a3.05,3.05,0,0,1-2.79,0c-1.39-.66-4.21.47-4.83,2a3.91,3.91,0,0,1-3.21,2.52c-3.19.44-6.43.72-9.64.84-1.88.07-2.45-.62-2.37-2.34a4.74,4.74,0,0,1,2.33-4.12,21.11,21.11,0,0,1,2.49-1.23q19.92-8.64,39.85-17.25c1-.43,1.8-.77,1.16-2-.12-.23.29-.93.64-1.12,1.67-.9,3.37-1.76,5.12-2.52A1.75,1.75,0,0,0,172,469a6.09,6.09,0,0,1,3.64-5.86c1.68-.86,1.66-2.47,2-3.8.5-2.05.41-4.21.91-6.26.64-2.66,5-4,7.51-2.55s5.17,2.79,7.76,4.19c.42.22,1,.4,1.18.74.87,1.83,2.56,1.24,4.11,1.18a60.4,60.4,0,0,1,7.46-.15C209.48,456.75,210.82,458.16,212.76,462Zm-8.33,11.27,2.89-2.66a5.92,5.92,0,0,0-.57-9.4c-1.66-1.22-6.13-1.26-8.44-.31a4.15,4.15,0,0,0,.22.73C200.42,465.39,202.33,469.15,204.43,473.26Z"/><path class="cls-4" d="M140.76,530a11.05,11.05,0,0,0-2.95,6.5,4.62,4.62,0,0,1-.47,1.13,5.63,5.63,0,0,1-1.15-.62c-2.3-2-3-4.46-1.87-7.28a2.16,2.16,0,0,0,.22-.55c0-.41,0-.82,0-1.22-.48.31-1.24.53-1.4.95a37.63,37.63,0,0,0-1.14,4c-.12.44-.21.89-.31,1.33l-.74-.12a17.23,17.23,0,0,0-.65-1.77,10.25,10.25,0,0,0-.88-1.29c-.39.3-.81.57-1.18.89s-.81.82-1.24,1.21a1.68,1.68,0,0,1-2.24.31,12.69,12.69,0,0,0-5.58-2.1c-.62,0-1.24,0-1.87,0a3.18,3.18,0,0,1-.92,0c-.26-.08-.61-.3-.65-.51s.23-.52.45-.66a10.55,10.55,0,0,0,3.65-3.32,19.5,19.5,0,0,0,1.23-2.3c.74-1.79.91-1.72,3.15-1.56a5.2,5.2,0,0,1,1.55.3c1.1.44,1.06-.27,1-.86a20.33,20.33,0,0,0-.63-2,1.81,1.81,0,0,1,.06-.64c.23,0,.51,0,.67.11,1.09.76,2.2,1.5,3.22,2.34s1.46,1,2.85.39a8.24,8.24,0,0,0-1-.73c-2.38-1.31-3.87-3.15-3.86-5.81a7.25,7.25,0,0,1,.68-2.64c2.36,1.83,4.48,3.82,7.67,4.23,0-.32,0-.74,0-1.15,0-1.21.43-1.72,1.73-1.69a21.51,21.51,0,0,1,3.33.36,14.58,14.58,0,0,0,8.48-1c2.11-.86,3.23-2.63,5-3.78a6.72,6.72,0,0,1,2.37-1.1c.41-.08,1,.58,1.48.89s.77.46,1.15.69c.23-.41.47-.81.68-1.22.07-.14,0-.37.12-.48,1.43-1.53,1.51-3.49,2-5.33a8.94,8.94,0,0,1,.38-1,4.72,4.72,0,0,1,1.09.5c2.83,2.33,3.09,4.74,1.82,7.84a11,11,0,0,0-.32,1.12c1.47-.05,1.77-.45,2.08-2.16a25.54,25.54,0,0,1,.84-3,4.32,4.32,0,0,1,.54-.87c1.05,1,.49,2.76,2.13,3.17.83-.79,1.63-1.55,2.45-2.3a1.68,1.68,0,0,1,2-.16,38.11,38.11,0,0,0,4.68,1.92,16.91,16.91,0,0,0,3.21.21,4.29,4.29,0,0,1,1.07.4c-.2.33-.31.84-.61,1-2.81,1.21-4,3.6-5,6.06a1.61,1.61,0,0,1-1.89,1,18.55,18.55,0,0,1-2.26-.4c-1.14-.24-1.58.2-1.26,1.3.21.72.5,1.42.75,2.13l-.32.28c-1-.69-2.07-1.37-3.09-2.08-.39-.27-.73-.61-1.09-.91-.88-.72-.94-.73-2.39-.18a9.88,9.88,0,0,0,1.14,1c1.71,1,3.26,2.23,3.53,4.22a14.08,14.08,0,0,1-.23,3.7c-.07.52-.47.53-.92.16a32,32,0,0,0-3.63-2.81,28,28,0,0,0-3.79-1.62c0,.53.09,1,.11,1.53,0,1.18-.58,1.81-1.83,1.75-1.46-.07-2.93-.17-4.38-.37a12.93,12.93,0,0,0-9,2c-1.6,1-2.48,2.44-3.82,3.54s-2.21,1.25-3.42-.2C141.14,530.34,140.94,530.16,140.76,530Zm5.94-10.11,0,.08a13.73,13.73,0,0,0-1.63.43c-.27.11-.7.47-.66.6.24.74.42,1.86,1,2.05a3.48,3.48,0,0,0,2.47-.54c1.52-.9,3-1.78,4.86-1a2,2,0,0,0,2.79-1.19,2.57,2.57,0,0,0-1.49-3.15,2.05,2.05,0,0,0-2.73,1.12,1.78,1.78,0,0,1-1.59,1.06A29,29,0,0,0,146.7,519.85Zm14.43-2.06-.28-2.12C159.76,517,159.79,517.12,161.13,517.79Zm16.16-5.15.44-.1a3.67,3.67,0,0,0-.27-1.27c-.16-.26-.65-.34-1-.5l-.17.26Zm-.67.46.24-.25-1-1.61-.42.11a3,3,0,0,0,.19,1.16C175.82,512.79,176.28,512.91,176.62,513.1Zm-53.08,14.29-.43,0a4.73,4.73,0,0,0-.18,1.36c0,.26.45.47.69.71l.21-.18Zm15.86-3,.32,0c0-.4.18-.87,0-1.17s-.71-.48-1.08-.71l-.18.25Zm22.33-6.75c.3-.16.63-.28.62-.35a7.33,7.33,0,0,0-.3-1.39c0-.09-.29-.11-.44-.16,0,.36-.06.72-.05,1.09A5.24,5.24,0,0,0,161.73,517.64ZM139,524.73l-1.2-1.85C137.34,524.2,137.71,524.76,139,524.73Zm-14.62,2.47-.27.15.35,1.84.34,0c.11-.35.35-.73.28-1S124.63,527.52,124.39,527.19Z"/><path class="cls-4" d="M101.75,590.42c1.15-.71,2.14-.33,3.14-.11,1.16.25,2.31.5,3.46.77a2.13,2.13,0,0,1,1.76,2.73c-.23.76-.46,1.52-.69,2.29-.36,0-.56,0-.75-.08-1.34-.25-1.37-.26-1-1.48.19-.7-.05-1.12-.81-1.29-.56-.13-1.13-.24-1.68-.39a1,1,0,0,0-1.45.75c-.19.66-.36,1.24-1.38,1.25a.65.65,0,0,0-.24,1.21,1.06,1.06,0,0,1,.45,1.42c-.32,1-.14,1.19.91,1.45l.68.15c1.8.4,1.81.41,2.5-1.13.32-.7.88-.36,1.33-.29s1,.14.77.78-.42,1.49-.68,2.22a2.21,2.21,0,0,1-2.15,1.21c-2-.4-4.06-.86-6.07-1.35-.33-.08-.58-.43-.9-.69-1,1-2.05.14-3.08-.08-.23,0-.35-.7-.39-1.09a2.7,2.7,0,0,1,.25-.92q4.89-16.23,9.8-32.45a1.14,1.14,0,0,0-.35-1.47,14.17,14.17,0,0,1-4.84-6.41c-.55-1.23.56-5,2-8.11,1.68-3.66,3-5.52,6.21-6.8a12.78,12.78,0,0,1,9.22-.22,9.81,9.81,0,0,1,5.88,5.25c-.58,1.87-.89,2.37-1.36,4.35a32.75,32.75,0,0,1-1.85,6.13c-1.18,2-1.83,3.21-4,4.36a27.53,27.53,0,0,1-2.67,1.49,33.05,33.05,0,0,1-3.63,1.12,1.38,1.38,0,0,0-1.11,1q-3.53,11.78-7.09,23.56C101.86,589.77,101.83,590,101.75,590.42Zm1.44-39.51a6.11,6.11,0,0,0,.05,4.09,12.67,12.67,0,0,0,4.56,6.11,2.76,2.76,0,0,0,2,.3,19.19,19.19,0,0,0,5.37-2.19c3-1.87,4.63-4.2,4.29-7.49a6.85,6.85,0,0,0-4-5.6C110.69,543.72,104.55,546.13,103.18,550.92Z"/><path class="cls-4" d="M386.8,494a.87.87,0,0,1,1.29-.37c.7.35,1.05,0,1.36-.48l.28-.44c-.83-.79-.84-.79-.13-1.72.54-.71,1.06-1.43,1.62-2.13s1-.84,1.86-.35c1.21.72,2.41,1.46,3.63,2.17.49.29.61.69.32,1.11-.72,1-1.49,2-2.25,3-.12.16-.26.31-.42.49l-1-.5c-.19.25-.35.48-.53.71a.54.54,0,0,0,.08.9c.45.37.94.8.09,1.54a11.52,11.52,0,0,0,1.64.44c.75.09,1.18.44,1.17,1.1a1.76,1.76,0,0,1-1.82,1.51,1.59,1.59,0,0,1-.77-.46c-.26-.23-.4-.6-.69-.78-2.62-1.6-5.27-3.17-7.88-4.73a1.66,1.66,0,0,1-2.28-.48c-.06-.09-.19-.21-.16-.27.36-.7-.29-.85-.71-1.11L371.08,487a1.25,1.25,0,0,0-.36-.21c-.88-.17-1.73-.35-2.05-1.26a1.93,1.93,0,0,0-.62.09c-.29.08-.57.2-.85.31L367,485a1.62,1.62,0,0,0-.2-.63,6.15,6.15,0,0,1-3.27,1.16,44.46,44.46,0,0,1-5,.7,9.07,9.07,0,0,1-7-2.24,7.32,7.32,0,0,1-2.53-7.53,8,8,0,0,1,3.08-4.64,9.87,9.87,0,0,1,7.35-2,9.06,9.06,0,0,1,5.73,2.86,10.39,10.39,0,0,1,2.26,5.12c.24,1,.49,2,.64,3.06a9.08,9.08,0,0,1-.09,1.64c0,.14,0,.36.11.41a.66.66,0,0,0,.48-.07c.14-.07.23-.27.37-.3a1.27,1.27,0,0,1,.77,0c.13.08.14.43.06.61-.29.69-.18.79.61.8a2.23,2.23,0,0,1,1.09.52c.28.2.43.56.72.74q5.35,3.27,10.74,6.49a1.09,1.09,0,0,0,.82.08c.77-.3,2,.26,2.09,1S386,493.65,386.8,494ZM358.7,481.7l.65.35a3.1,3.1,0,0,0,3.16,0,2.48,2.48,0,0,0,.33-4.36c-.63-.38-.75-.69-.22-1.2a1.07,1.07,0,0,0,.15-.22,2.23,2.23,0,0,0-.08-2.7,2.75,2.75,0,0,0-2.47-1,3.27,3.27,0,0,0-2.29,1.25c-.48.57-.76.5-1.32.19a3.05,3.05,0,0,0-4.34,2,2.5,2.5,0,0,0,1.29,2.66.6.6,0,0,1,.23.54,5.3,5.3,0,0,1-.57,1.2c-.5.8.14,2.25.8,2.74a3.17,3.17,0,0,0,4.09-.63Zm33,10.43c.07.35,0,.79.23,1s.81.1,1.23-.1a1.1,1.1,0,0,1,.52,0c.64.06,1.28-.51,1-1a2.18,2.18,0,0,1-.24-1.2.7.7,0,0,0-.35-.55,1.83,1.83,0,0,0-.78.08c-.3,0-.6.1-.89.17a1.74,1.74,0,0,0-.77.26C391.2,491.32,391.48,491.74,391.72,492.13Z"/><path class="cls-4" d="M73.91,553c-.49.44-1,.86-1.45,1.33A4.2,4.2,0,0,1,69.72,556,2.16,2.16,0,0,0,68,558.41a3.62,3.62,0,0,1,.06,1.25c-.27,1.3-1.06,1.65-2.31,1-.8-.41-1.55-.91-2.39-1.41-.79.6-1.14,1.16.11,1.64a1.6,1.6,0,0,1,.61.3c.55.62,1.05,1.26,1.57,1.9a11.57,11.57,0,0,1-2.19,1.42c-1.11.42-2.08,1.28-1.86,2.26a4,4,0,0,1-.88,3.26,10.68,10.68,0,0,0-.68,1.39l.31.31a5.88,5.88,0,0,0,1.32-1,5.58,5.58,0,0,1,3.07-2.17,2,2,0,0,0,1.59-2.42c-.15-1-.17-2,1.21-2.4,1-.26,3,1,3.15,1.9a1.45,1.45,0,0,1-.3.93c-1,1.38-2.06,2.71-3,4.11-1.1.6-2,.47-3.48.18.45.63,1.14.87.78,1-.92.31-6.18-.06-8.32-1.42-.88-.56-1.36-.45-1.89.38-.43.67-3.57-.8-3.25-1.23q9.57-12.8,19.12-25.61a13.41,13.41,0,0,0,1.13-2.45,8.26,8.26,0,0,1,.77-1.5q9.39-12.59,18.84-25.15a13,13,0,0,1,2.32-1.88c1.62-1.3,1.51-1.77.15-3.18a10.4,10.4,0,0,1-2.84-9.16,11.48,11.48,0,0,1,3.49-6.52A13.61,13.61,0,0,1,106,490.27c5.07.65,8.67,3.22,10.47,7.52a10.35,10.35,0,0,1-.42,8.91,12.85,12.85,0,0,1-8.55,6.88,12,12,0,0,1-7.85-.12c-1.78-.75-2.47.11-3.09,1.56A13.71,13.71,0,0,1,95.2,518Q86.15,530.21,77,542.37a29.81,29.81,0,0,1-2.51,2.26A32,32,0,0,0,72,547.48c-1.73,2.27-1.71,2.28.82,3.78q2.52,1.49,5,3c.63.38,1.28.76.65,1.63a1.65,1.65,0,0,1-2.23.77,3.64,3.64,0,0,0-1-.12,2.75,2.75,0,0,0,.47.88,1.24,1.24,0,0,1,.17,1.93q-1.51,2-3,4a1.3,1.3,0,0,1-2,.42,1,1,0,0,1-.12-.06c-.69-.62-1.88-1.19-1.94-1.87-.09-1.08,1.22-1.43,2.32-1.72a1.9,1.9,0,0,0,1.6-2.18,4.14,4.14,0,0,1,1-3.22,8.43,8.43,0,0,0,.6-1.46Zm25.18-44.6c3.68,2.52,9.26,1.34,11.88-2.25a7.24,7.24,0,0,0-2.26-10.54,9.54,9.54,0,0,0-11.91,2.28C94.52,501,95,506.34,99.09,508.43Z"/><path class="cls-4" d="M456.35,415.27a48.52,48.52,0,0,0-7,3.91,2.9,2.9,0,0,0-.88,4.07,78.15,78.15,0,0,0,4.53,7.8c1.3,1.75,3.07,3.71,5.15,4.41,5.53,1.86,11.35,3.08,17,4.6a2.07,2.07,0,0,0,2.71-1c1.91-3,4.28-3.77,7.15-2.71,2.65,1,2.75,3.13,2.78,5.19a2,2,0,0,0,2,2.33,22.28,22.28,0,0,1,2.53.64c.37-.57.57-1,.84-1.3,1-1.31,2.05-2.54,4.29-2.14,2.42.44,2.48,2,2.36,3.6-.2,2.75,2.11,2.22,3.91,2.65l.55-1.07c1.55-3,3.21-4,5.76-3.43,2.89.67,3.77,2,3.24,5.41-.21,1.36.23,1.9,1.67,2.25,4.17,1,8.3,2.14,12.5,3.23-.7,4.4,2.42,6.35,6.9,7.14V431.14c-13-3.68-33.39-10.13-46.85-13.63C476,415.12,462.74,415.51,456.35,415.27Z"/><path class="cls-4" d="M500.19,525.95c-2.08-1.24-4.11-2.56-6.16-3.84-4.19-2.62-8.41-5.21-12.57-7.87-1.06-.68-1.79-.6-2.52.41s-1.57,2-2.36,3c-1.45,1.84-1.45,1.85.49,3.11.82.53,1.57,1,.69,2.1s-1.51.81-2.44.21c-2.08-1.33-1.83-1.57-3.37.53-.71,1-1.28,1.06-2.32.41-9.81-6.16-19.66-12.27-29.48-18.42a2.26,2.26,0,0,1-1-1.19c-1.25-5.52-2.43-11-3.62-16.57-.56-2.62-.3-3,2.53-3.7.35-.09.7-.21,1.32-.41-.6-2.44-1.18-4.85-1.81-7.24-.07-.26-.46-.67-.65-.65-2.86.36-5.7.79-8.58,1.21.11.88.18,1.4.25,1.93.19,1.44-.31,2.16-1.88,2.39-6.36.9-12.73,1.71-19.08,2.66-1.84.27-2.71-.28-3.12-1.82-.22-.85-.66-1.73-1.9-1.58-2.24.27-4.48.58-6.69,1a1.52,1.52,0,0,0-.91,1.19c.31,2,.78,3.93,1.21,5.89.2.94.66,1.4,1.9,1.16,1.88-.36,3,.3,3.38,1.8,1.25,5.58,2.49,11.16,3.68,16.75.4,1.89.09,2.24-2,2.68-1.32.28-1.94.85-1.59,2.14.19.73.35,1.47.51,2.21l6.6,3.55,3.56-.52c-.06-.77-.1-1.25-.13-1.72-.14-1.86.33-2.43,2.37-2.76.78-.13,1.57-.22,2.35-.33,5.19-.73,10.38-1.45,15.56-2.22a4.72,4.72,0,0,1,3.46.62c17.2,10.77,34.46,21.45,51.62,32.27,4.27,2.69,5.18,1.24,7.17-1.45,1.11-1.5.92-2.79-.75-3.72-1.34-.75-1.17-1.42-.34-2.42,1.4-1.68,2.7-3.42,4.14-5.25-.89-.56-1.6-1.05-2.37-1.46s-.77-.94-.33-1.57.95-1.28,1.93-.8a8.48,8.48,0,0,1,1.32.8c1,.71,1.56.35,2.22-.48S501.24,526.57,500.19,525.95Zm-84.91-17.54c-3.14.25-4-.22-4.63-3.07-.69-3-1.37-6.09-2.09-9.32,2.93.66,4.78.1,5.42-1.51.54-1.35-.39-2.63-2.48-3.42,1.91-1.29,4-1,5.08.74a12.58,12.58,0,0,1,1.37,3c.5,1.68-.66,3.1-2.58,3.38a2.73,2.73,0,0,0-1.19.31c-.37.28-.81.78-.77,1.13s.69.91,1,.87c2.39-.33,2.87,1.27,3.3,2.7a7.91,7.91,0,0,0,3.13,4.43C419,507.91,417.15,508.26,415.28,508.41ZM428,505a4.16,4.16,0,0,1-5.54-.78,15,15,0,0,1-1.49-3.72c-.08-.22.24-.56.37-.85.46,1.74,1.14,3.13,3.09,3.41a3.23,3.23,0,0,0,2.24-.75c.46-.41.46-1.26.62-1.92a8,8,0,0,0,.12-1.11,3.82,3.82,0,0,1,1.21.5C430.21,501.3,429.92,503.48,428,505Zm-.72-9.47a8.17,8.17,0,0,0-2.61.37c-1,.2-1.9.46-3.16.77.39-3.69-.52-6.39-4.06-8.45,1.64-.26,2.79-.47,4-.61,1.69-.21,3.38-.43,5.07-.53s2.77.51,3.13,2.05c.58,2.48,1.18,5,1.8,7.52A33,33,0,0,0,427.24,495.49Zm53.21,29.88,2.24-3.24c-.86-.54-1.7-1.09-2.57-1.59s-.88-1-.34-1.68,1-1.15,1.95-.68l.42.2c2.12,1.1,2.12,1.1,4.47,0-.12.44-.11.77-.28,1-1,1.11-.14,1.63.74,2.19,2.14,1.36,2.13,1.71-.06,3.37l-3.21-2-2.74,2.9Zm12.68,7.05a2.27,2.27,0,0,1-1.85.48,14.57,14.57,0,0,1-2.67-1.59l-1.68,1.48-.45-.2.79-2.1c-.65-.41-1.41-.91-2.19-1.36s-.8-1.12-.28-1.85a1.33,1.33,0,0,1,2-.42l.13.08c2.36,1.26,2.34,1.25,4-.69a4.67,4.67,0,0,1,1.19-.73,7.93,7.93,0,0,1-.29,1.33,2.61,2.61,0,0,1-.64.85c-1,1-.62,1.62.45,2.19a3.45,3.45,0,0,1,1.37.94C493.27,531.29,493.41,532.14,493.12,532.43Z"/><path class="cls-4" d="M243.89,515.75a19.54,19.54,0,0,0-9.72-12.26c-5.2-3-11-3.7-17.16-2.46a22.76,22.76,0,0,0-10.81,5.26,53.86,53.86,0,0,1-6.75,10.33,17.91,17.91,0,0,0,1.08,12.56,2,2,0,0,1-.36,1.79c-.91,1-2.07,1.89-3.09,2.85q-15.83,15-31.65,30a16.13,16.13,0,0,0-4.12,5.21,19.85,19.85,0,0,0-2,8.72c.06,1.4.85,2,2.39,1.78,3-.5,6-1.09,9-1.68a2.15,2.15,0,0,0,1.86-2.13,28.11,28.11,0,0,1,.5-3.58,1.93,1.93,0,0,1,1-1.09c.72-.31,1.61-.27,2.3-.61a3.56,3.56,0,0,0,1.58-1.41,25.86,25.86,0,0,0,.82-2.8,1.65,1.65,0,0,1,.87-.87c2.7-1,5.43-1.88,8.12-2.89a2,2,0,0,0,1.12-1.17c.37-1.8.63-3.62.84-5.45s.56-2.05,2.52-1.94c2.18.13,4.36.2,6.78.31.3-1.68.62-3.28.86-4.89.15-1,.47-1.68,1.78-1.57,1.6.13,3.2.18,4.8.31s2.28-.38,2.35-1.85a8.47,8.47,0,0,1,.11-2.59c1.14-2.91,2.42-4.24,5.41-3.14a17,17,0,0,0,3.79.87,113.65,113.65,0,0,1,25.95-16.79A18.37,18.37,0,0,0,243.89,515.75Zm-9.69,1.78c-2.46,2.11-6.5,2.54-9.11.27a5.35,5.35,0,0,1-.07-8.19,6.78,6.78,0,0,1,9.17-.2C236.67,511.41,236.31,515.73,234.2,517.53Z"/><path class="cls-4" d="M167.15,544.78a.74.74,0,0,0-.47.33,1.53,1.53,0,0,0-.18.62c-.11.78-.44.93-1.17.49a1.06,1.06,0,0,0-1.48.06c-.75.76-.89,1.39-.41,1.91a3,3,0,0,0,3.17.66,6.56,6.56,0,0,0,1.08-1c.64-.93.23-1.85-.12-2.74A.57.57,0,0,0,167.15,544.78Z"/><path class="cls-4" d="M168.82,535.34a2.21,2.21,0,0,1,.71.26c.16.69-.84,1.23-.06,2a12.07,12.07,0,0,0,1.86-1.17,2.76,2.76,0,0,0,1-1.5c.18-1.72-1.48-2.79-3.41-2.39-.65.13-1,.65-1,1.67A.92.92,0,0,0,168.82,535.34Z"/><path class="cls-4" d="M168,538.15l.15-.29a6.05,6.05,0,0,0-1.06-.48c-.9-.22-1-.41-.48-1.11a.81.81,0,0,0,0-1.18c-.5-.54-1.56-.9-2-.65a2.29,2.29,0,0,0-1.26,2,2.13,2.13,0,0,0,1.17,2A4.32,4.32,0,0,0,168,538.15Z"/><path class="cls-4" d="M164.14,543.68a.71.71,0,0,1,1-.43,4,4,0,0,0,.76.34.74.74,0,0,0,.57-.09.51.51,0,0,0,0-.5,9.46,9.46,0,0,0-.84-1.2,2.41,2.41,0,0,0-3-.56,2.45,2.45,0,0,0-1.48,2c-.18,1,.34,1.47,1.55,1.63C163.73,545,163.85,544.87,164.14,543.68Z"/><path class="cls-4" d="M179.23,536.92a.53.53,0,0,0-.06-.46,3,3,0,0,0-3.44-.88,2,2,0,0,0-1.4,2.27c.14.41.21.84.39,1.23a3,3,0,0,0,.56.64c.19-.24.49-.45.56-.71.28-1,.64-1.23,1.55-.64a1,1,0,0,0,.5.17l1-.92C179,537.4,179.13,537.16,179.23,536.92Z"/><path class="cls-4" d="M173.53,541.22a8.06,8.06,0,0,0-.73-1.09,2.54,2.54,0,0,0-2.46-.81,2.26,2.26,0,0,0-1.82,1.58,3.5,3.5,0,0,0,2,4,3.29,3.29,0,0,0,.41.1c1-.93,2-1.86,2.94-2.76A3.54,3.54,0,0,0,173.53,541.22Z"/><path class="cls-4" d="M197.74,573a1,1,0,0,0-1.07-.65,1.78,1.78,0,0,1-1.3-.6c-.16-.32.2-.86.31-1.31a2.69,2.69,0,0,0,.17-1.1,4,4,0,0,0-.62-1.23,1.1,1.1,0,0,0-.57-.41,1.64,1.64,0,0,0-2.18,1.1c-.28.84-1.14,1.42-1.84,1.09a2.4,2.4,0,0,0-1.32-.24l-4.73,5.17,2.42,4.79c.16.33.31.66.5,1a.86.86,0,0,0,1.25.39,24.07,24.07,0,0,0,2.32-1c.29-.17.4-.65.49-1,0-.17-.14-.39-.24-.62.25-.13.45-.24.66-.33.85-.35,1.7-.63,1.91-1.67.11-.57,1.21-.87,1.83-.64a2.35,2.35,0,0,0,2.34-.39c.6-.6.27-1.17-.06-1.73A4.85,4.85,0,0,1,197.74,573Z"/><path class="cls-4" d="M170.54,544.87a3.5,3.5,0,0,1-2-4,2.26,2.26,0,0,1,1.82-1.58,2.54,2.54,0,0,1,2.46.81,8.06,8.06,0,0,1,.73,1.09,3.54,3.54,0,0,1,.36,1c1.4-1.3,2.75-2.53,4-3.66a1,1,0,0,1-.5-.17c-.91-.6-1.27-.41-1.55.64-.07.26-.36.48-.56.71a3,3,0,0,1-.56-.64c-.18-.39-.24-.83-.39-1.23a2,2,0,0,1,1.4-2.27,3,3,0,0,1,3.44.88.53.53,0,0,1,.06.46c-.1.24-.21.48-.33.71l2.23-2a6.82,6.82,0,0,0-4.22-2.62,10.05,10.05,0,0,1-3.87-1.48,8.59,8.59,0,0,0-2-.94c-2-.73-3.91-.17-5.76.65a6.49,6.49,0,0,0-3.15,2.38,9.18,9.18,0,0,0-1,2.86A9,9,0,0,1,160,540a5.6,5.6,0,0,0-.44,5.87,22.64,22.64,0,0,0,1.94,3.5,4.63,4.63,0,0,0,3,2.08c1.83-2,4.12-4.21,6.48-6.46A3.29,3.29,0,0,1,170.54,544.87Zm-2.72-10.65c.07-1,.4-1.54,1-1.67,1.94-.4,3.59.67,3.41,2.39a2.76,2.76,0,0,1-1,1.5,12.07,12.07,0,0,1-1.86,1.17c-.78-.78.22-1.31.06-2a2.21,2.21,0,0,0-.71-.26A.92.92,0,0,1,167.83,534.23Zm-4.49,2.23a2.29,2.29,0,0,1,1.26-2c.4-.25,1.46.11,2,.65a.81.81,0,0,1,0,1.18c-.54.71-.41.89.48,1.11a6.05,6.05,0,0,1,1.06.48l-.15.29a4.32,4.32,0,0,1-3.49.29A2.13,2.13,0,0,1,163.34,536.46Zm-2.18,6.74a2.45,2.45,0,0,1,1.48-2,2.41,2.41,0,0,1,3,.56,9.46,9.46,0,0,1,.84,1.2.51.51,0,0,1,0,.5.74.74,0,0,1-.57.09,4,4,0,0,1-.76-.34.71.71,0,0,0-1,.43c-.29,1.19-.4,1.29-1.42,1.15C161.51,544.67,161,544.17,161.17,543.2Zm6.52,4.65a6.56,6.56,0,0,1-1.08,1,3,3,0,0,1-3.17-.66c-.48-.53-.34-1.15.41-1.91a1.06,1.06,0,0,1,1.48-.06c.73.44,1.06.3,1.17-.49a1.53,1.53,0,0,1,.18-.62.74.74,0,0,1,.47-.33.57.57,0,0,1,.41.32C167.91,546,168.32,546.92,167.68,547.85Z"/><path class="cls-4" d="M178.9,537.63l-1,.92a.82.82,0,0,0,.7-.39A3.74,3.74,0,0,0,178.9,537.63Z"/><path class="cls-4" d="M180.93,578.78l3.65-4v0Z"/><path class="cls-4" d="M189.25,569.64l-4.68,5.14v0l4.73-5.17Z"/><path class="cls-4" d="M207.38,435a12.58,12.58,0,0,1-.71-2.35l.44-.2c.44.53.85,1.08,1.33,1.58a5.44,5.44,0,0,0,1,.64,3.38,3.38,0,0,0,.52-1.08,3.75,3.75,0,0,0-.22-1.61c-.86-2.2-1.73-3.26-4.22-2.74a7.66,7.66,0,0,0-.13-.95l-15.9,3.88q-16.3,11.2-32.6,22.41c-.76.52-1.2.57-1.73-.17a34.74,34.74,0,0,0-2.25-2.72c-.5-.55-.75-1-.26-1.75a1.46,1.46,0,0,0-.21-2.06c-.54-.56-8,8.19-7.61,8.11,1.28-.24,1.28-.32,1.92.66a23.24,23.24,0,0,0,1.89,2.45c.52.59.34.94-.29,1.34-.83.52-1.6,1.14-2.43,1.66a2.84,2.84,0,0,0-.78,4.46,3.32,3.32,0,0,0,1.43,1c3.4-2.74,20-15.78,31.93-20l22-15.1,1-.71c.36,1.3.66,2.45,1,3.59a8.52,8.52,0,0,0,1.13,2.25l4.11-2A5.77,5.77,0,0,1,207.38,435Z"/><path class="cls-4" d="M212.5,428.87a1.7,1.7,0,0,0,1.27,0c.23-.11.26-.62.32-1a5.32,5.32,0,0,0,0-.91,4.37,4.37,0,0,1,3.93,3.51l5-2.46a9.73,9.73,0,0,0-1.21-2.39,8.18,8.18,0,0,0-.92-1.07L210.67,427A4.42,4.42,0,0,0,212.5,428.87Z"/><path class="cls-4" d="M506,520.75c-.36.07-.92.16-1.47.3-1.67.43-2.7-.79-3.13-2a3.62,3.62,0,0,1-.11-.49Q497.1,497.8,492.88,477c-.38-1.89.29-3.32,1.78-3.75.61-.18,1.24-.26,1.73-.36a37.53,37.53,0,0,1,1.38-5.19,11.86,11.86,0,0,1,9.26-7.27,12,12,0,0,1,10.91,3,13.4,13.4,0,0,1,2.4,3.28c.47.81.84,1.17,1.84.93a4.64,4.64,0,0,1,2.32.11c.9.27,1.22,1.1,1.41,2q2.89,14.37,5.83,28.73,1.4,6.86,2.79,13.72a2.31,2.31,0,0,1-2,3.07l-.3.06c-1.59.33-1.5.34-1.63,2a11.49,11.49,0,0,1-2.27,6,12.4,12.4,0,0,1-10.16,5.18,11.15,11.15,0,0,1-8.61-3.35C508.32,523.89,507.3,522.36,506,520.75Zm9.72-14.11.6-.16,1-.29c1.26-.4,1.56-.76,1.28-2.06-.4-1.86-.92-3.7-1.44-5.53a1.16,1.16,0,0,0-1.31-.85,1.49,1.49,0,0,1-1.11-.4c-.56-.73-.12-2.94.64-3.47a4.35,4.35,0,1,0-5.87-6.32,4.19,4.19,0,0,0,.71,6.18,2,2,0,0,1,.88,1.85c0,1.2,0,2.41,0,3.61s.49,1.66,1.75,1.35a15.16,15.16,0,0,1,1.67-.38c.26,0,.71.06.79.22a13.84,13.84,0,0,1,.94,2.62,1,1,0,0,1-1,1.34c-.77,0-1.56-.06-2.33-.09-.38,0-.85-.14-1.1,0s-.2.69-.14,1A2.17,2.17,0,0,0,514.1,507C514.59,506.91,515.08,506.77,515.76,506.64Zm-6.11-40.79,1.18,5.81a3,3,0,0,0,1.84-3.09C512.46,467.09,511.59,466.27,509.65,465.85Zm12.53,56.26a2.82,2.82,0,0,0,1.8-3.54,2.62,2.62,0,0,0-2.93-2Zm-3.23.82-1.13-5.55a2.55,2.55,0,0,0-1.88,2.91A2.76,2.76,0,0,0,519,522.92Zm-11.48-56.4a2.86,2.86,0,0,0-1.73,3.67,2.6,2.6,0,0,0,2.86,1.92Z"/><path class="cls-4" d="M432.94,409c.13.19.23.4.36.63-1.43.4-1.64,1-.79,2.44-1.44.1-1.66,1.3-2,2.11a30,30,0,0,0-3.63-1.19,5.73,5.73,0,0,0-4.66.81,9.51,9.51,0,0,0-2,2.13,8.65,8.65,0,0,0-.9,9.22,7.71,7.71,0,0,0,2.82,3.15c1.56,1,3.28,1.82,5.24,1.28a8.29,8.29,0,0,0,1.58-.82c.08.08.16.13.19.2a3.06,3.06,0,0,1,.12.39,3.55,3.55,0,0,0,2.24,2.35,9.28,9.28,0,0,0,4.19.72,8.18,8.18,0,0,0,6.28-3.51,10.71,10.71,0,0,0,1.74-5.57,5.64,5.64,0,0,0-2.83-5.5,7.67,7.67,0,0,0-4.62-1.43,2.57,2.57,0,0,0-.2-3.24c1.32-.32,1.59-1.14.9-2.38a2.37,2.37,0,0,1,.35-.21,2.13,2.13,0,0,0,1.08-3.36l-5.26-.76A2.54,2.54,0,0,0,432.94,409Zm.39,10.79a1.15,1.15,0,0,0,1.37.56,1.49,1.49,0,0,0,.64-.34c.7-.64,1.33-1.36,2.46-1a2.76,2.76,0,0,1,1.9,2.35,5.91,5.91,0,0,1-1,5.08,3.84,3.84,0,0,1-3.87,1.18,3,3,0,0,1-2.09-2.56,2.57,2.57,0,0,0-.2-.73c-.28-.6-.6-.64-1.08-.18a2.34,2.34,0,0,1-.57.49.8.8,0,0,1-1.14-.77c0-.29-.16-.73-.36-.81a1,1,0,0,0-.88.24,3.58,3.58,0,0,1-2.38,1.24,3.8,3.8,0,0,1-3.44-2.57c-.74-2.49,1.36-5.59,3.56-6.34a2.11,2.11,0,0,1,2.75,2c.12,1.23,1.2,1.95,2.08,1.25.45-.36.57-1.15.81-1.77a2.55,2.55,0,0,0,0-.71l2.07.68-.61.81A1.72,1.72,0,0,0,433.32,419.79Z"/><path class="cls-4" d="M533.15,529.45c-1.19.53-2.45.9-3.65,1.4s-2.28,1-3.43,1.5a8.21,8.21,0,0,1-1,.15,5.06,5.06,0,0,0-1.54.53c-.39.27-.6.8-.93,1.18a2.35,2.35,0,0,1-2.79.25,7.72,7.72,0,0,0-4.57-1.79,3.36,3.36,0,0,1-2-1c-2-1.78-4.35-2.52-6.79-1.5s-3.36,3-3.54,5.52a5.69,5.69,0,0,1-1.05,3.34,6.49,6.49,0,0,0-1.15,5.59,6.86,6.86,0,0,0,6.11,5.12,4.36,4.36,0,0,1,1.71.4c.85.49,1.57,1.26,2.42,1.75a5.62,5.62,0,0,0,4.83.5c2.69-.95,4-3.69,3.91-6.6a2.7,2.7,0,0,1,.4-1.43,9,9,0,0,0,1.89-4.86,2.24,2.24,0,0,1,2.37-2.14c1-.06,2.33.74,2.69-1,0-.09.2-.13.32-.18,1.58-.74,3.15-1.52,4.74-2.22l2.52-1.09v-4.16C534.14,529,533.65,529.23,533.15,529.45ZM518.8,540a1.91,1.91,0,0,1-.37-.07c-2.35-.68-3,.66-3.28,2.69a5.63,5.63,0,0,1-.39,1.66,2.31,2.31,0,0,0,1.09,3.3c1.16.63,1.19.8.31,1.69a3.57,3.57,0,0,1-2.83,1c-.16,0-.43-.37-.48-.59a2.09,2.09,0,0,1,.1-1,2.42,2.42,0,0,0-1.93-3.2,11.8,11.8,0,0,1-2.9-1.08c-1.14-.52-1.88-.18-2.46,1-.22.42-.6,1-.92,1s-.79-.58-1.11-1a2.62,2.62,0,0,1-.52-1.07,16.29,16.29,0,0,1-.18-1.84,9.86,9.86,0,0,1,1.61.08,2.38,2.38,0,0,0,2.84-2.3,4.35,4.35,0,0,1,.48-1.6,2.53,2.53,0,0,0-1-3.71c-.4-.26-.79-.56-1.26-.89a3.76,3.76,0,0,1,3.59-2c.16,0,.45.29.48.47a2.42,2.42,0,0,1-.08,1c-.36,1.47.23,2.69,1.65,2.92a12.1,12.1,0,0,1,3.07,1.44c1.18.54,1.76.31,2.45-.77a12.56,12.56,0,0,1,1-1.26,11.6,11.6,0,0,1,1.32,1.51,6.5,6.5,0,0,1,.55,1.6C519.95,539.9,519.48,540.08,518.8,540Z"/></g><g id="Locked-3" data-name="Locked"><path d="M533.28,598.41a34.72,34.72,0,0,0-6.27-12.7,28.28,28.28,0,0,0-10.95-8.38q-6.62-2.92-17.38-2.92H462.3v9.86L459.91,587c-2.53,2.85-2.79,9.73-.44,12.72,1,1.23,1.94,2.43,2.79,3.48-2,4.56-7.36,5.86-7.63,11.78-.29,6.1,4.88,7.76,7,12.3-2.27,2.4-4.52,4.86-6.88,7.21-1.22,1.22-1.4,2.27-.11,3.48.23.21.39.51.63.69,4.46,3.46,5.58,9.07,4.35,15h7.64q.29-34.2.8-68.4c0-1.46.88-2.91,1.35-4.36l.85.29-.81,72.48h29.2a56.8,56.8,0,0,0,14.59-2.16,26.18,26.18,0,0,0,11-6.3,32.59,32.59,0,0,0,8-11.73q2.89-7,2.89-19.7A59,59,0,0,0,533.28,598.41Zm-46.22,38.74,7-25.53c-6.33-4.14-8.57-8.83-7.05-14.57a12.25,12.25,0,0,1,11.06-8.86A12.12,12.12,0,0,1,509.93,596c2.09,5.39.37,10.31-5.32,15l6.78,26.18Z"/><path d="M254.41,621.12l21.46,6.49a39.58,39.58,0,0,1-6.81,15.08,29.56,29.56,0,0,1-11.54,9.14q-6.89,3.08-17.54,3.08-12.92,0-21.11-3.75t-14.14-13.21q-5.95-9.45-5.94-24.2,0-19.66,10.46-30.22T238.84,573q15,0,23.54,6.05t12.73,18.6l-21.62,4.81a18.63,18.63,0,0,0-2.38-5.3,14.11,14.11,0,0,0-5-4.32A15.46,15.46,0,0,0,226.68,598q-3.35,5-3.35,15.6,0,13.17,4,18.06t11.24,4.89q7,0,10.62-3.95T254.41,621.12Z"/><path class="cls-7" d="M150,651.72,148.8,752.93l1.07.33c.59-1.7,1.67-3.4,1.69-5.11q.7-44.24,1.09-88.48c0-2.67-1.06-5.36-1.63-8Z"/><text class="cls-8" transform="translate(188.82 680.45)">Slotenma<tspan class="cls-9" x="104.29" y="0">k</tspan><tspan x="117.07" y="0">er</tspan></text><path d="M64,634V574.3H39.52v7.18c-1.59,1.8-3.19,3.58-4.78,5.37-2.53,2.85-2.79,9.73-.44,12.72,1,1.23,1.94,2.43,2.79,3.48-2,4.56-7.36,5.86-7.63,11.78-.29,6.1,4.88,7.76,7,12.3-2.27,2.4-4.52,4.86-6.88,7.21-1.22,1.22-1.4,2.27-.11,3.48.23.21.39.51.63.69,4.46,3.46,5.58,9.07,4.35,15H41q.29-34,.8-68.07c0-1.46.88-2.91,1.35-4.36l.85.29-.8,72.15h59V634Z"/><path d="M343.7,604.21l28.92-29.91H340.05L314.4,604.25V574.3H289.91v7.44L285.27,587c-2.53,2.85-2.79,9.73-.44,12.72,1,1.23,1.94,2.43,2.79,3.48-2,4.56-7.36,5.86-7.63,11.78-.29,6.1,4.88,7.76,7,12.3-2.27,2.4-4.52,4.86-6.88,7.21-1.22,1.22-1.4,2.27-.11,3.48.23.21.39.51.63.69,4.46,3.46,5.58,9.07,4.35,15h7v-.11h.32q.29-34.22.8-68.44c0-1.46.88-2.91,1.35-4.36l.85.29-.81,72.62h12v-.11h7.92V634.21L327.05,621l16.71,32.59h30.16Z"/><path d="M406.51,635.6V620h38.11V603.82H406.51v-12.6h41.08V574.3H382v8.52l-3.59,4c-2.53,2.85-2.79,9.73-.44,12.72,1,1.23,1.94,2.43,2.79,3.48-2,4.56-7.36,5.86-7.63,11.78-.29,6.1,4.88,7.76,7,12.3-2.27,2.4-4.52,4.86-6.88,7.21-1.22,1.22-1.4,2.27-.11,3.48.23.21.39.51.63.69,4.46,3.46,5.58,9.07,4.35,15h7q.29-34.2.8-68.4c0-1.46.88-2.91,1.35-4.36l.85.29-.81,72.48h61.5V635.6Z"/></g></g></g></svg>