<svg id="Laag_1" data-name="Laag 1" xmlns="http://www.w3.org/2000/svg" xmlns:xlink="http://www.w3.org/1999/xlink" viewBox="0 0 389.14 218.33"><defs><style>.cls-1{fill:none;}.cls-2{clip-path:url(#clip-path);}.cls-3{fill:#04050a;}.cls-4{font-size:44px;font-family:TitilliumWeb-BoldItalic, Titillium Web;}.cls-5{font-weight:700;font-style:italic;}.cls-6{font-size:21px;font-family:TitilliumWeb-Regular, Titillium Web;}</style><clipPath id="clip-path"><rect class="cls-1" width="134.69" height="218.33"/></clipPath></defs><title>Tekengebied 1</title><g class="cls-2"><path class="cls-3" d="M110.19,82.94c-1.56.93-.83,1.82,0,2.91a14.44,14.44,0,0,0,6.15,4.28c-3.16.9-5.64-.75-8.27-1.54s-5-.3-5.89,2.41-3.26,3.44-5,5.07c-.39.37-1.2.8-1.56.63-6.56-3-15-1.15-19.7-8.38,2.22-1,4.93-2.13,7.61-3.33,2-.92,4.2-1.62,4.37-4.55.09-1.49,1.64-1.91,3-2.31,2.16-.62,4.26-1.45,6.39-2.2.85-.3,2-1.11,2.48-.82,5,3,9.76.62,14.49-.41,4.07-.89,5.94.25,6.11,4.72-4.69-2.35-7.07,1.64-10.23,3.52m3.7,59.33c-5,7.38-9.85,14.8-15.29,23l-5.36-14.9c-2.51,1.48-2.44,4.16-4,5.66-2.27-4.15-.45-8,4.47-16.08l7.06,15,8.19-21.83c1.91,2.32,3.37,4.17,4.93,5.93,1,1.12.83,2,0,3.19m-34.46-3.2c-1.93-1-3.23-4.52-5.35-3.18-2.36,1.49-3.18.22-4.55-.76s-2.42-1.82-3.66-2.68c-2.63-1.81-4.41-3.94-2-7a6.34,6.34,0,0,1,9.19-.85c3.81,3.27,5.78,8,9.51,11.42,1.76,1.61-.81,6.44-3.72,8.17-2.54,1.52-2.55-.55-3.41-2,1.7-.45,3.66.87,4.6-1.2a1.46,1.46,0,0,0-.65-2m8.91,30.55c-2.28-4.64-6-6.87-9.49-9.53-1.5,2.51.16,4.57.33,6.73-2.51.07-2.89-1.92-3.26-3.35-.92-3.54-3.3-5.53-6.22-7.38-5.61-3.58-11-7.54-16.6-11.12-1.75-1.12-2.15-2.23-1.68-4.09.37-1.45-.77-2.27-1.85-2.79s-1.72.42-2.06,1.24c-.82,2-2.39,2.32-4.07,1.59-2.07-.9-.63-2.63-.51-4a36,36,0,0,1,1-4.37c-5.81,1.22-8.53,9.08-16.12,6.28L38,129.79c-10.34,2-18,10.31-28.84,6.83,1.55-1.92,3.62-2.8,5.48-3.88,9.18-5.3,18.35-10.58,27.61-15.73a8.24,8.24,0,0,0,4-4.11c3.09-7.46,8.11-13.81,12.09-20.76,2.6-4.54,10.21-4.81,14.59-2,5.41,3.42,10.27,8.83,17.89,7.28,1.86-.38,9,6.57,8.86,8.74-.22,2.74,1,4.6,2.38,6.62a6.84,6.84,0,0,1,.77,1.27.76.76,0,0,0,0-.08c1.51,2.07,3,7.82,1.82,9.7-1-1.75-4.08-7.07-4.08-7.07a4.76,4.76,0,0,0-.68-.78c-4.45-2.79-10-2-14.58-4.54-4-2.2-7.1.47-9.21,3.47-2.46,3.5-3.67,7.24-9.54,7.2-2.71,0-5.85,2.85-9.45,1.72a1.63,1.63,0,0,0-1.89,1c-1.48,2.87-2.92,5.77-4.37,8.65,2.81-1.28,3.68-3.73,4.89-5.92.84-1.52,1.84-2.17,3.67-1.75s1.73,1.65,1.93,3.05c1.38,10.09,7.91,17,14.81,23.67,1.49,1.44,2.79-.07,4.13-.56,3.75-1.39,5.6-.23,5.77,3.71-1.36.32-2.93-1.89-4-.07-1.18,2,1.1,2.87,2.09,3.92,2.59,2.76,5.3,5.33,4.33,10.34m-6.94,2.2c-1.63,3.24-3.35,6.43-5,9.67-1,1.94-2,1.95-3.34.3-2.18-2.7-4.46-5.31-6.63-8C65,172,64,172,62.74,174.05c-2.36,4-4.88,8-7.33,11.94l-.67-.21,8-21.38c3.08,4.59,5.71,8.38,8.22,12.26,1.9,2.94,3.42,3.69,4.91-.31a48.66,48.66,0,0,1,3-6.1,1.78,1.78,0,0,1,2.39-.71c1.22.56.53,1.55.16,2.29M19.49,56.35c2.35,3.35,5.73,4.72,10.48,5.75a106.69,106.69,0,0,1-6.84-8.2c-1.83-2.69-4.91-5.32-1.8-9.89,2.42,5.17,5.69,9.19,11.72,10.8C29,46.65,21.47,40,25.2,29.87c2.64,7.32,3.95,15.36,11.87,19.45.08-.32.4-.83.25-1.08C33.17,41.17,32,33.19,30.4,25.35c-1.14-5.42-1-5.9,3.85-10.51.36,4.83.17,9.32.88,13.81,2.15,13.47,8.29,24.81,16.61,35.28C57.28,70.91,62.65,78,68.8,86,55.16,86.23,52.62,96.84,48,105.17c-2.55,4.56-5.92,5.22-9.24,1.23C35,101.87,31.2,97.37,28.48,92c-1.54-3-2.07-5,1.84-6.06-1.62-2.12-3.79.29-5.51-1.62l3.88-1.93c-1.13-2.13-3.47-.51-4.83-1.77.12-2.36,2.78-.6,3.43-2.46-1.34-1.84-4.36-.86-6.17-2.75,2.09-1.61,4.38.55,6.57-.79-2.35-3.08-8.43-2.12-8.77-8.33,3.53,2,6.79,2.42,10.53,2.73-2.78-5-10.36-5.72-10-12.69M68.8,50.3c6.26-2.67,13.3-2.28,19.89-.48,3.54,1,4.28,5,2.22,9.59C89,63.67,86.82,67.83,84.68,72c-1.26,2.46-2.47,4.87-1.47,7.74.58,1.64-.24,2.34-1.69,3.07C73,87.12,73,87.17,67.5,79.7c-1.62-2.18-2.84-5-5-6.41-3.51-2.4-.11-6.17-2.39-8.53-1.25-1.11-4.15-1.31-6.69-4.54,5.23-3.47,9.9-7.6,15.34-9.92m65.83,58.86q0-52.91.06-105.82c0-2.54-.3-3.34-3.18-3.33Q67.47.19,3.43.05C1.13,0,0,0,0,3.12Q.2,109.18,0,215.23c0,2.39.3,3.1,2.95,3.09q64.27-.16,128.53,0c2.93,0,3.16-.86,3.16-3.35q-.13-52.91-.06-105.82"/><path class="cls-3" d="M93.63,102.66c1,.79,2,1.61,3.09,2.38s2.2,1.69,1,2.77-2.54.31-3.26-1.07c-.59-1.13-1.08-2.32-1.61-3.48l.81-.59"/><path class="cls-3" d="M96.22,80.82c1.27-.29,2.55-.55,3.81-.86s2.71-.61,2.75,1-1.38,2.15-2.91,1.82c-1.25-.26-2.47-.65-3.71-1,0-.33,0-.67.06-1"/></g><text class="cls-4" transform="translate(139.68 107.14)"><tspan class="cls-5">GRAND MOFF</tspan><tspan class="cls-6"><tspan x="2" y="25.2">Design Agency</tspan></tspan></text></svg>