<svg xmlns="http://www.w3.org/2000/svg" viewBox="0 0 841.89 595.28"><defs><style>.cls-1{fill:#f9b233;}.cls-2{fill:#4e3628;}.cls-3,.cls-8{fill:none;}.cls-3,.cls-6,.cls-8{stroke:#000;stroke-linecap:round;stroke-miterlimit:10;}.cls-3{stroke-width:9px;}.cls-4{font-size:56.79px;}.cls-4,.cls-9{font-family:Montserrat-Bold, Montserrat;font-weight:700;}.cls-5{letter-spacing:-0.01em;}.cls-6,.cls-7{fill:#fff;}.cls-6,.cls-8{stroke-width:2px;}.cls-9{font-size:10.16px;}.cls-10{letter-spacing:-0.01em;}</style></defs><title>Tekengebied 2</title><g id="Mountaingear"><rect class="cls-1" x="77.73" y="73.92" width="672.35" height="461.09"/><g id="Grote_versie" data-name="Grote versie"><g id="_Groep_" data-name="&lt;Groep&gt;"><path class="cls-2" d="M342.84,219.2c-3.19-4.6-5.39-8.43-6.08-11a12.82,12.82,0,0,0-15.16,2.35c-7.36,7,4,15.2,21.23,8.64Zm-47.45-38.76c-5.5-13.3-8.21-34.63,18.19-51.25,2.46,0-2,10.2-.23,26.49a74.41,74.41,0,0,0,4.54,18.49,67.32,67.32,0,0,1,6.71.58,58.37,58.37,0,0,1,16,4.24,28.25,28.25,0,0,1,4.67,2.62,16.46,16.46,0,0,1,6.09,7.23c5.69,14.08.33,22.82,14.9,37.16s35.58,31.14,33.79,43.35a34.35,34.35,0,0,1-3.58,11.88c-2.58,4.65-7,8.67-14.86,10.21h0c-84.35-84.17-102.47-72.29-103.13-68.38s19.32,79.83,19.32,79.83a50.8,50.8,0,0,0-5.2,9.31,18.3,18.3,0,0,1-2.46,4.19c-6.26,7.92-28.14,41.64-28.48,53.36H238c-1.7-47.32-38-86.76-43.81-93,0,0,37.49-49.35,99.11-95.18Z"/><path class="cls-2" d="M313.36,155.68s24.61-15.25,43.39-12.07c-2,4.88-4.45,10.43-6.84,15.64l-1-.45c-9-2.76-24.29,16-24.29,16a67.32,67.32,0,0,0-6.71-.58A74.41,74.41,0,0,1,313.36,155.68Z"/><path class="cls-2" d="M238,369.76H143.51v-99s44.94-.16,50.72,6.05S236.34,322.44,238,369.76Z"/><path class="cls-3" d="M143.51,270.73s44.94-.16,50.72,6.05,42.1,45.66,43.81,93"/><path class="cls-3" d="M194.24,276.79s37.49-49.35,99.11-95.18"/><path class="cls-3" d="M302.54,192.93a53.77,53.77,0,0,1-7.16-12.49c-5.5-13.3-8.21-34.63,18.19-51.25,2.46,0-2,10.2-.23,26.49a74.41,74.41,0,0,0,4.54,18.49,86.21,86.21,0,0,0,4,8.8s.81,9.26-8.13,10.71"/><path class="cls-3" d="M381.59,291.45c-7.43,1.45-17.95.69-32.9-3.84-28-8.5-43.41,4.61-50.9,15.29a50.8,50.8,0,0,0-5.2,9.31,18.3,18.3,0,0,1-2.46,4.19c-6.26,7.92-28.14,41.64-28.48,53.36"/><path class="cls-3" d="M317.9,174.17a67.32,67.32,0,0,1,6.71.58,58.37,58.37,0,0,1,16,4.24,28.25,28.25,0,0,1,4.67,2.62,16.46,16.46,0,0,1,6.09,7.23c5.69,14.08.33,22.82,14.9,37.16s35.58,31.14,33.79,43.35a34.35,34.35,0,0,1-3.58,11.88c-2.58,4.65-7,8.67-14.86,10.21"/><path class="cls-3" d="M297.79,302.9s-20-75.91-19.32-79.83,18.77-15.79,103.13,68.38h0"/><path class="cls-3" d="M396.85,281.64l-.39-.4c-4-4.2-39.07-41-53.62-62-3.19-4.6-5.39-8.43-6.08-11a12.82,12.82,0,0,0-15.16,2.35c-7.36,7,4,15.2,21.23,8.64"/><path class="cls-3" d="M345.26,181.61l0,0c1.19-1.45,48.83-59.37,24.83-65.18,0,0-16.68-2.77-18.9-1.84s5.36,14.25,9.46,14.63c1.44.14-.64,6.38-3.93,14.41-2,4.88-4.45,10.43-6.84,15.64-4.8,10.52-9.31,19.74-9.31,19.74"/><path class="cls-3" d="M351.35,188.84s54.38-29.45,58.61-70.22a9.4,9.4,0,0,0-5.36-9.51c-7.31-3.36-18.43-6.56-23-2.31,7.5,2.36,35.39,7.87-36.32,74.78"/><path class="cls-3" d="M313.36,155.68s24.61-15.25,43.39-12.07"/><path class="cls-3" d="M324.61,174.75s15.28-18.72,24.29-16"/></g><text class="cls-4" transform="translate(286.62 369.46)">Mou<tspan class="cls-5" x="127.38" y="0">n</tspan><tspan x="163.21" y="0">taingear</tspan></text></g><g id="Kleine_versie" data-name="Kleine versie"><rect class="cls-6" x="348.71" y="455.79" width="130.39" height="56.42"/><g id="Kleine_versie-2" data-name="Kleine versie"><g id="_Groep_2" data-name="&lt;Groep&gt;"><path class="cls-7" d="M399.28,480.56a7.55,7.55,0,0,1-1.09-2,2.29,2.29,0,0,0-2.71.42c-1.32,1.25.72,2.72,3.8,1.55Zm-8.49-6.93c-1-2.38-1.47-6.19,3.25-9.17.44,0-.37,1.82,0,4.74a13.31,13.31,0,0,0,.81,3.31,12,12,0,0,1,1.2.1,10.44,10.44,0,0,1,2.86.76,5.05,5.05,0,0,1,.84.47,2.94,2.94,0,0,1,1.09,1.29c1,2.52.06,4.08,2.67,6.65s6.37,5.57,6,7.76a6.14,6.14,0,0,1-.64,2.13,3.64,3.64,0,0,1-2.66,1.83h0c-15.09-15.06-18.33-12.93-18.45-12.23s3.46,14.28,3.46,14.28a9.09,9.09,0,0,0-.93,1.67,3.27,3.27,0,0,1-.44.75c-1.12,1.42-5,7.45-5.1,9.55h-4.22c-.3-8.46-6.8-15.52-7.84-16.63a97.21,97.21,0,0,1,17.73-17Z"/><path class="cls-7" d="M394,469.19s4.4-2.73,7.76-2.16c-.36.87-.8,1.87-1.22,2.8l-.18-.08c-1.61-.49-4.35,2.85-4.35,2.85a12,12,0,0,0-1.2-.1A13.31,13.31,0,0,1,394,469.19Z"/><path class="cls-7" d="M380.53,507.49H363.62V489.77s8,0,9.07,1.08S380.23,499,380.53,507.49Z"/><path d="M387.76,481.25l3.35,14.88s2.48-5,9.21-3.33c5,1.23,6.11.87,4.44-.74S391.81,479.17,387.76,481.25Z"/><path d="M400.94,462.72s3.26-1.41,3.84-.28-2.45,8.3-3.4,9.23-.64-2.26-.64-2.26l1.82-4.5Z"/><path d="M406.21,460.45s4.72-1,4.81,1-.26,6.47-9.71,13.34c-.79-.19-1.19-1.38-1.19-1.38S411.3,463.76,406.21,460.45Z"/><path class="cls-8" d="M363.62,489.77s8,0,9.07,1.08,7.53,8.17,7.84,16.63"/><path class="cls-8" d="M372.7,490.86a97.21,97.21,0,0,1,17.73-17"/><path class="cls-8" d="M392.07,475.86a9.62,9.62,0,0,1-1.28-2.23c-1-2.38-1.47-6.19,3.25-9.17.44,0-.37,1.82,0,4.74a13.31,13.31,0,0,0,.81,3.31,15.42,15.42,0,0,0,.71,1.57,1.76,1.76,0,0,1-1.45,1.92"/><path class="cls-8" d="M406.21,493.48a12.64,12.64,0,0,1-5.89-.69c-5-1.52-7.77.82-9.11,2.73a9.09,9.09,0,0,0-.93,1.67,3.27,3.27,0,0,1-.44.75c-1.12,1.42-5,7.45-5.1,9.55"/><path class="cls-8" d="M394.82,472.5a12,12,0,0,1,1.2.1,10.44,10.44,0,0,1,2.86.76,5.05,5.05,0,0,1,.84.47,2.94,2.94,0,0,1,1.09,1.29c1,2.52.06,4.08,2.67,6.65s6.37,5.57,6,7.76a6.14,6.14,0,0,1-.64,2.13,3.64,3.64,0,0,1-2.66,1.83"/><path class="cls-8" d="M391.22,495.53s-3.57-13.58-3.46-14.28,3.36-2.82,18.45,12.23h0"/><path class="cls-8" d="M408.94,491.72l-.07-.07c-.72-.75-7-7.34-9.59-11.1a7.55,7.55,0,0,1-1.09-2,2.29,2.29,0,0,0-2.71.42c-1.32,1.25.72,2.72,3.8,1.55"/><path class="cls-8" d="M399.71,473.83h0c.21-.26,8.73-10.62,4.44-11.66a18.74,18.74,0,0,0-3.38-.33c-.39.17,1,2.55,1.69,2.62.26,0-.11,1.14-.7,2.58-.36.87-.8,1.87-1.22,2.8-.86,1.88-1.67,3.53-1.67,3.53"/><path class="cls-8" d="M400.8,475.12s9.73-5.27,10.48-12.56a1.68,1.68,0,0,0-1-1.7c-1.31-.6-3.3-1.17-4.11-.41,1.34.42,6.33,1.41-6.5,13.38"/><path class="cls-8" d="M394,469.19s4.4-2.73,7.76-2.16"/><path class="cls-8" d="M396,472.6s2.73-3.35,4.35-2.85"/></g><text class="cls-9" transform="translate(389.22 507.44)">Mou<tspan class="cls-10" x="22.79" y="0">n</tspan><tspan x="29.2" y="0">taingear</tspan></text></g></g></g></svg>