<?xml version="1.0" encoding="utf-8"?>
<!-- Generator: Adobe Illustrator 21.1.0, SVG Export Plug-In . SVG Version: 6.00 Build 0)  -->
<svg version="1.1" id="Laag_1" xmlns="http://www.w3.org/2000/svg" xmlns:xlink="http://www.w3.org/1999/xlink" x="0px" y="0px"
	 viewBox="0 0 600 600" style="enable-background:new 0 0 600 600;" xml:space="preserve">
<style type="text/css">
	.st0{fill:#B6EBEF;}
	.st1{fill:#EBFBFC;}
	.st2{fill:none;}
	.st3{fill:#706F6F;}
	.st4{clip-path:url(#SVGID_2_);}
	.st5{fill:#FFF068;}
	.st6{fill:none;stroke:#F2D442;stroke-width:12;stroke-miterlimit:10;}
	.st7{fill:#603C36;}
	.st8{clip-path:url(#SVGID_4_);}
	.st9{fill:#FFFFFF;}
	.st10{clip-path:url(#SVGID_6_);}
	.st11{fill:#60C6D0;}
	.st12{fill:#603C36;stroke:#603C36;stroke-width:3;stroke-linecap:round;stroke-linejoin:round;}
	.st13{fill:#EE6092;}
	.st14{fill:#4292A9;}
	.st15{fill:#FFFFFF;stroke:#603C36;stroke-width:3;stroke-linecap:round;stroke-linejoin:round;}
	.st16{fill:#60C6D0;stroke:#60C6D0;stroke-width:32;stroke-linecap:round;stroke-miterlimit:10;stroke-dasharray:0,22,0,22,0,22;}
	.st17{fill:none;stroke:#603C36;stroke-width:5;stroke-linecap:round;stroke-miterlimit:10;}
	.st18{opacity:0.8;fill:#6D6E70;enable-background:new    ;}
	.st19{fill:#FFFFFF;stroke:#603C36;stroke-width:3;stroke-linecap:round;stroke-miterlimit:10;}
</style>
<title>Tekengebied 1</title>
<g>
	<g id="Achtergrond_1_">
		<rect x="135.4" y="115.4" class="st0" width="347.1" height="347.1"/>
		<g id="Berg_1_">
			<polygon class="st1" points="175.5,371.8 165.5,371.8 170.5,363.2 175.5,354.5 180.5,363.2 185.5,371.8 			"/>
			<polygon class="st1" points="195.6,371.8 185.5,371.8 190.5,363.2 195.6,354.5 200.6,363.2 205.6,371.8 			"/>
			<polygon class="st1" points="215.6,371.8 205.6,371.8 210.6,363.2 215.6,354.5 220.6,363.2 225.6,371.8 			"/>
			<polygon class="st1" points="235.6,371.8 225.6,371.8 230.6,363.2 235.6,354.5 240.6,363.2 245.6,371.8 			"/>
			<polygon class="st1" points="255.7,371.8 245.7,371.8 250.7,363.2 255.7,354.5 260.7,363.2 265.7,371.8 			"/>
			<polygon class="st1" points="275.7,371.8 265.7,371.8 270.7,363.2 275.7,354.5 280.7,363.2 285.7,371.8 			"/>
			<polygon class="st1" points="295.7,371.8 285.7,371.8 290.7,363.2 295.7,354.5 300.8,363.2 305.8,371.8 			"/>
			<polygon class="st1" points="315.8,371.8 305.8,371.8 310.8,363.2 315.8,354.5 320.8,363.2 325.8,371.8 			"/>
			<polygon class="st1" points="335.8,371.8 325.8,371.8 330.8,363.2 335.8,354.5 340.8,363.2 345.8,371.8 			"/>
			<polygon class="st1" points="185.4,354.5 175.3,354.5 180.3,345.8 185.4,337.1 190.4,345.8 195.4,354.5 			"/>
			<polygon class="st1" points="205.4,354.5 195.4,354.5 200.4,345.8 205.4,337.1 210.4,345.8 215.4,354.5 			"/>
			<polygon class="st1" points="225.4,354.5 215.4,354.5 220.4,345.8 225.4,337.1 230.4,345.8 235.5,354.5 			"/>
			<polygon class="st1" points="245.5,354.5 235.5,354.5 240.5,345.8 245.5,337.1 250.5,345.8 255.5,354.5 			"/>
			<polygon class="st1" points="265.5,354.5 255.5,354.5 260.5,345.8 265.5,337.1 270.5,345.8 275.5,354.5 			"/>
			<polygon class="st1" points="285.5,354.5 275.5,354.5 280.5,345.8 285.5,337.1 290.6,345.8 295.6,354.5 			"/>
			<polygon class="st1" points="305.6,354.5 295.6,354.5 300.6,345.8 305.6,337.1 310.6,345.8 315.6,354.5 			"/>
			<polygon class="st1" points="325.6,354.5 315.6,354.5 320.6,345.8 325.6,337.1 330.6,345.8 335.6,354.5 			"/>
			<polygon class="st1" points="195.2,337.1 185.2,337.1 190.2,328.5 195.2,319.8 200.2,328.5 205.2,337.1 			"/>
			<polygon class="st1" points="215.2,337.1 205.2,337.1 210.2,328.5 215.2,319.8 220.2,328.5 225.3,337.1 			"/>
			<polygon class="st1" points="235.3,337.1 225.3,337.1 230.3,328.5 235.3,319.8 240.3,328.5 245.3,337.1 			"/>
			<polygon class="st1" points="255.3,337.1 245.3,337.1 250.3,328.5 255.3,319.8 260.3,328.5 265.3,337.1 			"/>
			<polygon class="st1" points="275.3,337.1 265.3,337.1 270.3,328.5 275.3,319.8 280.4,328.5 285.4,337.1 			"/>
			<polygon class="st1" points="295.4,337.1 285.4,337.1 290.4,328.5 295.4,319.8 300.4,328.5 305.4,337.1 			"/>
			<polygon class="st1" points="315.4,337.1 305.4,337.1 310.4,328.5 315.4,319.8 320.4,328.5 325.4,337.1 			"/>
			<polygon class="st1" points="205,319.8 195,319.8 200,311.1 205,302.4 210,311.1 215,319.8 			"/>
			<polygon class="st1" points="225.1,319.8 215,319.8 220.1,311.1 225.1,302.4 230.1,311.1 235.1,319.8 			"/>
			<polygon class="st1" points="245.1,319.8 235.1,319.8 240.1,311.1 245.1,302.4 250.1,311.1 255.1,319.8 			"/>
			<polygon class="st1" points="265.1,319.8 255.1,319.8 260.1,311.1 265.1,302.4 270.2,311.1 275.2,319.8 			"/>
			<polygon class="st1" points="285.2,319.8 275.2,319.8 280.2,311.1 285.2,302.4 290.2,311.1 295.2,319.8 			"/>
			<polygon class="st1" points="305.2,319.8 295.2,319.8 300.2,311.1 305.2,302.4 310.2,311.1 315.2,319.8 			"/>
			<polygon class="st1" points="214.9,302.4 204.9,302.4 209.9,293.8 214.9,285.1 219.9,293.8 224.9,302.4 			"/>
			<polygon class="st1" points="234.9,302.4 224.9,302.4 229.9,293.8 234.9,285.1 239.9,293.8 244.9,302.4 			"/>
			<polygon class="st1" points="254.9,302.4 244.9,302.4 249.9,293.8 254.9,285.1 260,293.8 265,302.4 			"/>
			<polygon class="st1" points="275,302.4 265,302.4 270,293.8 275,285.1 280,293.8 285,302.4 			"/>
			<polygon class="st1" points="295,302.4 285,302.4 290,293.8 295,285.1 300,293.8 305,302.4 			"/>
			<polygon class="st1" points="224.7,285.1 214.7,285.1 219.7,276.4 224.7,267.7 229.7,276.4 234.7,285.1 			"/>
			<polygon class="st1" points="244.7,285.1 234.7,285.1 239.7,276.4 244.7,267.7 249.8,276.4 254.8,285.1 			"/>
			<polygon class="st1" points="264.8,285.1 254.8,285.1 259.8,276.4 264.8,267.7 269.8,276.4 274.8,285.1 			"/>
			<polygon class="st1" points="284.8,285.1 274.8,285.1 279.8,276.4 284.8,267.7 289.8,276.4 294.8,285.1 			"/>
			<polygon class="st1" points="234.5,267.7 224.5,267.7 229.5,259.1 234.5,250.4 239.6,259.1 244.6,267.7 			"/>
			<polygon class="st1" points="254.6,267.7 244.6,267.7 249.6,259.1 254.6,250.4 259.6,259.1 264.6,267.7 			"/>
			<polygon class="st1" points="274.6,267.7 264.6,267.7 269.6,259.1 274.6,250.4 279.6,259.1 284.6,267.7 			"/>
			<polygon class="st1" points="244.4,250.4 234.4,250.4 239.4,241.7 244.4,233 249.4,241.7 254.4,250.4 			"/>
			<polygon class="st1" points="264.4,250.4 254.4,250.4 259.4,241.7 264.4,233 269.4,241.7 274.4,250.4 			"/>
			<polygon class="st1" points="254.2,233 244.2,233 249.2,224.3 254.2,215.7 259.2,224.3 264.2,233 			"/>
		</g>
		<polygon class="st1" points="135.4,354.5 135.4,354.5 135.4,371.8 145.5,371.8 140.4,363.2 		"/>
		<polygon class="st1" points="155.5,354.5 155.5,354.5 150.5,363.2 145.5,371.8 155.5,371.8 165.5,371.8 160.5,363.2 		"/>
		<polygon class="st1" points="175.5,354.5 175.5,354.5 170.5,363.2 165.5,371.8 175.5,371.8 185.5,371.8 180.5,363.2 		"/>
		<polygon class="st1" points="195.6,354.5 195.6,354.5 190.5,363.2 185.5,371.8 195.6,371.8 205.6,371.8 200.6,363.2 		"/>
		<polygon class="st1" points="215.6,354.5 215.6,354.5 210.6,363.2 205.6,371.8 215.6,371.8 225.6,371.8 220.6,363.2 		"/>
		<polygon class="st1" points="235.6,354.5 235.6,354.5 230.6,363.2 225.6,371.8 235.6,371.8 245.6,371.8 240.6,363.2 		"/>
		<polygon class="st1" points="260.7,363.2 255.7,354.5 250.7,363.2 245.7,371.8 255.7,371.8 265.7,371.8 		"/>
		<polygon class="st1" points="135.4,354.2 135.3,354.5 135.4,354.5 135.4,354.5 		"/>
		<polygon class="st1" points="135.4,354.5 145.3,354.5 155.3,354.5 150.3,345.8 145.3,337.1 145.3,337.1 140.3,345.8 135.4,354.2 
			135.4,354.5 		"/>
		<polygon class="st1" points="135.4,354.5 135.4,354.5 135.4,354.5 		"/>
		<polygon class="st1" points="135.4,354.5 135.4,354.5 135.4,354.5 		"/>
		<polygon class="st1" points="155.5,354.5 165.3,354.5 175.3,354.5 170.3,345.8 165.3,337.1 165.3,337.1 160.3,345.8 155.3,354.5 
			155.5,354.5 155.5,354.5 		"/>
		<polygon class="st1" points="155.5,354.5 155.5,354.5 155.5,354.5 		"/>
		<polygon class="st1" points="175.5,354.5 185.4,354.5 195.4,354.5 190.4,345.8 185.4,337.1 185.4,337.1 180.3,345.8 175.3,354.5 
			175.5,354.5 175.5,354.5 		"/>
		<polygon class="st1" points="175.5,354.5 175.5,354.5 175.5,354.5 		"/>
		<polygon class="st1" points="195.6,354.5 205.4,354.5 215.4,354.5 210.4,345.8 205.4,337.1 205.4,337.1 200.4,345.8 195.4,354.5 
			195.6,354.5 195.6,354.5 		"/>
		<polygon class="st1" points="195.6,354.5 195.6,354.5 195.6,354.5 		"/>
		<polygon class="st1" points="215.6,354.5 225.4,354.5 235.5,354.5 230.4,345.8 225.4,337.1 225.4,337.1 220.4,345.8 215.4,354.5 
			215.6,354.5 215.6,354.5 		"/>
		<polygon class="st1" points="215.6,354.5 215.6,354.5 215.6,354.5 		"/>
		<polygon class="st1" points="235.6,354.5 245.5,354.5 255.5,354.5 250.5,345.8 245.5,337.1 240.5,345.8 235.5,354.5 235.6,354.5 
			235.6,354.5 		"/>
		<polygon class="st1" points="235.6,354.5 235.6,354.5 235.6,354.5 		"/>
		<polygon class="st1" points="140.1,328.5 135.4,320.4 135.4,337.1 145.1,337.1 		"/>
		<polygon class="st1" points="145.3,337.1 155.1,337.1 165.1,337.1 160.1,328.5 155.1,319.8 155.1,319.8 150.1,328.5 145.1,337.1 
			145.3,337.1 145.3,337.1 		"/>
		<polygon class="st1" points="145.3,337.1 145.3,337.1 145.3,337.1 		"/>
		<polygon class="st1" points="165.3,337.1 175.2,337.1 185.2,337.1 180.2,328.5 175.2,319.8 175.2,319.8 170.1,328.5 165.1,337.1 
			165.3,337.1 165.3,337.1 		"/>
		<polygon class="st1" points="165.3,337.1 165.3,337.1 165.3,337.1 		"/>
		<polygon class="st1" points="185.4,337.1 195.2,337.1 205.2,337.1 200.2,328.5 195.2,319.8 195.2,319.8 190.2,328.5 185.2,337.1 
			185.4,337.1 185.4,337.1 		"/>
		<polygon class="st1" points="185.4,337.1 185.4,337.1 185.4,337.1 		"/>
		<polygon class="st1" points="205.4,337.1 215.2,337.1 225.3,337.1 220.2,328.5 215.2,319.8 215.2,319.8 210.2,328.5 205.2,337.1 
			205.4,337.1 205.4,337.1 		"/>
		<polygon class="st1" points="205.4,337.1 205.4,337.1 205.4,337.1 		"/>
		<polygon class="st1" points="225.4,337.1 235.3,337.1 245.3,337.1 240.3,328.5 235.3,319.8 230.3,328.5 225.3,337.1 225.4,337.1 
			225.4,337.1 		"/>
		<polygon class="st1" points="225.4,337.1 225.4,337.1 225.4,337.1 		"/>
		<polygon class="st1" points="144.9,319.8 154.9,319.8 149.9,311.1 144.9,302.4 144.9,302.4 139.9,311.1 135.4,318.8 135.4,319.8 
					"/>
		<polygon class="st1" points="155.1,319.8 165,319.8 175,319.8 170,311.1 165,302.4 165,302.4 159.9,311.1 154.9,319.8 
			155.1,319.8 155.1,319.8 		"/>
		<polygon class="st1" points="155.1,319.8 155.1,319.8 155.1,319.8 		"/>
		<polygon class="st1" points="175.2,319.8 185,319.8 195,319.8 190,311.1 185,302.4 185,302.4 180,311.1 175,319.8 175.2,319.8 
			175.2,319.8 		"/>
		<polygon class="st1" points="175.2,319.8 175.2,319.8 175.2,319.8 		"/>
		<polygon class="st1" points="195.2,319.8 205,319.8 215,319.8 210,311.1 205,302.4 205,302.4 200,311.1 195,319.8 195.2,319.8 
			195.2,319.8 		"/>
		<polygon class="st1" points="195.2,319.8 195.2,319.8 195.2,319.8 		"/>
		<polygon class="st1" points="215.2,319.8 225.1,319.8 235.1,319.8 230.1,311.1 225.1,302.4 220.1,311.1 215,319.8 215.2,319.8 
			215.2,319.8 		"/>
		<polygon class="st1" points="215.2,319.8 215.2,319.8 215.2,319.8 		"/>
		<polygon class="st1" points="139.7,293.8 135.4,286.3 135.4,302.4 144.7,302.4 		"/>
		<polygon class="st1" points="144.9,302.4 154.8,302.4 164.8,302.4 159.8,293.8 154.8,285.1 154.8,285.1 149.7,293.8 144.7,302.4 
			144.9,302.4 144.9,302.4 		"/>
		<polygon class="st1" points="144.9,302.4 144.9,302.4 144.9,302.4 		"/>
		<polygon class="st1" points="165,302.4 174.8,302.4 184.8,302.4 179.8,293.8 174.8,285.1 174.8,285.1 169.8,293.8 164.8,302.4 
			165,302.4 165,302.4 		"/>
		<polygon class="st1" points="165,302.4 165,302.4 165,302.4 		"/>
		<polygon class="st1" points="185,302.4 194.8,302.4 204.9,302.4 199.8,293.8 194.8,285.1 194.8,285.1 189.8,293.8 184.8,302.4 
			185,302.4 185,302.4 		"/>
		<polygon class="st1" points="185,302.4 185,302.4 185,302.4 		"/>
		<polygon class="st1" points="205,302.4 214.9,302.4 224.9,302.4 219.9,293.8 214.9,285.1 209.9,293.8 204.9,302.4 205,302.4 
			205,302.4 		"/>
		<polygon class="st1" points="205,302.4 205,302.4 205,302.4 		"/>
		<polygon class="st1" points="144.6,285.1 154.6,285.1 149.6,276.4 144.6,267.7 144.6,267.7 139.5,276.4 135.4,283.5 135.4,285.1 
					"/>
		<polygon class="st1" points="154.8,285.1 164.6,285.1 174.6,285.1 169.6,276.4 164.6,267.7 164.6,267.7 159.6,276.4 154.6,285.1 
			154.8,285.1 154.8,285.1 		"/>
		<polygon class="st1" points="154.8,285.1 154.8,285.1 154.8,285.1 		"/>
		<polygon class="st1" points="174.8,285.1 184.6,285.1 194.6,285.1 189.6,276.4 184.6,267.7 184.6,267.7 179.6,276.4 174.6,285.1 
			174.8,285.1 174.8,285.1 		"/>
		<polygon class="st1" points="174.8,285.1 174.8,285.1 174.8,285.1 		"/>
		<polygon class="st1" points="194.8,285.1 204.7,285.1 214.7,285.1 209.7,276.4 204.7,267.7 199.7,276.4 194.6,285.1 194.8,285.1 
			194.8,285.1 		"/>
		<polygon class="st1" points="194.8,285.1 194.8,285.1 194.8,285.1 		"/>
		<polygon class="st1" points="144.6,267.7 154.4,267.7 164.4,267.7 159.4,259.1 154.4,250.4 154.4,250.4 149.4,259.1 144.4,267.7 
			144.6,267.7 144.6,267.7 		"/>
		<polygon class="st1" points="144.6,267.7 144.6,267.7 144.6,267.7 		"/>
		<polygon class="st1" points="164.6,267.7 174.4,267.7 184.5,267.7 179.4,259.1 174.4,250.4 174.4,250.4 169.4,259.1 164.4,267.7 
			164.6,267.7 164.6,267.7 		"/>
		<polygon class="st1" points="164.6,267.7 164.6,267.7 164.6,267.7 		"/>
		<polygon class="st1" points="184.6,267.7 194.5,267.7 204.5,267.7 199.5,259.1 194.5,250.4 189.5,259.1 184.5,267.7 184.6,267.7 
			184.6,267.7 		"/>
		<polygon class="st1" points="184.6,267.7 184.6,267.7 184.6,267.7 		"/>
		<polygon class="st1" points="154.4,250.4 164.2,250.4 174.2,250.4 169.2,241.7 164.2,233 164.2,233 159.2,241.7 154.2,250.4 
			154.4,250.4 154.4,250.4 		"/>
		<polygon class="st1" points="154.4,250.4 154.4,250.4 154.4,250.4 		"/>
		<polygon class="st1" points="174.4,250.4 184.3,250.4 194.3,250.4 189.3,241.7 184.3,233 179.3,241.7 174.3,250.4 174.4,250.4 
			174.4,250.4 		"/>
		<polygon class="st1" points="174.4,250.4 174.4,250.4 174.4,250.4 		"/>
		<polygon class="st1" points="164.2,233 174.1,233 184.1,233 179.1,224.3 174.1,215.7 169.1,224.3 164,233 164.2,233 164.2,233 		
			"/>
		<polygon class="st1" points="164.2,233 164.2,233 164.2,233 		"/>
		<g id="Berg-2_1_">
			<polygon class="st1" points="145.5,319.8 135.4,319.8 140.4,311.1 145.5,302.4 150.5,311.1 155.5,319.8 			"/>
			<polygon class="st1" points="165.5,319.8 155.5,319.8 160.5,311.1 165.5,302.4 170.5,311.1 175.5,319.8 			"/>
			<polygon class="st1" points="185.5,319.8 175.5,319.8 180.5,311.1 185.5,302.4 190.5,311.1 195.6,319.8 			"/>
			<polygon class="st1" points="205.6,319.8 195.6,319.8 200.6,311.1 205.6,302.4 210.6,311.1 215.6,319.8 			"/>
			<polygon class="st1" points="225.6,319.8 215.6,319.8 220.6,311.1 225.6,302.4 230.6,311.1 235.6,319.8 			"/>
			<polygon class="st1" points="245.7,319.8 235.6,319.8 240.6,311.1 245.7,302.4 250.7,311.1 255.7,319.8 			"/>
			<polygon class="st1" points="265.7,319.8 255.7,319.8 260.7,311.1 265.7,302.4 270.7,311.1 275.7,319.8 			"/>
			<polygon class="st1" points="285.7,319.8 275.7,319.8 280.7,311.1 285.7,302.4 290.7,311.1 295.7,319.8 			"/>
			<polygon class="st1" points="305.8,319.8 295.7,319.8 300.8,311.1 305.8,302.4 310.8,311.1 315.8,319.8 			"/>
			<polygon class="st1" points="155.3,302.4 145.3,302.4 150.3,293.8 155.3,285.1 160.3,293.8 165.3,302.4 			"/>
			<polygon class="st1" points="175.3,302.4 165.3,302.4 170.3,293.8 175.3,285.1 180.3,293.8 185.4,302.4 			"/>
			<polygon class="st1" points="195.4,302.4 185.4,302.4 190.4,293.8 195.4,285.1 200.4,293.8 205.4,302.4 			"/>
			<polygon class="st1" points="215.4,302.4 205.4,302.4 210.4,293.8 215.4,285.1 220.4,293.8 225.4,302.4 			"/>
			<polygon class="st1" points="235.5,302.4 225.4,302.4 230.4,293.8 235.5,285.1 240.5,293.8 245.5,302.4 			"/>
			<polygon class="st1" points="255.5,302.4 245.5,302.4 250.5,293.8 255.5,285.1 260.5,293.8 265.5,302.4 			"/>
			<polygon class="st1" points="275.5,302.4 265.5,302.4 270.5,293.8 275.5,285.1 280.5,293.8 285.5,302.4 			"/>
			<polygon class="st1" points="295.6,302.4 285.5,302.4 290.6,293.8 295.6,285.1 300.6,293.8 305.6,302.4 			"/>
			<polygon class="st1" points="165.1,285.1 155.1,285.1 160.1,276.4 165.1,267.7 170.1,276.4 175.2,285.1 			"/>
			<polygon class="st1" points="185.2,285.1 175.2,285.1 180.2,276.4 185.2,267.7 190.2,276.4 195.2,285.1 			"/>
			<polygon class="st1" points="205.2,285.1 195.2,285.1 200.2,276.4 205.2,267.7 210.2,276.4 215.2,285.1 			"/>
			<polygon class="st1" points="225.3,285.1 215.2,285.1 220.2,276.4 225.3,267.7 230.3,276.4 235.3,285.1 			"/>
			<polygon class="st1" points="245.3,285.1 235.3,285.1 240.3,276.4 245.3,267.7 250.3,276.4 255.3,285.1 			"/>
			<polygon class="st1" points="265.3,285.1 255.3,285.1 260.3,276.4 265.3,267.7 270.3,276.4 275.3,285.1 			"/>
			<polygon class="st1" points="285.4,285.1 275.3,285.1 280.4,276.4 285.4,267.7 290.4,276.4 295.4,285.1 			"/>
			<polygon class="st1" points="175,267.7 165,267.7 170,259.1 175,250.4 180,259.1 185,267.7 			"/>
			<polygon class="st1" points="195,267.7 185,267.7 190,259.1 195,250.4 200,259.1 205,267.7 			"/>
			<polygon class="st1" points="215,267.7 205,267.7 210,259.1 215,250.4 220.1,259.1 225.1,267.7 			"/>
			<polygon class="st1" points="235.1,267.7 225.1,267.7 230.1,259.1 235.1,250.4 240.1,259.1 245.1,267.7 			"/>
			<polygon class="st1" points="255.1,267.7 245.1,267.7 250.1,259.1 255.1,250.4 260.1,259.1 265.1,267.7 			"/>
			<polygon class="st1" points="275.2,267.7 265.1,267.7 270.2,259.1 275.2,250.4 280.2,259.1 285.2,267.7 			"/>
			<polygon class="st1" points="184.8,250.4 174.8,250.4 179.8,241.7 184.8,233 189.8,241.7 194.8,250.4 			"/>
			<polygon class="st1" points="204.9,250.4 194.8,250.4 199.8,241.7 204.9,233 209.9,241.7 214.9,250.4 			"/>
			<polygon class="st1" points="224.9,250.4 214.9,250.4 219.9,241.7 224.9,233 229.9,241.7 234.9,250.4 			"/>
			<polygon class="st1" points="244.9,250.4 234.9,250.4 239.9,241.7 244.9,233 249.9,241.7 254.9,250.4 			"/>
			<polygon class="st1" points="265,250.4 254.9,250.4 260,241.7 265,233 270,241.7 275,250.4 			"/>
			<polygon class="st1" points="194.6,233 184.6,233 189.6,224.3 194.6,215.7 199.7,224.3 204.7,233 			"/>
			<polygon class="st1" points="214.7,233 204.7,233 209.7,224.3 214.7,215.7 219.7,224.3 224.7,233 			"/>
			<polygon class="st1" points="234.7,233 224.7,233 229.7,224.3 234.7,215.7 239.7,224.3 244.7,233 			"/>
			<polygon class="st1" points="254.8,233 244.7,233 249.8,224.3 254.8,215.7 259.8,224.3 264.8,233 			"/>
			<polygon class="st1" points="204.5,215.7 194.5,215.7 199.5,207 204.5,198.3 209.5,207 214.5,215.7 			"/>
			<polygon class="st1" points="224.5,215.7 214.5,215.7 219.5,207 224.5,198.3 229.5,207 234.5,215.7 			"/>
			<polygon class="st1" points="244.6,215.7 234.5,215.7 239.6,207 244.6,198.3 249.6,207 254.6,215.7 			"/>
			<polygon class="st1" points="214.3,198.3 204.3,198.3 209.3,189.6 214.3,181 219.3,189.6 224.3,198.3 			"/>
			<polygon class="st1" points="234.4,198.3 224.3,198.3 229.4,189.6 234.4,181 239.4,189.6 244.4,198.3 			"/>
			<polygon class="st1" points="224.2,181 214.1,181 219.2,172.3 224.2,163.6 229.2,172.3 234.2,181 			"/>
		</g>
		<polygon class="st2" points="480.6,328.5 482.5,331.8 482.5,319.8 475.5,319.8 		"/>
		<polygon class="st1" points="480.7,345.8 475.7,354.5 482.5,354.5 482.5,342.8 		"/>
		<polygon class="st1" points="480.6,328.5 475.5,319.8 475.5,319.8 470.5,328.5 465.5,337.1 475.5,337.1 482.5,337.1 482.5,331.8 
					"/>
		<polygon class="st1" points="460.3,311.1 455.3,319.8 465.3,319.8 475.4,319.8 470.4,311.1 465.3,302.4 465.3,302.4 		"/>
		<polygon class="st1" points="475.5,319.8 482.5,319.8 482.5,307.4 480.4,311.1 475.4,319.8 475.5,319.8 475.5,319.8 		"/>
		<polygon class="st1" points="475.5,319.8 475.5,319.8 475.5,319.8 		"/>
		<polygon class="st1" points="460.2,293.8 455.1,285.1 455.1,285.1 450.1,293.8 445.1,302.4 455.1,302.4 465.2,302.4 		"/>
		<polygon class="st1" points="480.2,293.8 475.2,285.1 470.2,293.8 465.2,302.4 465.3,302.4 465.3,302.4 465.3,302.4 475.2,302.4 
			482.5,302.4 482.5,297.8 		"/>
		<polygon class="st1" points="465.3,302.4 465.3,302.4 465.3,302.4 		"/>
		<polygon class="st1" points="450,276.4 444.9,267.7 444.9,267.7 439.9,276.4 434.9,285.1 444.9,285.1 455,285.1 		"/>
		<polygon class="st1" points="455.1,285.1 465,285.1 475,285.1 470,276.4 465,267.7 460,276.4 455,285.1 455.1,285.1 455.1,285.1 
					"/>
		<polygon class="st1" points="455.1,285.1 455.1,285.1 455.1,285.1 		"/>
		<polygon class="st1" points="444.9,267.7 454.8,267.7 464.8,267.7 459.8,259.1 454.8,250.4 449.8,259.1 444.8,267.7 444.9,267.7 
			444.9,267.7 		"/>
		<polygon class="st1" points="444.9,267.7 444.9,267.7 444.9,267.7 		"/>
		<polygon class="st1" points="315.6,354.5 315.6,354.5 310.6,363.2 305.6,371.8 315.6,371.8 325.6,371.8 320.6,363.2 		"/>
		<polygon class="st1" points="335.6,354.5 335.6,354.5 330.6,363.2 325.6,371.8 335.6,371.8 345.7,371.8 340.6,363.2 		"/>
		<polygon class="st1" points="355.7,354.5 355.7,354.5 350.7,363.2 345.7,371.8 355.7,371.8 365.7,371.8 360.7,363.2 		"/>
		<polygon class="st1" points="375.7,354.5 375.7,354.5 370.7,363.2 365.7,371.8 375.7,371.8 385.7,371.8 380.7,363.2 		"/>
		<polygon class="st1" points="395.8,354.5 395.8,354.5 390.7,363.2 385.7,371.8 395.8,371.8 405.8,371.8 400.8,363.2 		"/>
		<polygon class="st1" points="415.8,354.5 415.8,354.5 410.8,363.2 405.8,371.8 415.8,371.8 425.8,371.8 420.8,363.2 		"/>
		<polygon class="st1" points="435.8,354.5 435.8,354.5 430.8,363.2 425.8,371.8 435.8,371.8 445.8,371.8 440.8,363.2 		"/>
		<polygon class="st1" points="455.9,354.5 455.9,354.5 450.9,363.2 445.8,371.8 455.9,371.8 465.9,371.8 460.9,363.2 		"/>
		<polygon class="st1" points="480.9,363.2 475.9,354.5 470.9,363.2 465.9,371.8 475.9,371.8 482.5,371.8 482.5,365.9 		"/>
		<polygon class="st1" points="315.6,354.5 325.4,354.5 335.5,354.5 330.5,345.8 325.4,337.1 325.4,337.1 320.4,345.8 315.4,354.5 
			315.6,354.5 315.6,354.5 		"/>
		<polygon class="st1" points="315.6,354.5 315.6,354.5 315.6,354.5 		"/>
		<polygon class="st1" points="335.6,354.5 345.5,354.5 355.5,354.5 350.5,345.8 345.5,337.1 345.5,337.1 340.5,345.8 335.5,354.5 
			335.6,354.5 335.6,354.5 		"/>
		<polygon class="st1" points="335.6,354.5 335.6,354.5 335.6,354.5 		"/>
		<polygon class="st1" points="355.7,354.5 365.5,354.5 375.5,354.5 370.5,345.8 365.5,337.1 365.5,337.1 360.5,345.8 355.5,354.5 
			355.7,354.5 355.7,354.5 		"/>
		<polygon class="st1" points="355.7,354.5 355.7,354.5 355.7,354.5 		"/>
		<polygon class="st1" points="375.7,354.5 385.6,354.5 395.6,354.5 390.6,345.8 385.6,337.1 385.6,337.1 380.5,345.8 375.5,354.5 
			375.7,354.5 375.7,354.5 		"/>
		<polygon class="st1" points="375.7,354.5 375.7,354.5 375.7,354.5 		"/>
		<polygon class="st1" points="395.8,354.5 405.6,354.5 415.6,354.5 410.6,345.8 405.6,337.1 405.6,337.1 400.6,345.8 395.6,354.5 
			395.8,354.5 395.8,354.5 		"/>
		<polygon class="st1" points="395.8,354.5 395.8,354.5 395.8,354.5 		"/>
		<polygon class="st1" points="415.8,354.5 425.6,354.5 435.7,354.5 430.6,345.8 425.6,337.1 425.6,337.1 420.6,345.8 415.6,354.5 
			415.8,354.5 415.8,354.5 		"/>
		<polygon class="st1" points="415.8,354.5 415.8,354.5 415.8,354.5 		"/>
		<polygon class="st1" points="435.8,354.5 445.7,354.5 455.7,354.5 450.7,345.8 445.7,337.1 445.7,337.1 440.7,345.8 435.7,354.5 
			435.8,354.5 435.8,354.5 		"/>
		<polygon class="st1" points="435.8,354.5 435.8,354.5 435.8,354.5 		"/>
		<polygon class="st1" points="455.9,354.5 465.7,354.5 475.7,354.5 470.7,345.8 465.7,337.1 460.7,345.8 455.7,354.5 455.9,354.5 
			455.9,354.5 		"/>
		<polygon class="st1" points="455.9,354.5 455.9,354.5 455.9,354.5 		"/>
		<polygon class="st1" points="325.4,337.1 335.3,337.1 345.3,337.1 340.3,328.5 335.3,319.8 335.3,319.8 330.3,328.5 325.3,337.1 
			325.4,337.1 325.4,337.1 		"/>
		<polygon class="st1" points="325.4,337.1 325.4,337.1 325.4,337.1 		"/>
		<polygon class="st1" points="345.5,337.1 355.3,337.1 365.3,337.1 360.3,328.5 355.3,319.8 355.3,319.8 350.3,328.5 345.3,337.1 
			345.5,337.1 345.5,337.1 		"/>
		<polygon class="st1" points="345.5,337.1 345.5,337.1 345.5,337.1 		"/>
		<polygon class="st1" points="365.5,337.1 375.4,337.1 385.4,337.1 380.4,328.5 375.4,319.8 375.4,319.8 370.3,328.5 365.3,337.1 
			365.5,337.1 365.5,337.1 		"/>
		<polygon class="st1" points="365.5,337.1 365.5,337.1 365.5,337.1 		"/>
		<polygon class="st1" points="385.6,337.1 395.4,337.1 405.4,337.1 400.4,328.5 395.4,319.8 395.4,319.8 390.4,328.5 385.4,337.1 
			385.6,337.1 385.6,337.1 		"/>
		<polygon class="st1" points="385.6,337.1 385.6,337.1 385.6,337.1 		"/>
		<polygon class="st1" points="405.6,337.1 415.4,337.1 425.5,337.1 420.4,328.5 415.4,319.8 415.4,319.8 410.4,328.5 405.4,337.1 
			405.6,337.1 405.6,337.1 		"/>
		<polygon class="st1" points="405.6,337.1 405.6,337.1 405.6,337.1 		"/>
		<polygon class="st1" points="425.6,337.1 435.5,337.1 445.5,337.1 440.5,328.5 435.5,319.8 435.5,319.8 430.5,328.5 425.5,337.1 
			425.6,337.1 425.6,337.1 		"/>
		<polygon class="st1" points="425.6,337.1 425.6,337.1 425.6,337.1 		"/>
		<polygon class="st1" points="445.7,337.1 455.5,337.1 465.5,337.1 460.5,328.5 455.5,319.8 450.5,328.5 445.5,337.1 445.7,337.1 
			445.7,337.1 		"/>
		<polygon class="st1" points="445.7,337.1 445.7,337.1 445.7,337.1 		"/>
		<polygon class="st1" points="335.3,319.8 345.1,319.8 355.1,319.8 350.1,311.1 345.1,302.4 345.1,302.4 340.1,311.1 335.1,319.8 
			335.3,319.8 335.3,319.8 		"/>
		<polygon class="st1" points="335.3,319.8 335.3,319.8 335.3,319.8 		"/>
		<polygon class="st1" points="355.3,319.8 365.2,319.8 375.2,319.8 370.2,311.1 365.2,302.4 365.2,302.4 360.1,311.1 355.1,319.8 
			355.3,319.8 355.3,319.8 		"/>
		<polygon class="st1" points="355.3,319.8 355.3,319.8 355.3,319.8 		"/>
		<polygon class="st1" points="375.4,319.8 385.2,319.8 395.2,319.8 390.2,311.1 385.2,302.4 385.2,302.4 380.2,311.1 375.2,319.8 
			375.4,319.8 375.4,319.8 		"/>
		<polygon class="st1" points="375.4,319.8 375.4,319.8 375.4,319.8 		"/>
		<polygon class="st1" points="395.4,319.8 405.2,319.8 415.2,319.8 410.2,311.1 405.2,302.4 405.2,302.4 400.2,311.1 395.2,319.8 
			395.4,319.8 395.4,319.8 		"/>
		<polygon class="st1" points="395.4,319.8 395.4,319.8 395.4,319.8 		"/>
		<polygon class="st1" points="415.4,319.8 425.3,319.8 435.3,319.8 430.3,311.1 425.3,302.4 425.3,302.4 420.3,311.1 415.2,319.8 
			415.4,319.8 415.4,319.8 		"/>
		<polygon class="st1" points="415.4,319.8 415.4,319.8 415.4,319.8 		"/>
		<polygon class="st1" points="435.5,319.8 445.3,319.8 455.3,319.8 450.3,311.1 445.3,302.4 440.3,311.1 435.3,319.8 435.5,319.8 
			435.5,319.8 		"/>
		<polygon class="st1" points="435.5,319.8 435.5,319.8 435.5,319.8 		"/>
		<polygon class="st1" points="345.1,302.4 355,302.4 365,302.4 360,293.8 355,285.1 355,285.1 349.9,293.8 344.9,302.4 
			345.1,302.4 345.1,302.4 		"/>
		<polygon class="st1" points="345.1,302.4 345.1,302.4 345.1,302.4 		"/>
		<polygon class="st1" points="365.2,302.4 375,302.4 385,302.4 380,293.8 375,285.1 375,285.1 370,293.8 365,302.4 365.2,302.4 
			365.2,302.4 		"/>
		<polygon class="st1" points="365.2,302.4 365.2,302.4 365.2,302.4 		"/>
		<polygon class="st1" points="385.2,302.4 395,302.4 405.1,302.4 400,293.8 395,285.1 395,285.1 390,293.8 385,302.4 385.2,302.4 
			385.2,302.4 		"/>
		<polygon class="st1" points="385.2,302.4 385.2,302.4 385.2,302.4 		"/>
		<polygon class="st1" points="405.2,302.4 415.1,302.4 425.1,302.4 420.1,293.8 415.1,285.1 415.1,285.1 410.1,293.8 405.1,302.4 
			405.2,302.4 405.2,302.4 		"/>
		<polygon class="st1" points="405.2,302.4 405.2,302.4 405.2,302.4 		"/>
		<polygon class="st1" points="425.3,302.4 435.1,302.4 445.1,302.4 440.1,293.8 435.1,285.1 430.1,293.8 425.1,302.4 425.3,302.4 
			425.3,302.4 		"/>
		<polygon class="st1" points="425.3,302.4 425.3,302.4 425.3,302.4 		"/>
		<polygon class="st1" points="355,285.1 364.8,285.1 374.8,285.1 369.8,276.4 364.8,267.7 364.8,267.7 359.8,276.4 354.8,285.1 
			355,285.1 355,285.1 		"/>
		<polygon class="st1" points="355,285.1 355,285.1 355,285.1 		"/>
		<polygon class="st1" points="375,285.1 384.8,285.1 394.8,285.1 389.8,276.4 384.8,267.7 384.8,267.7 379.8,276.4 374.8,285.1 
			375,285.1 375,285.1 		"/>
		<polygon class="st1" points="375,285.1 375,285.1 375,285.1 		"/>
		<polygon class="st1" points="395,285.1 404.9,285.1 414.9,285.1 409.9,276.4 404.9,267.7 404.9,267.7 399.9,276.4 394.8,285.1 
			395,285.1 395,285.1 		"/>
		<polygon class="st1" points="395,285.1 395,285.1 395,285.1 		"/>
		<polygon class="st1" points="415.1,285.1 424.9,285.1 434.9,285.1 429.9,276.4 424.9,267.7 419.9,276.4 414.9,285.1 415.1,285.1 
			415.1,285.1 		"/>
		<polygon class="st1" points="415.1,285.1 415.1,285.1 415.1,285.1 		"/>
		<polygon class="st1" points="364.8,267.7 374.6,267.7 384.7,267.7 379.6,259.1 374.6,250.4 374.6,250.4 369.6,259.1 364.6,267.7 
			364.8,267.7 364.8,267.7 		"/>
		<polygon class="st1" points="364.8,267.7 364.8,267.7 364.8,267.7 		"/>
		<polygon class="st1" points="384.8,267.7 394.7,267.7 404.7,267.7 399.7,259.1 394.7,250.4 394.7,250.4 389.7,259.1 384.7,267.7 
			384.8,267.7 384.8,267.7 		"/>
		<polygon class="st1" points="384.8,267.7 384.8,267.7 384.8,267.7 		"/>
		<polygon class="st1" points="404.9,267.7 414.7,267.7 424.7,267.7 419.7,259.1 414.7,250.4 409.7,259.1 404.7,267.7 404.9,267.7 
			404.9,267.7 		"/>
		<polygon class="st1" points="404.9,267.7 404.9,267.7 404.9,267.7 		"/>
		<polygon class="st1" points="374.6,250.4 384.5,250.4 394.5,250.4 389.5,241.7 384.5,233 384.5,233 379.5,241.7 374.4,250.4 
			374.6,250.4 374.6,250.4 		"/>
		<polygon class="st1" points="374.6,250.4 374.6,250.4 374.6,250.4 		"/>
		<polygon class="st1" points="394.7,250.4 404.5,250.4 414.5,250.4 409.5,241.7 404.5,233 399.5,241.7 394.5,250.4 394.7,250.4 
			394.7,250.4 		"/>
		<polygon class="st1" points="394.7,250.4 394.7,250.4 394.7,250.4 		"/>
		<polygon class="st1" points="384.5,233 394.3,233 404.3,233 399.3,224.3 394.3,215.7 389.3,224.3 384.3,233 384.5,233 384.5,233 
					"/>
		<polygon class="st1" points="384.5,233 384.5,233 384.5,233 		"/>
	</g>
	<g id="Yeti_1_">
		<ellipse class="st3" cx="309" cy="379.9" rx="72.3" ry="8.1"/>
		<g>
			<defs>
				<path id="SVGID_1_" d="M255.2,156.9c0.1,0.3,0.3,0.9,0.5,1.5c0.1,0.3,0.2,0.7,0.4,1l0.2,0.5l0.3,0.6c0.8,1.6,1.6,3.1,2.6,4.6
					c2,3.1,4.2,6.1,6.5,9c2.3,2.9,4.8,5.8,7.3,8.4c1.3,1.3,2.6,2.6,3.8,3.7l0.9,0.8c0.3,0.2,0.6,0.5,0.9,0.7
					c0.3,0.2,0.5,0.4,0.8,0.6l0,0c0.4,0.2,0.8,0.3,1.3,0.5c7.8,2.7,12,11.3,9.2,19.2c-2.7,7.8-11.3,12-19.2,9.2
					c-3-1.1-5.6-3-7.4-5.7l-3.1-4.5l-0.7-1l-0.2-0.3l-0.1-0.2l-0.3-0.5c-0.4-0.6-0.7-1.2-1-1.7s-0.6-1.1-0.8-1.6l-0.7-1.6
					c-0.9-2.1-1.7-4.1-2.5-6.2c-1.5-4-2.7-8.1-3.8-12.2c-1.1-4.1-2-8.3-2.7-12.6c-0.3-2.2-0.5-4.5-0.6-6.7v-0.9c0-0.3,0-0.6,0-0.9
					c0-0.6,0.1-1.2,0.1-1.9c0.1-1.4,0.5-2.8,1.1-4.2c0.7-1.6,2.6-2.4,4.3-1.7c0.7,0.3,1.2,0.8,1.6,1.5L255.2,156.9z"/>
			</defs>
			<clipPath id="SVGID_2_">
				<use xlink:href="#SVGID_1_"  style="overflow:visible;"/>
			</clipPath>
			<g class="st4">
				<path class="st5" d="M255.2,156.9c0.1,0.3,0.3,0.9,0.5,1.5c0.1,0.3,0.2,0.7,0.4,1l0.2,0.5l0.3,0.6c0.8,1.6,1.6,3.1,2.6,4.6
					c2,3.1,4.2,6.1,6.5,9c2.3,2.9,4.8,5.8,7.3,8.4c1.3,1.3,2.6,2.6,3.8,3.7l0.9,0.8c0.3,0.2,0.6,0.5,0.9,0.7
					c0.3,0.2,0.5,0.4,0.8,0.6l0,0c0.4,0.2,0.8,0.3,1.3,0.5c7.8,2.7,12,11.3,9.2,19.2c-2.7,7.8-11.3,12-19.2,9.2
					c-3-1.1-5.6-3-7.4-5.7l-3.1-4.5l-0.7-1l-0.2-0.3l-0.1-0.2l-0.3-0.5c-0.4-0.6-0.7-1.2-1-1.7s-0.6-1.1-0.8-1.6l-0.7-1.6
					c-0.9-2.1-1.7-4.1-2.5-6.2c-1.5-4-2.7-8.1-3.8-12.2c-1.1-4.1-2-8.3-2.7-12.6c-0.3-2.2-0.5-4.5-0.6-6.7v-0.9c0-0.3,0-0.6,0-0.9
					c0-0.6,0.1-1.2,0.1-1.9c0.1-1.4,0.5-2.8,1.1-4.2c0.7-1.6,2.6-2.4,4.3-1.7c0.7,0.3,1.2,0.8,1.6,1.5L255.2,156.9z"/>
				<path class="st6" d="M261.9,163c-1.1,1.5-17.9,3-17.9,3"/>
				<path class="st6" d="M270.9,171.6c-1.6,1.5-17.4,8-26.3,6.9"/>
				<path class="st6" d="M279.7,180.7c0.2,3.6-27,11.8-32.2,12.1"/>
			</g>
		</g>
		<path class="st7" d="M275.7,219.8c-1.3,0-2.7-0.2-4-0.5c-4-1-7.5-3.4-9.8-6.8l-4.2-6.1l-0.3-0.5c-0.3-0.5-0.6-1-0.8-1.4l-0.2-0.4
			c-0.3-0.5-0.5-1-0.8-1.5l-0.1-0.2l-0.7-1.6c-0.9-2-1.7-4-2.5-6.3c-1.5-4.1-2.8-8.2-3.9-12.4c-1.1-4.2-2.1-8.4-2.7-12.7
			c-0.4-2.3-0.6-4.6-0.6-6.9v-0.9c0-0.3,0-0.5,0-0.7v-0.3c0-0.6,0.1-1.3,0.1-2v-0.1c0.2-1.6,0.6-3.2,1.2-4.6c1.1-2.5,4-3.7,6.6-2.7
			c1.1,0.5,1.9,1.3,2.4,2.3l1.3,2.5c0.1,0.3,0.2,0.6,0.3,0.9c0.1,0.2,0.1,0.5,0.2,0.7l0.1,0.2c0.1,0.2,0.2,0.4,0.3,0.7l0.5,1.1
			c0.7,1.5,1.6,3,2.5,4.4c2,3.1,4.1,6,6.4,8.9c2.3,2.9,4.7,5.7,7.3,8.3c1.4,1.4,2.6,2.6,3.7,3.6l1.1,0.9c0.2,0.2,0.4,0.3,0.6,0.5
			l0.2,0.2c0.1,0.1,0.2,0.2,0.3,0.2c0.3,0.1,0.7,0.3,1.1,0.4c8.7,3.1,13.4,12.6,10.3,21.4c0,0.1-0.1,0.2-0.1,0.3
			C289,215.4,282.7,219.7,275.7,219.8z M260.8,204.8l0.8,1.2l3.1,4.5c4.2,6,12.5,7.6,18.5,3.4c6-4.2,7.6-12.5,3.4-18.5
			c-1.6-2.3-3.9-4-6.5-5c-0.4-0.1-0.9-0.3-1.4-0.5l-0.1,0c-0.3-0.2-0.6-0.3-0.8-0.5l-0.3-0.2c-0.2-0.2-0.5-0.4-0.7-0.6l-0.3-0.2
			l-0.9-0.8c-1.2-1.1-2.5-2.4-3.9-3.8c-2.6-2.7-5.1-5.6-7.5-8.5c-2.4-2.9-4.6-6-6.6-9.2c-1-1.5-1.9-3.1-2.7-4.8l-0.5-1.2
			c-0.1-0.3-0.2-0.6-0.3-0.9l-0.1-0.2c-0.1-0.3-0.2-0.6-0.3-0.9c-0.1-0.2-0.1-0.3-0.1-0.4l-1.2-2.5c-0.2-0.3-0.4-0.6-0.7-0.7
			c-0.8-0.3-1.7,0.1-2,0.8c-0.5,1.2-0.8,2.4-0.9,3.6c-0.1,0.6-0.1,1.2-0.1,1.7v0.3c0,0.2,0,0.4,0,0.6v0.9c0.1,2.2,0.3,4.3,0.6,6.5
			c0.6,4.2,1.5,8.3,2.6,12.4c1.1,4.1,2.3,8,3.8,12.1c0.8,2.3,1.6,4.2,2.4,6.1l0.8,1.7c0.2,0.5,0.5,0.9,0.7,1.4l0.2,0.4
			c0.2,0.4,0.4,0.8,0.7,1.3L260.8,204.8z"/>
		<g>
			<defs>
				<path id="SVGID_3_" d="M359.6,155.3c-0.1,0.3-0.3,0.9-0.5,1.5c-0.1,0.3-0.2,0.7-0.4,1l-0.2,0.5l-0.3,0.6
					c-0.8,1.6-1.6,3.1-2.6,4.6c-2,3.1-4.2,6.1-6.5,9c-2.3,2.9-4.8,5.8-7.3,8.4c-1.3,1.3-2.6,2.6-3.8,3.7l-0.9,0.8
					c-0.3,0.2-0.6,0.5-0.9,0.7c-0.3,0.2-0.5,0.4-0.8,0.6l0,0c-0.4,0.2-0.8,0.3-1.3,0.5c-7.8,2.7-12,11.3-9.2,19.2
					c2.7,7.8,11.3,12,19.2,9.2c3-1.1,5.6-3,7.4-5.7l3.1-4.5l0.7-1l0.2-0.3l0.1-0.2l0.3-0.5c0.4-0.6,0.7-1.2,1-1.7
					c0.3-0.6,0.6-1.1,0.8-1.6l0.7-1.6c0.9-2.1,1.7-4.1,2.5-6.2c1.5-4,2.7-8.1,3.8-12.2c1.1-4.1,2-8.3,2.7-12.6
					c0.4-2.2,0.6-4.5,0.6-6.8v-0.9c0-0.3,0-0.6,0-0.9c0-0.6-0.1-1.2-0.1-1.9c-0.1-1.4-0.5-2.8-1.1-4.2c-0.7-1.6-2.6-2.4-4.3-1.7
					c-0.7,0.3-1.2,0.8-1.6,1.5L359.6,155.3z"/>
			</defs>
			<clipPath id="SVGID_4_">
				<use xlink:href="#SVGID_3_"  style="overflow:visible;"/>
			</clipPath>
			<g class="st8">
				<path class="st5" d="M359.6,155.3c-0.1,0.3-0.3,0.9-0.5,1.5c-0.1,0.3-0.2,0.7-0.4,1l-0.2,0.5l-0.3,0.6c-0.8,1.6-1.6,3.1-2.6,4.6
					c-2,3.1-4.2,6.1-6.5,9c-2.3,2.9-4.8,5.8-7.3,8.4c-1.3,1.3-2.6,2.6-3.8,3.7l-0.9,0.8c-0.3,0.2-0.6,0.5-0.9,0.7
					c-0.3,0.2-0.5,0.4-0.8,0.6l0,0c-0.4,0.2-0.8,0.3-1.3,0.5c-7.8,2.7-12,11.3-9.2,19.2c2.7,7.8,11.3,12,19.2,9.2
					c3-1.1,5.6-3,7.4-5.7l3.1-4.5l0.7-1l0.2-0.3l0.1-0.2l0.3-0.5c0.4-0.6,0.7-1.2,1-1.7c0.3-0.6,0.6-1.1,0.8-1.6l0.7-1.6
					c0.9-2.1,1.7-4.1,2.5-6.2c1.5-4,2.7-8.1,3.8-12.2c1.1-4.1,2-8.3,2.7-12.6c0.4-2.2,0.6-4.5,0.6-6.8v-0.9c0-0.3,0-0.6,0-0.9
					c0-0.6-0.1-1.2-0.1-1.9c-0.1-1.4-0.5-2.8-1.1-4.2c-0.7-1.6-2.6-2.4-4.3-1.7c-0.7,0.3-1.2,0.8-1.6,1.5L359.6,155.3z"/>
				<path class="st6" d="M352.9,161.4c1.1,1.5,17.9,3,17.9,3"/>
				<path class="st6" d="M343.9,170c1.6,1.5,17.4,8,26.3,6.9"/>
				<path class="st6" d="M335.1,179.1c-0.2,3.6,27,11.8,32.2,12.1"/>
			</g>
		</g>
		<path class="st7" d="M323.3,207.3c-3.2-8.7,1.2-18.3,9.9-21.6c0.1,0,0.2-0.1,0.3-0.1c0.4-0.1,0.7-0.3,1.1-0.4
			c0.1,0,0.2-0.2,0.3-0.2l0.2-0.2c0.2-0.2,0.4-0.3,0.6-0.5l1.1-0.9c1.2-1,2.4-2.2,3.7-3.6c2.5-2.6,5-5.4,7.3-8.3
			c2.3-2.8,4.4-5.8,6.4-8.9c0.9-1.4,1.7-2.9,2.5-4.4l0.5-1.1c0.1-0.2,0.2-0.5,0.3-0.7l0.1-0.2c0.1-0.3,0.2-0.5,0.2-0.7
			c0.1-0.3,0.2-0.6,0.3-0.9l1.3-2.5c0.5-1,1.4-1.8,2.4-2.3c2.5-1,5.4,0.1,6.6,2.6c0.6,1.5,1,3,1.2,4.6v0.1c0.1,0.7,0.1,1.4,0.1,2
			v0.3c0,0.2,0,0.5,0,0.7v0.9c-0.1,2.3-0.3,4.6-0.6,6.9c-0.7,4.3-1.6,8.5-2.7,12.7c-1.1,4.2-2.4,8.2-3.9,12.4
			c-0.9,2.3-1.6,4.3-2.5,6.3l-0.7,1.6l-0.1,0.2c-0.2,0.5-0.5,1-0.8,1.5l-0.2,0.4c-0.2,0.5-0.5,0.9-0.8,1.4l-0.3,0.5l-4.2,6.1
			c-2.3,3.4-5.8,5.8-9.7,6.8c-1.3,0.3-2.6,0.5-4,0.5C332.1,218.2,325.8,213.8,323.3,207.3z M354.4,202.5c0.3-0.4,0.5-0.9,0.7-1.3
			l0.2-0.4c0.3-0.5,0.5-0.9,0.7-1.4l0.8-1.7c0.8-1.9,1.6-3.8,2.4-6.1c1.5-4,2.7-8,3.8-12.1c1.1-4.1,2-8.2,2.7-12.3
			c0.3-2.1,0.5-4.3,0.6-6.5v-0.9c0-0.2,0-0.4,0-0.6v-0.3c0-0.5-0.1-1.1-0.1-1.7c-0.1-1.3-0.4-2.5-0.9-3.6c-0.3-0.8-1.2-1.1-2-0.9
			c-0.3,0.1-0.6,0.4-0.7,0.7l-1.2,2.5c0,0.1-0.1,0.3-0.1,0.4c-0.1,0.3-0.2,0.6-0.3,0.9l-0.1,0.2c-0.1,0.3-0.2,0.6-0.3,0.9l-0.5,1.2
			c-0.8,1.6-1.7,3.2-2.7,4.8c-2,3.2-4.2,6.2-6.6,9.2c-2.3,2.9-4.9,5.8-7.5,8.5c-1.4,1.5-2.7,2.7-3.9,3.8l-0.9,0.8L338,187
			c-0.2,0.2-0.5,0.4-0.7,0.6l-0.3,0.2c-0.3,0.2-0.5,0.4-0.8,0.5l-0.1,0c-0.5,0.2-0.9,0.4-1.4,0.5c-6.9,2.4-10.6,10-8.2,16.9
			c0,0.1,0.1,0.2,0.1,0.3c2.6,6.9,10.2,10.4,17.1,7.8c2.6-1,4.8-2.7,6.3-5l3.1-4.5l0.8-1.2L354.4,202.5z"/>
		<path id="Lichaam-2_1_" class="st9" d="M392.8,288.9c0-38.3-9.1-110.5-83.9-110.5s-83.9,72.2-83.9,110.5
			c0,24.6,15.5,42.7,38.8,52.4c0.4,12.2,4.4,38.6,17.3,38.6c7.4,0,13.7-17.7,16.2-30.8c3.8,0.3,7.6,0.5,11.6,0.5
			c2.9,0,5.7-0.1,8.5-0.3c1.6,13.1,6.2,30.6,16.7,30.6c8.8,0,16-24.9,17.2-37.5C376.2,332.9,392.8,314.4,392.8,288.9z"/>
		<g>
			<defs>
				<path id="SVGID_5_" d="M392.8,288.9c0-38.3-9.1-110.5-83.9-110.5s-83.9,72.2-83.9,110.5c0,24.6,15.5,42.7,38.8,52.4
					c0.4,12.2,4.4,38.6,17.3,38.6c7.4,0,13.7-17.7,16.2-30.8c3.8,0.3,7.6,0.5,11.6,0.5c2.9,0,5.7-0.1,8.5-0.3
					c1.6,13.1,6.2,30.6,16.7,30.6c8.8,0,16-24.9,17.2-37.5C376.2,332.9,392.8,314.4,392.8,288.9z"/>
			</defs>
			<clipPath id="SVGID_6_">
				<use xlink:href="#SVGID_5_"  style="overflow:visible;"/>
			</clipPath>
			<g class="st10">
				<path class="st11" d="M293.4,361.8c0,2.4-2,4.3-4.3,4.4c-2,0-3.8-1.5-4.2-3.5c-0.5,2.3-2.7,3.8-5.1,3.4
					c-1.8-0.4-3.2-1.9-3.4-3.7c-0.3,2.4-2.5,4-4.8,3.7c-2.2-0.3-3.8-2.1-3.8-4.3h-7.4V386h37.5v-24.2H293.4z"/>
				<path class="st11" d="M346.3,362c0,2.4-2,4.3-4.3,4.4c-2,0-3.8-1.5-4.2-3.5c-0.5,2.3-2.7,3.8-5.1,3.4c-1.8-0.4-3.2-1.9-3.4-3.7
					c-0.3,2.4-2.5,4-4.8,3.7c-2.2-0.3-3.8-2.1-3.8-4.3h-7.4v24.2h37.5V362H346.3z"/>
				<g id="Lichaam-3_1_">
					<path class="st7" d="M309,181.8c16.8,0,31.2,3.8,42.8,11.3c9.9,6.4,18.1,15.8,24.1,27.7c6.2,12.1,13.5,33.8,13.5,68.1
						c0,11.6-3.6,21.8-10.7,30.6c-6.7,8.3-16.6,15.1-28.6,19.7l-2,0.8l-0.2,2.1c-0.9,7.7-2.7,15.3-5.5,22.6
						c-3.7,9.4-6.9,11.8-8.2,11.8c-3.2,0-6-2.8-8.5-8.3c-2.1-4.8-3.8-11.6-4.7-19.2l-0.4-3.2l-3.3,0.2c-2.7,0.2-5.5,0.2-8.3,0.2
						c-3.8,0-7.6-0.2-11.3-0.5l-3.1-0.3l-0.6,3.1c-1.3,7-3.6,14.3-6,19.5c-3.1,6.7-5.7,8.5-6.8,8.5c-2.7,0-6.7-2.1-10-12.4
						c-2.5-7.6-3.6-16.8-3.8-22.9l-0.1-2.2l-2-0.9c-11.4-4.8-20.4-11.4-26.7-19.6c-6.6-8.6-9.9-18.5-9.9-29.7
						c0-34.3,7.4-55.9,13.5-68.1c6.1-11.9,14.2-21.2,24.1-27.7C277.8,185.6,292.2,181.8,309,181.8 M309,178.4
						c-74.7,0-83.9,72.2-83.9,110.5c0,24.6,15.5,42.7,38.8,52.4c0.4,12.2,4.4,38.6,17.3,38.6c7.4,0,13.7-17.7,16.2-30.8
						c3.8,0.3,7.6,0.5,11.6,0.5c2.9,0,5.7-0.1,8.5-0.3c1.6,13.1,6.2,30.6,16.7,30.6c8.8,0,16-24.9,17.2-37.5
						c24.9-9.5,41.5-28,41.5-53.5C392.9,250.6,383.7,178.4,309,178.4L309,178.4z"/>
				</g>
			</g>
		</g>
		<path class="st11" d="M369.7,238.5c0,16.5-27.2,29.9-60.7,29.9s-60.7-13.4-60.7-29.9s27.2-33.7,60.7-33.7S369.7,222,369.7,238.5z"
			/>
		<path class="st12" d="M277.2,229.6c3.5,0,6.4,3.9,6.4,8.7h2.3c0-6.1-3.9-11-8.7-11c-4.8,0-8.7,4.9-8.7,11h2.3
			C270.8,233.5,273.7,229.6,277.2,229.6z"/>
		<path class="st12" d="M340.8,229.6c3.5,0,6.4,3.9,6.4,8.7h2.3c0-6.1-3.9-11-8.7-11s-8.7,4.9-8.7,11h2.3
			C334.4,233.5,337.3,229.6,340.8,229.6z"/>
		<path class="st7" d="M309,253.5c-6.4,0-11.6-5.4-11.6-12.1c0-0.6,0.5-1.2,1.2-1.2h20.8c0.6,0,1.2,0.5,1.2,1.2
			C320.5,248.1,315.3,253.5,309,253.5z"/>
		<path class="st7" d="M319.4,241.4L319.4,241.4 M319.4,241.4c0,6.1-4.7,11-10.4,11s-10.4-4.9-10.4-11H319.4 M319.4,239.1h-20.8
			c-1.3,0-2.3,1-2.3,2.3c0,7.3,5.7,13.3,12.7,13.3c7,0,12.7-5.9,12.7-13.2c0,0,0-0.1,0-0.1C321.7,240.1,320.7,239.1,319.4,239.1z
			 M319.4,243.7L319.4,243.7z"/>
		<path class="st13" d="M309,252.4c3.1,0,6-1.5,8-3.9c-3.4-4.4-9.7-5.2-14.1-1.8c-0.7,0.5-1.3,1.1-1.8,1.8
			C302.9,250.9,305.9,252.3,309,252.4z"/>
		<ellipse class="st13" cx="268.5" cy="248.5" rx="8.1" ry="4"/>
		<ellipse class="st13" cx="349.5" cy="248.5" rx="8.1" ry="4"/>
		<path class="st14" d="M295,197.7c-8.5,6-19.4,19.7-19,21.8c0.1,0.3,15.6,2.4,27.9-7.3c-3.4,5.6-5.7,11.4-5.3,14.5
			s12.8-4.6,17.9-10.6c0,0-5.4,9.8-3.7,15.2c1.7,5.3,20.8-14.6,21.9-24.9"/>
		<path class="st9" d="M296.2,193c-8.5,6-19.4,19.7-19,21.8c0.4,2.1,19.8-0.9,27.9-7.3c-3.4,5.6-5.7,11.4-5.3,14.5
			s12.8-4.6,17.9-10.6c0,0-5.4,9.8-3.7,15.2c1.7,5.3,18.6-18.3,23.8-28.6"/>
		<path class="st15" d="M292.7,195.8c-8.5,6-16,17-15.5,19.1c0.4,2.1,19.8-0.9,27.9-7.3c-3.4,5.6-5.7,11.4-5.3,14.5
			s12.8-4.6,17.9-10.6c0,0-5.4,9.8-3.7,15.2c1.7,5.3,19.1-13.3,21.6-24.6"/>
		<ellipse class="st16" cx="309" cy="304.9" rx="32.4" ry="23.1"/>
		<line class="st17" x1="305.8" y1="324" x2="312.1" y2="317.7"/>
		<line class="st17" x1="312.1" y1="324" x2="305.8" y2="317.7"/>
		<path class="st18" d="M257,279.8c0.1,0.5,0.3,1.2,0.5,1.8c0.2,0.6,0.5,1.3,0.7,1.9c0.5,1.3,1.1,2.6,1.7,3.8c1.2,2.5,2.6,4.8,4.2,7
			c1.5,2,3.2,3.9,5.2,5.4c1.6,1.3,3.4,2.2,5.4,2.7c4.5,0.9,7.4,5.3,6.5,9.8c-0.9,4.5-5.3,7.4-9.8,6.5c-0.8-0.2-1.6-0.5-2.3-0.9
			l-0.9-0.5c-3.6-2-6.7-4.7-9.1-8c-2.2-2.9-3.9-6-5.3-9.3c-1.3-3.1-2.3-6.3-3-9.6c-0.4-1.6-0.7-3.2-0.9-4.9c0-0.9,0.1-1.6,0.1-2.5
			s0.4-1,0.4-2c0-2.1,1.7-3.8,3.9-3.8c0,0,0,0,0,0c1.8,0,2.4,0.5,2.8,2.1L257,279.8z"/>
		<path class="st19" d="M257.6,277c0.2,0.6,0.5,1.3,0.7,1.9c0.5,1.3,1.1,2.6,1.7,3.8c1.2,2.5,2.6,4.8,4.2,7c1.5,2,3.2,3.9,5.2,5.4
			c1.6,1.3,3.4,2.2,5.4,2.7c4.5,0.9,7.4,5.3,6.5,9.8c-0.9,4.5-5.3,7.4-9.8,6.5c-0.8-0.2-1.6-0.5-2.3-0.9l-0.9-0.5
			c-3.6-2-6.7-4.7-9.1-8c-2.2-2.9-3.9-6-5.3-9.3c-1.3-3.1-2.3-6.3-3-9.6c-0.4-1.6-0.7-3.2-0.9-4.9c-0.1-0.8-0.2-1.7-0.3-2.5
			c-0.1-0.9-0.1-1.7-0.1-2.7"/>
		<path class="st18" d="M361,279c-0.1,0.5-0.3,1.2-0.5,1.8s-0.5,1.3-0.7,1.9c-0.5,1.3-1.1,2.6-1.7,3.8c-1.2,2.5-2.6,4.8-4.2,7
			c-1.5,2-3.2,3.9-5.2,5.4c-1.6,1.3-3.4,2.2-5.4,2.7c-4.5,0.9-7.4,5.4-6.4,9.9c0.9,4.5,5.4,7.4,9.9,6.4c0.8-0.2,1.6-0.5,2.3-0.8
			l0.9-0.5c3.6-2,6.7-4.7,9.1-8c2.2-2.9,3.9-6,5.3-9.3c1.3-3.1,2.3-6.3,3-9.6c0.4-1.6,0.7-3.2,0.9-4.9c0-0.9-0.1-1.6-0.1-2.5
			c0-0.8-0.4-1-0.4-2c0-2.1-1.7-3.8-3.9-3.8c0,0,0,0,0,0c-1.8,0-2.4,0.5-2.8,2.1L361,279z"/>
		<path class="st19" d="M360.4,276.2c-0.2,0.6-0.5,1.3-0.7,1.9c-0.5,1.3-1.1,2.6-1.7,3.8c-1.2,2.5-2.6,4.8-4.2,7
			c-1.5,2-3.2,3.9-5.2,5.4c-1.6,1.3-3.4,2.2-5.4,2.7c-4.5,0.9-7.4,5.4-6.4,9.9c0.9,4.5,5.4,7.4,9.9,6.4c0.8-0.2,1.6-0.5,2.3-0.8
			l0.9-0.5c3.6-2,6.7-4.7,9.1-8c2.2-2.9,3.9-6,5.3-9.3c1.3-3.1,2.3-6.3,3-9.6c0.4-1.6,0.7-3.2,0.9-4.9c0.1-0.8,0.2-1.7,0.3-2.5
			c0.1-0.9,0.1-1.7,0.1-2.7"/>
	</g>
</g>
</svg>
