<?xml version="1.0" encoding="utf-8"?>
<!-- Generator: Adobe Illustrator 21.1.0, SVG Export Plug-In . SVG Version: 6.00 Build 0)  -->
<svg version="1.1" id="Laag_1" xmlns="http://www.w3.org/2000/svg" xmlns:xlink="http://www.w3.org/1999/xlink" x="0px" y="0px"
	 viewBox="0 0 146.8 146.2" style="enable-background:new 0 0 146.8 146.2;" xml:space="preserve">
<style type="text/css">
	.st0{fill:#6D28B3;}
	.st1{fill:#511B96;}
	.st2{fill:#CCCDCF;}
	.st3{fill:#FDFDFD;}
</style>
<g id="Insta">
	<path class="st0" d="M72.5,145.4c-41.3,0-71.9-32-72.4-74.3C-0.3,32.6,31.5,0.9,58.6,0.8c58.3-0.2,88.1,25.5,88,70.5
		c-13.7-3.6-17.7-19.8-31.2-23.6c-3.6-9-10.6-14.2-19-18.1c-14.9-5.1-29.8-4.8-44.7-0.1c-10.2,3.8-17.2,10.8-21,21
		c-4.7,14.9-4.9,29.7,0.1,44.6c4.6,9.8,11.4,16.9,22.2,19.7c-6.5,5.6,1.1,7.3,3.1,10.1C61.1,132,70.5,135.7,72.5,145.4z"/>
	<path class="st1" d="M115.4,47.7c13.5,3.8,17.5,20.1,31.2,23.6c1.6,41.6-32.3,75.6-74.1,74.1c-2-9.7-11.4-13.4-16.4-20.5
		c-2-2.8-9.6-4.5-3.1-10.1c6.3-0.2,12.7-0.3,19-0.5c28.3,3.5,43-4.5,44.3-25.2C117.1,75.3,115.8,61.5,115.4,47.7z"/>
	<path class="st2" d="M115.4,47.7c0.4,13.8,1.7,27.6,0.9,41.3c-1.2,20.7-16,28.7-44.3,25.2c0.1-2.6,0.3-5.2,0.4-7.7
		c5.7-2.6,11.7-1.1,17.6-1.3c7.1-0.3,13.6-2.9,15-9.9c2.9-14.7,2.5-29.8,0.3-44.4c-1.1-7.4-8.2-11.9-16.7-12.2
		c-5.4-0.1-10.9-0.4-16.3-0.6c0-2.7,0.1-5.3,0.1-8c8-0.2,15.9-0.3,23.9-0.5C104.8,33.5,111.8,38.7,115.4,47.7z"/>
	<path class="st3" d="M72.4,106.5c-0.1,2.6-0.3,5.2-0.4,7.7c-6.3,0.2-12.7,0.3-19,0.5c-10.8-2.8-17.7-9.9-22.2-19.7
		c0-14.9-0.1-29.7-0.1-44.6c3.8-10.2,10.8-17.2,21-21c6.9,0.2,13.8,0.4,20.7,0.6c0,2.7-0.1,5.3-0.1,8c-31.7,1.5-32.6,2.4-32.6,34.2
		c0,3.9,0.3,7.9,0,11.8c-0.9,11.5,4,18.8,15,22.1c1.2,0.1,2.4,0.2,3.6,0.3C62.9,106.5,67.7,106.5,72.4,106.5z"/>
	<path class="st1" d="M30.7,50.5c0,14.9,0.1,29.7,0.1,44.6C25.7,80.2,26,65.3,30.7,50.5z"/>
	<path class="st1" d="M72.4,30.1c-6.9-0.2-13.8-0.4-20.7-0.6c14.9-4.7,29.8-4.9,44.7,0.1C88.4,29.8,80.4,29.9,72.4,30.1z"/>
	<path class="st1" d="M54.6,106.1c-11-3.3-15.9-10.6-15-22.1c0.3-3.9,0-7.9,0-11.8c0-31.8,0.9-32.7,32.6-34.2
		c5.4,0.2,10.9,0.5,16.3,0.6c8.4,0.2,15.5,4.8,16.7,12.2c2.2,14.6,2.5,29.8-0.3,44.4c-1.4,7-7.8,9.6-15,9.9
		c-5.9,0.3-11.9-1.3-17.6,1.3c-4.7,0-9.5,0-14.2-0.1C57,106.3,55.8,106.2,54.6,106.1z M75.2,50.9c-13-1-20.7,6-23,17.7
		c-2.2,11.2,2.4,20.1,14.2,23.7c1.2,3.6,2.9,6.2,7.4,5.5c10-1.6,22.4-15,22-25.1C95.3,59.8,89.1,51.5,75.2,50.9z"/>
	<path class="st2" d="M54.6,106.1c1.2,0.1,2.4,0.2,3.6,0.3C57,106.3,55.8,106.2,54.6,106.1z"/>
	<path class="st2" d="M75.2,50.9c13.9,0.6,20.1,8.9,20.6,21.8c0.4,10-12.1,23.4-22,25.1c-4.5,0.7-6.2-1.9-7.4-5.5
		c3.8-0.5,6.5-2,6.3-6.4c7.4-1.6,12.3-6.6,12.1-13.6c-0.1-6.9-4.3-12.7-12.5-13.3C73.3,56.2,74.2,53.6,75.2,50.9z"/>
	<path class="st3" d="M72.6,85.8c0.3,4.5-2.5,6-6.3,6.4c-11.9-3.6-16.4-12.5-14.2-23.7c2.3-11.7,10-18.7,23-17.7
		c-0.9,2.7-1.9,5.3-2.8,8c-6.8,1.6-11.5,5.4-11.9,12.8C60,80.1,66,83.3,72.6,85.8z"/>
	<path class="st1" d="M72.6,85.8C66,83.3,60,80.1,60.4,71.6c0.4-7.4,5.1-11.2,11.9-12.8c8.2,0.6,12.3,6.3,12.5,13.3
		C84.9,79.2,80,84.2,72.6,85.8z"/>
</g>
</svg>
