<?xml version="1.0" encoding="utf-8"?>
<!-- Generator: Adobe Illustrator 21.1.0, SVG Export Plug-In . SVG Version: 6.00 Build 0)  -->
<svg version="1.1" id="Laag_1" xmlns="http://www.w3.org/2000/svg" xmlns:xlink="http://www.w3.org/1999/xlink" x="0px" y="0px"
	 viewBox="0 0 146.8 146.2" style="enable-background:new 0 0 146.8 146.2;" xml:space="preserve">
<style type="text/css">
	.st0{fill:#66A2D8;}
	.st1{fill:#4477B1;}
	.st2{fill:#FDFDFD;}
	.st3{fill:#CCCDCF;}
</style>
<g id="Twitter">
	<path class="st0" d="M77.8,146.7c-40.3,3-75.7-28.4-77.6-68.9c-2-42.1,30.4-77.2,72.2-78.4c39.8-1.1,74,31.8,74,71.2
		c-11.5-6-16.4-20.3-29.8-23.9c-3.7-10.8-13.7-2.5-20.3-6.5c-8.5-5.2-16.7-1.8-21.7,7.4C71.4,62.3,62.6,59.6,53.2,54
		c-3.8-2.2-7.3-5-10.7-7.7c-6.6-5.3-8.8-1.7-8.9,4.6c-0.1,12.6,1.4,25.5,9.2,35.5c6,7.6,8.1,10.4-3.7,12c-11.5,1.6-0.3,4.9,0,7.5
		c1.1,1.1,2.1,2.1,3.2,3.2l0-0.6C51.7,123.6,66.3,133.7,77.8,146.7z"/>
	<path class="st1" d="M77.8,146.7c-11.6-12.9-26.1-23.1-35.6-38c11.2-1.1,23.1,2.8,33.7-4c18.3-5.2,26.8-19.3,30.5-36.1
		c1.9-8.4,4.6-15.7,10.2-21.9c13.4,3.6,18.2,17.9,29.8,23.9c1.9,38.3-22,68.5-59.4,75c-1,0.3-2.1,0.6-3.1,0.8
		C82,146.5,79.9,146.6,77.8,146.7z"/>
	<path class="st0" d="M84.1,146.4c1-0.3,2.1-0.6,3.1-0.8C86.1,145.9,85.1,146.1,84.1,146.4z"/>
	<path class="st2" d="M75.9,104.7c-10.6,6.8-22.4,2.9-33.7,4c0,0,0,0.6,0,0.6c0.8-3-1.6-2.7-3.2-3.2c-0.3-2.6-11.5-5.9,0-7.5
		c11.8-1.6,9.7-4.4,3.7-12c-7.8-10-9.3-22.9-9.2-35.5c0-6.3,2.2-10,8.9-4.6c3.4,2.8,7,5.5,10.7,7.7c9.4,5.6,18.2,8.2,21.6-6.6
		C75.4,66.5,73.3,85.6,75.9,104.7z"/>
	<path class="st3" d="M75.9,104.7c-2.6-19-0.5-38.1-1.2-57.2c5-9.2,13.2-12.6,21.7-7.4c6.6,4,16.5-4.3,20.3,6.5
		c-5.7,6.3-8.3,13.5-10.2,21.9C102.7,85.3,94.2,99.5,75.9,104.7z"/>
	<path class="st1" d="M39.1,106c1.6,0.5,4.1,0.2,3.2,3.2C41.2,108.1,40.1,107.1,39.1,106z"/>
</g>
</svg>
